<svg xmlns="http://www.w3.org/2000/svg" xmlns:xlink="http://www.w3.org/1999/xlink" width="700" zoomAndPan="magnify" viewBox="0 0 525 374.999991" height="500" preserveAspectRatio="xMidYMid meet" version="1.0"><defs><g/></defs><path stroke-linecap="butt" transform="matrix(1.959454, -0.0577925, 0.0577925, 1.959454, -9.28343, 160.424536)" fill="none" stroke-linejoin="miter" d="M 84.228657 72.306653 C 84.229727 67.133447 84.661081 62.038719 85.526585 57.02657 C 86.404099 52.012781 87.508015 47.23094 88.836285 42.68298 C 90.180547 38.133498 91.583943 34.012377 93.046648 30.313643 C 94.082782 27.694788 95.334571 24.928791 96.79604 22.015475 C 98.273443 19.102629 99.948024 16.33116 101.823884 13.697201 C 103.712106 11.049652 105.746396 8.856951 107.928922 7.113182 C 109.457385 5.916287 111.133637 4.913137 112.955743 4.101682 C 114.77627 3.276226 116.558683 2.864302 118.30105 2.86386 C 119.604809 2.864436 120.854296 3.150481 122.051504 3.722054 C 123.262655 4.294038 124.326266 5.20456 125.244272 6.45567 C 126.493107 8.250806 127.184478 9.953745 127.318441 11.562496 C 127.464355 13.1716 127.537784 15.007823 127.536794 17.069115 C 127.537289 18.87727 127.265942 20.912646 126.718828 23.173133 C 126.174116 25.419735 125.449608 27.746757 124.545302 30.154198 C 123.653359 32.548049 122.730257 34.849278 121.772013 37.057768 C 120.81582 39.264324 119.929832 41.185882 119.120026 42.822617 C 118.853596 43.47462 118.607449 43.9797 118.381583 44.337856 C 118.16802 44.684414 117.650246 44.936277 116.826208 45.095379 C 116.12103 44.604104 115.780934 44.171443 115.807854 43.799445 C 115.835185 43.413504 116.041444 42.841461 116.426629 42.083315 C 116.639626 41.485554 116.851096 40.939581 117.064964 40.447504 C 117.290782 39.955779 117.509397 39.437926 117.722859 38.892011 C 119.358916 35.128616 120.868148 31.271771 122.250557 27.321476 C 123.646909 23.371592 124.346203 19.195815 124.346449 14.794085 C 124.346678 12.015096 123.77455 9.986739 122.630066 8.709014 C 121.485935 7.419339 120.069575 6.775515 118.381045 6.775552 C 115.49444 6.774142 112.635779 8.190964 109.80313 11.023967 C 107.463436 13.36515 105.295463 16.237693 103.299211 19.641594 C 101.318893 23.045966 99.536623 26.697398 97.954451 30.593956 C 96.370287 34.490455 95.007802 38.373557 93.865003 42.243203 C 92.720212 46.112791 91.823603 49.678706 91.171309 52.936848 C 90.413127 56.540736 89.760601 60.482655 89.215605 64.766647 C 88.671078 69.034705 88.477404 73.303144 88.638565 77.57208 C 88.811265 81.855311 89.575502 85.819081 90.931333 89.461398 C 91.637359 91.748877 92.794379 93.750627 94.402392 95.466647 C 96.012397 97.182727 98.120191 98.040317 100.725775 98.039418 C 103.080097 98.041077 105.368799 97.428783 107.589829 96.20447 C 109.822811 94.980509 111.75913 93.743812 113.394804 92.49426 L 116.186356 90.040811 C 116.731157 89.548527 117.217779 89.136262 117.642238 88.803898 C 118.08228 88.483956 118.573473 88.05189 119.119801 87.507819 C 122.112223 84.462232 124.805485 81.150656 127.197596 77.57303 C 129.605288 74.007825 131.853764 70.298377 133.94115 66.440642 C 136.042831 62.571368 138.077196 58.753933 140.046178 54.99039 C 140.524173 54.05955 140.995523 53.421564 141.462222 53.076492 C 141.927339 52.717418 142.353309 52.536608 142.738022 52.537987 C 143.110842 52.537022 143.403745 52.677235 143.616787 52.956633 C 143.842191 53.222442 143.955937 53.488944 143.956091 53.754089 L 131.787389 75.995951 C 131.028004 77.139775 130.277526 78.251964 129.53209 79.328419 C 128.800184 80.419228 128.030435 81.50892 127.218799 82.599371 C 126.075255 84.128578 124.518151 85.958574 122.549597 88.085434 C 120.594985 90.212704 118.40048 92.295022 115.968133 94.330454 C 113.547385 96.37819 111.027603 98.066161 108.406737 99.3963 C 105.799813 100.72685 103.212511 101.392137 100.646822 101.392218 C 97.933622 101.391936 95.60683 100.727241 93.664512 99.396081 C 91.736078 98.067325 90.153142 96.312173 88.917695 94.130685 C 87.694198 91.94955 86.741957 89.561112 86.064837 86.969474 C 85.385432 84.387736 84.913057 81.816091 84.647889 79.248564 C 84.368366 76.694569 84.229247 74.381946 84.228657 72.306653 Z M 141.82449 66.681129 C 141.278264 66.680967 140.953334 66.342449 140.845773 65.663466 C 140.740557 64.972592 140.714138 64.246164 140.766397 63.488166 C 140.820649 62.730227 140.846287 62.266489 140.845423 62.093025 C 140.79231 61.122598 140.779679 60.131436 140.805539 59.11948 C 140.833332 58.109575 140.819708 57.084493 140.766541 56.048278 C 140.765987 55.661514 140.779169 54.944229 140.806145 53.894428 C 140.833532 52.830686 140.912771 51.698698 141.045735 50.502509 C 141.193053 49.292787 141.399115 48.25425 141.663804 47.39088 C 141.942906 46.511986 142.296724 46.073875 142.721331 46.074437 C 143.81179 46.074703 144.371401 46.432103 144.398056 47.150564 C 144.42313 47.855023 144.383862 48.780862 144.278377 49.924036 C 144.225152 50.309213 144.198638 50.735049 144.196842 51.201484 C 144.197508 51.652044 144.198291 52.09862 144.197318 52.53717 C 144.197155 53.083396 144.170647 53.441451 144.117674 53.61532 C 144.06517 53.773255 144.038779 54.127327 144.038676 54.67156 C 144.635728 54.232649 145.180941 53.726422 145.674254 53.154871 C 146.165576 52.583261 147.037193 52.297977 148.287173 52.296967 C 148.671886 52.298346 149.178627 52.285382 149.803414 52.257958 C 150.428201 52.230534 151.092413 52.218228 151.798159 52.217115 C 152.994243 52.218502 154.11264 52.285378 155.149368 52.417626 C 156.186095 52.549874 156.70634 52.890166 156.706237 53.434399 C 156.706075 53.980625 156.420396 54.33901 155.84715 54.511489 C 155.276248 54.672076 154.57817 54.751164 153.752856 54.750744 C 153.208623 54.750641 152.648807 54.738116 152.077452 54.711297 C 151.506097 54.684478 151.006095 54.671724 150.581487 54.671162 C 149.052419 54.671915 148.027391 54.751327 147.508335 54.911449 C 146.99127 55.071631 146.404689 55.69625 145.754565 56.785483 C 145.368915 57.491783 144.995505 58.256257 144.636266 59.080955 C 144.291381 59.892122 144.037644 60.789705 143.879038 61.773823 C 143.704755 62.478384 143.633165 63.215876 143.658234 63.988115 C 143.699706 64.74489 143.619044 65.384431 143.420347 65.902872 C 143.233601 66.421665 142.701649 66.681084 141.82449 66.681129 Z M 158.093801 65.125575 C 158.905894 64.898341 159.636949 64.174318 160.289075 62.949583 C 160.953094 61.727192 161.418942 60.329505 161.684509 58.760447 C 161.964431 57.177858 162.031276 55.722552 161.885105 54.392536 C 161.751295 53.04893 161.331802 52.13149 160.626623 51.640216 C 160.453521 52.23716 160.149113 53.095372 159.709475 54.212742 C 159.283779 55.330524 158.864753 56.560141 158.452337 57.903585 C 158.054275 59.233497 157.780586 60.537174 157.635313 61.812742 C 157.501932 63.090655 157.654801 64.193604 158.093801 65.125575 Z M 154.005132 62.35158 C 154.004371 61.633883 154.150973 60.583624 154.442946 59.200745 C 154.749272 57.804333 155.174179 56.307756 155.719657 54.71107 C 156.265488 53.102433 156.876572 51.57945 157.554844 50.14417 C 158.233586 48.692957 158.964445 47.50244 159.749413 46.57268 C 160.548382 45.641339 161.359498 45.176845 162.182879 45.175214 C 162.729104 45.175376 163.108582 45.421806 163.321314 45.914504 C 163.534046 46.407202 163.585682 46.819395 163.480206 47.151199 C 163.372685 47.417155 163.167271 47.690192 162.862032 47.96826 C 162.569097 48.234728 162.317049 48.534299 162.103898 48.866915 C 162.210546 49.238865 162.475306 49.657343 162.90216 50.122467 C 163.340965 50.587943 163.77923 51.206905 164.218946 51.979413 C 164.657141 52.735928 164.943702 53.767066 165.076694 55.070777 C 165.209687 56.374488 165.055414 58.090363 164.617919 60.216528 C 164.018033 63.049598 163.068115 65.178592 161.764239 66.6014 C 160.460775 68.010266 159.184023 68.716199 157.934102 68.715218 C 156.897422 68.716538 155.980178 68.183126 155.182252 67.118963 C 154.396276 66.055154 154.004547 64.466709 154.005132 62.35158 Z M 168.384156 55.808254 C 168.383241 54.825412 168.584449 53.681074 168.981748 52.377055 C 169.39498 51.073506 169.966912 49.796567 170.697482 48.548229 C 171.442466 47.284369 172.320707 46.23376 173.332207 45.396403 C 174.342126 44.545045 175.445157 44.119064 176.643291 44.118518 C 178.385658 44.118076 179.256517 45.210305 179.255986 47.391223 C 179.25628 48.800664 178.90455 49.505971 178.198863 49.505093 C 177.373549 49.504674 176.881981 48.80041 176.722225 47.390252 C 175.791936 48.042612 174.899805 49.158598 174.049698 50.742311 C 173.2116 52.324386 172.653461 54.012401 172.373229 55.80829 C 172.10694 57.60459 172.301715 59.179251 172.951461 60.536081 C 173.23131 61.254035 173.630091 61.859872 174.149855 62.351658 C 174.66798 62.831434 175.412488 63.070689 176.38338 63.069422 C 178.299152 63.070107 180.054978 62.54576 181.650916 61.49439 C 183.259217 60.42943 184.728402 59.147058 186.058588 57.643291 C 187.402658 56.141926 188.565232 54.710963 189.550178 53.354503 C 190.148258 52.54283 190.694458 52.138303 191.184854 52.138812 C 191.557674 52.137847 191.823097 52.331074 191.983171 52.716562 C 192.155608 53.088459 192.110169 53.547627 191.842869 54.093947 C 191.723397 54.359551 191.537138 54.65907 191.286143 54.990569 C 191.045458 55.31041 190.819363 55.608754 190.607798 55.88759 C 189.463737 57.299164 188.152534 58.767607 186.678057 60.297022 C 185.213539 61.826731 183.612366 63.123152 181.868505 64.1881 C 180.126695 65.251116 178.272976 65.782543 176.303367 65.782264 C 174.455316 65.783576 172.946382 65.304479 171.774513 64.346907 C 170.604636 63.389393 169.748025 62.152055 169.202627 60.636827 C 168.657641 59.107656 168.384192 57.496784 168.384156 55.808254 Z M 187.657215 60.21825 L 188.156925 50.980968 C 188.21046 50.382491 188.263537 49.664388 188.316155 48.82666 C 188.369184 47.974989 188.422436 47.250911 188.475972 46.652434 C 188.59424 43.926765 188.940803 41.233746 189.513669 38.573317 C 190.084895 35.900879 190.697243 33.253576 191.348665 30.633342 C 191.7197 29.543851 192.014021 28.82489 192.225591 28.478273 C 192.451457 28.120117 192.757801 27.939766 193.142514 27.941145 C 193.304026 27.939928 193.48903 27.953359 193.701566 27.979563 C 193.928044 28.006178 194.17403 28.047323 194.439639 28.099015 C 194.719326 29.363195 194.665425 30.852773 194.279926 32.567809 C 193.908371 34.283257 193.60906 35.847332 193.382111 37.256052 C 192.784668 41.020177 192.291704 45.162169 191.907146 49.684138 C 191.534539 54.206459 191.347833 58.508993 191.34902 62.591799 L 191.587342 71.747185 L 192.245237 70.191692 C 193.003301 68.011189 193.641535 66.17602 194.15994 64.686187 C 194.678755 63.182412 195.278882 61.692995 195.956337 60.217821 C 196.63385 58.740655 197.546014 56.945462 198.688844 54.832126 C 199.287181 53.741365 199.872674 52.815689 200.445207 52.059082 C 201.016218 51.286481 201.906707 50.902076 203.118783 50.901942 C 203.716854 50.90164 204.134513 51.340576 204.373751 52.218809 C 204.6134 53.0831 204.760834 54.032386 204.813941 55.070594 C 204.879058 56.107162 204.912329 56.871669 204.913753 57.364116 C 204.912866 58.881174 204.952596 60.170173 205.032826 61.235096 C 205.113114 62.298027 205.42498 63.349847 205.970534 64.386631 C 207.220771 64.106533 208.277142 63.302396 209.141699 61.972288 C 210.020197 60.642591 210.811862 59.485765 211.516694 58.501809 C 211.901163 57.903125 212.253704 57.305493 212.574377 56.706921 C 212.907 56.108702 213.238454 55.482538 213.570672 54.830481 C 214.063015 53.95389 214.455451 53.355441 214.747981 53.035135 C 215.054806 52.703289 215.366714 52.537057 215.685697 52.536498 C 215.859102 52.537625 216.158573 52.590316 216.58405 52.696561 C 216.862003 53.681594 216.808803 54.47146 216.424334 55.070144 C 216.051816 55.66918 215.646248 56.374893 215.207689 57.18529 C 214.821687 57.903541 214.302217 58.821197 213.651271 59.938316 C 212.998333 61.055376 212.260453 62.146008 211.435637 63.210154 C 210.625176 64.260768 209.75345 65.158067 208.82245 65.902108 C 207.905746 66.634609 206.95404 66.999267 205.971198 67.000182 C 204.175051 66.999038 203.004408 65.391607 202.459444 62.171915 C 202.29912 61.254144 202.18604 60.018801 202.120321 58.461901 C 202.066553 56.905354 202.040536 55.556953 202.040396 54.412657 C 201.667377 54.690719 201.210146 55.32314 200.664776 56.307812 C 200.119819 57.278541 199.573151 58.374813 199.0287 59.598737 C 198.482257 60.822603 197.978699 62.011849 197.511933 63.170284 C 197.04763 64.312843 196.681006 65.185168 196.414171 65.783334 C 195.764291 67.472631 195.232221 69.155434 194.820012 70.829812 C 194.407333 72.520124 193.955235 74.127538 193.463542 75.65803 C 193.196449 76.535284 192.884919 77.094254 192.525026 77.332832 C 192.178664 77.585764 191.620711 77.712842 190.849236 77.712017 C 190.251165 77.71232 189.758117 77.193412 189.374016 76.157403 C 188.999934 75.119697 188.687326 73.822649 188.436193 72.266262 C 188.197011 70.710226 188.023211 69.1003 187.916728 67.438534 C 187.809833 65.79071 187.744167 64.299599 187.717563 62.971116 C 187.677486 61.626288 187.656706 60.708646 187.657215 60.21825 Z M 216.82545 52.217257 C 217.864226 51.671762 219.006709 50.921997 220.257002 49.964097 C 221.521237 49.006608 222.206455 47.876545 222.312715 46.571916 C 221.607839 46.678713 220.855078 47.057213 220.058358 47.709524 C 219.273588 48.362188 218.593968 49.099689 218.023422 49.924135 C 217.451295 50.73458 217.051932 51.500282 216.82545 52.217257 Z M 213.155492 54.172329 C 213.155604 52.816725 213.601656 51.346687 214.4916 49.764148 C 215.397477 48.182079 216.513824 46.831487 217.842572 45.714424 C 219.187255 44.597831 220.509513 44.038768 221.813271 44.039344 C 223.609476 44.038496 224.546157 44.723991 224.625366 46.093896 C 224.718928 47.45027 224.141298 48.920414 222.890544 50.502279 C 222.225865 51.20633 221.240846 52.024532 219.937479 52.956945 C 218.634583 53.873423 217.357554 54.385975 216.108445 54.492668 C 216.10849 55.369827 216.135374 56.148101 216.187164 56.825439 C 216.240887 57.504827 216.619215 58.195783 217.324083 58.900357 C 218.030532 59.618932 218.926994 59.978294 220.017452 59.978559 C 221.440837 59.978676 222.9113 59.531636 224.426733 58.641362 C 225.956519 57.737556 227.126947 56.986622 227.938074 56.386568 C 228.269265 56.107272 228.528922 55.887667 228.714993 55.729685 C 228.915478 55.556179 229.148419 55.363696 229.413874 55.150242 C 230.557715 54.286886 231.276284 53.648217 231.567533 53.236171 C 231.874775 52.822602 232.133967 52.551151 232.347219 52.417893 C 232.572422 52.284987 233.090709 52.218538 233.90208 52.218547 C 234.022008 52.816159 234.067845 53.222199 234.041641 53.434735 C 234.015437 53.647271 233.808437 53.974087 233.422692 54.41325 C 232.438773 55.396949 231.195731 56.514546 229.693626 57.764051 C 228.203471 59.013907 226.600383 60.104937 224.88641 61.035207 C 223.170445 61.965418 221.468169 62.431537 219.777647 62.431515 C 218.900488 62.43156 218.069504 62.285445 217.284695 61.99317 C 216.500298 61.686952 215.749895 61.174408 215.031437 60.457472 C 214.059337 59.485856 213.500833 58.482581 213.356044 57.443663 C 213.221155 56.407031 213.155632 55.316625 213.155492 54.172329 Z M 207.843574 30.553681 C 207.844453 29.847993 208.502339 29.103871 209.819285 28.319381 C 211.122699 27.520538 212.772335 26.743867 214.766319 25.985326 C 216.748705 25.214482 218.84339 24.488815 221.050316 23.810316 C 223.245232 23.133456 225.272008 22.547327 227.13451 22.05603 C 228.98307 21.564322 230.373797 21.184703 231.304639 20.919107 C 232.448787 20.586041 233.245939 20.392257 233.698026 20.339804 C 234.164114 20.28577 234.462256 20.113152 234.596434 19.822065 C 234.741042 19.515338 234.894814 18.897889 235.053884 17.965616 C 235.49256 15.731835 235.998372 14.195779 236.571322 13.357449 C 237.142632 12.507109 237.701429 12.081024 238.245663 12.081128 C 238.684213 12.082101 239.05016 12.314177 239.343445 12.779348 C 239.648682 13.244872 239.801654 13.803588 239.802362 14.455496 C 239.801794 14.947884 239.769791 15.154268 239.702427 15.07254 C 239.648948 14.993215 239.649636 15.172653 239.702441 15.61279 C 239.703311 15.718473 239.71531 15.852394 239.742538 16.010687 C 239.781658 16.171324 239.80314 16.389254 239.802823 16.670333 C 239.802004 17.374029 239.662021 17.726744 239.382933 17.726487 C 239.117787 17.726641 238.845492 17.766454 238.566045 17.845928 C 238.29855 17.925754 238.166817 18.404306 238.166803 19.283457 C 238.818711 19.282749 239.537119 19.190306 240.320092 19.004077 C 241.119412 18.804376 241.816908 18.677426 242.416506 18.625337 C 244.809764 18.185578 247.203603 17.793681 249.596092 17.447596 C 251.990983 17.087626 254.444325 16.908799 256.958168 16.909182 C 258.261986 16.907767 259.212819 17.181016 259.810728 17.726939 C 260.408637 18.272862 260.627809 18.817582 260.468184 19.363092 C 260.30856 19.908601 259.710467 20.180024 258.673846 20.179353 C 258.567144 19.741614 258.493464 19.536099 258.454797 19.562869 C 258.42814 19.587998 258.174128 19.54861 257.696805 19.442829 C 257.471149 19.388328 257.031312 19.363394 256.379462 19.36211 C 255.235166 19.36225 253.720323 19.489016 251.830951 19.742289 C 249.955991 19.980039 248.007799 20.267461 245.986551 20.59858 C 243.977606 20.9181 242.182195 21.229964 240.600261 21.536163 C 239.030688 21.828771 238.000085 22.029625 237.508567 22.134741 L 235.872026 38.892018 C 235.818801 39.277195 235.80664 39.689499 235.83156 40.128813 C 235.858883 40.554243 235.872029 40.987229 235.873047 41.425838 C 235.872944 41.970072 235.83261 42.323732 235.752162 42.482836 C 235.673707 42.641999 235.632433 43.027529 235.632324 43.639542 C 235.63287 44.837676 235.660056 46.214021 235.711891 47.768518 C 235.766011 49.313114 235.740311 50.522435 235.632681 51.400406 C 235.580326 51.891266 235.533731 52.862739 235.492955 54.312834 C 235.466533 55.749398 235.439272 57.417187 235.413046 59.320244 C 235.386879 61.22131 235.374067 63.142705 235.37461 65.08443 C 235.373513 67.014145 235.373603 68.768463 235.37277 70.351309 C 235.373928 71.934215 235.400021 73.077283 235.45298 73.782565 C 235.453282 74.380636 235.520109 75.291661 235.653459 76.515641 C 235.798761 77.739973 235.832003 78.843381 235.753129 79.827858 C 235.672321 80.810283 235.273039 81.302872 234.555342 81.303633 C 233.532663 81.303374 232.907633 80.730734 232.680192 79.587708 C 232.468744 78.44316 232.36057 77.379406 232.361647 76.396623 C 232.202053 74.440239 232.102065 72.152693 232.061683 69.533983 C 232.035302 66.913693 232.034639 64.300142 232.061685 61.693389 C 232.103084 59.073104 232.122663 56.787091 232.122531 54.831424 L 232.36169 50.980977 C 232.362104 50.223444 232.360736 49.053195 232.361569 47.470349 C 232.360411 45.887443 232.387907 44.211687 232.442066 42.44302 C 232.494233 40.674295 232.547852 39.059115 232.60099 37.59543 C 232.654481 36.119794 232.73295 35.081481 232.840323 34.482598 C 232.960052 33.937906 233.0331 33.286179 233.059407 32.52941 C 233.086185 31.756706 233.125548 31.098005 233.179489 30.553366 L 233.917964 22.953842 C 233.691128 23.006957 233.213318 23.120451 232.480609 23.292214 C 231.750245 23.452085 231.164231 23.584316 230.726493 23.691018 C 228.051845 24.343761 225.50543 25.04215 223.085258 25.786127 C 220.665439 26.518153 218.172146 27.375599 215.60538 28.358464 C 215.112682 28.571196 214.6672 28.805256 214.267059 29.056601 C 213.855261 29.297635 213.404038 29.523552 212.91134 29.736283 C 212.259233 30.014088 211.840878 30.207083 211.654283 30.315212 C 211.455796 30.420996 211.356018 30.559594 211.354891 30.732999 C 211.356166 30.89252 211.222159 31.245411 210.95691 31.789798 C 210.730073 31.842914 210.511556 31.884314 210.297493 31.909897 C 210.085363 31.937531 209.839783 31.950223 209.560695 31.949966 C 209.122086 31.950984 208.728125 31.857629 208.382795 31.670019 C 208.023816 31.472038 207.843471 31.097914 207.843574 30.553681 Z M 207.843574 30.553681 " stroke="#ffffff" stroke-width="1.225693" stroke-opacity="1" stroke-miterlimit="4"/><g fill="#ffffff" fill-opacity="1"><g transform="translate(161.234076, 286.792854)"><g><path d="M -1.296875 10.453125 C -1.597656 0.304688 -1.039062 -9.695312 0.375 -19.5625 C 1.800781 -29.4375 3.691406 -38.863281 6.046875 -47.84375 C 8.398438 -56.832031 10.910156 -65.003906 13.578125 -72.359375 C 15.441406 -77.535156 17.726562 -83.019531 20.4375 -88.8125 C 23.15625 -94.613281 26.28125 -100.15625 29.8125 -105.4375 C 33.34375 -110.726562 37.191406 -115.144531 41.359375 -118.6875 C 44.285156 -121.125 47.507812 -123.191406 51.03125 -124.890625 C 54.5625 -126.585938 58.035156 -127.488281 61.453125 -127.59375 C 64.015625 -127.664062 66.484375 -127.179688 68.859375 -126.140625 C 71.242188 -125.097656 73.378906 -123.375 75.265625 -120.96875 C 77.828125 -117.519531 79.289062 -114.222656 79.65625 -111.078125 C 80.019531 -107.929688 80.257812 -104.328125 80.375 -100.265625 C 80.476562 -96.742188 80.0625 -92.753906 79.125 -88.296875 C 78.1875 -83.835938 76.90625 -79.234375 75.28125 -74.484375 C 73.65625 -69.734375 71.96875 -65.171875 70.21875 -60.796875 C 68.476562 -56.429688 66.863281 -52.617188 65.375 -49.359375 C 64.863281 -48.054688 64.40625 -47.050781 64 -46.34375 C 63.59375 -45.644531 62.597656 -45.113281 61.015625 -44.75 C 59.585938 -45.675781 58.890625 -46.507812 58.921875 -47.25 C 58.960938 -48 59.332031 -49.132812 60.03125 -50.65625 C 60.425781 -51.832031 60.820312 -52.90625 61.21875 -53.875 C 61.613281 -54.851562 62.007812 -55.878906 62.40625 -56.953125 C 65.394531 -64.421875 68.132812 -72.0625 70.625 -79.875 C 73.125 -87.6875 74.25 -95.914062 74 -104.5625 C 73.832031 -110.007812 72.585938 -113.957031 70.265625 -116.40625 C 67.953125 -118.851562 65.140625 -120.023438 61.828125 -119.921875 C 56.171875 -119.753906 50.65625 -116.816406 45.28125 -111.109375 C 40.820312 -106.378906 36.742188 -100.625 33.046875 -93.84375 C 29.347656 -87.0625 26.0625 -79.804688 23.1875 -72.078125 C 20.3125 -64.347656 17.867188 -56.660156 15.859375 -49.015625 C 13.847656 -41.367188 12.296875 -34.328125 11.203125 -27.890625 C 9.910156 -20.804688 8.851562 -13.054688 8.03125 -4.640625 C 7.207031 3.773438 7.082031 12.164062 7.65625 20.53125 C 8.226562 28.894531 9.953125 36.613281 12.828125 43.6875 C 14.347656 48.132812 16.726562 51.988281 19.96875 55.25 C 23.21875 58.507812 27.40625 60.066406 32.53125 59.921875 C 37.125 59.785156 41.570312 58.453125 45.875 55.921875 C 50.1875 53.390625 53.898438 50.851562 57.015625 48.3125 L 62.328125 43.359375 C 63.367188 42.367188 64.304688 41.539062 65.140625 40.875 C 65.972656 40.207031 66.910156 39.320312 67.953125 38.21875 C 73.640625 32.0625 78.726562 25.421875 83.21875 18.296875 C 87.707031 11.171875 91.894531 3.753906 95.78125 -3.953125 C 99.664062 -11.660156 103.425781 -19.242188 107.0625 -26.703125 C 107.957031 -28.546875 108.847656 -29.828125 109.734375 -30.546875 C 110.628906 -31.265625 111.453125 -31.632812 112.203125 -31.65625 C 112.953125 -31.675781 113.546875 -31.425781 113.984375 -30.90625 C 114.429688 -30.394531 114.660156 -29.875 114.671875 -29.34375 L 92.09375 14.921875 C 90.664062 17.191406 89.265625 19.414062 87.890625 21.59375 C 86.515625 23.78125 85.0625 25.960938 83.53125 28.140625 C 81.363281 31.191406 78.421875 34.859375 74.703125 39.140625 C 70.984375 43.421875 66.804688 47.628906 62.171875 51.765625 C 57.535156 55.898438 52.695312 59.351562 47.65625 62.125 C 42.613281 64.894531 37.582031 66.351562 32.5625 66.5 C 27.21875 66.65625 22.613281 65.476562 18.75 62.96875 C 14.894531 60.46875 11.703125 57.117188 9.171875 52.921875 C 6.640625 48.722656 4.632812 44.109375 3.15625 39.078125 C 1.675781 34.046875 0.59375 29.03125 -0.09375 24.03125 C -0.78125 19.039062 -1.179688 14.515625 -1.296875 10.453125 Z M -1.296875 10.453125 "/></g></g></g><g fill="#ffffff" fill-opacity="1"><g transform="translate(270.257834, 283.577285)"><g><path d="M 2.234375 -0.703125 C 1.160156 -0.671875 0.492188 -1.316406 0.234375 -2.640625 C -0.015625 -3.972656 -0.101562 -5.390625 -0.03125 -6.890625 C 0.03125 -8.390625 0.0546875 -9.300781 0.046875 -9.625 C -0.128906 -11.539062 -0.21875 -13.484375 -0.21875 -15.453125 C -0.21875 -17.429688 -0.304688 -19.429688 -0.484375 -21.453125 C -0.503906 -22.191406 -0.515625 -23.601562 -0.515625 -25.6875 C -0.515625 -27.78125 -0.414062 -30.003906 -0.21875 -32.359375 C -0.03125 -34.710938 0.300781 -36.75 0.78125 -38.46875 C 1.269531 -40.195312 1.941406 -41.078125 2.796875 -41.109375 C 4.929688 -41.171875 6.046875 -40.507812 6.140625 -39.125 C 6.234375 -37.738281 6.207031 -35.914062 6.0625 -33.65625 C 5.976562 -32.914062 5.945312 -32.085938 5.96875 -31.171875 C 6 -30.265625 6.03125 -29.382812 6.0625 -28.53125 C 6.09375 -27.46875 6.054688 -26.769531 5.953125 -26.4375 C 5.847656 -26.113281 5.8125 -25.421875 5.84375 -24.359375 C 7 -25.253906 8.039062 -26.273438 8.96875 -27.421875 C 9.90625 -28.566406 11.597656 -29.175781 14.046875 -29.25 C 14.796875 -29.269531 15.78125 -29.320312 17 -29.40625 C 18.21875 -29.5 19.519531 -29.566406 20.90625 -29.609375 C 23.257812 -29.679688 25.453125 -29.613281 27.484375 -29.40625 C 29.523438 -29.195312 30.5625 -28.5625 30.59375 -27.5 C 30.625 -26.425781 30.082031 -25.710938 28.96875 -25.359375 C 27.863281 -25.015625 26.507812 -24.816406 24.90625 -24.765625 C 23.84375 -24.734375 22.742188 -24.726562 21.609375 -24.75 C 20.484375 -24.769531 19.492188 -24.769531 18.640625 -24.75 C 15.660156 -24.65625 13.671875 -24.429688 12.671875 -24.078125 C 11.671875 -23.722656 10.5625 -22.460938 9.34375 -20.296875 C 8.632812 -18.890625 7.957031 -17.378906 7.3125 -15.765625 C 6.664062 -14.148438 6.210938 -12.375 5.953125 -10.4375 C 5.671875 -9.039062 5.578125 -7.59375 5.671875 -6.09375 C 5.765625 -4.601562 5.640625 -3.34375 5.296875 -2.3125 C 4.960938 -1.289062 3.941406 -0.753906 2.234375 -0.703125 Z M 2.234375 -0.703125 "/></g></g></g><g fill="#ffffff" fill-opacity="1"><g transform="translate(296.353107, 282.807625)"><g><path d="M 7.90625 -3.921875 C 9.488281 -4.398438 10.882812 -5.859375 12.09375 -8.296875 C 13.300781 -10.734375 14.128906 -13.503906 14.578125 -16.609375 C 15.023438 -19.722656 15.078125 -22.582031 14.734375 -25.1875 C 14.390625 -27.789062 13.503906 -29.550781 12.078125 -30.46875 C 11.804688 -29.289062 11.273438 -27.59375 10.484375 -25.375 C 9.691406 -23.164062 8.929688 -20.742188 8.203125 -18.109375 C 7.484375 -15.472656 7.023438 -12.894531 6.828125 -10.375 C 6.640625 -7.863281 7 -5.710938 7.90625 -3.921875 Z M -0.265625 -9.125 C -0.304688 -10.519531 -0.078125 -12.582031 0.421875 -15.3125 C 0.929688 -18.039062 1.675781 -20.992188 2.65625 -24.171875 C 3.632812 -27.359375 4.75 -30.382812 6 -33.25 C 7.25 -36.125 8.617188 -38.492188 10.109375 -40.359375 C 11.597656 -42.222656 13.144531 -43.175781 14.75 -43.21875 C 15.820312 -43.25 16.582031 -42.789062 17.03125 -41.84375 C 17.488281 -40.90625 17.617188 -40.109375 17.421875 -39.453125 C 17.222656 -38.910156 16.835938 -38.363281 16.265625 -37.8125 C 15.703125 -37.257812 15.21875 -36.660156 14.8125 -36.015625 C 15.039062 -35.273438 15.59375 -34.460938 16.46875 -33.578125 C 17.34375 -32.691406 18.226562 -31.515625 19.125 -30.046875 C 20.03125 -28.578125 20.65625 -26.566406 21 -24.015625 C 21.34375 -21.460938 21.148438 -18.09375 20.421875 -13.90625 C 19.410156 -8.320312 17.664062 -4.101562 15.1875 -1.25 C 12.707031 1.601562 10.238281 3.0625 7.78125 3.125 C 5.75 3.1875 3.929688 2.195312 2.328125 0.15625 C 0.722656 -1.875 -0.140625 -4.96875 -0.265625 -9.125 Z M -0.265625 -9.125 "/></g></g></g><g fill="#ffffff" fill-opacity="1"><g transform="translate(324.529581, 281.976582)"><g><path d="M -0.640625 -21.921875 C -0.703125 -23.847656 -0.367188 -26.101562 0.359375 -28.6875 C 1.085938 -31.28125 2.132812 -33.828125 3.5 -36.328125 C 4.875 -38.828125 6.519531 -40.929688 8.4375 -42.640625 C 10.363281 -44.347656 12.5 -45.238281 14.84375 -45.3125 C 18.25 -45.40625 20.015625 -43.316406 20.140625 -39.046875 C 20.222656 -36.273438 19.570312 -34.867188 18.1875 -34.828125 C 16.59375 -34.785156 15.597656 -36.144531 15.203125 -38.90625 C 13.421875 -37.570312 11.75 -35.332031 10.1875 -32.1875 C 8.632812 -29.039062 7.640625 -25.695312 7.203125 -22.15625 C 6.773438 -18.625 7.238281 -15.546875 8.59375 -12.921875 C 9.164062 -11.546875 9.972656 -10.390625 11.015625 -9.453125 C 12.054688 -8.523438 13.539062 -8.09375 15.46875 -8.15625 C 19.1875 -8.257812 22.59375 -9.398438 25.6875 -11.578125 C 28.78125 -13.753906 31.585938 -16.347656 34.109375 -19.359375 C 36.640625 -22.367188 38.832031 -25.234375 40.6875 -27.953125 C 41.8125 -29.597656 42.851562 -30.429688 43.8125 -30.453125 C 44.5625 -30.472656 45.101562 -30.113281 45.4375 -29.375 C 45.78125 -28.632812 45.703125 -27.726562 45.203125 -26.65625 C 45.015625 -26.101562 44.6875 -25.5 44.21875 -24.84375 C 43.75 -24.1875 43.3125 -23.585938 42.90625 -23.046875 C 40.75 -20.222656 38.269531 -17.273438 35.46875 -14.203125 C 32.675781 -11.128906 29.597656 -8.5 26.234375 -6.3125 C 22.878906 -4.125 19.285156 -2.972656 15.453125 -2.859375 C 11.828125 -2.753906 8.835938 -3.601562 6.484375 -5.40625 C 4.140625 -7.207031 2.390625 -9.585938 1.234375 -12.546875 C 0.078125 -15.503906 -0.546875 -18.628906 -0.640625 -21.921875 Z M -0.640625 -21.921875 "/></g></g></g><g fill="#ffffff" fill-opacity="1"><g transform="translate(363.272233, 280.833899)"><g><path d="M -1.359375 -13.265625 L -0.921875 -31.375 C -0.859375 -32.550781 -0.796875 -33.96875 -0.734375 -35.625 C -0.671875 -37.289062 -0.601562 -38.710938 -0.53125 -39.890625 C -0.46875 -45.234375 0.0390625 -50.535156 1 -55.796875 C 1.96875 -61.054688 3.019531 -66.269531 4.15625 -71.4375 C 4.832031 -73.59375 5.375 -75.019531 5.78125 -75.71875 C 6.195312 -76.425781 6.773438 -76.789062 7.515625 -76.8125 C 7.835938 -76.820312 8.210938 -76.804688 8.640625 -76.765625 C 9.066406 -76.734375 9.546875 -76.664062 10.078125 -76.5625 C 10.691406 -74.132812 10.671875 -71.226562 10.015625 -67.84375 C 9.367188 -64.457031 8.875 -61.363281 8.53125 -58.5625 C 7.570312 -51.175781 6.847656 -43.039062 6.359375 -34.15625 C 5.878906 -25.269531 5.757812 -16.832031 6 -8.84375 L 7.015625 9.09375 L 8.203125 6.015625 C 9.566406 1.703125 10.710938 -1.9375 11.640625 -4.90625 C 12.566406 -7.875 13.65625 -10.820312 14.90625 -13.75 C 16.15625 -16.675781 17.832031 -20.242188 19.9375 -24.453125 C 21.050781 -26.617188 22.144531 -28.46875 23.21875 -30 C 24.289062 -31.53125 26.003906 -32.328125 28.359375 -32.390625 C 29.535156 -32.429688 30.390625 -31.601562 30.921875 -29.90625 C 31.453125 -28.207031 31.800781 -26.347656 31.96875 -24.328125 C 32.132812 -22.304688 32.226562 -20.816406 32.25 -19.859375 C 32.34375 -16.878906 32.5 -14.347656 32.71875 -12.265625 C 32.945312 -10.191406 33.625 -8.15625 34.75 -6.15625 C 37.1875 -6.757812 39.222656 -8.394531 40.859375 -11.0625 C 42.492188 -13.738281 43.976562 -16.050781 45.3125 -18 C 46.019531 -19.195312 46.675781 -20.390625 47.28125 -21.578125 C 47.894531 -22.765625 48.5 -24.007812 49.09375 -25.3125 C 50 -27.050781 50.734375 -28.25 51.296875 -28.90625 C 51.867188 -29.5625 52.476562 -29.898438 53.125 -29.921875 C 53.4375 -29.929688 54.019531 -29.84375 54.875 -29.65625 C 55.476562 -27.75 55.421875 -26.195312 54.703125 -25 C 53.984375 -23.800781 53.222656 -22.390625 52.421875 -20.765625 C 51.722656 -19.367188 50.765625 -17.554688 49.546875 -15.328125 C 48.328125 -13.109375 46.945312 -10.929688 45.40625 -8.796875 C 43.875 -6.671875 42.21875 -4.859375 40.4375 -3.359375 C 38.664062 -1.859375 36.820312 -1.082031 34.90625 -1.03125 C 31.375 -0.925781 28.984375 -4.007812 27.734375 -10.28125 C 27.359375 -12.082031 27.070312 -14.5 26.875 -17.53125 C 26.6875 -20.5625 26.554688 -23.203125 26.484375 -25.453125 C 25.753906 -24.890625 24.882812 -23.628906 23.875 -21.671875 C 22.863281 -19.722656 21.859375 -17.535156 20.859375 -15.109375 C 19.859375 -12.679688 18.941406 -10.332031 18.109375 -8.0625 C 17.273438 -5.800781 16.601562 -4.078125 16.09375 -2.890625 C 14.914062 0.460938 13.976562 3.804688 13.28125 7.140625 C 12.582031 10.484375 11.789062 13.660156 10.90625 16.671875 C 10.425781 18.390625 9.847656 19.5 9.171875 20 C 8.492188 20.5 7.40625 20.769531 5.90625 20.8125 C 4.738281 20.84375 3.75 19.859375 2.9375 17.859375 C 2.125 15.859375 1.429688 13.34375 0.859375 10.3125 C 0.296875 7.28125 -0.140625 4.140625 -0.453125 0.890625 C -0.765625 -2.347656 -0.984375 -5.273438 -1.109375 -7.890625 C -1.242188 -10.515625 -1.328125 -12.304688 -1.359375 -13.265625 Z M -1.359375 -13.265625 "/></g></g></g><g fill="#ffffff" fill-opacity="1"><g transform="translate(412.100796, 279.393739)"><g><path d="M 6.515625 -29.1875 C 8.503906 -30.320312 10.695312 -31.859375 13.09375 -33.796875 C 15.5 -35.742188 16.765625 -38 16.890625 -40.5625 C 15.523438 -40.300781 14.085938 -39.503906 12.578125 -38.171875 C 11.066406 -36.847656 9.773438 -35.367188 8.703125 -33.734375 C 7.628906 -32.109375 6.898438 -30.59375 6.515625 -29.1875 Z M -0.578125 -25.125 C -0.660156 -27.800781 0.128906 -30.710938 1.796875 -33.859375 C 3.472656 -37.003906 5.585938 -39.710938 8.140625 -41.984375 C 10.691406 -44.253906 13.25 -45.425781 15.8125 -45.5 C 19.320312 -45.601562 21.195312 -44.320312 21.4375 -41.65625 C 21.675781 -38.988281 20.613281 -36.070312 18.25 -32.90625 C 17.019531 -31.476562 15.148438 -29.816406 12.640625 -27.921875 C 10.128906 -26.035156 7.648438 -24.945312 5.203125 -24.65625 C 5.253906 -22.945312 5.351562 -21.425781 5.5 -20.09375 C 5.644531 -18.769531 6.429688 -17.441406 7.859375 -16.109375 C 9.285156 -14.765625 11.066406 -14.125 13.203125 -14.1875 C 15.972656 -14.269531 18.828125 -15.226562 21.765625 -17.0625 C 24.703125 -18.90625 26.957031 -20.441406 28.53125 -21.671875 C 29.144531 -22.222656 29.632812 -22.660156 30 -22.984375 C 30.363281 -23.316406 30.804688 -23.703125 31.328125 -24.140625 C 33.515625 -25.921875 34.890625 -27.21875 35.453125 -28.03125 C 36.023438 -28.851562 36.519531 -29.40625 36.9375 -29.6875 C 37.351562 -29.96875 38.363281 -30.128906 39.96875 -30.171875 C 40.226562 -29.015625 40.332031 -28.21875 40.28125 -27.78125 C 40.238281 -27.351562 39.859375 -26.703125 39.140625 -25.828125 C 37.273438 -23.847656 34.910156 -21.585938 32.046875 -19.046875 C 29.179688 -16.515625 26.09375 -14.289062 22.78125 -12.375 C 19.46875 -10.457031 16.164062 -9.453125 12.875 -9.359375 C 11.164062 -9.304688 9.523438 -9.550781 7.953125 -10.09375 C 6.390625 -10.632812 4.894531 -11.578125 3.46875 -12.921875 C 1.488281 -14.796875 0.332031 -16.738281 0 -18.75 C -0.320312 -20.757812 -0.515625 -22.882812 -0.578125 -25.125 Z M -0.578125 -25.125 "/></g></g></g><g fill="#ffffff" fill-opacity="1"><g transform="translate(446.841123, 278.3691)"><g><path d="M -47.109375 -70.078125 C -47.148438 -71.460938 -45.90625 -72.96875 -43.375 -74.59375 C -40.851562 -76.21875 -37.664062 -77.835938 -33.8125 -79.453125 C -29.96875 -81.066406 -25.90625 -82.601562 -21.625 -84.0625 C -17.34375 -85.519531 -13.398438 -86.78125 -9.796875 -87.84375 C -6.203125 -88.90625 -3.5 -89.734375 -1.6875 -90.328125 C 0.53125 -91.023438 2.085938 -91.441406 2.984375 -91.578125 C 3.890625 -91.710938 4.46875 -92.078125 4.71875 -92.671875 C 4.96875 -93.265625 5.226562 -94.476562 5.5 -96.3125 C 6.21875 -100.707031 7.113281 -103.75 8.1875 -105.4375 C 9.257812 -107.125 10.332031 -107.988281 11.40625 -108.03125 C 12.257812 -108.050781 12.992188 -107.613281 13.609375 -106.71875 C 14.222656 -105.820312 14.550781 -104.734375 14.59375 -103.453125 C 14.613281 -102.492188 14.566406 -102.09375 14.453125 -102.25 C 14.335938 -102.414062 14.347656 -102.070312 14.484375 -101.21875 C 14.492188 -101 14.53125 -100.726562 14.59375 -100.40625 C 14.65625 -100.09375 14.695312 -99.671875 14.71875 -99.140625 C 14.757812 -97.742188 14.507812 -97.035156 13.96875 -97.015625 C 13.4375 -97.003906 12.90625 -96.910156 12.375 -96.734375 C 11.851562 -96.566406 11.617188 -95.628906 11.671875 -93.921875 C 12.953125 -93.960938 14.351562 -94.191406 15.875 -94.609375 C 17.40625 -95.023438 18.757812 -95.304688 19.9375 -95.453125 C 24.613281 -96.441406 29.289062 -97.351562 33.96875 -98.1875 C 38.644531 -99.019531 43.4375 -99.507812 48.34375 -99.65625 C 50.894531 -99.726562 52.773438 -99.25 53.984375 -98.21875 C 55.191406 -97.1875 55.648438 -96.128906 55.359375 -95.046875 C 55.066406 -93.972656 53.910156 -93.40625 51.890625 -93.34375 C 51.640625 -94.1875 51.488281 -94.582031 51.4375 -94.53125 C 51.394531 -94.476562 50.894531 -94.539062 49.9375 -94.71875 C 49.507812 -94.8125 48.65625 -94.84375 47.375 -94.8125 C 45.125 -94.738281 42.164062 -94.40625 38.5 -93.8125 C 34.832031 -93.226562 31.03125 -92.554688 27.09375 -91.796875 C 23.15625 -91.046875 19.648438 -90.332031 16.578125 -89.65625 C 13.503906 -88.988281 11.492188 -88.535156 10.546875 -88.296875 L 8.3125 -55.359375 C 8.21875 -54.609375 8.210938 -53.8125 8.296875 -52.96875 C 8.378906 -52.125 8.429688 -51.273438 8.453125 -50.421875 C 8.484375 -49.347656 8.421875 -48.648438 8.265625 -48.328125 C 8.117188 -48.003906 8.066406 -47.253906 8.109375 -46.078125 C 8.171875 -43.722656 8.296875 -41.023438 8.484375 -37.984375 C 8.679688 -34.941406 8.703125 -32.566406 8.546875 -30.859375 C 8.472656 -29.898438 8.445312 -28 8.46875 -25.15625 C 8.5 -22.320312 8.539062 -19.039062 8.59375 -15.3125 C 8.65625 -11.582031 8.742188 -7.820312 8.859375 -4.03125 C 8.972656 -0.238281 9.070312 3.203125 9.15625 6.296875 C 9.25 9.398438 9.367188 11.644531 9.515625 13.03125 C 9.546875 14.207031 9.734375 15.988281 10.078125 18.375 C 10.421875 20.757812 10.539062 22.914062 10.4375 24.84375 C 10.332031 26.769531 9.585938 27.753906 8.203125 27.796875 C 6.171875 27.859375 4.90625 26.769531 4.40625 24.53125 C 3.914062 22.300781 3.644531 20.226562 3.59375 18.3125 C 3.15625 14.488281 2.832031 10.015625 2.625 4.890625 C 2.425781 -0.234375 2.273438 -5.351562 2.171875 -10.46875 C 2.078125 -15.59375 1.972656 -20.078125 1.859375 -23.921875 L 2.125 -31.46875 C 2.082031 -32.96875 2.015625 -35.265625 1.921875 -38.359375 C 1.828125 -41.453125 1.78125 -44.734375 1.78125 -48.203125 C 1.78125 -51.671875 1.789062 -54.847656 1.8125 -57.734375 C 1.84375 -60.617188 1.945312 -62.65625 2.125 -63.84375 C 2.3125 -64.90625 2.40625 -66.179688 2.40625 -67.671875 C 2.414062 -69.171875 2.457031 -70.460938 2.53125 -71.546875 L 3.546875 -86.46875 C 3.117188 -86.351562 2.1875 -86.113281 0.75 -85.75 C -0.675781 -85.394531 -1.8125 -85.097656 -2.65625 -84.859375 C -7.863281 -83.421875 -12.816406 -81.910156 -17.515625 -80.328125 C -22.210938 -78.742188 -27.046875 -76.921875 -32.015625 -74.859375 C -32.960938 -74.398438 -33.828125 -73.914062 -34.609375 -73.40625 C -35.398438 -72.90625 -36.269531 -72.425781 -37.21875 -71.96875 C -38.476562 -71.394531 -39.289062 -70.992188 -39.65625 -70.765625 C -40.03125 -70.546875 -40.210938 -70.273438 -40.203125 -69.953125 C -40.191406 -69.640625 -40.4375 -68.941406 -40.9375 -67.859375 C -41.363281 -67.734375 -41.789062 -67.640625 -42.21875 -67.578125 C -42.644531 -67.515625 -43.125 -67.472656 -43.65625 -67.453125 C -44.507812 -67.429688 -45.289062 -67.59375 -46 -67.9375 C -46.707031 -68.289062 -47.078125 -69.003906 -47.109375 -70.078125 Z M -47.109375 -70.078125 "/></g></g></g><path stroke-linecap="butt" transform="matrix(1.95129, 0, 0, 1.95129, -109.349862, 16.145955)" fill="none" stroke-linejoin="miter" d="M 120.374246 1.78695 C 120.374246 1.5207 120.58044 1.282476 120.992827 1.070277 C 121.405215 0.844064 121.717508 0.703932 121.929708 0.649882 C 122.370121 1.090295 122.814539 1.981133 123.266964 3.324395 C 123.731401 4.653644 124.157801 6.109012 124.544164 7.6925 C 124.928526 9.261974 125.254832 10.717342 125.521082 12.060604 C 125.801346 13.391855 125.967502 14.302711 126.019551 14.795174 C 126.618113 18.224397 127.176638 21.603572 127.695125 24.928697 C 128.213613 28.239808 128.473857 31.610976 128.473857 35.0422 C 128.419806 36.027126 128.447833 36.777831 128.553932 37.296319 C 128.660032 37.814806 128.712081 38.539487 128.712081 39.470362 L 128.634008 44.777349 C 128.634008 44.937499 128.646019 45.043599 128.672043 45.095648 C 128.70007 45.149698 128.686057 45.315855 128.634008 45.594116 C 128.299694 50.116366 127.941357 54.326322 127.554994 58.221983 C 127.182644 62.119645 126.672164 65.889188 126.019551 69.532611 C 125.368939 73.178037 124.510132 76.867504 123.447134 80.605016 C 122.382133 84.342528 121.00684 88.332277 119.317253 92.574264 C 118.93089 93.559189 118.372365 94.768326 117.641678 96.205676 C 116.90899 97.655038 116.078209 99.150443 115.147334 100.693894 C 114.216459 102.249355 113.273573 103.666687 112.314672 104.941886 C 111.371786 106.233099 110.49296 107.204011 109.682198 107.854623 C 108.591173 108.733449 107.440092 109.510179 106.230955 110.188816 C 105.03383 110.867454 103.784657 111.205772 102.47943 111.205772 C 100.737793 111.205772 99.088243 110.595198 97.532782 109.372049 C 95.991333 108.146897 94.806219 106.79763 93.981444 105.322243 C 92.892421 103.578605 91.981565 101.438594 91.248877 98.898206 C 90.51819 96.371832 89.931639 93.651276 89.493227 90.738539 C 89.054815 87.825802 88.736516 84.881034 88.536328 81.902235 C 88.350153 78.935447 88.23004 76.116799 88.177991 73.444287 C 88.12394 70.783787 88.097916 68.469612 88.097916 66.501763 C 88.097916 65.691001 88.137953 65.098444 88.216027 64.726095 C 88.310115 64.339731 88.356158 63.761188 88.356158 62.990464 C 88.356158 61.899438 88.336139 60.676289 88.296102 59.319013 C 88.270077 57.96374 88.290096 56.766615 88.356158 55.729641 C 88.462258 55.131078 88.530322 54.584564 88.556346 54.094104 C 88.582371 53.601641 88.596384 52.975052 88.596384 52.218341 C 88.596384 51.553716 88.648433 50.634853 88.756534 49.465754 C 88.862634 48.294654 88.954721 47.031467 89.034796 45.674191 C 89.114871 44.318918 89.154909 43.067742 89.154909 41.924668 L 88.756534 42.563268 C 88.702484 42.73543 88.676459 42.861548 88.676459 42.941624 C 88.676459 43.021699 88.622408 43.167836 88.516309 43.380035 L 81.733935 63.967382 C 81.241473 65.390719 80.682948 67.080307 80.058361 69.034143 C 79.433774 71.003994 78.761142 73.043911 78.042466 75.159899 C 77.337804 77.285897 76.659166 79.275767 76.008555 81.123503 C 75.355942 82.985253 74.757379 84.488666 74.212868 85.63174 C 73.562256 86.934964 73.069794 87.95192 72.737481 88.684609 C 72.41718 89.429308 72.052838 89.933782 71.64045 90.200033 C 71.228063 90.480296 70.561436 90.618426 69.644575 90.618426 C 69.152112 90.618426 68.767751 90.286114 68.487487 89.621489 C 68.221237 88.970878 68.023051 88.206159 67.888925 87.327333 C 67.742788 86.46252 67.656707 85.651759 67.630682 84.893046 C 67.602656 84.136335 67.590645 83.643872 67.590645 83.417659 C 67.642694 82.819097 67.656707 82.406709 67.630682 82.180497 C 67.602656 81.968297 67.616669 81.595947 67.67072 81.063447 C 67.894931 79.095598 68.023051 77.167786 68.049075 75.27801 C 68.0751 73.40425 68.221237 71.5425 68.487487 69.692762 C 68.925899 66.808051 69.278231 64.347739 69.544481 62.311826 C 69.824744 60.263901 70.137038 58.189952 70.483363 56.087977 C 70.8417 53.986002 71.320149 51.465634 71.918712 48.526872 L 73.155874 43.460111 C 73.261974 42.967648 73.368074 42.535242 73.474174 42.162892 C 73.582275 41.778531 73.688375 41.340119 73.794474 40.847656 L 80.098398 19.861935 C 80.310598 19.315422 80.470748 18.911042 80.576848 18.644792 C 80.696961 18.364528 80.863117 18.006191 81.075316 17.567779 C 81.95214 15.491829 82.59074 14.062486 82.991117 13.277748 C 83.403504 12.480999 84.014078 12.080623 84.82484 12.080623 C 85.211203 12.080623 85.677641 12.166704 86.222153 12.340868 C 86.434352 13.257729 86.528441 13.896329 86.502416 14.254666 C 86.47439 14.615005 86.382303 14.861236 86.222153 14.99336 C 86.062002 15.127486 85.843797 15.385729 85.563534 15.772092 C 85.297284 16.038342 84.918928 16.815072 84.426465 18.106286 C 83.934003 19.381484 83.429529 20.82484 82.911041 22.434353 C 82.392554 24.029852 81.914105 25.53927 81.473691 26.962608 C 81.049292 28.371932 80.74901 29.322826 80.576848 29.815289 C 80.204498 31.238626 79.826143 32.64795 79.439779 34.045264 C 79.053416 35.428563 78.649036 36.849899 78.222636 38.313274 L 75.189786 51.479647 C 74.751374 53.925946 74.365011 56.081972 74.032698 57.943721 C 73.714399 59.791457 73.42813 61.56112 73.175893 63.248706 C 72.935667 64.938294 72.677425 66.693944 72.397161 68.515656 C 72.130911 70.337368 71.838637 72.473375 71.520337 74.919674 C 71.294125 76.503162 71.153993 78.138699 71.101944 79.826284 C 71.047894 81.515872 71.021869 83.311559 71.021869 85.213347 L 71.600413 83.996203 C 72.198975 82.692978 72.835573 81.10949 73.514211 79.247741 C 74.192849 77.400004 74.857473 75.552268 75.510087 73.70253 C 76.174711 71.854793 76.719223 70.245281 77.145624 68.875994 L 88.097916 35.380518 C 88.376177 34.503694 88.688471 33.566814 89.034796 32.567875 C 89.393133 31.556925 89.951658 30.938344 90.710371 30.714133 C 90.882532 30.660082 91.076715 30.634058 91.288914 30.634058 C 92.047627 30.634058 92.560109 31.098494 92.824357 32.029369 C 93.10462 32.960244 93.244752 34.091307 93.244752 35.420556 C 93.244752 36.751807 93.204714 38.061037 93.124639 39.350249 C 93.044564 40.627449 93.004526 41.644405 93.004526 42.403117 L 92.187759 56.466333 C 92.079657 57.557358 92.053633 58.780507 92.107684 60.137783 C 92.159732 61.495058 92.187759 62.744232 92.187759 63.887306 C 92.187759 64.43382 92.159732 65.052401 92.107684 65.74305 C 92.053633 66.421688 92.027608 66.946181 92.027608 67.318531 C 92.079657 68.037206 92.09367 68.489631 92.067646 68.675806 C 92.03962 68.861981 92.013595 69.114218 91.987571 69.434519 C 91.961546 69.766831 91.973558 70.537556 92.027608 71.748694 C 92.133708 72.891768 92.173746 74.441224 92.147721 76.39506 C 92.119695 78.350898 92.187759 80.120561 92.345907 81.702047 C 92.520071 83.071334 92.632176 84.268459 92.686227 85.293422 C 92.738276 86.330396 92.818351 87.407408 92.924451 88.524458 C 93.030551 89.641508 93.250758 91.044827 93.58307 92.734414 C 93.795269 93.823438 94.101557 95.226756 94.499932 96.942368 C 94.912319 98.657981 95.458833 100.361582 96.13747 102.049167 C 96.828119 103.738755 97.706945 105.156087 98.769944 106.299161 C 99.832943 107.442235 101.124156 108.014773 102.63958 108.014773 C 104.008867 108.014773 105.346124 107.470262 106.649348 106.379236 C 107.952573 105.288211 109.175723 103.938943 110.320799 102.329431 C 111.463873 100.733931 112.468817 99.130425 113.331628 97.520912 C 114.210454 95.9114 114.895097 94.562132 115.38756 93.471106 C 117.023097 90.093933 118.426416 86.496552 119.595514 82.678965 C 120.766615 78.875391 121.743533 74.999749 122.52827 71.050037 C 123.327021 67.100326 123.945602 63.296751 124.384014 59.639314 C 125.088676 53.759789 125.481045 47.583986 125.56112 41.105898 C 125.641195 34.6158 125.248827 28.431989 124.384014 22.554466 C 123.839502 19.17529 123.266964 16.290579 122.668402 13.896329 C 122.069839 11.490068 121.525328 8.843581 121.032865 5.956869 C 120.926765 5.198156 120.786633 4.493493 120.614472 3.842882 C 120.454321 3.190269 120.374246 2.505625 120.374246 1.78695 Z M 139.656365 67.318531 C 138.56534 67.318531 137.594428 66.9662 136.743628 66.261537 C 135.906842 65.556875 135.268242 64.826189 134.827828 64.067476 C 133.856916 62.205726 133.298391 60.011664 133.152254 57.48529 C 133.020129 54.944903 133.172272 52.64274 133.612686 50.582804 C 133.718786 49.984242 133.864923 49.265566 134.051098 48.426778 C 134.249284 47.575978 134.535553 46.825273 134.907903 46.17266 C 135.294266 45.508035 135.758703 45.175723 136.305216 45.175723 C 137.55439 45.175723 138.166966 45.602124 138.140941 46.452923 C 138.112915 47.289709 137.880697 48.600942 137.442285 50.382616 C 137.015884 52.152279 136.803685 54.418408 136.803685 57.185008 C 136.803685 58.009783 136.909784 58.994709 137.121984 60.137783 C 137.336185 61.280857 137.674503 62.291807 138.140941 63.170633 C 138.605378 64.033444 139.189927 64.46585 139.896591 64.46585 C 140.773415 64.46585 141.770352 64.087494 142.887402 63.328782 C 144.004451 62.558057 145.03542 61.701252 145.980308 60.756364 C 146.937207 59.799465 147.609839 59.072782 147.994201 58.582321 C 148.1003 58.476222 148.400582 58.109877 148.893045 57.48529 C 149.385508 56.858702 149.970057 56.154039 150.648695 55.369302 C 151.325331 54.572553 151.991957 53.873897 152.642569 53.275334 C 153.295182 52.676772 153.813669 52.378491 154.19803 52.378491 C 154.584393 52.378491 154.776574 52.702796 154.776574 53.355409 C 154.776574 53.739771 154.518331 54.326322 153.999844 55.111059 C 153.481357 55.895797 152.862776 56.726577 152.1441 57.603401 C 151.439438 58.468214 150.746787 59.286983 150.070151 60.057708 C 149.391514 60.816421 148.885038 61.360932 148.552725 61.693245 C 147.902114 62.345858 147.123382 63.122588 146.218532 64.027438 C 145.327695 64.918275 144.336764 65.691001 143.24774 66.341613 C 142.156715 66.994226 140.95959 67.318531 139.656365 67.318531 Z M 137.043911 34.88205 C 137.043911 33.965188 137.28814 33.166438 137.780603 32.4878 C 138.273066 31.797151 138.817577 31.450826 139.41614 31.450826 C 140.068753 31.450826 140.613265 31.863213 141.051677 32.687988 C 141.81039 34.203412 141.904478 35.388526 141.33194 36.239325 C 140.759402 37.076112 140.062747 37.496507 139.237972 37.496507 C 138.705472 37.496507 138.207003 37.282305 137.740565 36.857907 C 137.276129 36.419495 137.043911 35.760876 137.043911 34.88205 Z M 154.354177 61.034626 C 154.354177 61.527088 154.468284 61.77332 154.694497 61.77332 C 155.066847 61.77332 155.565315 61.228808 156.189902 60.137783 C 156.828502 59.046758 157.499132 57.683477 158.203795 56.04794 C 158.910459 54.412403 159.587095 52.762853 160.239708 51.101291 C 160.890319 49.437728 161.436833 47.98236 161.875245 46.731185 C 162.313657 45.482011 162.533864 44.751324 162.533864 44.537123 C 161.602989 44.643223 160.878308 44.929492 160.359821 45.39593 C 159.853345 45.848355 159.380901 46.372848 158.942489 46.97141 C 157.519151 48.72706 156.396096 50.869073 155.571321 53.395447 C 154.760559 55.921821 154.354177 58.468214 154.354177 61.034626 Z M 163.670932 42.323042 C 163.670932 41.72448 163.763019 41.205993 163.949194 40.767581 C 164.149382 40.329169 164.329551 39.836706 164.4877 39.292194 L 166.203312 30.075533 C 166.377476 29.476971 166.583669 28.578126 166.821893 27.381001 C 167.062119 26.171865 167.400437 25.020783 167.840851 23.929758 C 168.279263 22.840735 168.823774 22.242172 169.476388 22.136072 C 169.582487 22.136072 169.662563 22.122059 169.714611 22.096035 C 169.780674 22.068008 169.84073 22.055997 169.894781 22.055997 C 170.653494 22.055997 171.0859 22.480396 171.192 23.333197 C 171.298099 24.169984 171.22403 25.186939 170.971793 26.384064 C 170.731567 27.581189 170.433287 28.724263 170.07495 29.815289 C 169.728625 30.906314 169.502412 31.697057 169.396312 32.18952 C 168.093088 36.60567 167.248294 41.125917 166.861931 45.754267 C 166.47757 50.382616 166.323425 55.044997 166.4035 59.739409 C 166.497588 64.419807 166.569656 69.048156 166.623707 73.622455 C 166.675756 75.366093 166.821893 76.76741 167.062119 77.832411 C 167.314356 78.89541 167.41445 79.640109 167.360399 80.06651 C 167.30835 80.504922 166.789863 80.725129 165.804938 80.725129 C 165.206375 80.725129 164.727925 80.052497 164.369589 78.709235 C 164.00925 77.379986 163.751007 75.638349 163.590857 73.484325 C 163.430706 71.342312 163.350631 69.048156 163.350631 66.601857 C 163.350631 64.141545 163.378658 61.739288 163.430706 59.399089 C 163.484757 57.05889 163.536806 55.044997 163.590857 53.355409 C 163.644908 51.665822 163.670932 50.548772 163.670932 50.00426 C 163.458733 50.21646 163.324607 50.356591 163.272558 50.422654 C 163.218507 50.476704 163.138432 50.688904 163.032332 51.061254 L 160.159633 58.003778 C 159.787283 58.828553 159.354876 59.759427 158.862414 60.796402 C 158.371953 61.833376 157.753371 62.730219 157.008672 63.488932 C 156.275983 64.247645 155.391152 64.626001 154.354177 64.626001 C 153.211103 64.626001 152.432371 64.081489 152.019984 62.990464 C 151.621609 61.899438 151.501496 60.49612 151.661647 58.780507 C 151.821797 57.064895 152.214166 55.257197 152.838753 53.355409 C 153.477353 51.453622 154.268096 49.643922 155.212984 47.92831 C 156.169883 46.212697 157.234884 44.809379 158.403983 43.720355 C 159.575083 42.62933 160.784219 42.084818 162.035395 42.084818 C 162.473807 42.084818 162.706025 42.124856 162.734052 42.202929 C 162.760076 42.283005 163.07237 42.323042 163.670932 42.323042 Z M 169.304226 60.217858 L 169.802694 50.981178 C 169.856745 50.382616 169.910796 49.663941 169.962845 48.827154 C 170.016896 47.976355 170.068944 47.251674 170.122995 46.653111 C 170.243108 43.926549 170.587432 41.232017 171.15997 38.573519 C 171.732508 35.899006 172.343081 33.252519 172.995695 30.634058 C 173.368045 29.543033 173.660319 28.824357 173.872519 28.478032 C 174.098731 28.119695 174.405019 27.939526 174.791382 27.939526 C 174.949531 27.939526 175.135706 27.953539 175.349907 27.979564 C 175.57612 28.00759 175.820349 28.047628 176.086599 28.099676 C 176.366863 29.362863 176.312812 30.852263 175.928451 32.567875 C 175.556101 34.283487 175.255819 35.846957 175.029606 37.256281 C 174.431044 41.019818 173.938581 45.163712 173.55422 49.683959 C 173.18187 54.206209 172.995695 58.508252 172.995695 62.592089 L 173.233919 71.748694 L 173.892537 70.19123 C 174.65125 68.011182 175.289851 66.175457 175.808338 64.686057 C 176.326825 63.182644 176.925387 61.693245 177.604025 60.217858 C 178.282663 58.74047 179.193519 56.946784 180.336593 54.830796 C 180.935156 53.739771 181.519705 52.816903 182.092243 52.05819 C 182.662779 51.287466 183.555618 50.901103 184.764754 50.901103 C 185.363317 50.901103 185.78171 51.339515 186.021936 52.218341 C 186.262161 53.083154 186.408299 54.034047 186.460348 55.071022 C 186.52641 56.107996 186.560442 56.872715 186.560442 57.365177 C 186.560442 58.880602 186.600479 60.171815 186.680555 61.234814 C 186.76063 62.297813 187.072923 63.3488 187.617435 64.385775 C 188.868611 64.107513 189.925604 63.302757 190.790417 61.973508 C 191.667241 60.642257 192.457984 59.48517 193.162646 58.502246 C 193.549009 57.903683 193.90134 57.305121 194.221641 56.706559 C 194.553953 56.107996 194.886265 55.483409 195.218578 54.830796 C 195.711041 53.953972 196.103409 53.355409 196.395684 53.035108 C 196.701972 52.702796 197.014265 52.53664 197.332564 52.53664 C 197.504726 52.53664 197.805008 52.590691 198.231409 52.696791 C 198.50967 53.681716 198.45562 54.472459 198.071258 55.071022 C 197.698909 55.669584 197.292527 56.374246 196.854115 57.185008 C 196.467752 57.903683 195.949264 58.820545 195.298653 59.937595 C 194.64604 61.054644 193.907346 62.14567 193.084572 63.210671 C 192.271809 64.259656 191.40099 65.158501 190.470116 65.903201 C 189.553254 66.633887 188.60236 67.000232 187.617435 67.000232 C 185.821747 67.000232 184.652649 65.390719 184.106135 62.171694 C 183.947987 61.254833 183.833879 60.01767 183.767817 58.462208 C 183.713767 56.906747 183.687742 55.555477 183.687742 54.412403 C 183.315392 54.690664 182.856961 55.323259 182.310448 56.308184 C 181.765936 57.279097 181.221425 58.376127 180.674911 59.599277 C 180.130399 60.822426 179.623923 62.013546 179.159487 63.170633 C 178.693049 64.313707 178.328706 65.184525 178.062456 65.783088 C 177.409843 67.472676 176.879344 69.154256 176.466957 70.82983 C 176.054569 72.519418 175.602144 74.12893 175.109681 75.658368 C 174.843431 76.535192 174.531138 77.093717 174.172801 77.333942 C 173.826475 77.586179 173.267951 77.712298 172.497226 77.712298 C 171.898664 77.712298 171.406201 77.193811 171.019838 76.156836 C 170.647488 75.119862 170.335195 73.822643 170.082958 72.267181 C 169.842732 70.709717 169.67057 69.102207 169.56447 67.438644 C 169.458371 65.789093 169.390307 64.299694 169.364282 62.970445 C 169.324245 61.627182 169.304226 60.710321 169.304226 60.217858 Z M 197.096342 99.755012 C 198.67983 99.755012 200.09516 99.290575 201.346336 98.3597 C 202.59551 97.440837 203.692541 96.331795 204.637429 95.02857 C 205.594328 93.725345 206.399084 92.500194 207.051697 91.35712 C 207.662271 90.214046 208.334903 88.578509 209.06559 86.450509 C 209.798278 84.322509 210.488927 82.01434 211.141541 79.528004 C 211.792152 77.053679 212.350677 74.71348 212.817115 72.505405 C 213.281552 70.311343 213.567821 68.581718 213.67392 67.318531 C 213.023309 67.704894 212.424747 68.117281 211.878233 68.555693 L 203.878716 75.658368 C 203.652503 75.88458 203.434298 76.142823 203.222099 76.435098 C 203.007897 76.741385 202.735642 77.027654 202.403329 77.293905 C 201.100105 78.597129 199.929004 79.900354 198.89203 81.203579 C 197.855055 82.520816 196.818081 83.970178 195.781106 85.551665 C 195.288644 86.256327 194.770156 87.155171 194.223643 88.246197 C 193.679131 89.33522 193.232712 90.492307 192.888388 91.717459 C 192.528049 92.940608 192.395925 94.149744 192.488012 95.346869 C 192.568087 96.543994 193.014507 97.580969 193.825268 98.459794 C 194.529931 99.322605 195.620956 99.755012 197.096342 99.755012 Z M 198.972105 59.817482 C 199.782867 59.37907 200.73376 58.522265 201.824786 57.245065 C 202.915811 55.955853 204.058885 54.426416 205.25601 52.656753 C 206.453135 50.88709 207.622234 49.065378 208.76731 47.191617 C 209.924397 45.301841 210.975385 43.560205 211.918271 41.964705 C 212.877172 40.355193 213.627877 39.057974 214.172389 38.07505 C 214.825002 36.984025 215.26942 36.26535 215.509645 35.919024 C 215.761882 35.560688 216.320407 35.380518 217.18522 35.380518 C 217.623632 35.380518 217.949939 35.692812 218.162138 36.319401 C 218.388351 36.943987 218.554507 37.708706 218.660606 38.613556 C 218.768708 39.504394 218.820757 40.361199 218.820757 41.185974 C 218.820757 41.996736 218.820757 42.623324 218.820757 43.061736 L 218.820757 49.345641 C 218.820757 50.714928 218.754695 52.16429 218.620569 53.693727 C 218.488445 55.211153 218.362326 56.626483 218.242213 57.943721 C 218.136114 59.246946 218.082063 60.277915 218.082063 61.034626 L 229.773049 54.252252 C 230.05131 54.094104 230.623848 53.713746 231.488661 53.115184 C 232.365485 52.516621 233.104179 52.218341 233.702742 52.218341 C 234.195204 52.218341 234.441436 52.516621 234.441436 53.115184 C 234.441436 53.487534 233.989011 54.006021 233.08416 54.672647 C 232.17931 55.323259 231.222411 55.921821 230.211461 56.466333 C 229.214524 57.012846 228.549899 57.391202 228.217587 57.603401 C 226.527999 58.534276 224.852425 59.533215 223.188862 60.596214 C 221.541313 61.647201 219.925795 62.718208 218.342307 63.807231 C 217.955944 64.087494 217.74975 64.319713 217.723726 64.505888 C 217.697702 64.692063 217.631639 65.084431 217.523538 65.682994 C 217.139177 68.357507 216.592663 71.38235 215.888001 74.759523 C 215.183339 78.138699 214.31252 81.429791 213.275546 84.634803 C 212.238572 87.853828 211.041447 90.552364 209.684171 92.734414 C 208.913447 94.209801 207.888484 95.66717 206.613285 97.102519 C 205.336085 98.551881 203.906742 99.749006 202.323254 100.693894 C 200.741768 101.650793 199.05218 102.129243 197.256493 102.129243 C 195.234593 102.129243 193.545005 101.444599 192.189732 100.075313 C 190.832456 98.718037 190.153818 96.81625 190.153818 94.369951 C 190.153818 92.574264 190.620257 90.638445 191.551131 88.564496 C 192.467993 86.502558 193.69915 84.394577 195.2426 82.240553 C 196.798062 80.086529 198.473637 78.024591 200.269324 76.056742 C 202.077023 74.100904 203.878716 72.31923 205.674403 70.709717 C 207.470091 69.114218 209.079603 67.79698 210.502941 66.760006 C 210.769191 66.481744 211.007415 66.275551 211.219614 66.141425 C 211.445827 66.0093 211.720084 65.829131 212.038383 65.602919 C 212.809108 64.952307 213.367633 64.505888 213.713958 64.267664 C 214.072295 64.013425 214.278489 63.534975 214.332539 62.830313 C 214.664852 60.051702 214.965134 57.491296 215.229382 55.151097 C 215.509645 52.808896 215.715839 50.402635 215.847963 47.92831 C 215.982089 45.441973 216.048151 42.649349 216.048151 39.550437 C 215.888001 39.656536 215.435576 40.295137 214.690876 41.466237 C 213.960189 42.635336 213.129409 43.998617 212.198534 45.55608 C 211.27967 47.111542 210.408852 48.554898 209.584077 49.884147 C 208.773315 51.213397 208.200777 52.124253 207.868465 52.616715 C 207.057703 53.91994 206.066772 55.46339 204.897673 57.245065 C 203.726573 59.014728 202.59551 60.410039 201.506487 61.435002 C 200.46751 62.365877 199.516617 62.830313 198.653806 62.830313 C 197.77498 62.830313 197.036286 62.41192 196.437723 61.573132 C 195.839161 60.722332 195.540881 59.593271 195.540881 58.181945 C 195.540881 57.305121 195.64698 56.214096 195.85918 54.910871 C 196.085392 53.593633 196.411699 52.298416 196.8381 51.021216 C 197.276512 49.744016 197.780986 48.673009 198.353524 47.810199 C 198.926062 46.931373 199.536635 46.492961 200.189249 46.492961 C 201.120123 46.492961 201.58456 46.819267 201.58456 47.469879 C 201.58456 48.122492 201.366355 49.033348 200.927943 50.202447 C 200.501542 51.373547 200.069136 52.776866 199.630724 54.412403 C 199.192312 56.04794 198.972105 57.849633 198.972105 59.817482 Z M 231.488661 58.74047 C 231.488661 57.597396 231.762919 56.182066 232.30743 54.492478 C 232.851942 52.80289 233.610655 51.127316 234.581567 49.465754 C 235.566493 47.802191 236.695554 46.432904 237.972754 45.355892 C 239.261966 44.264867 240.613235 43.720355 242.02256 43.720355 C 243.339798 43.720355 244.402797 44.098711 245.213558 44.857424 C 246.038334 45.614135 246.530796 46.392867 246.690947 47.191617 C 246.849095 47.976355 246.57684 48.368723 245.872177 48.368723 C 245.327666 48.368723 244.769141 48.054428 244.196603 47.429841 C 243.624065 46.805254 242.95944 46.492961 242.202729 46.492961 C 241.604167 46.492961 240.879486 46.845292 240.026684 47.549954 C 239.189898 48.254616 238.164935 49.643922 236.955799 51.719873 C 236.409285 52.596696 235.904811 53.727759 235.438373 55.111059 C 234.987949 56.494359 234.761737 57.869652 234.761737 59.24094 C 234.867836 59.132839 234.907874 59.092801 234.879848 59.120827 C 234.853823 59.146852 234.947912 59.046758 235.160111 58.820545 L 235.81873 57.843627 C 236.257142 57.191014 236.761616 56.348222 237.334154 55.309245 C 237.906692 54.272271 238.491241 53.229291 239.089804 52.178303 C 239.688366 51.113303 240.232878 50.21646 240.725341 49.485773 C 241.217804 48.741073 241.596159 48.368723 241.862409 48.368723 C 242.847335 48.368723 243.417871 48.72706 243.578022 49.445735 C 243.738172 50.150398 243.804234 51.021216 243.77821 52.05819 C 243.752185 53.083154 243.850277 54.112121 244.07649 55.151097 C 244.396791 56.626483 244.895259 57.703495 245.573897 58.382133 C 246.264546 59.060771 247.043278 59.399089 247.908091 59.399089 C 249.437528 59.399089 251.125114 58.476222 252.974852 56.626483 C 253.745576 55.921821 254.290088 55.337272 254.610389 54.870833 C 254.942701 54.406397 255.381113 53.873897 255.925625 53.275334 C 256.299976 52.730823 256.784432 52.456565 257.382994 52.456565 C 257.981557 52.456565 258.239799 52.963041 258.161726 53.973991 C 258.081651 54.970928 257.010644 56.480346 254.948707 58.502246 L 252.496402 60.456082 C 250.912914 61.547107 249.383477 62.091619 247.908091 62.091619 C 246.550815 62.091619 245.367703 61.687239 244.356753 60.876477 C 243.345803 60.051702 242.567072 59.040752 242.02256 57.843627 C 241.478048 56.646502 241.20379 55.475402 241.20379 54.332327 C 240.831441 54.612591 240.399034 55.217159 239.908573 56.148034 C 239.416111 57.064895 238.88361 58.055826 238.311072 59.120827 C 237.740536 60.183826 237.153985 61.108695 236.555422 61.893433 C 235.958862 62.67817 235.360299 63.070539 234.761737 63.070539 C 233.2323 63.070539 232.301425 62.718208 231.969113 62.013546 C 231.648812 61.308883 231.488661 60.217858 231.488661 58.74047 Z M 231.488661 58.74047 " stroke="#ffffff" stroke-width="1.225693" stroke-opacity="1" stroke-miterlimit="4"/><g fill="#ffffff" fill-opacity="1"><g transform="translate(23.9781, 146.882361)"><g><path d="M 101.5625 -127.234375 C 101.5625 -127.765625 101.957031 -128.238281 102.75 -128.65625 C 103.550781 -129.082031 104.164062 -129.351562 104.59375 -129.46875 C 105.4375 -128.613281 106.3125 -126.882812 107.21875 -124.28125 C 108.125 -121.675781 108.945312 -118.832031 109.6875 -115.75 C 110.4375 -112.664062 111.078125 -109.820312 111.609375 -107.21875 C 112.140625 -104.613281 112.457031 -102.832031 112.5625 -101.875 C 113.726562 -95.1875 114.816406 -88.597656 115.828125 -82.109375 C 116.835938 -75.628906 117.34375 -69.039062 117.34375 -62.34375 C 117.238281 -60.425781 117.289062 -58.960938 117.5 -57.953125 C 117.71875 -56.941406 117.828125 -55.535156 117.828125 -53.734375 L 117.671875 -43.359375 C 117.671875 -43.046875 117.695312 -42.832031 117.75 -42.71875 C 117.800781 -42.613281 117.773438 -42.296875 117.671875 -41.765625 C 117.023438 -32.953125 116.328125 -24.742188 115.578125 -17.140625 C 114.835938 -9.535156 113.832031 -2.175781 112.5625 4.9375 C 111.289062 12.0625 109.617188 19.265625 107.546875 26.546875 C 105.472656 33.828125 102.785156 41.613281 99.484375 49.90625 C 98.742188 51.820312 97.65625 54.1875 96.21875 57 C 94.78125 59.8125 93.15625 62.734375 91.34375 65.765625 C 89.539062 68.796875 87.707031 71.5625 85.84375 74.0625 C 83.988281 76.5625 82.265625 78.445312 80.671875 79.71875 C 78.546875 81.414062 76.3125 82.925781 73.96875 84.25 C 71.632812 85.582031 69.191406 86.25 66.640625 86.25 C 63.242188 86.25 60.03125 85.050781 57 82.65625 C 53.96875 80.269531 51.65625 77.644531 50.0625 74.78125 C 47.9375 71.375 46.15625 67.195312 44.71875 62.25 C 43.28125 57.3125 42.132812 52 41.28125 46.3125 C 40.4375 40.625 39.828125 34.882812 39.453125 29.09375 C 39.085938 23.300781 38.847656 17.800781 38.734375 12.59375 C 38.628906 7.382812 38.578125 2.867188 38.578125 -0.953125 C 38.578125 -2.546875 38.65625 -3.710938 38.8125 -4.453125 C 38.976562 -5.203125 39.0625 -6.320312 39.0625 -7.8125 C 39.0625 -9.9375 39.035156 -12.328125 38.984375 -14.984375 C 38.929688 -17.640625 38.957031 -19.976562 39.0625 -22 C 39.269531 -23.164062 39.398438 -24.226562 39.453125 -25.1875 C 39.515625 -26.144531 39.546875 -27.367188 39.546875 -28.859375 C 39.546875 -30.128906 39.648438 -31.90625 39.859375 -34.1875 C 40.066406 -36.476562 40.25 -38.953125 40.40625 -41.609375 C 40.570312 -44.265625 40.65625 -46.710938 40.65625 -48.953125 L 39.859375 -47.671875 C 39.753906 -47.347656 39.703125 -47.109375 39.703125 -46.953125 C 39.703125 -46.796875 39.59375 -46.503906 39.375 -46.078125 L 26.140625 -5.90625 C 25.191406 -3.132812 24.101562 0.160156 22.875 3.984375 C 21.65625 7.804688 20.351562 11.789062 18.96875 15.9375 C 17.59375 20.082031 16.265625 23.960938 14.984375 27.578125 C 13.710938 31.191406 12.546875 34.117188 11.484375 36.359375 C 10.203125 38.898438 9.242188 40.890625 8.609375 42.328125 C 7.972656 43.765625 7.253906 44.75 6.453125 45.28125 C 5.660156 45.8125 4.359375 46.078125 2.546875 46.078125 C 1.585938 46.078125 0.84375 45.4375 0.3125 44.15625 C -0.21875 42.882812 -0.613281 41.398438 -0.875 39.703125 C -1.144531 38.003906 -1.304688 36.410156 -1.359375 34.921875 C -1.410156 33.429688 -1.4375 32.472656 -1.4375 32.046875 C -1.332031 30.878906 -1.304688 30.082031 -1.359375 29.65625 C -1.410156 29.226562 -1.382812 28.484375 -1.28125 27.421875 C -0.851562 23.597656 -0.613281 19.851562 -0.5625 16.1875 C -0.507812 12.519531 -0.21875 8.878906 0.3125 5.265625 C 1.164062 -0.367188 1.859375 -5.175781 2.390625 -9.15625 C 2.921875 -13.144531 3.53125 -17.1875 4.21875 -21.28125 C 4.914062 -25.375 5.847656 -30.289062 7.015625 -36.03125 L 9.40625 -45.921875 C 9.613281 -46.878906 9.820312 -47.726562 10.03125 -48.46875 C 10.25 -49.207031 10.46875 -50.054688 10.6875 -51.015625 L 22.953125 -92 C 23.378906 -93.0625 23.695312 -93.859375 23.90625 -94.390625 C 24.125 -94.921875 24.445312 -95.609375 24.875 -96.453125 C 26.570312 -100.492188 27.816406 -103.285156 28.609375 -104.828125 C 29.410156 -106.367188 30.609375 -107.140625 32.203125 -107.140625 C 32.953125 -107.140625 33.859375 -106.976562 34.921875 -106.65625 C 35.335938 -104.851562 35.519531 -103.601562 35.46875 -102.90625 C 35.414062 -102.21875 35.226562 -101.738281 34.90625 -101.46875 C 34.59375 -101.207031 34.171875 -100.707031 33.640625 -99.96875 C 33.109375 -99.4375 32.363281 -97.921875 31.40625 -95.421875 C 30.445312 -92.921875 29.460938 -90.101562 28.453125 -86.96875 C 27.441406 -83.832031 26.507812 -80.882812 25.65625 -78.125 C 24.8125 -75.363281 24.234375 -73.503906 23.921875 -72.546875 C 23.171875 -69.785156 22.421875 -67.046875 21.671875 -64.328125 C 20.929688 -61.617188 20.140625 -58.832031 19.296875 -55.96875 L 13.390625 -30.296875 C 12.546875 -25.515625 11.800781 -21.316406 11.15625 -17.703125 C 10.519531 -14.085938 9.960938 -10.628906 9.484375 -7.328125 C 9.003906 -4.035156 8.5 -0.609375 7.96875 2.953125 C 7.4375 6.515625 6.851562 10.6875 6.21875 15.46875 C 5.789062 18.550781 5.523438 21.738281 5.421875 25.03125 C 5.316406 28.320312 5.265625 31.828125 5.265625 35.546875 L 6.375 33.15625 C 7.539062 30.613281 8.789062 27.535156 10.125 23.921875 C 11.457031 20.304688 12.757812 16.691406 14.03125 13.078125 C 15.300781 9.460938 16.363281 6.328125 17.21875 3.671875 L 38.578125 -61.703125 C 39.109375 -63.398438 39.71875 -65.234375 40.40625 -67.203125 C 41.101562 -69.171875 42.195312 -70.367188 43.6875 -70.796875 C 44.007812 -70.898438 44.378906 -70.953125 44.796875 -70.953125 C 46.285156 -70.953125 47.296875 -70.046875 47.828125 -68.234375 C 48.359375 -66.429688 48.625 -64.226562 48.625 -61.625 C 48.625 -59.019531 48.546875 -56.46875 48.390625 -53.96875 C 48.234375 -51.46875 48.15625 -49.472656 48.15625 -47.984375 L 46.5625 -20.5625 C 46.34375 -18.4375 46.285156 -16.046875 46.390625 -13.390625 C 46.503906 -10.734375 46.5625 -8.289062 46.5625 -6.0625 C 46.5625 -5 46.503906 -3.800781 46.390625 -2.46875 C 46.285156 -1.144531 46.234375 -0.109375 46.234375 0.640625 C 46.335938 2.015625 46.363281 2.890625 46.3125 3.265625 C 46.257812 3.640625 46.207031 4.144531 46.15625 4.78125 C 46.101562 5.414062 46.128906 6.90625 46.234375 9.25 C 46.453125 11.476562 46.53125 14.503906 46.46875 18.328125 C 46.414062 22.160156 46.550781 25.617188 46.875 28.703125 C 47.195312 31.359375 47.410156 33.695312 47.515625 35.71875 C 47.617188 37.738281 47.773438 39.835938 47.984375 42.015625 C 48.203125 44.191406 48.628906 46.925781 49.265625 50.21875 C 49.691406 52.34375 50.300781 55.078125 51.09375 58.421875 C 51.894531 61.773438 52.957031 65.097656 54.28125 68.390625 C 55.613281 71.691406 57.316406 74.457031 59.390625 76.6875 C 61.460938 78.914062 63.988281 80.03125 66.96875 80.03125 C 69.625 80.03125 72.226562 78.96875 74.78125 76.84375 C 77.332031 74.71875 79.722656 72.085938 81.953125 68.953125 C 84.179688 65.816406 86.144531 62.679688 87.84375 59.546875 C 89.550781 56.410156 90.882812 53.78125 91.84375 51.65625 C 95.03125 45.0625 97.765625 38.046875 100.046875 30.609375 C 102.328125 23.171875 104.238281 15.597656 105.78125 7.890625 C 107.320312 0.179688 108.519531 -7.226562 109.375 -14.34375 C 110.757812 -25.820312 111.53125 -37.882812 111.6875 -50.53125 C 111.84375 -63.1875 111.070312 -75.253906 109.375 -86.734375 C 108.3125 -93.328125 107.191406 -98.960938 106.015625 -103.640625 C 104.847656 -108.316406 103.789062 -113.46875 102.84375 -119.09375 C 102.625 -120.582031 102.351562 -121.960938 102.03125 -123.234375 C 101.71875 -124.515625 101.5625 -125.847656 101.5625 -127.234375 Z M 101.5625 -127.234375 "/></g></g></g><g fill="#ffffff" fill-opacity="1"><g transform="translate(149.925098, 146.882361)"><g><path d="M 13.234375 0.640625 C 11.109375 0.640625 9.222656 -0.046875 7.578125 -1.421875 C 5.929688 -2.804688 4.679688 -4.242188 3.828125 -5.734375 C 1.910156 -9.347656 0.816406 -13.625 0.546875 -18.5625 C 0.285156 -23.507812 0.582031 -28.003906 1.4375 -32.046875 C 1.644531 -33.210938 1.9375 -34.617188 2.3125 -36.265625 C 2.6875 -37.921875 3.242188 -39.382812 3.984375 -40.65625 C 4.734375 -41.925781 5.640625 -42.5625 6.703125 -42.5625 C 9.140625 -42.5625 10.332031 -41.738281 10.28125 -40.09375 C 10.226562 -38.445312 9.773438 -35.894531 8.921875 -32.4375 C 8.078125 -28.988281 7.65625 -24.550781 7.65625 -19.125 C 7.65625 -17.53125 7.863281 -15.617188 8.28125 -13.390625 C 8.707031 -11.160156 9.375 -9.191406 10.28125 -7.484375 C 11.1875 -5.785156 12.332031 -4.9375 13.71875 -4.9375 C 15.414062 -4.9375 17.351562 -5.679688 19.53125 -7.171875 C 21.707031 -8.660156 23.722656 -10.332031 25.578125 -12.1875 C 27.441406 -14.050781 28.75 -15.460938 29.5 -16.421875 C 29.707031 -16.628906 30.289062 -17.34375 31.25 -18.5625 C 32.207031 -19.789062 33.347656 -21.175781 34.671875 -22.71875 C 36.003906 -24.257812 37.304688 -25.613281 38.578125 -26.78125 C 39.859375 -27.957031 40.867188 -28.546875 41.609375 -28.546875 C 42.359375 -28.546875 42.734375 -27.90625 42.734375 -26.625 C 42.734375 -25.882812 42.226562 -24.742188 41.21875 -23.203125 C 40.207031 -21.660156 39.007812 -20.035156 37.625 -18.328125 C 36.238281 -16.628906 34.878906 -15.035156 33.546875 -13.546875 C 32.222656 -12.054688 31.242188 -10.992188 30.609375 -10.359375 C 29.335938 -9.085938 27.820312 -7.570312 26.0625 -5.8125 C 24.3125 -4.0625 22.375 -2.546875 20.25 -1.265625 C 18.125 0.00390625 15.785156 0.640625 13.234375 0.640625 Z M 8.125 -62.65625 C 8.125 -64.46875 8.601562 -66.035156 9.5625 -67.359375 C 10.519531 -68.691406 11.582031 -69.359375 12.75 -69.359375 C 14.03125 -69.359375 15.09375 -68.5625 15.9375 -66.96875 C 17.425781 -63.988281 17.613281 -61.675781 16.5 -60.03125 C 15.382812 -58.382812 14.03125 -57.5625 12.4375 -57.5625 C 11.375 -57.5625 10.390625 -57.984375 9.484375 -58.828125 C 8.578125 -59.679688 8.125 -60.957031 8.125 -62.65625 Z M 8.125 -62.65625 "/></g></g></g><g fill="#ffffff" fill-opacity="1"><g transform="translate(186.274358, 146.882361)"><g><path d="M 5.578125 -11.640625 C 5.578125 -10.679688 5.789062 -10.203125 6.21875 -10.203125 C 6.957031 -10.203125 7.9375 -11.265625 9.15625 -13.390625 C 10.382812 -15.515625 11.6875 -18.171875 13.0625 -21.359375 C 14.445312 -24.546875 15.773438 -27.757812 17.046875 -31 C 18.328125 -34.25 19.394531 -37.09375 20.25 -39.53125 C 21.101562 -41.976562 21.53125 -43.414062 21.53125 -43.84375 C 19.71875 -43.632812 18.304688 -43.078125 17.296875 -42.171875 C 16.285156 -41.265625 15.359375 -40.226562 14.515625 -39.0625 C 11.742188 -35.65625 9.5625 -31.476562 7.96875 -26.53125 C 6.375 -21.59375 5.578125 -16.628906 5.578125 -11.640625 Z M 23.75 -48.15625 C 23.75 -49.320312 23.9375 -50.328125 24.3125 -51.171875 C 24.6875 -52.023438 25.03125 -52.984375 25.34375 -54.046875 L 28.703125 -72.0625 C 29.015625 -73.226562 29.410156 -74.976562 29.890625 -77.3125 C 30.367188 -79.65625 31.03125 -81.890625 31.875 -84.015625 C 32.726562 -86.148438 33.796875 -87.320312 35.078125 -87.53125 C 35.285156 -87.53125 35.441406 -87.554688 35.546875 -87.609375 C 35.660156 -87.660156 35.769531 -87.6875 35.875 -87.6875 C 37.363281 -87.6875 38.210938 -86.863281 38.421875 -85.21875 C 38.640625 -83.570312 38.507812 -81.578125 38.03125 -79.234375 C 37.550781 -76.898438 36.960938 -74.671875 36.265625 -72.546875 C 35.578125 -70.421875 35.128906 -68.878906 34.921875 -67.921875 C 32.367188 -59.304688 30.71875 -50.484375 29.96875 -41.453125 C 29.226562 -32.421875 28.9375 -23.332031 29.09375 -14.1875 C 29.257812 -5.050781 29.394531 3.984375 29.5 12.921875 C 29.601562 16.316406 29.894531 19.050781 30.375 21.125 C 30.851562 23.195312 31.035156 24.65625 30.921875 25.5 C 30.816406 26.351562 29.8125 26.78125 27.90625 26.78125 C 26.726562 26.78125 25.796875 25.476562 25.109375 22.875 C 24.421875 20.269531 23.914062 16.867188 23.59375 12.671875 C 23.28125 8.472656 23.125 3.984375 23.125 -0.796875 C 23.125 -5.578125 23.175781 -10.253906 23.28125 -14.828125 C 23.382812 -19.398438 23.488281 -23.332031 23.59375 -26.625 C 23.695312 -29.914062 23.75 -32.09375 23.75 -33.15625 C 23.332031 -32.738281 23.066406 -32.472656 22.953125 -32.359375 C 22.847656 -32.253906 22.691406 -31.832031 22.484375 -31.09375 L 16.90625 -17.53125 C 16.15625 -15.9375 15.300781 -14.128906 14.34375 -12.109375 C 13.394531 -10.097656 12.203125 -8.347656 10.765625 -6.859375 C 9.328125 -5.367188 7.597656 -4.625 5.578125 -4.625 C 3.347656 -4.625 1.832031 -5.6875 1.03125 -7.8125 C 0.238281 -9.9375 0 -12.671875 0.3125 -16.015625 C 0.632812 -19.367188 1.40625 -22.90625 2.625 -26.625 C 3.851562 -30.34375 5.394531 -33.875 7.25 -37.21875 C 9.113281 -40.570312 11.1875 -43.3125 13.46875 -45.4375 C 15.757812 -47.5625 18.125 -48.625 20.5625 -48.625 C 21.414062 -48.625 21.867188 -48.546875 21.921875 -48.390625 C 21.972656 -48.234375 22.582031 -48.15625 23.75 -48.15625 Z M 23.75 -48.15625 "/></g></g></g><g fill="#ffffff" fill-opacity="1"><g transform="translate(221.985912, 146.882361)"><g><path d="M -0.953125 -13.234375 L 0 -31.25 C 0.101562 -32.414062 0.207031 -33.820312 0.3125 -35.46875 C 0.425781 -37.125 0.535156 -38.535156 0.640625 -39.703125 C 0.847656 -45.015625 1.507812 -50.273438 2.625 -55.484375 C 3.75 -60.691406 4.945312 -65.847656 6.21875 -70.953125 C 6.957031 -73.078125 7.539062 -74.484375 7.96875 -75.171875 C 8.394531 -75.867188 8.976562 -76.21875 9.71875 -76.21875 C 10.039062 -76.21875 10.414062 -76.1875 10.84375 -76.125 C 11.269531 -76.070312 11.75 -75.992188 12.28125 -75.890625 C 12.8125 -73.441406 12.703125 -70.546875 11.953125 -67.203125 C 11.210938 -63.859375 10.628906 -60.800781 10.203125 -58.03125 C 9.035156 -50.695312 8.078125 -42.617188 7.328125 -33.796875 C 6.585938 -24.972656 6.21875 -16.578125 6.21875 -8.609375 L 6.703125 9.25 L 7.96875 6.21875 C 9.457031 1.96875 10.707031 -1.613281 11.71875 -4.53125 C 12.726562 -7.457031 13.894531 -10.351562 15.21875 -13.21875 C 16.550781 -16.09375 18.332031 -19.601562 20.5625 -23.75 C 21.738281 -25.875 22.882812 -27.679688 24 -29.171875 C 25.113281 -30.660156 26.835938 -31.40625 29.171875 -31.40625 C 30.347656 -31.40625 31.171875 -30.554688 31.640625 -28.859375 C 32.117188 -27.160156 32.410156 -25.300781 32.515625 -23.28125 C 32.628906 -21.257812 32.6875 -19.769531 32.6875 -18.8125 C 32.6875 -15.832031 32.765625 -13.304688 32.921875 -11.234375 C 33.078125 -9.160156 33.6875 -7.117188 34.75 -5.109375 C 37.195312 -5.640625 39.269531 -7.207031 40.96875 -9.8125 C 42.675781 -12.414062 44.21875 -14.671875 45.59375 -16.578125 C 46.34375 -17.742188 47.035156 -18.910156 47.671875 -20.078125 C 48.304688 -21.253906 48.941406 -22.476562 49.578125 -23.75 C 50.535156 -25.457031 51.304688 -26.628906 51.890625 -27.265625 C 52.484375 -27.898438 53.097656 -28.21875 53.734375 -28.21875 C 54.046875 -28.21875 54.628906 -28.113281 55.484375 -27.90625 C 56.015625 -25.988281 55.90625 -24.445312 55.15625 -23.28125 C 54.414062 -22.113281 53.625 -20.726562 52.78125 -19.125 C 52.03125 -17.75 51.015625 -15.96875 49.734375 -13.78125 C 48.460938 -11.601562 47.03125 -9.476562 45.4375 -7.40625 C 43.84375 -5.34375 42.140625 -3.59375 40.328125 -2.15625 C 38.523438 -0.71875 36.664062 0 34.75 0 C 31.25 0 28.96875 -3.132812 27.90625 -9.40625 C 27.582031 -11.21875 27.367188 -13.632812 27.265625 -16.65625 C 27.160156 -19.6875 27.109375 -22.316406 27.109375 -24.546875 C 26.359375 -24.015625 25.453125 -22.789062 24.390625 -20.875 C 23.328125 -18.96875 22.265625 -16.816406 21.203125 -14.421875 C 20.140625 -12.035156 19.15625 -9.722656 18.25 -7.484375 C 17.351562 -5.253906 16.640625 -3.554688 16.109375 -2.390625 C 14.828125 0.898438 13.785156 4.191406 12.984375 7.484375 C 12.191406 10.785156 11.316406 13.925781 10.359375 16.90625 C 9.828125 18.601562 9.21875 19.691406 8.53125 20.171875 C 7.84375 20.648438 6.753906 20.890625 5.265625 20.890625 C 4.085938 20.890625 3.128906 19.878906 2.390625 17.859375 C 1.648438 15.835938 1.039062 13.3125 0.5625 10.28125 C 0.0820312 7.25 -0.257812 4.113281 -0.46875 0.875 C -0.6875 -2.363281 -0.820312 -5.285156 -0.875 -7.890625 C -0.925781 -10.492188 -0.953125 -12.273438 -0.953125 -13.234375 Z M -0.953125 -13.234375 "/></g></g></g><g fill="#ffffff" fill-opacity="1"><g transform="translate(270.611033, 146.882361)"><g><path d="M 4.625 63.9375 C 7.707031 63.9375 10.46875 63.03125 12.90625 61.21875 C 15.351562 59.414062 17.503906 57.238281 19.359375 54.6875 C 21.222656 52.132812 22.796875 49.742188 24.078125 47.515625 C 25.242188 45.285156 26.546875 42.097656 27.984375 37.953125 C 29.421875 33.804688 30.773438 29.3125 32.046875 24.46875 C 33.316406 19.632812 34.40625 15.066406 35.3125 10.765625 C 36.21875 6.460938 36.773438 3.085938 36.984375 0.640625 C 35.710938 1.378906 34.546875 2.175781 33.484375 3.03125 L 17.859375 16.90625 C 17.429688 17.320312 17.003906 17.820312 16.578125 18.40625 C 16.148438 19 15.617188 19.5625 14.984375 20.09375 C 12.429688 22.644531 10.144531 25.191406 8.125 27.734375 C 6.113281 30.285156 4.097656 33.101562 2.078125 36.1875 C 1.117188 37.570312 0.109375 39.328125 -0.953125 41.453125 C -2.015625 43.578125 -2.890625 45.832031 -3.578125 48.21875 C -4.273438 50.613281 -4.539062 52.976562 -4.375 55.3125 C -4.21875 57.65625 -3.34375 59.679688 -1.75 61.390625 C -0.375 63.085938 1.75 63.9375 4.625 63.9375 Z M 8.296875 -14.03125 C 9.890625 -14.882812 11.75 -16.554688 13.875 -19.046875 C 16 -21.546875 18.226562 -24.519531 20.5625 -27.96875 C 22.90625 -31.425781 25.191406 -34.988281 27.421875 -38.65625 C 29.648438 -42.332031 31.695312 -45.738281 33.5625 -48.875 C 35.425781 -52.007812 36.890625 -54.53125 37.953125 -56.4375 C 39.222656 -58.5625 40.097656 -59.96875 40.578125 -60.65625 C 41.054688 -61.351562 42.144531 -61.703125 43.84375 -61.703125 C 44.695312 -61.703125 45.332031 -61.085938 45.75 -59.859375 C 46.175781 -58.640625 46.492188 -57.15625 46.703125 -55.40625 C 46.921875 -53.65625 47.03125 -51.976562 47.03125 -50.375 C 47.03125 -48.78125 47.03125 -47.5625 47.03125 -46.71875 L 47.03125 -34.4375 C 47.03125 -31.78125 46.894531 -28.960938 46.625 -25.984375 C 46.363281 -23.015625 46.125 -20.253906 45.90625 -17.703125 C 45.695312 -15.148438 45.59375 -13.128906 45.59375 -11.640625 L 68.40625 -24.875 C 68.9375 -25.1875 70.050781 -25.925781 71.75 -27.09375 C 73.445312 -28.269531 74.878906 -28.859375 76.046875 -28.859375 C 77.003906 -28.859375 77.484375 -28.273438 77.484375 -27.109375 C 77.484375 -26.359375 76.601562 -25.34375 74.84375 -24.0625 C 73.09375 -22.789062 71.234375 -21.625 69.265625 -20.5625 C 67.304688 -19.5 66.007812 -18.753906 65.375 -18.328125 C 62.070312 -16.523438 58.800781 -14.585938 55.5625 -12.515625 C 52.320312 -10.441406 49.160156 -8.34375 46.078125 -6.21875 C 45.335938 -5.6875 44.9375 -5.234375 44.875 -4.859375 C 44.820312 -4.492188 44.691406 -3.722656 44.484375 -2.546875 C 43.734375 2.660156 42.664062 8.554688 41.28125 15.140625 C 39.90625 21.734375 38.207031 28.164062 36.1875 34.4375 C 34.164062 40.707031 31.828125 45.96875 29.171875 50.21875 C 27.679688 53.09375 25.6875 55.9375 23.1875 58.75 C 20.695312 61.570312 17.910156 63.910156 14.828125 65.765625 C 11.742188 67.628906 8.445312 68.5625 4.9375 68.5625 C 1.007812 68.5625 -2.28125 67.234375 -4.9375 64.578125 C -7.59375 61.921875 -8.921875 58.195312 -8.921875 53.40625 C -8.921875 49.90625 -8.015625 46.132812 -6.203125 42.09375 C -4.398438 38.050781 -1.988281 33.929688 1.03125 29.734375 C 4.0625 25.535156 7.332031 21.519531 10.84375 17.6875 C 14.351562 13.863281 17.859375 10.382812 21.359375 7.25 C 24.867188 4.113281 28.003906 1.535156 30.765625 -0.484375 C 31.296875 -1.015625 31.773438 -1.410156 32.203125 -1.671875 C 32.628906 -1.941406 33.160156 -2.285156 33.796875 -2.703125 C 35.285156 -3.984375 36.375 -4.863281 37.0625 -5.34375 C 37.757812 -5.820312 38.160156 -6.75 38.265625 -8.125 C 38.898438 -13.550781 39.484375 -18.546875 40.015625 -23.109375 C 40.546875 -27.679688 40.941406 -32.382812 41.203125 -37.21875 C 41.472656 -42.0625 41.609375 -47.515625 41.609375 -53.578125 C 41.296875 -53.359375 40.421875 -52.101562 38.984375 -49.8125 C 37.546875 -47.53125 35.921875 -44.875 34.109375 -41.84375 C 32.304688 -38.820312 30.609375 -36.007812 29.015625 -33.40625 C 27.421875 -30.800781 26.304688 -29.019531 25.671875 -28.0625 C 24.078125 -25.507812 22.132812 -22.503906 19.84375 -19.046875 C 17.5625 -15.597656 15.359375 -12.863281 13.234375 -10.84375 C 11.210938 -9.03125 9.351562 -8.125 7.65625 -8.125 C 5.957031 -8.125 4.519531 -8.945312 3.34375 -10.59375 C 2.175781 -12.25 1.59375 -14.457031 1.59375 -17.21875 C 1.59375 -18.914062 1.804688 -21.039062 2.234375 -23.59375 C 2.660156 -26.144531 3.296875 -28.671875 4.140625 -31.171875 C 4.992188 -33.671875 5.976562 -35.769531 7.09375 -37.46875 C 8.207031 -39.164062 9.40625 -40.015625 10.6875 -40.015625 C 12.488281 -40.015625 13.390625 -39.375 13.390625 -38.09375 C 13.390625 -36.820312 12.960938 -35.046875 12.109375 -32.765625 C 11.265625 -30.484375 10.414062 -27.742188 9.5625 -24.546875 C 8.71875 -21.359375 8.296875 -17.851562 8.296875 -14.03125 Z M 8.296875 -14.03125 "/></g></g></g><g fill="#ffffff" fill-opacity="1"><g transform="translate(342.352995, 146.882361)"><g><path d="M 0 -16.109375 C 0 -18.335938 0.53125 -21.097656 1.59375 -24.390625 C 2.65625 -27.691406 4.140625 -30.960938 6.046875 -34.203125 C 7.960938 -37.441406 10.171875 -40.125 12.671875 -42.25 C 15.171875 -44.375 17.800781 -45.4375 20.5625 -45.4375 C 23.113281 -45.4375 25.1875 -44.691406 26.78125 -43.203125 C 28.375 -41.710938 29.332031 -40.195312 29.65625 -38.65625 C 29.976562 -37.125 29.445312 -36.359375 28.0625 -36.359375 C 27 -36.359375 25.910156 -36.96875 24.796875 -38.1875 C 23.679688 -39.40625 22.378906 -40.015625 20.890625 -40.015625 C 19.710938 -40.015625 18.300781 -39.320312 16.65625 -37.9375 C 15.007812 -36.5625 13.019531 -33.851562 10.6875 -29.8125 C 9.625 -28.113281 8.640625 -25.90625 7.734375 -23.1875 C 6.828125 -20.476562 6.375 -17.796875 6.375 -15.140625 C 6.59375 -15.359375 6.671875 -15.441406 6.609375 -15.390625 C 6.554688 -15.335938 6.742188 -15.519531 7.171875 -15.9375 L 8.453125 -17.859375 C 9.296875 -19.128906 10.273438 -20.773438 11.390625 -22.796875 C 12.515625 -24.816406 13.660156 -26.863281 14.828125 -28.9375 C 15.992188 -31.007812 17.054688 -32.765625 18.015625 -34.203125 C 18.972656 -35.640625 19.71875 -36.359375 20.25 -36.359375 C 22.164062 -36.359375 23.28125 -35.664062 23.59375 -34.28125 C 23.914062 -32.894531 24.050781 -31.191406 24 -29.171875 C 23.945312 -27.148438 24.128906 -25.132812 24.546875 -23.125 C 25.191406 -20.25 26.175781 -18.144531 27.5 -16.8125 C 28.832031 -15.488281 30.347656 -14.828125 32.046875 -14.828125 C 35.023438 -14.828125 38.320312 -16.632812 41.9375 -20.25 C 43.425781 -21.632812 44.488281 -22.773438 45.125 -23.671875 C 45.757812 -24.578125 46.609375 -25.613281 47.671875 -26.78125 C 48.410156 -27.84375 49.367188 -28.375 50.546875 -28.375 C 51.710938 -28.375 52.210938 -27.390625 52.046875 -25.421875 C 51.890625 -23.460938 49.796875 -20.515625 45.765625 -16.578125 L 40.96875 -12.75 C 37.894531 -10.625 34.921875 -9.5625 32.046875 -9.5625 C 29.390625 -9.5625 27.078125 -10.359375 25.109375 -11.953125 C 23.140625 -13.546875 21.625 -15.507812 20.5625 -17.84375 C 19.5 -20.1875 18.96875 -22.476562 18.96875 -24.71875 C 18.226562 -24.1875 17.378906 -23.015625 16.421875 -21.203125 C 15.460938 -19.398438 14.425781 -17.460938 13.3125 -15.390625 C 12.195312 -13.316406 11.050781 -11.507812 9.875 -9.96875 C 8.707031 -8.425781 7.539062 -7.65625 6.375 -7.65625 C 3.394531 -7.65625 1.585938 -8.34375 0.953125 -9.71875 C 0.316406 -11.101562 0 -13.234375 0 -16.109375 Z M 0 -16.109375 "/></g></g></g></svg>