<svg xmlns="http://www.w3.org/2000/svg" xmlns:xlink="http://www.w3.org/1999/xlink" width="500" zoomAndPan="magnify" viewBox="0 0 375 374.999991" height="500" preserveAspectRatio="xMidYMid meet" version="1.0"><defs><g/><clipPath id="742c21586d"><path d="M 9.703125 9.703125 L 365.296875 9.703125 L 365.296875 365.296875 L 9.703125 365.296875 Z M 9.703125 9.703125 " clip-rule="nonzero"/></clipPath><clipPath id="cbadc540c4"><path d="M 187.5 9.703125 C 89.304688 9.703125 9.703125 89.304688 9.703125 187.5 C 9.703125 285.695312 89.304688 365.296875 187.5 365.296875 C 285.695312 365.296875 365.296875 285.695312 365.296875 187.5 C 365.296875 89.304688 285.695312 9.703125 187.5 9.703125 Z M 187.5 9.703125 " clip-rule="nonzero"/></clipPath></defs><g clip-path="url(#742c21586d)"><g clip-path="url(#cbadc540c4)"><path fill="#ffffff" d="M 9.703125 9.703125 L 365.296875 9.703125 L 365.296875 365.296875 L 9.703125 365.296875 Z M 9.703125 9.703125 " fill-opacity="1" fill-rule="nonzero"/></g></g><path stroke-linecap="butt" transform="matrix(1.410347, -0.0415971, 0.0415971, 1.410347, 75.599853, 166.860882)" fill="none" stroke-linejoin="miter" d="M 20.353069 72.306986 C 20.353333 67.133178 20.786104 62.0386 21.6513 57.026018 C 22.527648 52.010995 23.632523 47.229829 24.963159 42.682438 C 26.304864 38.135373 27.70888 34.011141 29.172277 30.315196 C 30.207873 27.695129 31.458273 24.929064 32.920709 22.016918 C 34.397064 19.102413 36.0742 16.329546 37.949349 13.698234 C 39.836057 11.050646 41.872814 8.856175 44.054085 7.11466 C 45.582307 5.916135 47.257099 4.913042 49.081311 4.102697 C 50.903163 3.278433 52.68518 2.865681 54.427363 2.864441 C 55.729138 2.86406 56.980914 3.150254 58.177158 3.72286 C 59.387238 4.295874 60.451682 5.205266 61.367558 6.45649 C 62.619128 8.252169 63.311222 9.953795 63.443839 11.561368 C 63.590211 13.172116 63.663475 15.007824 63.663631 17.068492 C 63.662912 18.877091 63.389594 20.913074 62.84376 23.173676 C 62.298334 25.420441 61.576038 27.74785 60.671337 30.155741 C 59.778194 32.547354 58.854456 34.849434 57.897519 37.056365 C 56.940581 39.263295 56.055698 41.187071 55.243032 42.822158 C 54.977317 43.473511 54.732532 43.978688 54.505908 44.337605 C 54.29353 44.683094 53.773662 44.936423 52.949154 45.094906 C 52.246298 44.603325 51.907257 44.172329 51.932112 43.799152 C 51.960061 43.414987 52.165296 42.842171 52.550502 42.083553 C 52.764774 41.486076 52.977495 40.941178 53.188664 40.448859 C 53.416438 39.95703 53.633959 39.437201 53.846679 38.892303 C 55.483771 35.129468 56.993492 31.271477 58.375762 27.321096 C 59.771869 23.371123 60.471121 19.195638 60.470751 14.79456 C 60.469678 12.013741 59.897989 9.986071 58.755766 8.708783 C 57.611102 7.420344 56.195433 6.774793 54.50591 6.774817 C 51.619851 6.775556 48.761268 8.192426 45.927474 11.022579 C 43.587278 13.363203 41.41967 16.237932 39.424811 19.641231 C 37.44379 23.044938 35.660366 26.698208 34.077551 30.59282 C 32.497423 34.49028 31.133715 38.374736 29.989278 42.243501 C 28.844758 46.115033 27.947531 49.678113 27.297515 52.935506 C 26.537511 56.541409 25.886706 60.482897 25.34217 64.765425 C 24.795275 69.034034 24.60284 73.304788 24.76226 77.572072 C 24.935026 81.856367 25.698965 85.817424 27.056599 89.463627 C 27.761912 91.750052 28.918807 93.750667 30.527286 95.465472 C 32.135683 97.183045 34.245848 98.040189 36.852163 98.039508 C 39.20641 98.039702 41.492827 97.42856 43.71418 96.206162 C 45.949452 94.981405 47.88317 93.744985 49.518182 92.494215 L 52.313203 90.039599 C 52.856694 89.548772 53.342472 89.136564 53.767769 88.802895 C 54.206495 88.48347 54.698379 88.052054 55.243421 87.508649 C 58.235946 84.461601 60.928809 81.150901 63.32486 77.573864 C 65.731654 74.008223 67.979258 70.299402 70.065068 66.441783 C 72.16789 62.570818 74.202664 58.75324 76.169309 54.991817 C 76.648293 54.058704 77.121311 53.421773 77.585759 53.07541 C 78.0533 52.718059 78.476876 52.536672 78.864625 52.537029 C 79.23577 52.536897 79.528035 52.675694 79.741339 52.956186 C 79.96612 53.223168 80.080209 53.486886 80.080675 53.752792 L 67.910908 75.997446 C 67.15428 77.141178 66.4014 78.251783 65.6578 79.329425 C 64.924944 80.418463 64.156031 81.509208 63.342841 82.598646 C 62.200874 84.12985 60.642974 85.958994 58.674673 88.086241 C 56.720208 90.213895 54.526131 92.295707 52.092523 94.328908 C 49.672262 96.379121 47.151919 98.06632 44.531332 99.39604 C 41.924581 100.726168 39.337418 101.392144 36.772694 101.391281 C 34.058371 101.391546 31.732015 100.727445 29.79094 99.396128 C 27.860852 98.067906 26.278503 96.312325 25.041126 94.129306 C 23.817505 91.949461 22.868677 89.561685 22.189029 86.96858 C 21.511739 84.389393 21.03923 81.816246 20.7715 79.249138 C 20.492294 76.695541 20.352817 74.38149 20.353069 72.306986 Z M 77.948946 66.679852 C 77.403298 66.680376 77.078167 66.341192 76.970786 65.662216 C 76.863732 64.97217 76.838072 64.24575 76.890876 63.488407 C 76.94368 62.731064 76.971229 62.266566 76.970836 62.092063 C 76.919151 61.12114 76.904013 60.131908 76.931118 59.118994 C 76.958142 58.108847 76.943983 57.086407 76.891489 56.048988 C 76.891847 55.661239 76.904684 54.944263 76.930165 53.892526 C 76.958739 52.8298 77.039166 51.699361 77.171444 50.501209 C 77.317886 49.292396 77.522996 48.254266 77.789461 47.389666 C 78.067404 46.511557 78.421004 46.073294 78.847495 46.074794 C 79.936024 46.073663 80.495967 46.433622 80.521872 47.15174 C 80.548185 47.856022 80.509855 48.779975 80.401347 49.923434 C 80.348411 50.309631 80.322005 50.735388 80.32213 51.200703 C 80.322662 51.652181 80.323358 52.098124 80.32145 52.538452 C 80.322056 53.081333 80.294842 53.440592 80.242656 53.613544 C 80.190878 53.77266 80.163827 54.126385 80.164351 54.672033 C 80.761719 54.23265 81.305618 53.727987 81.798897 53.155358 C 82.292176 52.582728 83.161948 52.298174 84.411062 52.29901 C 84.798893 52.2966 85.303358 52.283781 85.927306 52.257869 C 86.554022 52.232038 87.219154 52.218419 87.922702 52.217012 C 89.119155 52.219064 90.236166 52.285246 91.273651 52.418325 C 92.311136 52.551404 92.830142 52.890767 92.830748 53.433648 C 92.831273 53.979296 92.543687 54.339185 91.973526 54.513479 C 91.401087 54.671087 90.703556 54.750223 89.878166 54.750806 C 89.332518 54.751331 88.773441 54.737611 88.203622 54.712496 C 87.631117 54.684532 87.132921 54.672607 86.70643 54.671107 C 85.177574 54.67033 84.153175 54.750905 83.633315 54.910063 C 83.116222 55.069304 82.52999 55.694586 81.877385 56.785991 C 81.493729 57.49203 81.119428 58.256508 80.762785 59.079672 C 80.41477 59.892011 80.163929 60.790307 80.004727 61.774398 C 79.831631 62.478338 79.75726 63.215656 79.784381 63.986435 C 79.822898 64.746472 79.743164 65.383923 79.545096 65.901556 C 79.358015 66.422283 78.826915 66.680819 77.948946 66.679852 Z M 94.219787 65.124011 C 95.029651 64.898624 95.762803 64.175196 96.413791 62.950797 C 97.078615 61.726807 97.543557 60.330738 97.808696 58.759824 C 98.087999 57.178249 98.155837 55.723383 98.009523 54.392377 C 97.877454 53.047943 97.458527 52.132662 96.752985 51.638233 C 96.580223 52.236934 96.272412 53.094774 95.835085 54.211916 C 95.408828 55.329385 94.990293 56.56064 94.576795 57.902832 C 94.180228 59.234444 93.906401 60.53644 93.760687 61.814517 C 93.626123 63.090154 93.77913 64.194241 94.219787 65.124011 Z M 90.130341 62.352785 C 90.129424 61.632634 90.276666 60.584487 90.569545 59.199962 C 90.87382 57.804694 91.30019 56.307779 91.845807 54.711901 C 92.389064 53.102105 93.001741 51.580217 93.681152 50.143389 C 94.358204 48.692643 95.091232 47.5039 95.874864 46.571463 C 96.672251 45.642202 97.48368 45.175896 98.30907 45.175313 C 98.854718 45.174788 99.232436 45.421354 99.444989 45.915092 C 99.657625 46.406062 99.71196 46.817581 99.605147 47.152336 C 99.497607 47.417826 99.292967 47.688761 98.98561 47.967745 C 98.695183 48.23615 98.442683 48.533371 98.227863 48.867709 C 98.336002 49.23927 98.600652 49.656992 99.027268 50.123807 C 99.465034 50.588181 99.903764 51.207687 100.343539 51.979558 C 100.780956 52.737511 101.069078 53.768032 101.199604 55.070875 C 101.332897 56.3738 101.179821 58.089274 100.743144 60.217379 C 100.144439 63.049751 99.192554 65.179279 97.890419 66.60051 C 96.585842 68.01059 95.310381 68.715253 94.0585 68.714336 C 93.022631 68.714251 92.104905 68.183096 91.305322 67.120872 C 90.522424 66.056371 90.128946 64.466032 90.130341 62.352785 Z M 104.509813 55.80831 C 104.508348 54.82502 104.708258 53.681487 105.106776 52.377629 C 105.519131 51.07418 106.091337 49.797602 106.823392 48.547898 C 107.566926 47.284683 108.44547 46.233178 109.456176 45.396069 C 110.46729 44.545124 111.571156 44.11791 112.767609 44.119962 C 114.509793 44.118722 115.380591 45.207973 115.379923 47.390484 C 115.379888 48.800265 115.029522 49.504516 114.323207 49.505841 C 113.500665 49.503739 113.006271 48.799499 112.848406 47.390601 C 111.917967 48.041737 111.026395 49.159331 110.173771 50.740614 C 109.337669 52.325155 108.77829 54.012027 108.498155 55.809615 C 108.231939 57.604843 108.426416 59.181004 109.076052 60.537934 C 109.356793 61.255259 109.754422 61.859705 110.274472 62.351433 C 110.792082 62.832011 111.538422 63.070061 112.507793 63.070954 C 114.42448 63.069322 116.179322 62.54498 117.775169 61.495244 C 119.385341 60.429312 120.855132 59.145971 122.18454 57.645223 C 123.527866 56.142116 124.6918 54.711269 125.673492 53.355369 C 126.273495 52.544923 126.817305 52.137197 127.310292 52.137888 C 127.684204 52.137838 127.949932 52.331246 128.107555 52.715345 C 128.282109 53.088864 128.235352 53.547257 127.969971 54.093372 C 127.848595 54.358453 127.66251 54.657633 127.408948 54.990828 C 127.169631 55.310596 126.944803 55.608632 126.731616 55.887625 C 125.587706 57.296904 124.278567 58.767783 122.801513 60.297413 C 121.338294 61.827451 119.737951 63.123559 117.994866 64.188341 C 116.251863 65.250355 114.397072 65.782828 112.427806 65.78291 C 110.580384 65.783816 109.071183 65.304459 107.90012 64.347606 C 106.72914 63.387986 105.870969 62.152313 105.325772 60.63505 C 104.7809 59.106719 104.509837 57.497832 104.509813 55.80831 Z M 123.781553 60.2183 L 124.28108 50.982206 C 124.334767 50.382763 124.386428 49.664163 124.441599 48.826568 C 124.494411 47.975055 124.546236 47.25092 124.599922 46.651477 C 124.719059 43.926828 125.067148 41.233859 125.638653 38.572407 C 126.210485 35.899885 126.820325 33.253412 127.473707 30.633151 C 127.84657 29.541804 128.139149 28.82477 128.351528 28.479281 C 128.578151 28.120363 128.88257 27.941002 129.267551 27.941278 C 129.428218 27.940477 129.613382 27.954247 129.825893 27.979903 C 130.052241 28.005967 130.300318 28.04652 130.564673 28.098633 C 130.843091 29.364292 130.790877 30.852855 130.405104 32.569776 C 130.033248 34.284336 129.735145 35.845969 129.507947 37.257359 C 128.909491 41.02036 128.416162 45.163142 128.030727 49.685787 C 127.65921 54.206073 127.474178 58.507513 127.472865 62.590024 L 127.712378 71.748206 L 128.370393 70.191649 C 129.129873 68.012131 129.768459 66.175261 130.285987 64.686573 C 130.803923 63.184049 131.401784 61.694961 132.082419 60.216624 C 132.760206 58.740972 133.671775 56.945389 134.814277 54.832562 C 135.411536 53.739525 135.998282 52.81513 136.568979 52.059213 C 137.142934 51.286775 138.032329 50.90032 139.242701 50.900013 C 139.840928 50.901039 140.260058 51.339936 140.50009 52.216704 C 140.737682 53.082321 140.884108 54.03388 140.939368 55.071381 C 141.005698 56.109208 141.038599 56.871849 141.037907 57.364836 C 141.037538 58.879856 141.076988 60.171704 141.159187 61.234927 C 141.238619 62.298068 141.551076 63.348694 142.096557 64.386805 C 143.345612 64.107898 144.402465 63.302617 145.267033 61.973729 C 146.145518 60.642482 146.935761 59.485894 147.640611 58.501279 C 148.026618 57.903328 148.379418 57.304398 148.698928 56.707255 C 149.032357 56.107753 149.363753 55.483264 149.695965 54.831102 C 150.187153 53.953743 150.581462 53.356037 150.87344 53.035054 C 151.17958 52.703409 151.491893 52.538129 151.810459 52.536446 C 151.982195 52.535971 152.282525 52.589145 152.708681 52.695884 C 152.98704 53.681801 152.933257 54.472352 152.550017 55.070384 C 152.175078 55.668661 151.769284 56.374047 151.332634 57.186542 C 150.945884 57.903568 150.428566 58.821702 149.775226 59.938013 C 149.124654 61.054406 148.386181 62.146048 147.562657 63.210254 C 146.75061 64.26095 145.879403 65.157568 144.948957 65.902874 C 144.029987 66.63467 143.080282 66.999957 142.094225 67.001341 C 140.299463 67.001031 139.131059 65.390605 138.583397 62.172669 C 138.424923 61.253991 138.311809 60.018135 138.244138 58.462332 C 138.193071 56.90702 138.166404 55.557385 138.166906 54.41351 C 137.793133 54.690536 137.334115 55.322339 136.789933 56.306154 C 136.243309 57.278818 135.698547 58.376173 135.15288 59.598139 C 134.607131 60.822872 134.103953 62.012854 133.637729 63.17069 C 133.171913 64.31469 132.80558 65.184652 132.541415 65.783427 C 131.887784 67.473059 131.356241 69.155213 130.944019 70.829807 C 130.531388 72.518238 130.079533 74.12796 129.588454 75.658974 C 129.321662 76.534642 129.008829 77.093206 128.649954 77.334664 C 128.304671 77.584833 127.746967 77.712409 126.974237 77.711776 C 126.375928 77.713517 125.884367 77.194932 125.499552 76.15602 C 125.125726 75.120202 124.812231 73.823041 124.561755 72.267387 C 124.32243 70.709291 124.148304 69.100494 124.042225 67.43831 C 123.935738 65.789962 123.868875 64.300656 123.841637 62.970393 C 123.803738 61.625966 123.78371 60.708602 123.781553 60.2183 Z M 152.949883 52.218299 C 153.987994 51.672818 155.131931 50.91996 156.381613 49.962493 C 157.64513 49.005434 158.329318 47.876185 158.437025 46.572059 C 157.733143 46.678705 156.979672 47.05809 156.182145 47.710376 C 155.398536 48.360304 154.720322 49.0992 154.147584 49.924299 C 153.575254 50.735562 153.176048 51.499306 152.949883 52.218299 Z M 149.280516 54.173507 C 149.281767 52.816387 149.726692 51.347715 150.61814 49.764807 C 151.520657 48.182225 152.637865 46.833092 153.969847 45.714639 C 155.312897 44.596513 156.633844 44.039986 157.938386 44.039687 C 159.733148 44.039997 160.67129 44.724088 160.749964 46.094645 C 160.842964 47.449005 160.265046 48.919294 159.016289 50.502742 C 158.350206 51.205991 157.367744 52.024544 156.063451 52.955473 C 154.759567 53.872566 153.484202 54.386122 152.231905 54.493211 C 152.233705 55.371262 152.260663 56.147576 152.312697 56.824919 C 152.364651 57.50503 152.745912 58.194854 153.450785 58.899761 C 154.15525 59.618506 155.053131 59.977353 156.141578 59.978989 C 157.565277 59.976665 159.035242 59.532551 160.551638 58.641115 C 162.082278 57.73625 163.251039 56.986894 164.063619 56.387676 C 164.395963 56.106659 164.654399 55.889935 164.841938 55.729283 C 165.040954 55.555122 165.273749 55.362569 165.537556 55.151543 C 166.682072 54.285144 167.401625 53.647176 167.693529 53.23479 C 167.999269 52.822812 168.259337 52.550742 168.470965 52.418498 C 168.696512 52.283895 169.216364 52.218906 170.027918 52.217915 C 170.145968 52.816884 170.192165 53.222624 170.166509 53.435135 C 170.140853 53.647646 169.93458 53.973927 169.547772 54.411212 C 168.563181 55.395885 167.319835 56.514182 165.817816 57.763335 C 164.329634 59.012896 162.727028 60.103979 161.01 61.036583 C 159.29582 61.966502 157.592585 62.431432 155.903062 62.431456 C 155.025093 62.430488 154.195726 62.284159 153.409428 61.992306 C 152.626305 61.686698 151.874209 61.174277 151.155826 60.457892 C 150.184663 59.484778 149.627051 58.482316 149.480388 57.444888 C 149.347561 56.40787 149.280015 55.317382 149.280516 54.173507 Z M 143.969637 30.554665 C 143.968312 29.84835 144.627318 29.103347 145.943888 28.319575 C 147.247031 27.521558 148.895759 26.744813 150.892923 25.986654 C 152.873891 25.214168 154.967012 24.489306 157.175054 23.812148 C 159.369341 23.131816 161.397419 22.54629 163.259288 22.055572 C 165.107321 21.564445 166.497843 21.184462 167.428006 20.918307 C 168.573373 20.586487 169.371188 20.393981 169.824217 20.34087 C 170.288315 20.288085 170.587036 20.114095 170.720298 19.821666 C 170.867804 19.51581 171.018999 18.897085 171.179417 17.965654 C 171.619196 15.732392 172.124275 14.196252 172.694653 13.357235 C 173.268126 12.50723 173.826343 12.080541 174.371991 12.080016 C 174.809551 12.081843 175.176608 12.314245 175.467544 12.779828 C 175.775083 13.245901 175.927565 13.80434 175.927755 14.455227 C 175.927064 14.948215 175.893351 15.152179 175.826454 15.072654 C 175.773393 14.993537 175.773622 15.173575 175.827142 15.612767 C 175.826807 15.718006 175.839493 15.851327 175.868049 16.010042 C 175.907592 16.171852 175.926049 16.391203 175.926189 16.668178 C 175.927515 17.374493 175.786923 17.727639 175.507181 17.727697 C 175.241356 17.725396 174.968692 17.767209 174.68935 17.8476 C 174.423926 17.925633 174.29073 18.403634 174.29253 19.281685 C 174.943417 19.281494 175.660727 19.189092 176.447228 19.004561 C 177.24252 18.803672 177.941438 18.677491 178.541297 18.623171 C 180.933427 18.184099 183.326937 17.792152 185.721826 17.447331 C 188.117124 17.088674 190.570845 16.909001 193.082991 16.908312 C 194.387533 16.908013 195.337755 17.182543 195.936588 17.72645 C 196.53534 18.273124 196.754726 18.816918 196.594584 19.363367 C 196.434524 19.907048 195.836519 20.18023 194.797883 20.180063 C 194.691703 19.742087 194.620259 19.535021 194.5807 19.561552 C 194.552211 19.588408 194.301366 19.547773 193.822549 19.442251 C 193.594251 19.388432 193.157425 19.3617 192.503771 19.361809 C 191.359896 19.361308 189.843889 19.488316 187.955832 19.740067 C 186.081937 19.981157 184.131938 20.267087 182.111369 20.598021 C 180.102196 20.918212 178.306512 21.230851 176.72432 21.535939 C 175.15629 21.830365 174.125614 22.029852 173.632292 22.134399 L 171.996897 38.892757 C 171.943961 39.278954 171.9318 39.691282 171.957646 40.129659 C 171.983901 40.554198 171.996074 40.986632 171.996933 41.427041 C 171.997539 41.969922 171.956652 42.323239 171.877119 42.484306 C 171.797668 42.642605 171.758568 43.029211 171.757134 43.641275 C 171.757849 44.83781 171.783781 46.21235 171.837534 47.770512 C 171.891777 49.31207 171.864411 50.521625 171.758204 51.39926 C 171.704852 51.893464 171.656833 52.864216 171.61968 54.311678 C 171.591156 55.748315 171.564078 57.417651 171.538446 59.319685 C 171.512814 61.221719 171.49768 63.14345 171.498578 65.085042 C 171.499884 67.012798 171.497949 68.768736 171.498388 70.350253 C 171.498746 71.934537 171.526 73.07646 171.577218 73.781477 C 171.578959 74.379786 171.646195 75.293003 171.779088 76.515594 C 171.92305 77.738512 171.95698 78.841857 171.878031 79.828314 C 171.799163 80.812004 171.399653 81.304308 170.679584 81.302458 C 169.657552 81.302781 169.031862 80.730385 168.805199 79.588119 C 168.592455 78.443494 168.48535 77.379537 168.486652 76.396329 C 168.325495 74.441701 168.226793 72.15378 168.187778 69.532485 C 168.159751 66.914283 168.159316 64.299666 168.186308 61.694166 C 168.227627 59.07247 168.248 56.785292 168.247428 54.832631 L 168.485653 50.981453 C 168.485878 50.222559 168.487114 49.053779 168.486756 47.469495 C 168.486316 45.887978 168.513558 44.213108 168.565794 42.442035 C 168.620716 40.673811 168.673917 39.05787 168.725395 37.594213 C 168.779967 36.119567 168.857619 35.083217 168.963965 34.482557 C 169.085284 33.937733 169.157124 33.286201 169.185023 32.528123 C 169.210562 31.756128 169.252126 31.098163 169.30418 30.554066 L 170.043514 22.953634 C 169.817649 23.005136 169.337918 23.118393 168.607091 23.293487 C 167.873985 23.451896 167.288444 23.58419 166.850468 23.69037 C 164.177846 24.342746 161.631295 25.040386 159.210735 25.786058 C 156.790582 26.517893 154.297493 27.374983 151.728617 28.360015 C 151.237647 28.57265 150.793149 28.806044 150.392438 29.057348 C 149.980985 29.297256 149.52843 29.522103 149.03746 29.734738 C 148.383863 30.014589 147.965496 30.207208 147.779507 30.315281 C 147.579764 30.420178 147.481432 30.561303 147.479139 30.732957 C 147.479939 30.893624 147.347731 31.244247 147.08235 31.790361 C 146.856403 31.844631 146.63648 31.88246 146.422418 31.909383 C 146.211124 31.936387 145.964181 31.951262 145.684439 31.95132 C 145.246879 31.949493 144.853522 31.85757 144.507298 31.670097 C 144.147565 31.471147 143.970162 31.100313 143.969637 30.554665 Z M 143.969637 30.554665 " stroke="#90ee90" stroke-width="1.327835" stroke-opacity="1" stroke-miterlimit="4"/><g fill="#4ade80" fill-opacity="1"><g transform="translate(108.246545, 260.473436)"><g><path d="M -0.9375 7.53125 C -1.15625 0.226562 -0.753906 -6.972656 0.265625 -14.078125 C 1.285156 -21.179688 2.644531 -27.96875 4.34375 -34.4375 C 6.039062 -40.90625 7.847656 -46.785156 9.765625 -52.078125 C 11.117188 -55.796875 12.769531 -59.742188 14.71875 -63.921875 C 16.675781 -68.097656 18.925781 -72.085938 21.46875 -75.890625 C 24.007812 -79.703125 26.78125 -82.882812 29.78125 -85.4375 C 31.882812 -87.1875 34.203125 -88.675781 36.734375 -89.90625 C 39.273438 -91.132812 41.773438 -91.785156 44.234375 -91.859375 C 46.078125 -91.910156 47.851562 -91.554688 49.5625 -90.796875 C 51.28125 -90.046875 52.816406 -88.804688 54.171875 -87.078125 C 56.015625 -84.585938 57.066406 -82.210938 57.328125 -79.953125 C 57.585938 -77.691406 57.757812 -75.101562 57.84375 -72.1875 C 57.914062 -69.644531 57.613281 -66.769531 56.9375 -63.5625 C 56.257812 -60.351562 55.335938 -57.039062 54.171875 -53.625 C 53.003906 -50.207031 51.796875 -46.921875 50.546875 -43.765625 C 49.304688 -40.617188 48.144531 -37.875 47.0625 -35.53125 C 46.695312 -34.601562 46.367188 -33.882812 46.078125 -33.375 C 45.785156 -32.863281 45.066406 -32.476562 43.921875 -32.21875 C 42.910156 -32.875 42.414062 -33.46875 42.4375 -34 C 42.457031 -34.539062 42.722656 -35.363281 43.234375 -36.46875 C 43.503906 -37.3125 43.78125 -38.082031 44.0625 -38.78125 C 44.351562 -39.488281 44.644531 -40.226562 44.9375 -41 C 47.082031 -46.382812 49.050781 -51.882812 50.84375 -57.5 C 52.632812 -63.125 53.4375 -69.050781 53.25 -75.28125 C 53.132812 -79.207031 52.242188 -82.046875 50.578125 -83.796875 C 48.921875 -85.546875 46.90625 -86.390625 44.53125 -86.328125 C 40.457031 -86.203125 36.476562 -84.085938 32.59375 -79.984375 C 29.382812 -76.578125 26.445312 -72.429688 23.78125 -67.546875 C 21.125 -62.660156 18.765625 -57.4375 16.703125 -51.875 C 14.640625 -46.320312 12.878906 -40.789062 11.421875 -35.28125 C 9.972656 -29.78125 8.851562 -24.707031 8.0625 -20.0625 C 7.132812 -14.96875 6.375 -9.394531 5.78125 -3.34375 C 5.195312 2.707031 5.109375 8.742188 5.515625 14.765625 C 5.921875 20.796875 7.160156 26.351562 9.234375 31.4375 C 10.328125 34.644531 12.046875 37.425781 14.390625 39.78125 C 16.734375 42.132812 19.742188 43.253906 23.421875 43.140625 C 26.722656 43.046875 29.921875 42.085938 33.015625 40.265625 C 36.117188 38.441406 38.800781 36.613281 41.0625 34.78125 L 44.859375 31.203125 C 45.609375 30.484375 46.285156 29.882812 46.890625 29.40625 C 47.492188 28.925781 48.171875 28.289062 48.921875 27.5 C 53.003906 23.070312 56.660156 18.289062 59.890625 13.15625 C 63.128906 8.03125 66.144531 2.695312 68.9375 -2.84375 C 71.738281 -8.394531 74.445312 -13.859375 77.0625 -19.234375 C 77.707031 -20.546875 78.347656 -21.460938 78.984375 -21.984375 C 79.628906 -22.503906 80.222656 -22.773438 80.765625 -22.796875 C 81.296875 -22.804688 81.722656 -22.625 82.046875 -22.25 C 82.367188 -21.875 82.535156 -21.492188 82.546875 -21.109375 L 66.296875 10.75 C 65.265625 12.394531 64.25 13.992188 63.25 15.546875 C 62.257812 17.109375 61.21875 18.675781 60.125 20.25 C 58.570312 22.445312 56.457031 25.085938 53.78125 28.171875 C 51.101562 31.253906 48.097656 34.285156 44.765625 37.265625 C 41.429688 40.242188 37.945312 42.726562 34.3125 44.71875 C 30.675781 46.71875 27.050781 47.769531 23.4375 47.875 C 19.601562 47.988281 16.296875 47.144531 13.515625 45.34375 C 10.734375 43.539062 8.429688 41.128906 6.609375 38.109375 C 4.785156 35.085938 3.335938 31.765625 2.265625 28.140625 C 1.203125 24.515625 0.425781 20.898438 -0.0625 17.296875 C -0.5625 13.703125 -0.851562 10.445312 -0.9375 7.53125 Z M -0.9375 7.53125 "/></g></g></g><g fill="#4ade80" fill-opacity="1"><g transform="translate(186.718073, 258.15898)"><g><path d="M 1.59375 -0.515625 C 0.832031 -0.492188 0.359375 -0.957031 0.171875 -1.90625 C -0.00390625 -2.863281 -0.0664062 -3.878906 -0.015625 -4.953125 C 0.0234375 -6.035156 0.0390625 -6.691406 0.03125 -6.921875 C -0.09375 -8.304688 -0.15625 -9.707031 -0.15625 -11.125 C -0.15625 -12.550781 -0.21875 -13.992188 -0.34375 -15.453125 C -0.363281 -15.984375 -0.375 -16.992188 -0.375 -18.484375 C -0.375 -19.984375 -0.300781 -21.582031 -0.15625 -23.28125 C -0.0195312 -24.988281 0.21875 -26.460938 0.5625 -27.703125 C 0.90625 -28.941406 1.382812 -29.566406 2 -29.578125 C 3.539062 -29.628906 4.34375 -29.15625 4.40625 -28.15625 C 4.476562 -27.15625 4.46875 -25.847656 4.375 -24.234375 C 4.300781 -23.691406 4.273438 -23.09375 4.296875 -22.4375 C 4.316406 -21.78125 4.332031 -21.144531 4.34375 -20.53125 C 4.375 -19.757812 4.351562 -19.257812 4.28125 -19.03125 C 4.21875 -18.800781 4.195312 -18.304688 4.21875 -17.546875 C 5.039062 -18.171875 5.785156 -18.894531 6.453125 -19.71875 C 7.128906 -20.550781 8.347656 -20.992188 10.109375 -21.046875 C 10.648438 -21.066406 11.363281 -21.109375 12.25 -21.171875 C 13.132812 -21.242188 14.078125 -21.296875 15.078125 -21.328125 C 16.753906 -21.367188 18.320312 -21.316406 19.78125 -21.171875 C 21.25 -21.023438 21.992188 -20.566406 22.015625 -19.796875 C 22.035156 -19.023438 21.644531 -18.515625 20.84375 -18.265625 C 20.039062 -18.015625 19.066406 -17.875 17.921875 -17.84375 C 17.160156 -17.820312 16.375 -17.816406 15.5625 -17.828125 C 14.757812 -17.835938 14.050781 -17.832031 13.4375 -17.8125 C 11.28125 -17.75 9.835938 -17.59375 9.109375 -17.34375 C 8.390625 -17.09375 7.59375 -16.179688 6.71875 -14.609375 C 6.21875 -13.597656 5.734375 -12.507812 5.265625 -11.34375 C 4.796875 -10.175781 4.46875 -8.894531 4.28125 -7.5 C 4.082031 -6.5 4.015625 -5.460938 4.078125 -4.390625 C 4.148438 -3.316406 4.0625 -2.410156 3.8125 -1.671875 C 3.5625 -0.941406 2.820312 -0.554688 1.59375 -0.515625 Z M 1.59375 -0.515625 "/></g></g></g><g fill="#4ade80" fill-opacity="1"><g transform="translate(205.500547, 257.605006)"><g><path d="M 5.6875 -2.828125 C 6.832031 -3.160156 7.835938 -4.203125 8.703125 -5.953125 C 9.578125 -7.710938 10.175781 -9.710938 10.5 -11.953125 C 10.820312 -14.203125 10.859375 -16.257812 10.609375 -18.125 C 10.359375 -20 9.722656 -21.269531 8.703125 -21.9375 C 8.492188 -21.082031 8.101562 -19.859375 7.53125 -18.265625 C 6.957031 -16.679688 6.410156 -14.9375 5.890625 -13.03125 C 5.378906 -11.132812 5.050781 -9.28125 4.90625 -7.46875 C 4.769531 -5.65625 5.03125 -4.109375 5.6875 -2.828125 Z M -0.1875 -6.578125 C -0.21875 -7.578125 -0.0507812 -9.0625 0.3125 -11.03125 C 0.675781 -13 1.207031 -15.125 1.90625 -17.40625 C 2.613281 -19.695312 3.414062 -21.875 4.3125 -23.9375 C 5.207031 -26 6.191406 -27.695312 7.265625 -29.03125 C 8.347656 -30.375 9.46875 -31.066406 10.625 -31.109375 C 11.394531 -31.128906 11.941406 -30.796875 12.265625 -30.109375 C 12.597656 -29.429688 12.691406 -28.859375 12.546875 -28.390625 C 12.398438 -28.003906 12.117188 -27.609375 11.703125 -27.203125 C 11.296875 -26.804688 10.953125 -26.378906 10.671875 -25.921875 C 10.828125 -25.378906 11.222656 -24.789062 11.859375 -24.15625 C 12.492188 -23.519531 13.132812 -22.671875 13.78125 -21.609375 C 14.425781 -20.554688 14.867188 -19.113281 15.109375 -17.28125 C 15.359375 -15.445312 15.222656 -13.019531 14.703125 -10 C 13.972656 -5.988281 12.71875 -2.953125 10.9375 -0.890625 C 9.15625 1.160156 7.378906 2.210938 5.609375 2.265625 C 4.148438 2.304688 2.835938 1.59375 1.671875 0.125 C 0.515625 -1.34375 -0.101562 -3.578125 -0.1875 -6.578125 Z M -0.1875 -6.578125 "/></g></g></g><g fill="#4ade80" fill-opacity="1"><g transform="translate(225.780998, 257.00685)"><g><path d="M -0.46875 -15.796875 C -0.507812 -17.171875 -0.269531 -18.785156 0.25 -20.640625 C 0.78125 -22.503906 1.535156 -24.332031 2.515625 -26.125 C 3.503906 -27.925781 4.691406 -29.441406 6.078125 -30.671875 C 7.460938 -31.910156 9 -32.554688 10.6875 -32.609375 C 13.144531 -32.679688 14.421875 -31.179688 14.515625 -28.109375 C 14.566406 -26.109375 14.09375 -25.09375 13.09375 -25.0625 C 11.945312 -25.03125 11.234375 -26.007812 10.953125 -28 C 9.660156 -27.03125 8.453125 -25.414062 7.328125 -23.15625 C 6.203125 -20.894531 5.484375 -18.492188 5.171875 -15.953125 C 4.867188 -13.410156 5.207031 -11.191406 6.1875 -9.296875 C 6.601562 -8.304688 7.1875 -7.472656 7.9375 -6.796875 C 8.6875 -6.128906 9.753906 -5.816406 11.140625 -5.859375 C 13.828125 -5.941406 16.28125 -6.765625 18.5 -8.328125 C 20.71875 -9.898438 22.734375 -11.769531 24.546875 -13.9375 C 26.367188 -16.101562 27.945312 -18.160156 29.28125 -20.109375 C 30.082031 -21.296875 30.832031 -21.898438 31.53125 -21.921875 C 32.0625 -21.929688 32.453125 -21.671875 32.703125 -21.140625 C 32.953125 -20.617188 32.898438 -19.960938 32.546875 -19.171875 C 32.398438 -18.796875 32.160156 -18.367188 31.828125 -17.890625 C 31.492188 -17.421875 31.175781 -16.992188 30.875 -16.609375 C 29.320312 -14.566406 27.539062 -12.4375 25.53125 -10.21875 C 23.519531 -8 21.304688 -6.101562 18.890625 -4.53125 C 16.484375 -2.96875 13.898438 -2.144531 11.140625 -2.0625 C 8.523438 -1.988281 6.367188 -2.597656 4.671875 -3.890625 C 2.984375 -5.179688 1.722656 -6.890625 0.890625 -9.015625 C 0.0546875 -11.148438 -0.394531 -13.410156 -0.46875 -15.796875 Z M -0.46875 -15.796875 "/></g></g></g><g fill="#4ade80" fill-opacity="1"><g transform="translate(253.666618, 256.184386)"><g><path d="M -0.96875 -9.546875 L -0.671875 -22.578125 C -0.617188 -23.421875 -0.570312 -24.441406 -0.53125 -25.640625 C -0.488281 -26.835938 -0.4375 -27.859375 -0.375 -28.703125 C -0.34375 -32.546875 0.0195312 -36.363281 0.71875 -40.15625 C 1.414062 -43.945312 2.171875 -47.703125 2.984375 -51.421875 C 3.472656 -52.960938 3.863281 -53.988281 4.15625 -54.5 C 4.445312 -55.007812 4.863281 -55.269531 5.40625 -55.28125 C 5.632812 -55.289062 5.898438 -55.28125 6.203125 -55.25 C 6.515625 -55.226562 6.863281 -55.179688 7.25 -55.109375 C 7.6875 -53.367188 7.671875 -51.28125 7.203125 -48.84375 C 6.742188 -46.40625 6.390625 -44.179688 6.140625 -42.171875 C 5.453125 -36.847656 4.929688 -30.988281 4.578125 -24.59375 C 4.234375 -18.195312 4.144531 -12.113281 4.3125 -6.34375 L 5.046875 6.546875 L 5.890625 4.328125 C 6.878906 1.222656 7.707031 -1.394531 8.375 -3.53125 C 9.039062 -5.664062 9.820312 -7.785156 10.71875 -9.890625 C 11.625 -11.992188 12.84375 -14.566406 14.375 -17.609375 C 15.164062 -19.160156 15.945312 -20.488281 16.71875 -21.59375 C 17.488281 -22.695312 18.71875 -23.273438 20.40625 -23.328125 C 21.257812 -23.347656 21.875 -22.75 22.25 -21.53125 C 22.632812 -20.3125 22.882812 -18.972656 23 -17.515625 C 23.125 -16.066406 23.195312 -15 23.21875 -14.3125 C 23.28125 -12.15625 23.390625 -10.328125 23.546875 -8.828125 C 23.710938 -7.328125 24.203125 -5.859375 25.015625 -4.421875 C 26.765625 -4.859375 28.222656 -6.035156 29.390625 -7.953125 C 30.566406 -9.878906 31.632812 -11.546875 32.59375 -12.953125 C 33.113281 -13.828125 33.59375 -14.691406 34.03125 -15.546875 C 34.46875 -16.398438 34.90625 -17.296875 35.34375 -18.234375 C 35.988281 -19.484375 36.515625 -20.34375 36.921875 -20.8125 C 37.328125 -21.28125 37.765625 -21.519531 38.234375 -21.53125 C 38.460938 -21.539062 38.890625 -21.476562 39.515625 -21.34375 C 39.941406 -19.976562 39.894531 -18.863281 39.375 -18 C 38.863281 -17.144531 38.316406 -16.128906 37.734375 -14.953125 C 37.234375 -13.941406 36.546875 -12.632812 35.671875 -11.03125 C 34.796875 -9.425781 33.800781 -7.859375 32.6875 -6.328125 C 31.570312 -4.796875 30.375 -3.488281 29.09375 -2.40625 C 27.820312 -1.332031 26.5 -0.773438 25.125 -0.734375 C 22.582031 -0.660156 20.859375 -2.878906 19.953125 -7.390625 C 19.679688 -8.691406 19.472656 -10.4375 19.328125 -12.625 C 19.191406 -14.8125 19.101562 -16.707031 19.0625 -18.3125 C 18.539062 -17.914062 17.914062 -17.015625 17.1875 -15.609375 C 16.457031 -14.210938 15.734375 -12.640625 15.015625 -10.890625 C 14.304688 -9.140625 13.644531 -7.445312 13.03125 -5.8125 C 12.425781 -4.175781 11.945312 -2.929688 11.59375 -2.078125 C 10.738281 0.335938 10.054688 2.742188 9.546875 5.140625 C 9.046875 7.546875 8.484375 9.832031 7.859375 12 C 7.515625 13.238281 7.097656 14.039062 6.609375 14.40625 C 6.117188 14.769531 5.335938 14.96875 4.265625 15 C 3.410156 15.019531 2.691406 14.304688 2.109375 12.859375 C 1.523438 11.410156 1.03125 9.597656 0.625 7.421875 C 0.21875 5.242188 -0.09375 2.984375 -0.3125 0.640625 C -0.539062 -1.691406 -0.703125 -3.800781 -0.796875 -5.6875 C -0.890625 -7.570312 -0.945312 -8.859375 -0.96875 -9.546875 Z M -0.96875 -9.546875 "/></g></g></g><g fill="#4ade80" fill-opacity="1"><g transform="translate(288.811728, 255.147809)"><g><path d="M 4.6875 -21.015625 C 6.125 -21.816406 7.707031 -22.914062 9.4375 -24.3125 C 11.164062 -25.71875 12.082031 -27.347656 12.1875 -29.203125 C 11.1875 -29.015625 10.140625 -28.441406 9.046875 -27.484375 C 7.960938 -26.523438 7.035156 -25.457031 6.265625 -24.28125 C 5.492188 -23.113281 4.96875 -22.023438 4.6875 -21.015625 Z M -0.421875 -18.09375 C -0.484375 -20.007812 0.0859375 -22.097656 1.296875 -24.359375 C 2.503906 -26.628906 4.023438 -28.578125 5.859375 -30.203125 C 7.691406 -31.835938 9.535156 -32.679688 11.390625 -32.734375 C 13.921875 -32.804688 15.269531 -31.882812 15.4375 -29.96875 C 15.613281 -28.0625 14.847656 -25.96875 13.140625 -23.6875 C 12.253906 -22.65625 10.90625 -21.457031 9.09375 -20.09375 C 7.289062 -18.738281 5.507812 -17.960938 3.75 -17.765625 C 3.78125 -16.535156 3.847656 -15.4375 3.953125 -14.46875 C 4.066406 -13.507812 4.632812 -12.550781 5.65625 -11.59375 C 6.6875 -10.625 7.96875 -10.160156 9.5 -10.203125 C 11.5 -10.265625 13.550781 -10.957031 15.65625 -12.28125 C 17.769531 -13.613281 19.394531 -14.722656 20.53125 -15.609375 C 20.976562 -16.003906 21.332031 -16.316406 21.59375 -16.546875 C 21.851562 -16.785156 22.171875 -17.070312 22.546875 -17.40625 C 24.128906 -18.664062 25.125 -19.585938 25.53125 -20.171875 C 25.9375 -20.765625 26.289062 -21.160156 26.59375 -21.359375 C 26.894531 -21.566406 27.625 -21.6875 28.78125 -21.71875 C 28.945312 -20.875 29.015625 -20.296875 28.984375 -19.984375 C 28.960938 -19.679688 28.691406 -19.210938 28.171875 -18.578125 C 26.828125 -17.171875 25.125 -15.550781 23.0625 -13.71875 C 21 -11.882812 18.78125 -10.28125 16.40625 -8.90625 C 14.03125 -7.53125 11.648438 -6.804688 9.265625 -6.734375 C 8.035156 -6.691406 6.851562 -6.863281 5.71875 -7.25 C 4.59375 -7.644531 3.519531 -8.328125 2.5 -9.296875 C 1.070312 -10.640625 0.238281 -12.039062 0 -13.5 C -0.238281 -14.957031 -0.378906 -16.488281 -0.421875 -18.09375 Z M -0.421875 -18.09375 "/></g></g></g><g fill="#4ade80" fill-opacity="1"><g transform="translate(313.816613, 254.410309)"><g><path d="M -33.890625 -50.453125 C -33.921875 -51.453125 -33.03125 -52.53125 -31.21875 -53.6875 C -29.40625 -54.851562 -27.113281 -56.015625 -24.34375 -57.171875 C -21.570312 -58.335938 -18.644531 -59.445312 -15.5625 -60.5 C -12.488281 -61.550781 -9.65625 -62.460938 -7.0625 -63.234375 C -4.46875 -64.003906 -2.523438 -64.597656 -1.234375 -65.015625 C 0.367188 -65.523438 1.5 -65.828125 2.15625 -65.921875 C 2.8125 -66.023438 3.226562 -66.289062 3.40625 -66.71875 C 3.582031 -67.144531 3.765625 -68.007812 3.953125 -69.3125 C 4.484375 -72.488281 5.132812 -74.6875 5.90625 -75.90625 C 6.675781 -77.125 7.441406 -77.742188 8.203125 -77.765625 C 8.828125 -77.785156 9.359375 -77.472656 9.796875 -76.828125 C 10.242188 -76.179688 10.476562 -75.398438 10.5 -74.484375 C 10.519531 -73.785156 10.488281 -73.488281 10.40625 -73.59375 C 10.320312 -73.707031 10.328125 -73.460938 10.421875 -72.859375 C 10.429688 -72.710938 10.457031 -72.519531 10.5 -72.28125 C 10.550781 -72.050781 10.582031 -71.742188 10.59375 -71.359375 C 10.625 -70.367188 10.445312 -69.867188 10.0625 -69.859375 C 9.675781 -69.847656 9.289062 -69.773438 8.90625 -69.640625 C 8.519531 -69.515625 8.347656 -68.835938 8.390625 -67.609375 C 9.316406 -67.628906 10.332031 -67.789062 11.4375 -68.09375 C 12.539062 -68.40625 13.515625 -68.609375 14.359375 -68.703125 C 17.703125 -69.410156 21.0625 -70.066406 24.4375 -70.671875 C 27.8125 -71.273438 31.265625 -71.628906 34.796875 -71.734375 C 36.640625 -71.785156 37.992188 -71.441406 38.859375 -70.703125 C 39.734375 -69.960938 40.0625 -69.203125 39.84375 -68.421875 C 39.632812 -67.640625 38.800781 -67.226562 37.34375 -67.1875 C 37.175781 -67.800781 37.070312 -68.085938 37.03125 -68.046875 C 37 -68.015625 36.632812 -68.066406 35.9375 -68.203125 C 35.625 -68.265625 35.007812 -68.28125 34.09375 -68.25 C 32.476562 -68.207031 30.347656 -67.972656 27.703125 -67.546875 C 25.066406 -67.128906 22.332031 -66.644531 19.5 -66.09375 C 16.675781 -65.539062 14.15625 -65.019531 11.9375 -64.53125 C 9.71875 -64.050781 8.269531 -63.722656 7.59375 -63.546875 L 5.96875 -39.84375 C 5.914062 -39.3125 5.914062 -38.738281 5.96875 -38.125 C 6.019531 -37.507812 6.054688 -36.894531 6.078125 -36.28125 C 6.097656 -35.507812 6.050781 -35.007812 5.9375 -34.78125 C 5.832031 -34.550781 5.796875 -34.007812 5.828125 -33.15625 C 5.878906 -31.46875 5.972656 -29.523438 6.109375 -27.328125 C 6.253906 -25.140625 6.265625 -23.429688 6.140625 -22.203125 C 6.085938 -21.515625 6.070312 -20.148438 6.09375 -18.109375 C 6.125 -16.078125 6.15625 -13.710938 6.1875 -11.015625 C 6.226562 -8.328125 6.289062 -5.617188 6.375 -2.890625 C 6.457031 -0.160156 6.53125 2.316406 6.59375 4.546875 C 6.65625 6.773438 6.742188 8.382812 6.859375 9.375 C 6.878906 10.226562 7.007812 11.515625 7.25 13.234375 C 7.488281 14.960938 7.570312 16.515625 7.5 17.890625 C 7.425781 19.265625 6.890625 19.96875 5.890625 20 C 4.429688 20.039062 3.523438 19.257812 3.171875 17.65625 C 2.816406 16.0625 2.617188 14.578125 2.578125 13.203125 C 2.265625 10.441406 2.035156 7.21875 1.890625 3.53125 C 1.742188 -0.15625 1.632812 -3.84375 1.5625 -7.53125 C 1.488281 -11.226562 1.414062 -14.457031 1.34375 -17.21875 L 1.515625 -22.640625 C 1.484375 -23.722656 1.4375 -25.378906 1.375 -27.609375 C 1.3125 -29.835938 1.28125 -32.203125 1.28125 -34.703125 C 1.289062 -37.203125 1.300781 -39.488281 1.3125 -41.5625 C 1.332031 -43.644531 1.398438 -45.109375 1.515625 -45.953125 C 1.648438 -46.734375 1.722656 -47.660156 1.734375 -48.734375 C 1.742188 -49.804688 1.773438 -50.726562 1.828125 -51.5 L 2.546875 -62.234375 C 2.242188 -62.148438 1.578125 -61.976562 0.546875 -61.71875 C -0.484375 -61.46875 -1.300781 -61.253906 -1.90625 -61.078125 C -5.65625 -60.035156 -9.222656 -58.945312 -12.609375 -57.8125 C -16.003906 -56.675781 -19.476562 -55.363281 -23.03125 -53.875 C -23.71875 -53.550781 -24.34375 -53.203125 -24.90625 -52.828125 C -25.476562 -52.460938 -26.101562 -52.125 -26.78125 -51.8125 C -27.695312 -51.40625 -28.285156 -51.117188 -28.546875 -50.953125 C -28.804688 -50.785156 -28.929688 -50.585938 -28.921875 -50.359375 C -28.921875 -50.128906 -29.101562 -49.625 -29.46875 -48.84375 C -29.78125 -48.757812 -30.085938 -48.695312 -30.390625 -48.65625 C -30.691406 -48.613281 -31.035156 -48.582031 -31.421875 -48.5625 C -32.035156 -48.550781 -32.59375 -48.671875 -33.09375 -48.921875 C -33.601562 -49.171875 -33.867188 -49.679688 -33.890625 -50.453125 Z M -33.890625 -50.453125 "/></g></g></g><path stroke-linecap="butt" transform="matrix(1.404471, 0, 0, 1.404471, 31.741969, 65.671484)" fill="none" stroke-linejoin="miter" d="M 57.406114 1.788652 C 57.406114 1.521648 57.61193 1.282456 58.023562 1.068296 C 58.435194 0.843011 58.74948 0.703947 58.960859 0.651102 C 59.400304 1.090547 59.845311 1.980562 60.298662 3.323928 C 60.763139 4.653388 61.188677 6.110787 61.575277 7.693345 C 61.961878 9.261996 62.287289 10.716614 62.551512 12.05998 C 62.832423 13.392221 62.99652 14.301705 63.052146 14.793994 C 63.650125 18.226114 64.209165 21.602608 64.726486 24.929039 C 65.246589 28.238781 65.505249 31.609713 65.505249 35.041832 C 65.452405 36.026411 65.477436 36.777361 65.585907 37.297464 C 65.691596 37.814785 65.744441 38.540703 65.744441 39.469656 L 65.663783 44.77637 C 65.663783 44.937685 65.67769 45.043374 65.705503 45.096219 C 65.730534 45.149064 65.716628 45.315941 65.663783 45.594071 C 65.332809 50.116459 64.974022 54.324561 64.587421 58.223938 C 64.214728 62.120535 63.702969 65.889191 63.052146 69.53269 C 62.398541 73.176188 61.541902 76.866968 60.476665 80.605031 C 59.41421 84.343093 58.037468 88.331472 56.349221 92.572949 C 55.962621 93.557528 55.403581 94.767392 54.6721 96.205322 C 53.940619 97.654378 53.109011 99.150715 52.180058 100.694335 C 51.248324 102.24908 50.302683 103.664759 49.345917 104.941375 C 48.403058 106.231896 47.524168 107.202569 46.712029 107.856173 C 45.621761 108.732282 44.473086 109.511045 43.263222 110.189681 C 42.064483 110.868317 40.815681 111.207635 39.511253 111.207635 C 37.770161 111.207635 36.120852 110.59575 34.563326 109.37198 C 33.022488 108.148209 31.837656 106.796499 31.014392 105.322412 C 29.924124 103.578539 29.011859 101.436941 28.280378 98.897617 C 27.548897 96.3722 26.964825 93.652092 26.52538 90.740075 C 26.085935 87.825276 25.766086 84.879883 25.568614 81.901115 C 25.382267 78.936253 25.262671 76.116018 25.207045 73.443192 C 25.154201 70.784273 25.129169 68.470234 25.129169 66.501076 C 25.129169 65.688938 25.168107 65.099303 25.248765 64.726609 C 25.340547 64.340009 25.387829 63.761499 25.387829 62.99108 C 25.387829 61.900812 25.36836 60.677042 25.329422 59.319769 C 25.301609 57.962496 25.321078 56.766539 25.387829 55.729115 C 25.493519 55.131137 25.56027 54.586003 25.588083 54.093713 C 25.613114 53.601424 25.627021 52.975632 25.627021 52.219119 C 25.627021 51.554389 25.679866 50.636562 25.785555 49.465636 C 25.894025 48.29471 25.985808 47.032001 26.066466 45.674729 C 26.147123 44.317456 26.186062 43.068654 26.186062 41.925541 L 25.785555 42.562458 C 25.73271 42.734898 25.707679 42.862838 25.707679 42.940714 C 25.707679 43.021372 25.654834 43.168781 25.546363 43.380159 L 18.765563 63.967315 C 18.273273 65.391339 17.714233 67.079586 17.088441 69.034838 C 16.465431 71.003995 15.792357 73.045467 15.074782 75.159252 C 14.368333 77.286944 13.692478 79.275571 13.038873 81.122352 C 12.38805 82.98582 11.790071 84.487721 11.244937 85.630833 C 10.591332 86.935261 10.101824 87.953216 9.768069 88.684697 C 9.44822 89.430084 9.08387 89.933499 8.672238 90.200503 C 8.257825 90.478633 7.593095 90.620479 6.675267 90.620479 C 6.182978 90.620479 5.799159 90.286724 5.518248 89.621994 C 5.254025 88.97117 5.053771 88.206314 4.920269 87.327424 C 4.77286 86.462441 4.68664 85.653084 4.661608 84.89379 C 4.633795 84.137277 4.619889 83.644988 4.619889 83.416921 C 4.675515 82.818943 4.68664 82.407311 4.661608 82.182026 C 4.633795 81.967866 4.647702 81.595172 4.700547 81.063945 C 4.925832 79.094787 5.053771 77.167348 5.078803 75.278848 C 5.106616 73.404254 5.254025 71.540786 5.518248 69.694005 C 5.957693 66.807019 6.310917 64.345572 6.57514 62.312444 C 6.856051 60.262629 7.167557 58.190563 7.515219 56.087903 C 7.874006 53.988024 8.352389 51.465388 8.950368 48.528339 L 10.188044 43.460817 C 10.293734 42.968527 10.399423 42.537426 10.505112 42.164733 C 10.613583 41.778132 10.719272 41.338688 10.824961 40.846398 L 17.13016 19.861516 C 17.341539 19.316382 17.502854 18.910313 17.608543 18.643309 C 17.728139 18.365179 17.895017 18.006392 18.106395 17.566947 C 18.985285 15.4921 19.622202 14.062513 20.022709 13.278188 C 20.434341 12.479956 21.046226 12.08223 21.858364 12.08223 C 22.242183 12.08223 22.709441 12.168451 23.254575 12.340891 C 23.465954 13.258719 23.560518 13.895636 23.532705 14.254423 C 23.504892 14.615991 23.413109 14.860745 23.254575 14.994248 C 23.09326 15.12775 22.873537 15.386411 22.595408 15.773011 C 22.328403 16.037234 21.950147 16.815997 21.457858 18.106518 C 20.965568 19.383133 20.459372 20.826626 19.942051 22.434216 C 19.421949 24.03068 18.943566 25.540924 18.506902 26.962166 C 18.081364 28.372284 17.780984 29.323487 17.608543 29.815776 C 17.23585 31.2398 16.857593 32.647136 16.470993 34.043347 C 16.084393 35.428433 15.678324 36.849675 15.252785 38.312637 L 12.221172 51.479294 C 11.781727 53.926835 11.397908 56.08234 11.064153 57.943027 C 10.744304 59.792589 10.460611 61.561494 10.207514 63.249741 C 9.968322 64.937988 9.70688 66.692986 9.428751 68.514735 C 9.161746 70.339266 8.86971 72.47252 8.549861 74.920061 C 8.324576 76.502618 8.185511 78.138021 8.132666 79.826268 C 8.079822 81.517296 8.052009 83.311232 8.052009 85.213639 L 8.630518 83.995431 C 9.228497 82.693784 9.868195 81.111227 10.546832 79.247758 C 11.225468 77.400977 11.890198 75.551415 12.541021 73.701853 C 13.205751 71.855072 13.750885 70.244701 14.176424 68.876304 L 25.129169 35.381151 C 25.407299 34.502261 25.721585 33.564964 26.066466 32.56926 C 26.425253 31.556868 26.984294 30.93942 27.740806 30.714135 C 27.916028 30.661291 28.107937 30.633478 28.319316 30.633478 C 29.07861 30.633478 29.590368 31.097954 29.857373 32.029688 C 30.135502 32.961423 30.274567 34.090629 30.274567 35.420089 C 30.274567 36.75233 30.235629 38.06232 30.154972 39.350061 C 30.077095 40.626676 30.035376 41.64463 30.035376 42.403924 L 29.217675 56.466159 C 29.111985 57.556427 29.084172 58.780198 29.137017 60.13747 C 29.192643 61.494743 29.217675 62.743545 29.217675 63.886658 C 29.217675 64.434573 29.192643 65.052021 29.137017 65.744564 C 29.084172 66.420419 29.059141 66.946084 29.059141 67.318778 C 29.111985 68.036352 29.125892 68.489703 29.098079 68.67605 C 29.073047 68.862397 29.045234 69.115495 29.017421 69.432563 C 28.99239 69.766318 29.006296 70.536738 29.059141 71.746602 C 29.16483 72.892496 29.203768 74.441678 29.178737 76.396929 C 29.150924 78.352181 29.217675 80.118304 29.37899 81.700861 C 29.55143 83.072041 29.662682 84.267998 29.715527 85.294296 C 29.771153 86.328939 29.849029 87.408082 29.9575 88.523382 C 30.063189 89.641463 30.282911 91.046018 30.613885 92.734264 C 30.828045 93.824533 31.133988 95.226306 31.531713 96.942366 C 31.943345 98.658426 32.488479 100.360579 33.167116 102.048826 C 33.859658 103.739854 34.738548 105.155534 35.801003 106.298647 C 36.86624 107.44176 38.15398 108.014707 39.672568 108.014707 C 41.040966 108.014707 42.378769 107.469573 43.680416 106.379305 C 44.984844 105.289037 46.208615 103.937327 47.351727 102.329737 C 48.49484 100.733273 49.498888 99.131246 50.363871 97.520876 C 51.242761 95.913286 51.92696 94.561576 52.41925 93.471308 C 54.054652 90.094814 55.456425 86.495817 56.627351 82.679878 C 57.798277 78.875064 58.774512 75.000718 59.558838 71.048496 C 60.35707 67.099055 60.977299 63.297023 61.413962 59.639618 C 62.120412 53.759957 62.512574 47.582698 62.593232 41.10784 C 62.671108 34.616294 62.278945 28.433472 61.413962 22.553811 C 60.868828 19.177318 60.298662 16.290332 59.700684 13.895636 C 59.099924 11.489814 58.55479 8.84202 58.065281 5.957816 C 57.956811 5.198522 57.817746 4.494854 57.645306 3.841249 C 57.486772 3.190426 57.406114 2.506227 57.406114 1.788652 Z M 76.688842 67.318778 C 75.595793 67.318778 74.62512 66.965553 73.774044 66.261885 C 72.936873 65.558217 72.299957 64.826736 71.860512 64.067442 C 70.889839 62.206755 70.330799 60.012312 70.18339 57.484113 C 70.049888 54.94479 70.202859 52.644658 70.642304 50.580936 C 70.750774 49.982957 70.895402 49.265382 71.081749 48.428212 C 71.282002 47.577135 71.568476 46.826185 71.938388 46.172581 C 72.324988 45.507851 72.789465 45.176877 73.33738 45.176877 C 74.586182 45.176877 75.198067 45.602415 75.170254 46.453492 C 75.145223 47.290662 74.911594 48.600653 74.472149 50.383464 C 74.046611 52.152368 73.835232 54.419125 73.835232 57.186515 C 73.835232 58.009778 73.940921 58.994357 74.155081 60.13747 C 74.36646 61.280583 74.705778 62.292975 75.170254 63.169083 C 75.637512 64.034067 76.221584 64.465167 76.928034 64.465167 C 77.804142 64.465167 78.802628 64.086911 79.917927 63.330399 C 81.036009 62.557198 82.06787 61.700559 83.010729 60.754918 C 83.967495 59.798152 84.640569 59.075015 85.027169 58.582725 C 85.132858 58.474255 85.430457 58.109905 85.922746 57.484113 C 86.415036 56.858322 87.001889 56.154654 87.680526 55.370328 C 88.356381 54.572096 89.021111 53.873991 89.674715 53.276012 C 90.325539 52.678033 90.845641 52.377653 91.22946 52.377653 C 91.61606 52.377653 91.80797 52.703065 91.80797 53.353888 C 91.80797 53.740488 91.549309 54.324561 91.029207 55.111668 C 90.511886 55.895993 89.894438 56.727601 89.174082 57.603709 C 88.470414 58.468692 87.777871 59.286393 87.102016 60.056813 C 86.42338 60.816107 85.917184 61.361241 85.583428 61.694996 C 84.932605 62.34582 84.153842 63.124583 83.249921 64.028504 C 82.359906 64.918519 81.369764 65.688938 80.279496 66.342543 C 79.186446 66.993366 77.990489 67.318778 76.688842 67.318778 Z M 74.074424 34.883299 C 74.074424 33.965471 74.319178 33.167239 74.811467 32.488602 C 75.303757 31.796059 75.848891 31.451179 76.446869 31.451179 C 77.100474 31.451179 77.645608 31.862811 78.085053 32.688856 C 78.841566 34.204662 78.93613 35.386713 78.363183 36.23779 C 77.790236 37.077741 77.09213 37.494936 76.268867 37.494936 C 75.737639 37.494936 75.237006 37.283557 74.772529 36.858019 C 74.308053 36.418574 74.074424 35.759407 74.074424 34.883299 Z M 91.385213 61.035829 C 91.385213 61.528118 91.499246 61.772873 91.724531 61.772873 C 92.097225 61.772873 92.595077 61.227738 93.220868 60.13747 C 93.860566 59.047202 94.530859 57.684367 95.237308 56.048964 C 95.940976 54.413562 96.619613 52.764253 97.270436 51.101038 C 97.921259 49.437823 98.466393 47.983205 98.905838 46.731621 C 99.345283 45.482819 99.565005 44.751338 99.565005 44.537178 C 98.633271 44.642868 97.910134 44.929341 97.390032 45.396599 C 96.883836 45.847169 96.413797 46.372834 95.974352 46.970813 C 94.550328 48.725811 93.426684 50.867409 92.60342 53.395608 C 91.791282 55.921025 91.385213 58.468692 91.385213 61.035829 Z M 100.702556 42.323267 C 100.702556 41.725288 100.794339 41.205185 100.980685 40.768522 C 101.180939 40.329077 101.358942 39.836788 101.520257 39.291653 L 103.236317 30.074437 C 103.408757 29.476458 103.614573 28.5781 103.853765 27.382142 C 104.092956 26.172278 104.432274 25.020821 104.871719 23.930553 C 105.311164 22.840285 105.856298 22.242306 106.507121 22.136617 C 106.612811 22.136617 106.693468 22.12271 106.746313 22.094898 C 106.813064 22.069866 106.871471 22.055959 106.927097 22.055959 C 107.68361 22.055959 108.117492 22.481498 108.223181 23.332574 C 108.328871 24.169745 108.256557 25.187699 108.003459 26.383657 C 107.764267 27.582395 107.463887 28.725508 107.1051 29.815776 C 106.760219 30.906045 106.534934 31.698714 106.426464 32.188222 C 105.124817 36.604921 104.279303 41.127309 103.892703 45.755386 C 103.508884 50.383464 103.355913 55.044916 103.433789 59.739745 C 103.528353 64.420667 103.600667 69.048744 103.653511 73.623977 C 103.706356 75.365068 103.853765 76.766842 104.092956 77.832078 C 104.346054 78.897315 104.446181 79.639921 104.393336 80.065459 C 104.340491 80.504904 103.820389 80.724626 102.83581 80.724626 C 102.237831 80.724626 101.759448 80.054334 101.400661 78.710968 C 101.041874 77.378727 100.780432 75.637635 100.621898 73.482131 C 100.463364 71.343314 100.382707 69.048744 100.382707 66.601203 C 100.382707 64.139756 100.41052 61.739497 100.463364 59.400427 C 100.516209 57.058575 100.569053 55.044916 100.621898 53.353888 C 100.674743 51.665641 100.702556 50.54756 100.702556 50.002426 C 100.488396 50.216586 100.354894 50.355651 100.302049 50.422402 C 100.249204 50.475246 100.171328 50.689406 100.062858 51.0621 L 97.189778 58.004216 C 96.819866 58.82748 96.385984 59.759214 95.893694 60.796637 C 95.401405 61.834061 94.783957 62.729638 94.038569 63.488932 C 93.307088 64.248226 92.422636 64.626483 91.385213 64.626483 C 90.2421 64.626483 89.463337 64.081349 89.051705 62.99108 C 88.65398 61.900812 88.534384 60.496257 88.692918 58.780198 C 88.851452 57.066919 89.243614 55.256295 89.869406 53.353888 C 90.509104 51.454263 91.298992 49.643639 92.244633 47.93036 C 93.201399 46.2143 94.263854 44.809746 95.43478 43.719477 C 96.605706 42.629209 97.81557 42.084075 99.067153 42.084075 C 99.503817 42.084075 99.737446 42.123013 99.765259 42.203671 C 99.79029 42.284328 100.104577 42.323267 100.702556 42.323267 Z M 106.334681 60.218128 L 106.835314 50.981442 C 106.888159 50.383464 106.941004 49.665889 106.993848 48.825938 C 107.046693 47.974861 107.099538 47.251724 107.155163 46.650964 C 107.274759 43.925293 107.61964 41.232998 108.192587 38.574079 C 108.762753 35.901253 109.374638 33.253459 110.025461 30.633478 C 110.398155 29.543209 110.690191 28.825635 110.904351 28.477973 C 111.129636 28.119186 111.435579 27.941183 111.822179 27.941183 C 111.980713 27.941183 112.16706 27.952308 112.381219 27.980121 C 112.606504 28.007934 112.851259 28.046872 113.118263 28.099717 C 113.399174 29.362425 113.343548 30.8532 112.959729 32.56926 C 112.587035 34.28532 112.286655 35.845627 112.06137 37.255744 C 111.463392 41.018838 110.971102 45.16297 110.584502 49.685358 C 110.211808 54.204965 110.025461 58.50763 110.025461 62.590574 L 110.264653 71.746602 L 110.92382 70.191857 C 111.683114 68.01132 112.320031 66.175665 112.840133 64.68489 C 113.357455 63.18299 113.955433 61.694996 114.63407 60.218128 C 115.312706 58.741259 116.224971 56.944542 117.368084 54.830757 C 117.966063 53.740488 118.550135 52.817098 119.123082 52.057804 C 119.696029 51.287385 120.586044 50.900785 121.795908 50.900785 C 122.393887 50.900785 122.813862 51.34023 123.053054 52.219119 C 123.292245 53.081321 123.439654 54.032525 123.492499 55.069948 C 123.55925 56.107372 123.592625 56.872228 123.592625 57.364518 C 123.592625 58.880324 123.631564 60.170846 123.712221 61.236082 C 123.790097 62.298538 124.104384 63.349868 124.649518 64.387291 C 125.89832 64.10638 126.955213 63.302586 127.820196 61.973126 C 128.699086 60.643666 129.488974 59.486647 130.195423 58.502068 C 130.579242 57.904089 130.932467 57.30611 131.252316 56.70535 C 131.58329 56.107372 131.917046 55.48158 132.250801 54.830757 C 132.740309 53.954648 133.132472 53.353888 133.42729 53.03682 C 133.733232 52.703065 134.044737 52.536187 134.364587 52.536187 C 134.537027 52.536187 134.837407 52.589032 135.262945 52.697502 C 135.541075 53.682081 135.48823 54.471969 135.10163 55.069948 C 134.728936 55.667927 134.322867 56.374376 133.886204 57.186515 C 133.499603 57.904089 132.979501 58.821917 132.328678 59.937217 C 131.677854 61.055298 130.940811 62.145566 130.114766 63.210803 C 129.302627 64.259352 128.432081 65.15771 127.500347 65.903098 C 126.5853 66.634579 125.634097 66.998929 124.649518 66.998929 C 122.852801 66.998929 121.681875 65.391339 121.136741 62.173379 C 120.978207 61.255551 120.864174 60.017874 120.800204 58.46313 C 120.744578 56.905604 120.719546 55.556675 120.719546 54.413562 C 120.346852 54.691692 119.887939 55.323046 119.342804 56.307625 C 118.79767 57.278297 118.252536 58.374128 117.707402 59.597899 C 117.162268 60.821669 116.656072 62.012064 116.191596 63.169083 C 115.724338 64.312196 115.359988 65.185523 115.092983 65.783502 C 114.44216 67.471749 113.910933 69.154433 113.496519 70.828774 C 113.084887 72.519802 112.634317 74.127391 112.142028 75.657104 C 111.875024 76.535994 111.563518 77.095035 111.204731 77.334226 C 110.857069 77.587324 110.298028 77.712482 109.527609 77.712482 C 108.929631 77.712482 108.437341 77.195161 108.050741 76.157738 C 107.678047 75.120314 107.366542 73.821449 107.113444 72.266704 C 106.874253 70.709178 106.701812 69.101589 106.596123 67.438373 C 106.487652 65.789065 106.423683 64.301071 106.39587 62.971611 C 106.356931 61.628245 106.334681 60.710417 106.334681 60.218128 Z M 134.128176 99.757038 C 135.710734 99.757038 137.126414 99.28978 138.377997 98.358046 C 139.626799 97.442999 140.725411 96.330481 141.668271 95.028834 C 142.625037 93.724406 143.431613 92.500636 144.082436 91.357523 C 144.694321 90.21441 145.364614 88.579008 146.096095 86.451316 C 146.827576 84.320843 147.520119 82.015148 148.170942 79.528669 C 148.824547 77.053315 149.383587 74.714245 149.848064 72.505895 C 150.31254 70.311453 150.599014 68.581486 150.704703 67.318778 C 150.05388 67.705378 149.455901 68.11701 148.910767 68.556455 L 140.911758 75.657104 C 140.683692 75.885171 140.46397 76.143831 140.252591 76.435867 C 140.038431 76.74181 139.765864 77.028283 139.43489 77.292507 C 138.130462 78.596935 136.959536 79.901363 135.922113 81.203009 C 134.88747 82.521344 133.850047 83.970399 132.812623 85.552957 C 132.320334 86.256625 131.800231 87.154984 131.255097 88.245252 C 130.709963 89.33552 130.264956 90.49254 129.920075 91.71631 C 129.558506 92.94008 129.427785 94.149944 129.519568 95.345902 C 129.600226 96.544641 130.045233 97.582064 130.857372 98.458173 C 131.56104 99.323156 132.651308 99.757038 134.128176 99.757038 Z M 136.00277 59.817621 C 136.814909 59.380958 137.766112 58.521537 138.85638 57.244922 C 139.946648 55.9544 141.089761 54.424687 142.2885 52.655783 C 143.484458 50.886878 144.655383 49.065129 145.798496 47.190535 C 146.955515 45.302035 148.006846 43.560943 148.949705 41.964479 C 149.906471 40.354109 150.660202 39.058024 151.205336 38.073446 C 151.85616 36.983177 152.301167 36.265603 152.540359 35.920722 C 152.793457 35.561935 153.352497 35.381151 154.21748 35.381151 C 154.654144 35.381151 154.982337 35.692656 155.193716 36.318448 C 155.419001 36.944239 155.585878 37.709096 155.691568 38.613017 C 155.800038 39.503032 155.852883 40.362453 155.852883 41.185716 C 155.852883 41.997855 155.852883 42.623647 155.852883 43.06031 L 155.852883 49.34604 C 155.852883 50.714438 155.786132 52.163493 155.652629 53.693206 C 155.519127 55.209013 155.393969 56.627474 155.274373 57.943027 C 155.168684 59.247455 155.113058 60.276535 155.113058 61.035829 L 166.802847 54.252247 C 167.083758 54.093713 167.653924 53.715457 168.518907 53.114697 C 169.397796 52.516718 170.13484 52.219119 170.732819 52.219119 C 171.225108 52.219119 171.472644 52.516718 171.472644 53.114697 C 171.472644 53.48739 171.019292 54.007493 170.115371 54.672223 C 169.21145 55.323046 168.254684 55.921025 167.242292 56.466159 C 166.246588 57.011293 165.581858 57.392331 165.248102 57.603709 C 163.559855 58.535443 161.882733 59.531148 160.2223 60.596384 C 158.572991 61.647714 156.957057 62.718513 155.3745 63.808782 C 154.9879 64.086911 154.782084 64.32054 154.754271 64.506887 C 154.729239 64.693234 154.662488 65.085397 154.556799 65.683375 C 154.170198 68.356201 153.625064 71.382252 152.918615 74.758746 C 152.214947 78.138021 151.344401 81.428294 150.306978 84.635129 C 149.269554 87.853089 148.073597 90.553728 146.716324 92.734264 C 145.943124 94.211133 144.919607 95.665751 143.642991 97.103681 C 142.366376 98.552737 140.93679 99.748694 139.354232 100.694335 C 137.771675 101.651101 136.083428 102.129484 134.28671 102.129484 C 132.267489 102.129484 130.576461 101.445285 129.221969 100.074106 C 127.864697 98.719614 127.18606 96.817208 127.18606 94.369667 C 127.18606 92.572949 127.650537 90.639948 128.582271 88.565101 C 129.500099 86.50416 130.729432 84.395938 132.273052 82.240433 C 133.827796 80.08771 135.504918 78.023988 137.298854 76.057611 C 139.109478 74.10236 140.911758 72.319549 142.705695 70.709178 C 144.502412 69.115495 146.110001 67.797161 147.534025 66.759737 C 147.798248 66.481607 148.040221 66.275791 148.2516 66.142289 C 148.476885 66.008787 148.749452 65.830784 149.069301 65.602718 C 149.83972 64.951894 150.39876 64.506887 150.746423 64.267695 C 151.10521 64.014597 151.311026 63.536214 151.36387 62.829765 C 151.697626 60.05125 151.995225 57.492457 152.262229 55.150606 C 152.540359 52.808754 152.746175 50.402933 152.879677 47.93036 C 153.013179 45.4411 153.07993 42.648678 153.07993 39.550314 C 152.918615 39.656003 152.468045 40.295701 151.722658 41.466627 C 150.991177 42.634772 150.159569 44.000388 149.230616 45.555133 C 148.312788 47.109878 147.439461 48.553371 146.616197 49.88283 C 145.804059 51.215071 145.233893 52.124555 144.900137 52.616845 C 144.087999 53.921273 143.097857 55.462111 141.926932 57.244922 C 140.758787 59.013826 139.626799 60.410037 138.536531 61.433554 C 137.499108 62.365289 136.547904 62.829765 135.682921 62.829765 C 134.806813 62.829765 134.066988 62.412571 133.469009 61.572619 C 132.87103 60.721542 132.573432 59.592336 132.573432 58.182219 C 132.573432 57.30611 132.679121 56.213061 132.890499 54.911414 C 133.118566 53.59308 133.443977 52.296996 133.869516 51.02038 C 134.308961 49.743765 134.812375 48.672966 135.385322 47.807983 C 135.955488 46.931875 136.567373 46.49243 137.220978 46.49243 C 138.149931 46.49243 138.617189 46.817842 138.617189 47.471446 C 138.617189 48.12227 138.397466 49.031754 137.958022 50.202679 C 137.532483 51.373605 137.101382 52.775379 136.661937 54.413562 C 136.222493 56.048964 136.00277 57.851245 136.00277 59.817621 Z M 168.521688 58.741259 C 168.521688 57.598147 168.794255 56.182467 169.339389 54.491438 C 169.884523 52.803191 170.641036 51.12607 171.611708 49.465636 C 172.596287 47.802421 173.728275 46.434023 175.00489 45.35488 C 176.29263 44.264611 177.64434 43.719477 179.054458 43.719477 C 180.370011 43.719477 181.435247 44.097734 182.244605 44.857028 C 183.07065 45.616322 183.562939 46.392303 183.721473 47.190535 C 183.880007 47.974861 183.60744 48.367024 182.903772 48.367024 C 182.358638 48.367024 181.799597 48.055518 181.22665 47.429727 C 180.656484 46.803935 179.991755 46.49243 179.232461 46.49243 C 178.634482 46.49243 177.908564 46.845655 177.057487 47.549323 C 176.220317 48.255772 175.1968 49.643639 173.986936 51.718486 C 173.441801 52.597376 172.935606 53.726582 172.471129 55.111668 C 172.017778 56.493972 171.792493 57.870714 171.792493 59.239111 C 171.898182 59.133422 171.939901 59.094484 171.912088 59.119516 C 171.884275 59.147329 171.97884 59.047202 172.190218 58.821917 L 172.849385 57.842901 C 173.28883 57.192077 173.795026 56.346563 174.365192 55.30914 C 174.938139 54.271716 175.522211 53.22873 176.12019 52.1774 C 176.72095 51.114945 177.266084 50.216586 177.755592 49.485105 C 178.247882 48.739717 178.628919 48.367024 178.893142 48.367024 C 179.877721 48.367024 180.450668 48.725811 180.609202 49.446167 C 180.770518 50.149835 180.834487 51.02038 180.809456 52.057804 C 180.781643 53.081321 180.881769 54.113182 181.107054 55.150606 C 181.426904 56.627474 181.927537 57.703836 182.603392 58.382472 C 183.295935 59.061108 184.074698 59.400427 184.939681 59.400427 C 186.466613 59.400427 188.157641 58.474255 190.004422 56.627474 C 190.777622 55.921025 191.322756 55.336953 191.642605 54.872476 C 191.97358 54.405218 192.413024 53.873991 192.958159 53.276012 C 193.330852 52.730878 193.814798 52.458311 194.412777 52.458311 C 195.013537 52.458311 195.272197 52.961725 195.19154 53.974117 C 195.113663 54.969821 194.042864 56.480065 191.979142 58.502068 L 189.526039 60.457319 C 187.943481 61.547587 186.413768 62.092722 184.939681 62.092722 C 183.582408 62.092722 182.397576 61.686652 181.387965 60.874514 C 180.375573 60.05125 179.599592 59.041639 179.054458 57.842901 C 178.509324 56.646943 178.236757 55.476017 178.236757 54.332905 C 177.864063 54.611034 177.430181 55.217357 176.937891 56.149091 C 176.445602 57.066919 175.914374 58.05706 175.344208 59.119516 C 174.771261 60.184752 174.187189 61.108143 173.586429 61.892468 C 172.98845 62.676794 172.390471 63.068957 171.792493 63.068957 C 170.26278 63.068957 169.331045 62.718513 169.000071 62.012064 C 168.680222 61.308396 168.521688 60.218128 168.521688 58.741259 Z M 168.521688 58.741259 " stroke="#90ee90" stroke-width="1.327835" stroke-opacity="1" stroke-miterlimit="4"/><g fill="#4ade80" fill-opacity="1"><g transform="translate(39.269055, 159.771036)"><g><path d="M 73.109375 -91.578125 C 73.109375 -91.960938 73.394531 -92.304688 73.96875 -92.609375 C 74.539062 -92.921875 74.976562 -93.113281 75.28125 -93.1875 C 75.894531 -92.570312 76.523438 -91.328125 77.171875 -89.453125 C 77.828125 -87.578125 78.421875 -85.53125 78.953125 -83.3125 C 79.492188 -81.09375 79.953125 -79.046875 80.328125 -77.171875 C 80.710938 -75.304688 80.945312 -74.023438 81.03125 -73.328125 C 81.863281 -68.515625 82.644531 -63.773438 83.375 -59.109375 C 84.101562 -54.441406 84.46875 -49.695312 84.46875 -44.875 C 84.394531 -43.5 84.429688 -42.445312 84.578125 -41.71875 C 84.734375 -40.988281 84.8125 -39.972656 84.8125 -38.671875 L 84.703125 -31.21875 C 84.703125 -30.988281 84.71875 -30.832031 84.75 -30.75 C 84.789062 -30.675781 84.773438 -30.445312 84.703125 -30.0625 C 84.242188 -23.71875 83.742188 -17.804688 83.203125 -12.328125 C 82.671875 -6.859375 81.941406 -1.5625 81.015625 3.5625 C 80.097656 8.6875 78.894531 13.867188 77.40625 19.109375 C 75.914062 24.347656 73.984375 29.953125 71.609375 35.921875 C 71.078125 37.296875 70.296875 38.992188 69.265625 41.015625 C 68.234375 43.046875 67.066406 45.148438 65.765625 47.328125 C 64.460938 49.515625 63.140625 51.503906 61.796875 53.296875 C 60.460938 55.097656 59.222656 56.460938 58.078125 57.390625 C 56.546875 58.609375 54.9375 59.695312 53.25 60.65625 C 51.5625 61.613281 49.800781 62.09375 47.96875 62.09375 C 45.519531 62.09375 43.207031 61.226562 41.03125 59.5 C 38.851562 57.78125 37.1875 55.890625 36.03125 53.828125 C 34.5 51.378906 33.21875 48.375 32.1875 44.8125 C 31.15625 41.257812 30.332031 37.4375 29.71875 33.34375 C 29.113281 29.25 28.675781 25.113281 28.40625 20.9375 C 28.132812 16.769531 27.957031 12.8125 27.875 9.0625 C 27.800781 5.3125 27.765625 2.0625 27.765625 -0.6875 C 27.765625 -1.832031 27.820312 -2.671875 27.9375 -3.203125 C 28.0625 -3.742188 28.125 -4.550781 28.125 -5.625 C 28.125 -7.15625 28.101562 -8.875 28.0625 -10.78125 C 28.019531 -12.695312 28.039062 -14.382812 28.125 -15.84375 C 28.269531 -16.675781 28.363281 -17.4375 28.40625 -18.125 C 28.445312 -18.820312 28.46875 -19.703125 28.46875 -20.765625 C 28.46875 -21.691406 28.539062 -22.972656 28.6875 -24.609375 C 28.84375 -26.253906 28.976562 -28.035156 29.09375 -29.953125 C 29.207031 -31.867188 29.265625 -33.628906 29.265625 -35.234375 L 28.6875 -34.3125 C 28.613281 -34.082031 28.578125 -33.910156 28.578125 -33.796875 C 28.578125 -33.679688 28.5 -33.472656 28.34375 -33.171875 L 18.828125 -4.25 C 18.128906 -2.257812 17.34375 0.109375 16.46875 2.859375 C 15.59375 5.617188 14.65625 8.488281 13.65625 11.46875 C 12.664062 14.457031 11.707031 17.25 10.78125 19.84375 C 9.863281 22.445312 9.023438 24.554688 8.265625 26.171875 C 7.347656 28.003906 6.660156 29.4375 6.203125 30.46875 C 5.742188 31.5 5.222656 32.207031 4.640625 32.59375 C 4.066406 32.976562 3.132812 33.171875 1.84375 33.171875 C 1.144531 33.171875 0.601562 32.707031 0.21875 31.78125 C -0.15625 30.863281 -0.4375 29.789062 -0.625 28.5625 C -0.820312 27.34375 -0.9375 26.195312 -0.96875 25.125 C -1.007812 24.0625 -1.03125 23.375 -1.03125 23.0625 C -0.957031 22.226562 -0.9375 21.65625 -0.96875 21.34375 C -1.007812 21.039062 -0.992188 20.503906 -0.921875 19.734375 C -0.609375 16.984375 -0.429688 14.285156 -0.390625 11.640625 C -0.359375 9.003906 -0.148438 6.382812 0.234375 3.78125 C 0.835938 -0.269531 1.332031 -3.726562 1.71875 -6.59375 C 2.101562 -9.46875 2.539062 -12.375 3.03125 -15.3125 C 3.53125 -18.257812 4.203125 -21.800781 5.046875 -25.9375 L 6.765625 -33.046875 C 6.921875 -33.734375 7.070312 -34.34375 7.21875 -34.875 C 7.375 -35.414062 7.53125 -36.03125 7.6875 -36.71875 L 16.53125 -66.21875 C 16.832031 -66.988281 17.054688 -67.5625 17.203125 -67.9375 C 17.359375 -68.320312 17.59375 -68.820312 17.90625 -69.4375 C 19.125 -72.34375 20.019531 -74.347656 20.59375 -75.453125 C 21.175781 -76.566406 22.039062 -77.125 23.1875 -77.125 C 23.71875 -77.125 24.367188 -77.007812 25.140625 -76.78125 C 25.441406 -75.476562 25.570312 -74.578125 25.53125 -74.078125 C 25.5 -73.578125 25.367188 -73.234375 25.140625 -73.046875 C 24.910156 -72.859375 24.601562 -72.492188 24.21875 -71.953125 C 23.832031 -71.578125 23.296875 -70.488281 22.609375 -68.6875 C 21.921875 -66.882812 21.210938 -64.851562 20.484375 -62.59375 C 19.753906 -60.34375 19.082031 -58.222656 18.46875 -56.234375 C 17.863281 -54.242188 17.445312 -52.90625 17.21875 -52.21875 C 16.675781 -50.226562 16.140625 -48.253906 15.609375 -46.296875 C 15.078125 -44.347656 14.503906 -42.34375 13.890625 -40.28125 L 9.640625 -21.8125 C 9.023438 -18.363281 8.488281 -15.335938 8.03125 -12.734375 C 7.570312 -10.140625 7.171875 -7.65625 6.828125 -5.28125 C 6.484375 -2.90625 6.117188 -0.4375 5.734375 2.125 C 5.359375 4.6875 4.9375 7.6875 4.46875 11.125 C 4.164062 13.34375 3.972656 15.640625 3.890625 18.015625 C 3.816406 20.390625 3.78125 22.914062 3.78125 25.59375 L 4.59375 23.875 C 5.4375 22.03125 6.332031 19.804688 7.28125 17.203125 C 8.238281 14.609375 9.175781 12.007812 10.09375 9.40625 C 11.019531 6.8125 11.785156 4.554688 12.390625 2.640625 L 27.765625 -44.421875 C 28.148438 -45.640625 28.59375 -46.957031 29.09375 -48.375 C 29.59375 -49.789062 30.378906 -50.648438 31.453125 -50.953125 C 31.679688 -51.035156 31.945312 -51.078125 32.25 -51.078125 C 33.320312 -51.078125 34.046875 -50.425781 34.421875 -49.125 C 34.804688 -47.820312 35 -46.234375 35 -44.359375 C 35 -42.484375 34.941406 -40.644531 34.828125 -38.84375 C 34.710938 -37.050781 34.65625 -35.617188 34.65625 -34.546875 L 33.515625 -14.8125 C 33.359375 -13.28125 33.316406 -11.554688 33.390625 -9.640625 C 33.472656 -7.722656 33.515625 -5.960938 33.515625 -4.359375 C 33.515625 -3.597656 33.472656 -2.738281 33.390625 -1.78125 C 33.316406 -0.820312 33.28125 -0.078125 33.28125 0.453125 C 33.351562 1.453125 33.367188 2.082031 33.328125 2.34375 C 33.296875 2.613281 33.257812 2.976562 33.21875 3.4375 C 33.1875 3.894531 33.207031 4.96875 33.28125 6.65625 C 33.4375 8.257812 33.492188 10.4375 33.453125 13.1875 C 33.410156 15.945312 33.503906 18.4375 33.734375 20.65625 C 33.960938 22.570312 34.113281 24.253906 34.1875 25.703125 C 34.269531 27.160156 34.390625 28.671875 34.546875 30.234375 C 34.703125 31.804688 35.007812 33.78125 35.46875 36.15625 C 35.769531 37.6875 36.207031 39.65625 36.78125 42.0625 C 37.351562 44.46875 38.117188 46.859375 39.078125 49.234375 C 40.035156 51.609375 41.257812 53.597656 42.75 55.203125 C 44.238281 56.804688 46.054688 57.609375 48.203125 57.609375 C 50.117188 57.609375 51.992188 56.84375 53.828125 55.3125 C 55.660156 53.78125 57.378906 51.882812 58.984375 49.625 C 60.597656 47.375 62.015625 45.117188 63.234375 42.859375 C 64.460938 40.609375 65.421875 38.71875 66.109375 37.1875 C 68.398438 32.4375 70.367188 27.382812 72.015625 22.03125 C 73.660156 16.675781 75.035156 11.222656 76.140625 5.671875 C 77.253906 0.128906 78.117188 -5.203125 78.734375 -10.328125 C 79.722656 -18.585938 80.273438 -27.269531 80.390625 -36.375 C 80.503906 -45.476562 79.953125 -54.164062 78.734375 -62.4375 C 77.960938 -67.175781 77.15625 -71.226562 76.3125 -74.59375 C 75.476562 -77.957031 74.71875 -81.671875 74.03125 -85.734375 C 73.875 -86.804688 73.679688 -87.800781 73.453125 -88.71875 C 73.222656 -89.632812 73.109375 -90.585938 73.109375 -91.578125 Z M 73.109375 -91.578125 "/></g></g></g><g fill="#4ade80" fill-opacity="1"><g transform="translate(129.921358, 159.771036)"><g><path d="M 9.53125 0.453125 C 8 0.453125 6.640625 -0.0390625 5.453125 -1.03125 C 4.265625 -2.03125 3.363281 -3.0625 2.75 -4.125 C 1.375 -6.726562 0.585938 -9.804688 0.390625 -13.359375 C 0.203125 -16.921875 0.414062 -20.15625 1.03125 -23.0625 C 1.1875 -23.90625 1.394531 -24.921875 1.65625 -26.109375 C 1.925781 -27.296875 2.328125 -28.347656 2.859375 -29.265625 C 3.398438 -30.179688 4.050781 -30.640625 4.8125 -30.640625 C 6.570312 -30.640625 7.429688 -30.046875 7.390625 -28.859375 C 7.359375 -27.671875 7.035156 -25.832031 6.421875 -23.34375 C 5.816406 -20.863281 5.515625 -17.671875 5.515625 -13.765625 C 5.515625 -12.617188 5.664062 -11.242188 5.96875 -9.640625 C 6.269531 -8.035156 6.742188 -6.617188 7.390625 -5.390625 C 8.046875 -4.171875 8.875 -3.5625 9.875 -3.5625 C 11.09375 -3.5625 12.484375 -4.09375 14.046875 -5.15625 C 15.617188 -6.226562 17.070312 -7.429688 18.40625 -8.765625 C 19.75 -10.109375 20.691406 -11.128906 21.234375 -11.828125 C 21.390625 -11.972656 21.8125 -12.484375 22.5 -13.359375 C 23.1875 -14.242188 24.003906 -15.238281 24.953125 -16.34375 C 25.910156 -17.457031 26.847656 -18.4375 27.765625 -19.28125 C 28.691406 -20.125 29.421875 -20.546875 29.953125 -20.546875 C 30.484375 -20.546875 30.75 -20.085938 30.75 -19.171875 C 30.75 -18.628906 30.382812 -17.800781 29.65625 -16.6875 C 28.9375 -15.582031 28.078125 -14.414062 27.078125 -13.1875 C 26.085938 -11.96875 25.113281 -10.820312 24.15625 -9.75 C 23.195312 -8.675781 22.488281 -7.910156 22.03125 -7.453125 C 21.113281 -6.535156 20.023438 -5.445312 18.765625 -4.1875 C 17.503906 -2.925781 16.109375 -1.835938 14.578125 -0.921875 C 13.046875 -0.00390625 11.363281 0.453125 9.53125 0.453125 Z M 5.859375 -45.109375 C 5.859375 -46.398438 6.203125 -47.523438 6.890625 -48.484375 C 7.578125 -49.441406 8.34375 -49.921875 9.1875 -49.921875 C 10.101562 -49.921875 10.867188 -49.347656 11.484375 -48.203125 C 12.546875 -46.054688 12.675781 -44.390625 11.875 -43.203125 C 11.070312 -42.023438 10.097656 -41.4375 8.953125 -41.4375 C 8.179688 -41.4375 7.472656 -41.738281 6.828125 -42.34375 C 6.179688 -42.957031 5.859375 -43.878906 5.859375 -45.109375 Z M 5.859375 -45.109375 "/></g></g></g><g fill="#4ade80" fill-opacity="1"><g transform="translate(156.0843, 159.771036)"><g><path d="M 4.015625 -8.375 C 4.015625 -7.6875 4.164062 -7.34375 4.46875 -7.34375 C 5.007812 -7.34375 5.71875 -8.109375 6.59375 -9.640625 C 7.476562 -11.171875 8.414062 -13.082031 9.40625 -15.375 C 10.40625 -17.675781 11.363281 -19.992188 12.28125 -22.328125 C 13.195312 -24.660156 13.960938 -26.703125 14.578125 -28.453125 C 15.191406 -30.210938 15.5 -31.25 15.5 -31.5625 C 14.195312 -31.40625 13.179688 -31 12.453125 -30.34375 C 11.722656 -29.695312 11.050781 -28.957031 10.4375 -28.125 C 8.445312 -25.664062 6.878906 -22.65625 5.734375 -19.09375 C 4.585938 -15.539062 4.015625 -11.96875 4.015625 -8.375 Z M 17.09375 -34.65625 C 17.09375 -35.5 17.226562 -36.226562 17.5 -36.84375 C 17.769531 -37.457031 18.019531 -38.144531 18.25 -38.90625 L 20.65625 -51.875 C 20.882812 -52.71875 21.171875 -53.976562 21.515625 -55.65625 C 21.859375 -57.34375 22.335938 -58.953125 22.953125 -60.484375 C 23.566406 -62.015625 24.332031 -62.851562 25.25 -63 C 25.40625 -63 25.519531 -63.019531 25.59375 -63.0625 C 25.664062 -63.101562 25.742188 -63.125 25.828125 -63.125 C 26.890625 -63.125 27.5 -62.53125 27.65625 -61.34375 C 27.8125 -60.15625 27.71875 -58.71875 27.375 -57.03125 C 27.03125 -55.351562 26.609375 -53.75 26.109375 -52.21875 C 25.609375 -50.6875 25.285156 -49.578125 25.140625 -48.890625 C 23.296875 -42.691406 22.101562 -36.335938 21.5625 -29.828125 C 21.03125 -23.328125 20.820312 -16.785156 20.9375 -10.203125 C 21.050781 -3.628906 21.148438 2.867188 21.234375 9.296875 C 21.304688 11.742188 21.515625 13.710938 21.859375 15.203125 C 22.203125 16.691406 22.335938 17.742188 22.265625 18.359375 C 22.191406 18.972656 21.460938 19.28125 20.078125 19.28125 C 19.242188 19.28125 18.578125 18.34375 18.078125 16.46875 C 17.578125 14.59375 17.210938 12.144531 16.984375 9.125 C 16.753906 6.101562 16.640625 2.875 16.640625 -0.5625 C 16.640625 -4.007812 16.675781 -7.378906 16.75 -10.671875 C 16.832031 -13.960938 16.910156 -16.789062 16.984375 -19.15625 C 17.054688 -21.53125 17.09375 -23.101562 17.09375 -23.875 C 16.789062 -23.5625 16.597656 -23.367188 16.515625 -23.296875 C 16.441406 -23.222656 16.332031 -22.914062 16.1875 -22.375 L 12.171875 -12.625 C 11.628906 -11.476562 11.015625 -10.175781 10.328125 -8.71875 C 9.640625 -7.269531 8.78125 -6.007812 7.75 -4.9375 C 6.71875 -3.863281 5.472656 -3.328125 4.015625 -3.328125 C 2.410156 -3.328125 1.320312 -4.09375 0.75 -5.625 C 0.175781 -7.15625 0.00390625 -9.125 0.234375 -11.53125 C 0.460938 -13.945312 1.015625 -16.492188 1.890625 -19.171875 C 2.773438 -21.847656 3.882812 -24.390625 5.21875 -26.796875 C 6.5625 -29.203125 8.054688 -31.171875 9.703125 -32.703125 C 11.347656 -34.234375 13.050781 -35 14.8125 -35 C 15.414062 -35 15.738281 -34.941406 15.78125 -34.828125 C 15.820312 -34.710938 16.257812 -34.65625 17.09375 -34.65625 Z M 17.09375 -34.65625 "/></g></g></g><g fill="#4ade80" fill-opacity="1"><g transform="translate(181.788245, 159.771036)"><g><path d="M -0.6875 -9.53125 L 0 -22.5 C 0.0703125 -23.332031 0.144531 -24.34375 0.21875 -25.53125 C 0.300781 -26.71875 0.378906 -27.734375 0.453125 -28.578125 C 0.609375 -32.398438 1.085938 -36.1875 1.890625 -39.9375 C 2.691406 -43.6875 3.550781 -47.398438 4.46875 -51.078125 C 5.007812 -52.597656 5.429688 -53.609375 5.734375 -54.109375 C 6.046875 -54.609375 6.46875 -54.859375 7 -54.859375 C 7.226562 -54.859375 7.492188 -54.835938 7.796875 -54.796875 C 8.109375 -54.765625 8.457031 -54.707031 8.84375 -54.625 C 9.21875 -52.863281 9.132812 -50.78125 8.59375 -48.375 C 8.0625 -45.96875 7.644531 -43.769531 7.34375 -41.78125 C 6.5 -36.5 5.804688 -30.679688 5.265625 -24.328125 C 4.734375 -17.984375 4.46875 -11.941406 4.46875 -6.203125 L 4.8125 6.65625 L 5.734375 4.46875 C 6.804688 1.414062 7.707031 -1.160156 8.4375 -3.265625 C 9.164062 -5.367188 10.003906 -7.453125 10.953125 -9.515625 C 11.910156 -11.585938 13.195312 -14.113281 14.8125 -17.09375 C 15.644531 -18.625 16.460938 -19.925781 17.265625 -21 C 18.078125 -22.070312 19.320312 -22.609375 21 -22.609375 C 21.84375 -22.609375 22.4375 -21.992188 22.78125 -20.765625 C 23.125 -19.546875 23.332031 -18.207031 23.40625 -16.75 C 23.488281 -15.300781 23.53125 -14.234375 23.53125 -13.546875 C 23.53125 -11.398438 23.585938 -9.582031 23.703125 -8.09375 C 23.816406 -6.601562 24.253906 -5.128906 25.015625 -3.671875 C 26.773438 -4.054688 28.265625 -5.1875 29.484375 -7.0625 C 30.710938 -8.9375 31.828125 -10.5625 32.828125 -11.9375 C 33.359375 -12.78125 33.851562 -13.617188 34.3125 -14.453125 C 34.769531 -15.296875 35.226562 -16.175781 35.6875 -17.09375 C 36.375 -18.320312 36.925781 -19.164062 37.34375 -19.625 C 37.769531 -20.082031 38.210938 -20.3125 38.671875 -20.3125 C 38.898438 -20.3125 39.320312 -20.234375 39.9375 -20.078125 C 40.320312 -18.703125 40.242188 -17.59375 39.703125 -16.75 C 39.171875 -15.914062 38.597656 -14.921875 37.984375 -13.765625 C 37.453125 -12.773438 36.726562 -11.492188 35.8125 -9.921875 C 34.894531 -8.359375 33.859375 -6.828125 32.703125 -5.328125 C 31.554688 -3.835938 30.332031 -2.578125 29.03125 -1.546875 C 27.726562 -0.515625 26.390625 0 25.015625 0 C 22.492188 0 20.847656 -2.253906 20.078125 -6.765625 C 19.847656 -8.066406 19.695312 -9.804688 19.625 -11.984375 C 19.550781 -14.171875 19.515625 -16.066406 19.515625 -17.671875 C 18.972656 -17.285156 18.316406 -16.40625 17.546875 -15.03125 C 16.785156 -13.65625 16.019531 -12.101562 15.25 -10.375 C 14.488281 -8.65625 13.785156 -6.992188 13.140625 -5.390625 C 12.492188 -3.785156 11.976562 -2.5625 11.59375 -1.71875 C 10.675781 0.65625 9.929688 3.023438 9.359375 5.390625 C 8.785156 7.765625 8.148438 10.023438 7.453125 12.171875 C 7.078125 13.390625 6.640625 14.171875 6.140625 14.515625 C 5.640625 14.859375 4.851562 15.03125 3.78125 15.03125 C 2.945312 15.03125 2.257812 14.300781 1.71875 12.84375 C 1.1875 11.394531 0.75 9.578125 0.40625 7.390625 C 0.0625 5.210938 -0.1875 2.957031 -0.34375 0.625 C -0.5 -1.707031 -0.59375 -3.8125 -0.625 -5.6875 C -0.664062 -7.5625 -0.6875 -8.84375 -0.6875 -9.53125 Z M -0.6875 -9.53125 "/></g></g></g><g fill="#4ade80" fill-opacity="1"><g transform="translate(216.786928, 159.771036)"><g><path d="M 3.328125 46.015625 C 5.546875 46.015625 7.535156 45.363281 9.296875 44.0625 C 11.054688 42.769531 12.601562 41.203125 13.9375 39.359375 C 15.28125 37.523438 16.410156 35.804688 17.328125 34.203125 C 18.171875 32.597656 19.109375 30.300781 20.140625 27.3125 C 21.171875 24.332031 22.144531 21.097656 23.0625 17.609375 C 23.976562 14.128906 24.757812 10.835938 25.40625 7.734375 C 26.0625 4.640625 26.46875 2.210938 26.625 0.453125 C 25.707031 0.992188 24.863281 1.570312 24.09375 2.1875 L 12.859375 12.171875 C 12.546875 12.472656 12.238281 12.832031 11.9375 13.25 C 11.632812 13.675781 11.25 14.078125 10.78125 14.453125 C 8.945312 16.296875 7.300781 18.132812 5.84375 19.96875 C 4.394531 21.800781 2.941406 23.828125 1.484375 26.046875 C 0.796875 27.046875 0.0703125 28.3125 -0.6875 29.84375 C -1.457031 31.375 -2.085938 33 -2.578125 34.71875 C -3.078125 36.4375 -3.269531 38.132812 -3.15625 39.8125 C -3.039062 41.5 -2.410156 42.957031 -1.265625 44.1875 C -0.265625 45.40625 1.265625 46.015625 3.328125 46.015625 Z M 5.96875 -10.09375 C 7.113281 -10.707031 8.453125 -11.910156 9.984375 -13.703125 C 11.515625 -15.503906 13.117188 -17.648438 14.796875 -20.140625 C 16.484375 -22.628906 18.128906 -25.191406 19.734375 -27.828125 C 21.347656 -30.472656 22.820312 -32.921875 24.15625 -35.171875 C 25.5 -37.429688 26.550781 -39.25 27.3125 -40.625 C 28.226562 -42.15625 28.859375 -43.171875 29.203125 -43.671875 C 29.546875 -44.171875 30.332031 -44.421875 31.5625 -44.421875 C 32.175781 -44.421875 32.632812 -43.976562 32.9375 -43.09375 C 33.238281 -42.21875 33.46875 -41.144531 33.625 -39.875 C 33.78125 -38.613281 33.859375 -37.410156 33.859375 -36.265625 C 33.859375 -35.117188 33.859375 -34.238281 33.859375 -33.625 L 33.859375 -24.796875 C 33.859375 -22.878906 33.757812 -20.847656 33.5625 -18.703125 C 33.375 -16.566406 33.203125 -14.578125 33.046875 -12.734375 C 32.898438 -10.898438 32.828125 -9.445312 32.828125 -8.375 L 49.234375 -17.90625 C 49.617188 -18.132812 50.421875 -18.664062 51.640625 -19.5 C 52.867188 -20.34375 53.90625 -20.765625 54.75 -20.765625 C 55.4375 -20.765625 55.78125 -20.347656 55.78125 -19.515625 C 55.78125 -18.972656 55.144531 -18.242188 53.875 -17.328125 C 52.613281 -16.410156 51.273438 -15.566406 49.859375 -14.796875 C 48.453125 -14.035156 47.515625 -13.503906 47.046875 -13.203125 C 44.679688 -11.898438 42.332031 -10.5 40 -9 C 37.664062 -7.507812 35.390625 -6 33.171875 -4.46875 C 32.628906 -4.09375 32.335938 -3.769531 32.296875 -3.5 C 32.265625 -3.226562 32.171875 -2.675781 32.015625 -1.84375 C 31.484375 1.90625 30.71875 6.148438 29.71875 10.890625 C 28.726562 15.640625 27.503906 20.269531 26.046875 24.78125 C 24.597656 29.300781 22.914062 33.09375 21 36.15625 C 19.925781 38.21875 18.488281 40.257812 16.6875 42.28125 C 14.894531 44.3125 12.890625 45.992188 10.671875 47.328125 C 8.453125 48.671875 6.082031 49.34375 3.5625 49.34375 C 0.726562 49.34375 -1.640625 48.382812 -3.546875 46.46875 C -5.460938 44.5625 -6.421875 41.890625 -6.421875 38.453125 C -6.421875 35.921875 -5.769531 33.203125 -4.46875 30.296875 C -3.175781 27.390625 -1.441406 24.425781 0.734375 21.40625 C 2.921875 18.382812 5.273438 15.492188 7.796875 12.734375 C 10.328125 9.984375 12.851562 7.476562 15.375 5.21875 C 17.90625 2.96875 20.164062 1.113281 22.15625 -0.34375 C 22.53125 -0.726562 22.867188 -1.015625 23.171875 -1.203125 C 23.484375 -1.390625 23.867188 -1.640625 24.328125 -1.953125 C 25.398438 -2.867188 26.179688 -3.5 26.671875 -3.84375 C 27.171875 -4.1875 27.460938 -4.859375 27.546875 -5.859375 C 28.003906 -9.753906 28.421875 -13.347656 28.796875 -16.640625 C 29.179688 -19.929688 29.46875 -23.316406 29.65625 -26.796875 C 29.851562 -30.273438 29.953125 -34.195312 29.953125 -38.5625 C 29.722656 -38.40625 29.09375 -37.503906 28.0625 -35.859375 C 27.03125 -34.210938 25.863281 -32.300781 24.5625 -30.125 C 23.257812 -27.945312 22.035156 -25.921875 20.890625 -24.046875 C 19.742188 -22.171875 18.941406 -20.890625 18.484375 -20.203125 C 17.328125 -18.359375 15.925781 -16.191406 14.28125 -13.703125 C 12.644531 -11.222656 11.0625 -9.253906 9.53125 -7.796875 C 8.070312 -6.503906 6.734375 -5.859375 5.515625 -5.859375 C 4.285156 -5.859375 3.25 -6.445312 2.40625 -7.625 C 1.5625 -8.8125 1.140625 -10.398438 1.140625 -12.390625 C 1.140625 -13.617188 1.289062 -15.148438 1.59375 -16.984375 C 1.90625 -18.816406 2.367188 -20.632812 2.984375 -22.4375 C 3.597656 -24.238281 4.304688 -25.75 5.109375 -26.96875 C 5.910156 -28.195312 6.769531 -28.8125 7.6875 -28.8125 C 8.988281 -28.8125 9.640625 -28.347656 9.640625 -27.421875 C 9.640625 -26.503906 9.332031 -25.222656 8.71875 -23.578125 C 8.101562 -21.929688 7.488281 -19.960938 6.875 -17.671875 C 6.269531 -15.378906 5.96875 -12.851562 5.96875 -10.09375 Z M 5.96875 -10.09375 "/></g></g></g><g fill="#4ade80" fill-opacity="1"><g transform="translate(268.424316, 159.771036)"><g><path d="M 0 -11.59375 C 0 -13.195312 0.378906 -15.179688 1.140625 -17.546875 C 1.910156 -19.921875 2.984375 -22.273438 4.359375 -24.609375 C 5.734375 -26.953125 7.320312 -28.882812 9.125 -30.40625 C 10.925781 -31.9375 12.820312 -32.703125 14.8125 -32.703125 C 16.644531 -32.703125 18.132812 -32.164062 19.28125 -31.09375 C 20.425781 -30.03125 21.113281 -28.941406 21.34375 -27.828125 C 21.570312 -26.722656 21.191406 -26.171875 20.203125 -26.171875 C 19.429688 -26.171875 18.644531 -26.609375 17.84375 -27.484375 C 17.039062 -28.367188 16.101562 -28.8125 15.03125 -28.8125 C 14.1875 -28.8125 13.171875 -28.3125 11.984375 -27.3125 C 10.804688 -26.320312 9.375 -24.375 7.6875 -21.46875 C 6.925781 -20.238281 6.21875 -18.644531 5.5625 -16.6875 C 4.914062 -14.738281 4.59375 -12.8125 4.59375 -10.90625 C 4.738281 -11.050781 4.789062 -11.101562 4.75 -11.0625 C 4.71875 -11.03125 4.859375 -11.171875 5.171875 -11.484375 L 6.078125 -12.859375 C 6.691406 -13.773438 7.398438 -14.957031 8.203125 -16.40625 C 9.003906 -17.863281 9.828125 -19.335938 10.671875 -20.828125 C 11.515625 -22.316406 12.28125 -23.578125 12.96875 -24.609375 C 13.65625 -25.648438 14.191406 -26.171875 14.578125 -26.171875 C 15.953125 -26.171875 16.753906 -25.671875 16.984375 -24.671875 C 17.210938 -23.679688 17.304688 -22.457031 17.265625 -21 C 17.234375 -19.550781 17.367188 -18.097656 17.671875 -16.640625 C 18.128906 -14.578125 18.835938 -13.066406 19.796875 -12.109375 C 20.753906 -11.148438 21.84375 -10.671875 23.0625 -10.671875 C 25.207031 -10.671875 27.582031 -11.972656 30.1875 -14.578125 C 31.257812 -15.566406 32.023438 -16.382812 32.484375 -17.03125 C 32.941406 -17.6875 33.550781 -18.4375 34.3125 -19.28125 C 34.851562 -20.039062 35.539062 -20.421875 36.375 -20.421875 C 37.21875 -20.421875 37.582031 -19.710938 37.46875 -18.296875 C 37.351562 -16.890625 35.84375 -14.769531 32.9375 -11.9375 L 29.5 -9.1875 C 27.28125 -7.65625 25.132812 -6.890625 23.0625 -6.890625 C 21.15625 -6.890625 19.492188 -7.460938 18.078125 -8.609375 C 16.660156 -9.753906 15.566406 -11.164062 14.796875 -12.84375 C 14.035156 -14.53125 13.65625 -16.175781 13.65625 -17.78125 C 13.125 -17.40625 12.507812 -16.566406 11.8125 -15.265625 C 11.125 -13.960938 10.378906 -12.566406 9.578125 -11.078125 C 8.773438 -9.585938 7.953125 -8.285156 7.109375 -7.171875 C 6.273438 -6.066406 5.4375 -5.515625 4.59375 -5.515625 C 2.445312 -5.515625 1.144531 -6.007812 0.6875 -7 C 0.226562 -8 0 -9.53125 0 -11.59375 Z M 0 -11.59375 "/></g></g></g></svg>