<svg xmlns="http://www.w3.org/2000/svg" xmlns:xlink="http://www.w3.org/1999/xlink" width="500" zoomAndPan="magnify" viewBox="0 0 375 374.999991" height="500" preserveAspectRatio="xMidYMid meet" version="1.0"><defs><g/></defs><path stroke-linecap="butt" transform="matrix(1.53655, -0.0453193, 0.0453193, 1.53655, 57.185914, 155.064863)" fill="none" stroke-linejoin="miter" d="M 20.354336 72.307239 C 20.354389 67.13382 20.786836 62.039252 21.651602 57.026074 C 22.529143 52.010731 23.631083 47.230807 24.962651 42.681371 C 26.304305 38.134774 27.707183 34.011992 29.171285 30.313024 C 30.209472 27.69465 31.457969 24.927403 32.921708 22.016514 C 34.398221 19.103459 36.073965 16.331017 37.949014 13.69665 C 39.837138 11.049957 41.872097 8.855026 44.053817 7.114397 C 45.581438 5.916307 47.258381 4.913287 49.079641 4.102649 C 50.90135 3.27677 52.685448 2.864164 54.426854 2.864681 C 55.728464 2.864937 56.980968 3.151017 58.176747 3.722694 C 59.387765 4.294821 60.45151 5.205804 61.36798 6.455643 C 62.619164 8.251763 63.311329 9.952586 63.444323 11.563193 C 63.590092 13.171634 63.663078 15.006728 63.663282 17.068476 C 63.663357 18.875998 63.389764 20.911874 62.845117 23.173641 C 62.29838 25.420092 61.573835 27.747735 60.671557 30.154029 C 59.779813 32.547923 58.855207 34.849327 57.897812 37.055702 C 56.940342 39.264617 56.054912 41.185844 55.243989 42.821997 C 54.978204 43.472593 54.73193 43.978859 54.505242 44.338252 C 54.294242 44.682856 53.775759 44.937039 52.949941 45.095722 C 52.244977 44.604619 51.906891 44.172638 51.933144 43.799706 C 51.959771 43.414074 52.164738 42.843035 52.550659 42.084124 C 52.76407 41.48537 52.975908 40.939956 53.188712 40.447957 C 53.416757 39.956407 53.635465 39.436618 53.847303 38.891204 C 55.483608 35.128676 56.99307 31.270886 58.375539 27.322915 C 59.773323 23.372854 60.471051 19.196225 60.471264 14.793104 C 60.471867 12.014473 59.898662 9.98667 58.75419 8.709768 C 57.612633 7.420242 56.195281 6.775931 54.50729 6.774448 C 51.619289 6.775704 48.760756 8.191304 45.929075 11.023714 C 43.587284 13.364671 41.420487 16.237029 39.426143 19.640713 C 37.444424 23.047312 35.661479 26.6962 34.079698 30.592532 C 32.495302 34.491329 31.132561 38.373784 29.988861 42.242362 C 28.845085 46.113479 27.946821 49.676602 27.296457 52.936886 C 26.536844 56.53969 25.886648 60.483836 25.340864 64.766635 C 24.795529 69.034194 24.603481 73.304547 24.762328 77.572537 C 24.935967 81.856217 25.701232 85.819232 27.055583 89.461505 C 27.760922 91.74997 28.919603 93.751824 30.529086 95.466992 C 32.136029 97.182084 34.246191 98.040037 36.85195 98.040625 C 39.206024 98.041417 41.491792 97.427519 43.714185 96.20416 C 45.949277 94.981176 47.882258 93.744197 49.518208 92.493373 L 52.310711 90.041141 C 52.856557 89.548796 53.341585 89.136008 53.768335 88.802852 C 54.207336 88.485312 54.698044 88.052354 55.245463 87.506668 C 58.235912 84.462852 60.929202 81.150965 63.322717 77.573472 C 65.731097 74.009129 67.978572 70.297675 70.065066 66.441651 C 72.16725 62.570837 74.201745 58.753955 76.171092 54.99108 C 76.648543 54.059456 77.122383 53.422623 77.587684 53.075351 C 78.053283 52.717919 78.478079 52.537239 78.86446 52.538466 C 79.235677 52.536704 79.528963 52.67755 79.741928 52.955849 C 79.967967 53.221822 80.079632 53.486964 80.079385 53.75389 L 67.912136 75.997918 C 67.153922 77.139893 66.401686 78.251537 65.658119 79.327846 C 64.926803 80.419769 64.154846 81.510494 63.342249 82.60002 C 62.198891 84.129764 60.642531 85.957478 58.675635 88.085776 C 56.721438 90.214449 54.52714 92.295365 52.092738 94.328524 C 49.673128 96.377372 47.152244 98.067322 44.532704 99.39591 C 41.925789 100.727411 39.338576 101.39089 36.770917 101.391426 C 34.058327 101.392771 31.731501 100.726721 29.790364 99.395816 C 27.861853 98.067825 26.279043 96.310226 25.041711 94.130639 C 23.817154 91.948887 22.868131 89.561715 22.189562 86.968973 C 21.510618 84.388931 21.039956 81.815032 20.772419 79.249666 C 20.494423 76.694161 20.354166 74.381687 20.354336 72.307239 Z M 77.949038 66.681809 C 77.402486 66.680943 77.076944 66.340852 76.972336 65.664078 C 76.865637 64.971989 76.838728 64.246662 76.891608 63.488098 C 76.944413 62.732073 76.970897 62.265086 76.970912 62.092215 C 76.918174 61.122073 76.904211 60.130195 76.931487 59.119195 C 76.958689 58.110736 76.9457 57.085837 76.892445 56.04704 C 76.891057 55.663124 76.904638 54.944076 76.930498 53.894901 C 76.956808 52.830486 77.038481 51.699064 77.170361 50.503025 C 77.317931 49.292196 77.523908 48.25596 77.78844 47.389238 C 78.068512 46.512805 78.422133 46.073262 78.84669 46.073073 C 79.937254 46.074731 80.496178 46.431874 80.523237 47.152121 C 80.548206 47.857053 80.508236 48.781243 80.403329 49.92469 C 80.348762 50.309499 80.323476 50.735846 80.322466 51.201043 C 80.321831 51.653539 80.323961 52.098491 80.323701 52.538288 C 80.322909 53.0823 80.297031 53.442532 80.243676 53.613829 C 80.190622 53.774967 80.162428 54.127504 80.164176 54.671591 C 80.761864 54.231619 81.308084 53.726574 81.797757 53.156306 C 82.290045 52.583572 83.162863 52.296622 84.411058 52.297846 C 84.797514 52.296533 85.303801 52.283501 85.927377 52.258675 C 86.553569 52.231384 87.217486 52.217917 87.924208 52.218423 C 89.119063 52.218073 90.238234 52.284131 91.274103 52.416372 C 92.312436 52.551228 92.831244 52.889392 92.830377 53.435944 C 92.829585 53.979956 92.544401 54.340167 91.972435 54.511422 C 91.400768 54.672517 90.701883 54.75105 89.87817 54.752178 C 89.334158 54.751386 88.775281 54.737444 88.201538 54.710353 C 87.63026 54.685877 87.132417 54.671194 86.705321 54.671308 C 85.177425 54.672004 84.153119 54.751108 83.634867 54.911236 C 83.116616 55.071364 82.531314 55.694741 81.878813 56.786447 C 81.491925 57.491942 81.121094 58.256382 80.76124 59.079617 C 80.417001 59.890602 80.16427 60.788179 80.003047 61.772348 C 79.82967 62.479056 79.75707 63.216701 79.78517 63.987823 C 79.823806 64.746545 79.743967 65.38483 79.545653 65.902678 C 79.3575 66.420826 78.826166 66.679715 77.949038 66.681809 Z M 94.219402 65.125371 C 95.029462 64.897584 95.762616 64.174337 96.413933 62.9504 C 97.077949 61.726839 97.543709 60.329643 97.808598 58.761278 C 98.089177 57.178123 98.154963 55.72337 98.008648 54.392015 C 97.875408 53.048335 97.457576 52.13098 96.752612 51.639877 C 96.579916 52.23729 96.272429 53.095118 95.835229 54.213512 C 95.408265 55.329665 94.990629 56.560494 94.577318 57.903308 C 94.17962 59.233871 93.907283 60.537625 93.760305 61.814569 C 93.626102 63.089349 93.779084 64.194643 94.219402 65.125371 Z M 90.129379 62.353202 C 90.13026 61.63378 90.275651 60.583046 90.568091 59.201076 C 90.873681 57.804241 91.299182 56.306711 91.844521 54.711027 C 92.390235 53.102643 93.002056 51.580102 93.679986 50.143404 C 94.35829 48.694006 95.089988 47.502947 95.875005 46.572767 C 96.672797 45.640422 97.484744 45.176263 98.308457 45.175136 C 98.852469 45.175928 99.231659 45.420996 99.445876 45.915421 C 99.657628 46.407231 99.711607 46.81812 99.605198 47.150555 C 99.498197 47.416875 99.291835 47.690433 98.986188 47.968689 C 98.693616 48.23462 98.44071 48.534769 98.227545 48.866597 C 98.336063 49.23842 98.600788 49.658068 99.026875 50.12315 C 99.465662 50.588608 99.905034 51.206615 100.342377 51.979639 C 100.782709 52.737497 101.067554 53.767871 101.201993 55.070911 C 101.333892 56.373877 101.181573 58.090468 100.742573 60.218071 C 100.14297 63.050216 99.192977 65.178001 97.890055 66.60135 C 96.584967 68.011923 95.308326 68.716599 94.060131 68.715375 C 93.022907 68.71529 92.103016 68.184798 91.305688 67.118971 C 90.520984 66.056058 90.130625 64.465825 90.129379 62.353202 Z M 104.50799 55.809059 C 104.509042 54.82525 104.708005 53.682034 105.107493 52.376946 C 105.519606 51.074773 106.09114 49.797639 106.822021 48.548085 C 107.568592 47.28374 108.446105 46.234262 109.457251 45.394645 C 110.466157 44.544794 111.571847 44.119805 112.766701 44.119455 C 114.510648 44.120047 115.381037 45.208367 115.38026 47.38957 C 115.381862 48.800551 115.028069 49.50448 114.323886 49.504048 C 113.500173 49.505176 113.007468 48.79916 112.84816 47.391155 C 111.916294 48.042443 111.026597 49.160202 110.174067 50.741741 C 109.336777 52.32373 108.778506 54.013095 108.499255 55.809836 C 108.232778 57.604412 108.425242 59.181181 109.076719 60.537604 C 109.355539 61.255108 109.754646 61.859217 110.273964 62.352471 C 110.793732 62.830486 111.536593 63.071027 112.507776 63.069164 C 114.424594 63.069771 116.178968 62.54443 117.775979 61.493293 C 119.383524 60.429756 120.852657 59.146047 122.183302 57.644707 C 123.526722 56.141202 124.690018 54.711192 125.675732 53.354755 C 126.274197 52.543642 126.817495 52.137657 127.310707 52.136951 C 127.681849 52.137728 127.948161 52.331165 128.109645 52.717261 C 128.281738 53.088417 128.235158 53.547185 127.969905 54.093566 C 127.850203 54.359511 127.663413 54.659068 127.409608 54.989698 C 127.171342 55.310617 126.943912 55.608976 126.73232 55.887464 C 125.587403 57.297677 124.278052 58.766596 122.801652 60.296686 C 121.337953 61.827151 119.73629 63.122204 117.993974 64.186851 C 116.251658 65.251498 114.397924 65.784077 112.427767 65.781897 C 110.57953 65.783314 109.070873 65.304097 107.899182 64.346713 C 106.730031 63.389403 105.871681 62.151447 105.326599 60.63546 C 104.781891 59.106772 104.509046 57.497125 104.50799 55.809059 Z M 123.782778 60.216308 L 124.281383 50.982412 C 124.334698 50.381478 124.388919 49.663629 124.441581 48.826249 C 124.494618 47.976169 124.546524 47.250624 124.599764 46.65223 C 124.720864 43.925456 125.067201 41.23329 125.638849 38.573191 C 126.210872 35.900392 126.820246 33.254117 127.472051 30.634515 C 127.844926 29.542189 128.138134 28.823761 128.351673 28.479233 C 128.575822 28.119764 128.883627 27.940718 129.267543 27.93933 C 129.427639 27.94151 129.615375 27.954674 129.828137 27.981287 C 130.053673 28.005734 130.299081 28.046021 130.564433 28.099608 C 130.844927 29.363738 130.790866 30.851885 130.404642 32.569205 C 130.033733 34.284433 129.733433 35.846669 129.508825 37.256062 C 128.909668 41.021216 128.416339 45.163198 128.031303 49.684622 C 127.658967 54.206422 127.47364 58.507479 127.472706 62.590259 L 127.713627 71.74682 L 128.369603 70.192532 C 129.127978 68.010794 129.766794 66.176356 130.286126 64.686678 C 130.803293 63.184225 131.403981 61.694405 132.080569 60.216992 C 132.759623 58.742194 133.669321 56.946252 134.81467 54.831856 C 135.413756 53.741117 135.997737 52.817719 136.569229 52.059197 C 137.141096 51.287975 138.032076 50.902414 139.24217 50.902513 C 139.842138 50.902413 140.261429 51.339331 140.499894 52.218346 C 140.738809 53.082122 140.886201 54.032175 140.939456 55.070972 C 141.005485 56.107604 141.038816 56.873796 141.037057 57.364393 C 141.038053 58.882128 141.078886 60.169697 141.156792 61.234643 C 141.237238 62.299664 141.549499 63.348643 142.095965 64.386733 C 143.344781 64.108331 144.403213 63.303158 145.266107 61.973604 C 146.144316 60.64196 146.936 59.485719 147.641235 58.502342 C 148.027516 57.903602 148.378238 57.303813 148.698404 56.705665 C 149.03127 56.107892 149.362421 55.482103 149.69686 54.83099 C 150.187978 53.953155 150.579339 53.354565 150.873485 53.035294 C 151.178165 52.703622 151.490676 52.537426 151.811017 52.536706 C 151.983887 52.53672 152.28226 52.59128 152.70875 52.697921 C 152.987399 53.679811 152.933545 54.471395 152.549804 55.07021 C 152.176222 55.669325 151.771554 56.374296 151.33072 57.184974 C 150.945997 57.903244 150.428281 58.82097 149.775031 59.938076 C 149.124321 61.055257 148.385384 62.146956 147.560837 63.210707 C 146.749438 64.259593 145.878885 65.159285 144.949402 65.902164 C 144.030378 66.635182 143.078961 67.001165 142.095152 67.000113 C 140.300331 67.000563 139.130113 65.389871 138.584349 62.173117 C 138.425822 61.255784 138.312371 60.016918 138.246384 58.461675 C 138.193097 56.906806 138.166837 55.556112 138.164988 54.412057 C 137.793226 54.690906 137.334776 55.323108 136.789637 56.308665 C 136.244947 57.278982 135.699051 58.376374 135.154565 59.598377 C 134.607464 60.822845 134.102052 62.012951 133.638328 63.168696 C 133.172365 64.314206 132.806007 65.185551 132.539256 65.782732 C 131.88947 67.47194 131.356824 69.154434 130.943859 70.830289 C 130.533058 72.518919 130.07886 74.12746 129.588809 75.658677 C 129.321438 76.535484 129.01009 77.093217 128.649612 77.334265 C 128.304074 77.585922 127.746156 77.711831 126.973318 77.711917 C 126.375891 77.712092 125.882722 77.194186 125.498966 76.15581 C 125.125295 75.120274 124.812756 73.822149 124.561198 72.266517 C 124.32234 70.711259 124.148631 69.101994 124.04261 67.438796 C 123.93614 65.790839 123.86828 64.299095 123.841345 62.971261 C 123.80216 61.627813 123.783485 60.70952 123.782778 60.216308 Z M 152.951735 52.216981 C 153.989751 51.673055 155.133045 50.921229 156.381543 49.964044 C 157.645281 49.007308 158.329461 47.875861 158.436548 46.572318 C 157.731759 46.678642 156.980778 47.058163 156.183682 47.708342 C 155.399211 48.361436 154.719023 49.098956 154.148123 49.923593 C 153.575058 50.735455 153.176287 51.499071 152.951735 52.216981 Z M 149.281547 54.173016 C 149.280912 52.815451 149.725909 51.346461 150.616615 49.763505 C 151.52256 48.180999 152.63774 46.830922 153.969772 45.713498 C 155.311965 44.596374 156.635136 44.037978 157.939286 44.03831 C 159.734108 44.03786 160.672289 44.723966 160.751365 46.094014 C 160.843591 47.449196 160.266363 48.91937 159.014676 50.501848 C 158.350702 51.206798 157.36563 52.024304 156.061927 52.956981 C 154.758672 53.874417 153.482645 54.385902 152.233843 54.491434 C 152.233323 55.371027 152.258734 56.147154 152.312466 56.82497 C 152.366124 57.505326 152.744904 58.195271 153.448655 58.899885 C 154.154496 59.619814 155.051542 59.97676 156.142106 59.978419 C 157.565786 59.977192 159.035597 59.532436 160.551613 58.641612 C 162.080778 57.735923 163.252012 56.984921 164.062776 56.388532 C 164.393898 56.108485 164.654641 55.887375 164.839777 55.730133 C 165.040677 55.555561 165.272581 55.364108 165.53818 55.150768 C 166.68223 54.287107 167.400212 53.647305 167.691974 53.236444 C 167.999051 52.823492 168.258753 52.551508 168.471155 52.41795 C 168.696256 52.284767 169.216816 52.21877 170.027829 52.217267 C 170.147459 52.815676 170.193968 53.221261 170.167355 53.434022 C 170.140742 53.646784 169.935347 53.973757 169.548705 54.412327 C 168.563769 55.397623 167.320787 56.512589 165.816993 57.764768 C 164.328514 59.014858 162.725299 60.103945 161.009814 61.034646 C 159.294329 61.965346 157.592553 62.431225 155.904487 62.432281 C 155.024893 62.43176 154.195365 62.285267 153.410823 61.992653 C 152.624115 61.687263 151.87403 61.174491 151.155413 60.456727 C 150.184982 59.484941 149.627307 58.482111 149.479922 57.445622 C 149.347851 56.407042 149.280855 55.316995 149.281547 54.173016 Z M 143.968355 30.554145 C 143.968787 29.849963 144.628879 29.104223 145.943478 28.319316 C 147.248291 27.52141 148.895706 26.743777 150.890804 25.986568 C 152.87365 25.213744 154.966909 24.489936 157.175809 23.810215 C 159.369395 23.132584 161.397573 22.54668 163.260269 22.055041 C 165.107724 21.562952 166.499312 21.18453 167.429951 20.919623 C 168.573659 20.584733 169.369971 20.392131 169.824041 20.339426 C 170.288271 20.28702 170.588306 20.112829 170.721457 19.821859 C 170.867757 19.516023 171.020732 18.89769 171.180382 17.966862 C 171.617449 15.732429 172.12289 14.196581 172.696779 13.356779 C 173.268428 12.506742 173.825026 12.080812 174.371578 12.081678 C 174.811374 12.081939 175.175698 12.313858 175.469555 12.780124 C 175.773647 13.244151 175.927496 13.802893 175.926023 14.4562 C 175.926804 14.946872 175.892721 15.154329 175.826463 15.073566 C 175.775445 14.993252 175.775206 15.173743 175.828361 15.612573 C 175.827754 15.719328 175.841639 15.851933 175.867474 16.010313 C 175.908475 16.171682 175.927432 16.390873 175.926811 16.670499 C 175.92638 17.374681 175.788891 17.726537 175.509265 17.725917 C 175.242339 17.72567 174.969134 17.765915 174.689651 17.846649 C 174.425483 17.925293 174.291868 18.404375 174.291422 19.281428 C 174.94219 19.282826 175.661844 19.189652 176.445231 19.004295 C 177.244307 18.804148 177.942076 18.677279 178.541076 18.623764 C 180.93351 18.185883 183.327136 17.793796 185.721954 17.447505 C 188.117146 17.088514 190.570594 16.909197 193.082298 16.909553 C 194.386448 16.909884 195.336841 17.181969 195.936016 17.725881 C 196.535116 18.272333 196.752915 18.817708 196.594493 19.362155 C 196.43353 19.906527 195.835632 20.181248 194.798409 20.181163 C 194.691913 19.74076 194.619166 19.535237 194.580242 19.562053 C 194.551478 19.589169 194.300991 19.548732 193.821085 19.443058 C 193.596448 19.38813 193.1574 19.36247 192.504018 19.363536 C 191.360038 19.362844 189.843712 19.48845 187.957578 19.740429 C 186.081979 19.980008 184.133837 20.265749 182.110535 20.600117 C 180.102998 20.917155 178.306582 21.230251 176.726441 21.537015 C 175.15691 21.828839 174.126468 22.029789 173.632725 22.13471 L 171.996992 38.893092 C 171.944965 39.277975 171.930288 39.689382 171.957968 40.130003 C 171.983558 40.555309 171.996222 40.98786 171.998577 41.425192 C 171.99771 41.971744 171.956816 42.323906 171.878361 42.484295 C 171.797441 42.642068 171.758114 43.027326 171.757839 43.639993 C 171.758114 44.837387 171.783625 46.213482 171.836912 47.768351 C 171.890499 49.31306 171.864999 50.522405 171.757798 51.398852 C 171.705089 51.89303 171.658691 52.862791 171.618455 54.313212 C 171.591367 55.748769 171.565008 57.418231 171.539451 59.319059 C 171.511279 61.222352 171.497823 63.143874 171.499008 65.086166 C 171.498102 67.013144 171.499676 68.769865 171.498799 70.351101 C 171.497846 71.934877 171.525169 73.07714 171.578078 73.782896 C 171.578253 74.380323 171.645414 75.292419 171.777095 76.51657 C 171.924091 77.738629 171.957618 78.842942 171.877751 79.826969 C 171.797883 80.810995 171.399508 81.302605 170.68001 81.304264 C 169.655562 81.302013 169.031735 80.731952 168.806141 79.588925 C 168.593322 78.443733 168.487402 77.380502 168.485914 76.396619 C 168.327473 74.442062 168.227181 72.153647 168.187504 69.533988 C 168.160527 66.914704 168.16134 64.301325 168.187403 61.693774 C 168.226541 59.073898 168.248244 56.786539 168.247434 54.831547 L 168.485542 50.982019 C 168.487622 50.221956 168.486523 49.052502 168.4874 47.471266 C 168.485812 45.887415 168.512321 44.212873 168.567078 42.44256 C 168.619219 40.674711 168.671945 39.059414 168.725257 37.596666 C 168.779018 36.118679 168.857918 35.081238 168.964499 34.484417 C 169.084821 33.938846 169.157415 33.287636 169.184895 32.528322 C 169.210209 31.756234 169.249932 31.09897 169.304139 30.553991 L 170.041819 22.954168 C 169.816575 23.005996 169.337847 23.118987 168.605635 23.293142 C 167.873872 23.452057 167.29033 23.584837 166.849926 23.691332 C 164.176653 24.342104 161.631572 25.042416 159.209753 25.78704 C 156.790923 26.516498 154.297078 27.375939 151.728366 28.360283 C 151.236556 28.572036 150.792407 28.805531 150.393454 29.058156 C 149.979636 29.29763 149.528091 29.523281 149.036282 29.735033 C 148.384819 30.015801 147.964803 30.206791 147.778626 30.313157 C 147.579674 30.421689 147.481498 30.561158 147.481484 30.734029 C 147.479379 30.891584 147.346896 31.24613 147.081718 31.789971 C 146.856399 31.844339 146.636609 31.883616 146.422274 31.910343 C 146.210479 31.937146 145.963499 31.950199 145.683873 31.949578 C 145.246616 31.949393 144.852772 31.856426 144.507419 31.670826 C 144.149741 31.472153 143.970103 31.098232 143.968355 30.554145 Z M 143.968355 30.554145 " stroke="#ffffff" stroke-width="1.327835" stroke-opacity="1" stroke-miterlimit="4"/><g fill="#ffffff" fill-opacity="1"><g transform="translate(92.753949, 257.054206)"><g><path d="M -1.015625 8.203125 C -1.242188 0.242188 -0.804688 -7.597656 0.296875 -15.328125 C 1.410156 -23.066406 2.890625 -30.460938 4.734375 -37.515625 C 6.585938 -44.578125 8.5625 -50.984375 10.65625 -56.734375 C 12.125 -60.796875 13.921875 -65.101562 16.046875 -69.65625 C 18.171875 -74.207031 20.613281 -78.550781 23.375 -82.6875 C 26.144531 -86.832031 29.164062 -90.289062 32.4375 -93.0625 C 34.726562 -94.96875 37.257812 -96.59375 40.03125 -97.9375 C 42.800781 -99.28125 45.523438 -99.988281 48.203125 -100.0625 C 50.203125 -100.125 52.132812 -99.742188 54 -98.921875 C 55.875 -98.097656 57.546875 -96.742188 59.015625 -94.859375 C 61.023438 -92.148438 62.171875 -89.5625 62.453125 -87.09375 C 62.734375 -84.632812 62.921875 -81.816406 63.015625 -78.640625 C 63.097656 -75.878906 62.773438 -72.75 62.046875 -69.25 C 61.316406 -65.75 60.3125 -62.140625 59.03125 -58.421875 C 57.757812 -54.703125 56.441406 -51.125 55.078125 -47.6875 C 53.710938 -44.25 52.441406 -41.257812 51.265625 -38.71875 C 50.878906 -37.695312 50.523438 -36.910156 50.203125 -36.359375 C 49.890625 -35.804688 49.109375 -35.378906 47.859375 -35.078125 C 46.742188 -35.804688 46.195312 -36.460938 46.21875 -37.046875 C 46.25 -37.628906 46.539062 -38.519531 47.09375 -39.71875 C 47.394531 -40.644531 47.703125 -41.488281 48.015625 -42.25 C 48.328125 -43.019531 48.640625 -43.828125 48.953125 -44.671875 C 51.285156 -50.523438 53.429688 -56.515625 55.390625 -62.640625 C 57.347656 -68.773438 58.226562 -75.234375 58.03125 -82.015625 C 57.894531 -86.285156 56.914062 -89.375 55.09375 -91.28125 C 53.28125 -93.195312 51.082031 -94.117188 48.5 -94.046875 C 44.0625 -93.910156 39.734375 -91.609375 35.515625 -87.140625 C 32.015625 -83.429688 28.8125 -78.910156 25.90625 -73.578125 C 23 -68.253906 20.421875 -62.566406 18.171875 -56.515625 C 15.929688 -50.472656 14.019531 -44.453125 12.4375 -38.453125 C 10.851562 -32.453125 9.632812 -26.925781 8.78125 -21.875 C 7.769531 -16.3125 6.941406 -10.234375 6.296875 -3.640625 C 5.660156 2.953125 5.5625 9.53125 6 16.09375 C 6.445312 22.65625 7.800781 28.710938 10.0625 34.265625 C 11.25 37.742188 13.113281 40.765625 15.65625 43.328125 C 18.207031 45.898438 21.488281 47.128906 25.5 47.015625 C 29.101562 46.898438 32.59375 45.847656 35.96875 43.859375 C 39.34375 41.878906 42.265625 39.890625 44.734375 37.890625 L 48.890625 34 C 49.703125 33.21875 50.4375 32.566406 51.09375 32.046875 C 51.75 31.523438 52.476562 30.832031 53.28125 29.96875 C 57.738281 25.144531 61.726562 19.9375 65.25 14.34375 C 68.78125 8.75 72.070312 2.9375 75.125 -3.09375 C 78.175781 -9.132812 81.117188 -15.082031 83.953125 -20.9375 C 84.671875 -22.382812 85.375 -23.390625 86.0625 -23.953125 C 86.757812 -24.523438 87.398438 -24.816406 87.984375 -24.828125 C 88.566406 -24.847656 89.03125 -24.65625 89.375 -24.25 C 89.71875 -23.84375 89.898438 -23.425781 89.921875 -23 L 72.21875 11.6875 C 71.101562 13.488281 70.003906 15.238281 68.921875 16.9375 C 67.847656 18.644531 66.703125 20.351562 65.484375 22.0625 C 63.796875 24.46875 61.488281 27.347656 58.5625 30.703125 C 55.644531 34.054688 52.375 37.359375 48.75 40.609375 C 45.125 43.859375 41.332031 46.566406 37.375 48.734375 C 33.414062 50.898438 29.46875 52.039062 25.53125 52.15625 C 21.34375 52.28125 17.734375 51.359375 14.703125 49.390625 C 11.679688 47.429688 9.175781 44.800781 7.1875 41.5 C 5.207031 38.207031 3.632812 34.585938 2.46875 30.640625 C 1.3125 26.703125 0.46875 22.769531 -0.0625 18.84375 C -0.601562 14.925781 -0.921875 11.378906 -1.015625 8.203125 Z M -1.015625 8.203125 "/></g></g></g><g fill="#ffffff" fill-opacity="1"><g transform="translate(178.247392, 254.532644)"><g><path d="M 1.75 -0.546875 C 0.90625 -0.523438 0.382812 -1.035156 0.1875 -2.078125 C -0.0078125 -3.117188 -0.0820312 -4.222656 -0.03125 -5.390625 C 0.0078125 -6.566406 0.03125 -7.28125 0.03125 -7.53125 C -0.09375 -9.039062 -0.15625 -10.566406 -0.15625 -12.109375 C -0.164062 -13.660156 -0.238281 -15.234375 -0.375 -16.828125 C -0.382812 -17.398438 -0.394531 -18.503906 -0.40625 -20.140625 C -0.414062 -21.773438 -0.34375 -23.519531 -0.1875 -25.375 C -0.03125 -27.226562 0.234375 -28.828125 0.609375 -30.171875 C 0.992188 -31.523438 1.519531 -32.210938 2.1875 -32.234375 C 3.863281 -32.285156 4.738281 -31.765625 4.8125 -30.671875 C 4.882812 -29.585938 4.863281 -28.160156 4.75 -26.390625 C 4.6875 -25.804688 4.664062 -25.15625 4.6875 -24.4375 C 4.707031 -23.726562 4.726562 -23.039062 4.75 -22.375 C 4.769531 -21.539062 4.742188 -20.992188 4.671875 -20.734375 C 4.597656 -20.484375 4.570312 -19.941406 4.59375 -19.109375 C 5.488281 -19.796875 6.300781 -20.59375 7.03125 -21.5 C 7.757812 -22.40625 9.085938 -22.882812 11.015625 -22.9375 C 11.597656 -22.957031 12.367188 -23 13.328125 -23.0625 C 14.296875 -23.132812 15.320312 -23.1875 16.40625 -23.21875 C 18.238281 -23.269531 19.953125 -23.210938 21.546875 -23.046875 C 23.148438 -22.890625 23.96875 -22.390625 24 -21.546875 C 24.019531 -20.710938 23.59375 -20.15625 22.71875 -19.875 C 21.84375 -19.601562 20.773438 -19.453125 19.515625 -19.421875 C 18.679688 -19.398438 17.828125 -19.394531 16.953125 -19.40625 C 16.078125 -19.425781 15.304688 -19.425781 14.640625 -19.40625 C 12.296875 -19.332031 10.726562 -19.160156 9.9375 -18.890625 C 9.15625 -18.617188 8.28125 -17.632812 7.3125 -15.9375 C 6.757812 -14.820312 6.234375 -13.628906 5.734375 -12.359375 C 5.234375 -11.085938 4.878906 -9.691406 4.671875 -8.171875 C 4.441406 -7.085938 4.363281 -5.957031 4.4375 -4.78125 C 4.519531 -3.613281 4.425781 -2.625 4.15625 -1.8125 C 3.882812 -1.007812 3.082031 -0.585938 1.75 -0.546875 Z M 1.75 -0.546875 "/></g></g></g><g fill="#ffffff" fill-opacity="1"><g transform="translate(198.710589, 253.929098)"><g><path d="M 6.203125 -3.078125 C 7.453125 -3.441406 8.546875 -4.582031 9.484375 -6.5 C 10.429688 -8.414062 11.078125 -10.59375 11.421875 -13.03125 C 11.773438 -15.46875 11.816406 -17.707031 11.546875 -19.75 C 11.285156 -21.789062 10.59375 -23.171875 9.46875 -23.890625 C 9.25 -22.960938 8.828125 -21.632812 8.203125 -19.90625 C 7.585938 -18.175781 6.992188 -16.273438 6.421875 -14.203125 C 5.859375 -12.128906 5.503906 -10.109375 5.359375 -8.140625 C 5.210938 -6.171875 5.492188 -4.484375 6.203125 -3.078125 Z M -0.21875 -7.15625 C -0.25 -8.25 -0.0664062 -9.867188 0.328125 -12.015625 C 0.722656 -14.171875 1.300781 -16.488281 2.0625 -18.96875 C 2.832031 -21.457031 3.707031 -23.828125 4.6875 -26.078125 C 5.675781 -28.328125 6.753906 -30.179688 7.921875 -31.640625 C 9.097656 -33.097656 10.316406 -33.847656 11.578125 -33.890625 C 12.410156 -33.910156 13.003906 -33.550781 13.359375 -32.8125 C 13.722656 -32.070312 13.828125 -31.445312 13.671875 -30.9375 C 13.515625 -30.507812 13.210938 -30.078125 12.765625 -29.640625 C 12.316406 -29.210938 11.929688 -28.742188 11.609375 -28.234375 C 11.796875 -27.648438 12.234375 -27.015625 12.921875 -26.328125 C 13.617188 -25.640625 14.316406 -24.71875 15.015625 -23.5625 C 15.722656 -22.414062 16.207031 -20.84375 16.46875 -18.84375 C 16.738281 -16.84375 16.585938 -14.195312 16.015625 -10.90625 C 15.234375 -6.519531 13.867188 -3.207031 11.921875 -0.96875 C 9.972656 1.257812 8.035156 2.40625 6.109375 2.46875 C 4.515625 2.507812 3.085938 1.726562 1.828125 0.125 C 0.566406 -1.46875 -0.113281 -3.894531 -0.21875 -7.15625 Z M -0.21875 -7.15625 "/></g></g></g><g fill="#ffffff" fill-opacity="1"><g transform="translate(220.805808, 253.277417)"><g><path d="M -0.5 -17.203125 C -0.550781 -18.703125 -0.289062 -20.46875 0.28125 -22.5 C 0.851562 -24.53125 1.675781 -26.523438 2.75 -28.484375 C 3.820312 -30.441406 5.113281 -32.09375 6.625 -33.4375 C 8.132812 -34.78125 9.8125 -35.476562 11.65625 -35.53125 C 14.332031 -35.613281 15.71875 -33.976562 15.8125 -30.625 C 15.875 -28.445312 15.363281 -27.335938 14.28125 -27.296875 C 13.019531 -27.265625 12.234375 -28.332031 11.921875 -30.5 C 10.523438 -29.457031 9.210938 -27.703125 7.984375 -25.234375 C 6.765625 -22.773438 5.984375 -20.15625 5.640625 -17.375 C 5.304688 -14.601562 5.671875 -12.1875 6.734375 -10.125 C 7.179688 -9.050781 7.816406 -8.148438 8.640625 -7.421875 C 9.460938 -6.691406 10.628906 -6.347656 12.140625 -6.390625 C 15.066406 -6.484375 17.734375 -7.378906 20.140625 -9.078125 C 22.554688 -10.773438 24.753906 -12.804688 26.734375 -15.171875 C 28.722656 -17.535156 30.441406 -19.785156 31.890625 -21.921875 C 32.785156 -23.203125 33.609375 -23.851562 34.359375 -23.875 C 34.941406 -23.894531 35.363281 -23.613281 35.625 -23.03125 C 35.894531 -22.457031 35.835938 -21.742188 35.453125 -20.890625 C 35.296875 -20.472656 35.035156 -20.003906 34.671875 -19.484375 C 34.316406 -18.960938 33.976562 -18.492188 33.65625 -18.078125 C 31.957031 -15.847656 30.007812 -13.53125 27.8125 -11.125 C 25.625 -8.71875 23.210938 -6.660156 20.578125 -4.953125 C 17.953125 -3.242188 15.132812 -2.34375 12.125 -2.25 C 9.269531 -2.164062 6.921875 -2.828125 5.078125 -4.234375 C 3.242188 -5.648438 1.875 -7.515625 0.96875 -9.828125 C 0.0625 -12.148438 -0.425781 -14.609375 -0.5 -17.203125 Z M -0.5 -17.203125 "/></g></g></g><g fill="#ffffff" fill-opacity="1"><g transform="translate(251.186733, 252.381356)"><g><path d="M -1.0625 -10.40625 L -0.71875 -24.609375 C -0.664062 -25.523438 -0.613281 -26.632812 -0.5625 -27.9375 C -0.519531 -29.238281 -0.472656 -30.351562 -0.421875 -31.28125 C -0.378906 -35.46875 0.0195312 -39.625 0.78125 -43.75 C 1.539062 -47.875 2.367188 -51.957031 3.265625 -56 C 3.796875 -57.695312 4.21875 -58.820312 4.53125 -59.375 C 4.851562 -59.9375 5.304688 -60.222656 5.890625 -60.234375 C 6.140625 -60.242188 6.429688 -60.234375 6.765625 -60.203125 C 7.109375 -60.171875 7.488281 -60.117188 7.90625 -60.046875 C 8.382812 -58.128906 8.367188 -55.84375 7.859375 -53.1875 C 7.359375 -50.539062 6.96875 -48.125 6.6875 -45.9375 C 5.9375 -40.144531 5.367188 -33.765625 4.984375 -26.796875 C 4.609375 -19.828125 4.515625 -13.203125 4.703125 -6.921875 L 5.5 7.125 L 6.421875 4.71875 C 7.492188 1.332031 8.394531 -1.519531 9.125 -3.84375 C 9.851562 -6.175781 10.707031 -8.488281 11.6875 -10.78125 C 12.664062 -13.070312 13.988281 -15.875 15.65625 -19.1875 C 16.519531 -20.882812 17.367188 -22.332031 18.203125 -23.53125 C 19.046875 -24.726562 20.390625 -25.351562 22.234375 -25.40625 C 23.160156 -25.4375 23.832031 -24.785156 24.25 -23.453125 C 24.664062 -22.117188 24.9375 -20.660156 25.0625 -19.078125 C 25.195312 -17.503906 25.273438 -16.34375 25.296875 -15.59375 C 25.367188 -13.25 25.488281 -11.257812 25.65625 -9.625 C 25.832031 -7.988281 26.363281 -6.390625 27.25 -4.828125 C 29.15625 -5.296875 30.75 -6.578125 32.03125 -8.671875 C 33.320312 -10.765625 34.484375 -12.582031 35.515625 -14.125 C 36.078125 -15.050781 36.597656 -15.984375 37.078125 -16.921875 C 37.554688 -17.859375 38.03125 -18.835938 38.5 -19.859375 C 39.207031 -21.210938 39.785156 -22.144531 40.234375 -22.65625 C 40.679688 -23.175781 41.15625 -23.445312 41.65625 -23.46875 C 41.90625 -23.476562 42.375 -23.40625 43.0625 -23.25 C 43.519531 -21.757812 43.46875 -20.546875 42.90625 -19.609375 C 42.34375 -18.671875 41.75 -17.566406 41.125 -16.296875 C 40.570312 -15.191406 39.816406 -13.765625 38.859375 -12.015625 C 37.898438 -10.273438 36.816406 -8.566406 35.609375 -6.890625 C 34.410156 -5.222656 33.113281 -3.800781 31.71875 -2.625 C 30.320312 -1.457031 28.875 -0.851562 27.375 -0.8125 C 24.601562 -0.726562 22.726562 -3.140625 21.75 -8.046875 C 21.457031 -9.472656 21.234375 -11.375 21.078125 -13.75 C 20.921875 -16.132812 20.820312 -18.203125 20.78125 -19.953125 C 20.195312 -19.523438 19.507812 -18.546875 18.71875 -17.015625 C 17.925781 -15.484375 17.140625 -13.765625 16.359375 -11.859375 C 15.585938 -9.953125 14.867188 -8.109375 14.203125 -6.328125 C 13.546875 -4.546875 13.019531 -3.191406 12.625 -2.265625 C 11.695312 0.367188 10.957031 2.988281 10.40625 5.59375 C 9.851562 8.207031 9.238281 10.703125 8.5625 13.078125 C 8.175781 14.429688 7.71875 15.300781 7.1875 15.6875 C 6.65625 16.082031 5.800781 16.296875 4.625 16.328125 C 3.707031 16.359375 2.929688 15.585938 2.296875 14.015625 C 1.660156 12.441406 1.117188 10.460938 0.671875 8.078125 C 0.234375 5.703125 -0.101562 3.238281 -0.34375 0.6875 C -0.59375 -1.851562 -0.769531 -4.148438 -0.875 -6.203125 C -0.976562 -8.253906 -1.039062 -9.65625 -1.0625 -10.40625 Z M -1.0625 -10.40625 "/></g></g></g><g fill="#ffffff" fill-opacity="1"><g transform="translate(289.476754, 251.252022)"><g><path d="M 5.109375 -22.890625 C 6.679688 -23.765625 8.40625 -24.960938 10.28125 -26.484375 C 12.15625 -28.015625 13.148438 -29.789062 13.265625 -31.8125 C 12.179688 -31.613281 11.046875 -30.992188 9.859375 -29.953125 C 8.679688 -28.910156 7.671875 -27.75 6.828125 -26.46875 C 5.984375 -25.1875 5.410156 -23.992188 5.109375 -22.890625 Z M -0.453125 -19.703125 C -0.515625 -21.796875 0.101562 -24.078125 1.40625 -26.546875 C 2.71875 -29.015625 4.375 -31.140625 6.375 -32.921875 C 8.375 -34.703125 10.378906 -35.617188 12.390625 -35.671875 C 15.148438 -35.753906 16.625 -34.75 16.8125 -32.65625 C 17 -30.570312 16.171875 -28.285156 14.328125 -25.796875 C 13.347656 -24.679688 11.875 -23.378906 9.90625 -21.890625 C 7.9375 -20.410156 5.992188 -19.5625 4.078125 -19.34375 C 4.117188 -18.007812 4.195312 -16.816406 4.3125 -15.765625 C 4.425781 -14.722656 5.046875 -13.675781 6.171875 -12.625 C 7.296875 -11.5625 8.691406 -11.054688 10.359375 -11.109375 C 12.535156 -11.171875 14.773438 -11.929688 17.078125 -13.390625 C 19.378906 -14.847656 21.140625 -16.050781 22.359375 -17 C 22.847656 -17.4375 23.238281 -17.78125 23.53125 -18.03125 C 23.820312 -18.28125 24.171875 -18.582031 24.578125 -18.9375 C 26.296875 -20.320312 27.375 -21.335938 27.8125 -21.984375 C 28.25 -22.628906 28.628906 -23.0625 28.953125 -23.28125 C 29.285156 -23.5 30.082031 -23.625 31.34375 -23.65625 C 31.539062 -22.75 31.625 -22.125 31.59375 -21.78125 C 31.5625 -21.445312 31.265625 -20.9375 30.703125 -20.25 C 29.234375 -18.707031 27.375 -16.941406 25.125 -14.953125 C 22.882812 -12.960938 20.46875 -11.210938 17.875 -9.703125 C 15.28125 -8.203125 12.6875 -7.410156 10.09375 -7.328125 C 8.757812 -7.296875 7.472656 -7.492188 6.234375 -7.921875 C 5.003906 -8.347656 3.832031 -9.085938 2.71875 -10.140625 C 1.164062 -11.597656 0.257812 -13.117188 0 -14.703125 C -0.25 -16.285156 -0.398438 -17.953125 -0.453125 -19.703125 Z M -0.453125 -19.703125 "/></g></g></g><g fill="#ffffff" fill-opacity="1"><g transform="translate(316.719166, 250.448529)"><g><path d="M -36.9375 -54.9375 C -36.96875 -56.03125 -35.992188 -57.210938 -34.015625 -58.484375 C -32.046875 -59.765625 -29.546875 -61.035156 -26.515625 -62.296875 C -23.492188 -63.554688 -20.304688 -64.757812 -16.953125 -65.90625 C -13.597656 -67.050781 -10.503906 -68.039062 -7.671875 -68.875 C -4.847656 -69.71875 -2.738281 -70.367188 -1.34375 -70.828125 C 0.40625 -71.378906 1.632812 -71.707031 2.34375 -71.8125 C 3.050781 -71.914062 3.503906 -72.203125 3.703125 -72.671875 C 3.898438 -73.148438 4.101562 -74.097656 4.3125 -75.515625 C 4.875 -78.972656 5.578125 -81.363281 6.421875 -82.6875 C 7.265625 -84.007812 8.109375 -84.6875 8.953125 -84.71875 C 9.617188 -84.726562 10.191406 -84.382812 10.671875 -83.6875 C 11.148438 -83 11.40625 -82.148438 11.4375 -81.140625 C 11.457031 -80.390625 11.421875 -80.078125 11.328125 -80.203125 C 11.242188 -80.328125 11.253906 -80.054688 11.359375 -79.390625 C 11.359375 -79.210938 11.382812 -79 11.4375 -78.75 C 11.488281 -78.5 11.519531 -78.164062 11.53125 -77.75 C 11.5625 -76.664062 11.367188 -76.117188 10.953125 -76.109375 C 10.535156 -76.097656 10.117188 -76.019531 9.703125 -75.875 C 9.296875 -75.726562 9.113281 -74.988281 9.15625 -73.65625 C 10.15625 -73.6875 11.253906 -73.863281 12.453125 -74.1875 C 13.660156 -74.519531 14.722656 -74.742188 15.640625 -74.859375 C 19.296875 -75.628906 22.957031 -76.34375 26.625 -77 C 30.300781 -77.65625 34.0625 -78.039062 37.90625 -78.15625 C 39.914062 -78.21875 41.390625 -77.84375 42.328125 -77.03125 C 43.273438 -76.21875 43.632812 -75.382812 43.40625 -74.53125 C 43.1875 -73.6875 42.28125 -73.242188 40.6875 -73.203125 C 40.5 -73.867188 40.382812 -74.179688 40.34375 -74.140625 C 40.3125 -74.097656 39.914062 -74.148438 39.15625 -74.296875 C 38.820312 -74.367188 38.148438 -74.390625 37.140625 -74.359375 C 35.378906 -74.304688 33.0625 -74.046875 30.1875 -73.578125 C 27.3125 -73.117188 24.332031 -72.59375 21.25 -72 C 18.164062 -71.40625 15.414062 -70.84375 13 -70.3125 C 10.59375 -69.78125 9.015625 -69.414062 8.265625 -69.21875 L 6.5 -43.421875 C 6.4375 -42.828125 6.4375 -42.195312 6.5 -41.53125 C 6.5625 -40.875 6.601562 -40.207031 6.625 -39.53125 C 6.644531 -38.695312 6.597656 -38.148438 6.484375 -37.890625 C 6.367188 -37.640625 6.320312 -37.050781 6.34375 -36.125 C 6.394531 -34.28125 6.5 -32.164062 6.65625 -29.78125 C 6.8125 -27.394531 6.828125 -25.53125 6.703125 -24.1875 C 6.640625 -23.4375 6.617188 -21.953125 6.640625 -19.734375 C 6.660156 -17.523438 6.691406 -14.953125 6.734375 -12.015625 C 6.785156 -9.078125 6.851562 -6.125 6.9375 -3.15625 C 7.03125 -0.1875 7.113281 2.507812 7.1875 4.9375 C 7.257812 7.375 7.351562 9.128906 7.46875 10.203125 C 7.488281 11.128906 7.628906 12.53125 7.890625 14.40625 C 8.160156 16.28125 8.253906 17.972656 8.171875 19.484375 C 8.085938 20.992188 7.503906 21.765625 6.421875 21.796875 C 4.828125 21.847656 3.835938 21 3.453125 19.25 C 3.078125 17.5 2.863281 15.867188 2.8125 14.359375 C 2.476562 11.359375 2.226562 7.847656 2.0625 3.828125 C 1.90625 -0.191406 1.785156 -4.207031 1.703125 -8.21875 C 1.628906 -12.238281 1.550781 -15.753906 1.46875 -18.765625 L 1.671875 -24.6875 C 1.628906 -25.851562 1.570312 -27.648438 1.5 -30.078125 C 1.4375 -32.503906 1.40625 -35.078125 1.40625 -37.796875 C 1.40625 -40.523438 1.410156 -43.019531 1.421875 -45.28125 C 1.441406 -47.539062 1.523438 -49.140625 1.671875 -50.078125 C 1.804688 -50.910156 1.878906 -51.910156 1.890625 -53.078125 C 1.898438 -54.253906 1.929688 -55.257812 1.984375 -56.09375 L 2.765625 -67.8125 C 2.429688 -67.71875 1.703125 -67.53125 0.578125 -67.25 C -0.535156 -66.96875 -1.425781 -66.734375 -2.09375 -66.546875 C -6.164062 -65.410156 -10.046875 -64.222656 -13.734375 -62.984375 C -17.421875 -61.742188 -21.207031 -60.3125 -25.09375 -58.6875 C -25.84375 -58.332031 -26.523438 -57.957031 -27.140625 -57.5625 C -27.753906 -57.164062 -28.4375 -56.789062 -29.1875 -56.4375 C -30.175781 -55.988281 -30.8125 -55.675781 -31.09375 -55.5 C -31.382812 -55.320312 -31.523438 -55.109375 -31.515625 -54.859375 C -31.515625 -54.609375 -31.707031 -54.054688 -32.09375 -53.203125 C -32.4375 -53.109375 -32.773438 -53.035156 -33.109375 -52.984375 C -33.441406 -52.941406 -33.816406 -52.910156 -34.234375 -52.890625 C -34.898438 -52.878906 -35.507812 -53.007812 -36.0625 -53.28125 C -36.613281 -53.550781 -36.90625 -54.101562 -36.9375 -54.9375 Z M -36.9375 -54.9375 "/></g></g></g><path stroke-linecap="butt" transform="matrix(1.530148, 0, 0, 1.530148, 9.403442, 44.820626)" fill="none" stroke-linejoin="miter" d="M 57.405393 1.786796 C 57.405393 1.521298 57.612174 1.28133 58.023184 1.069443 C 58.436747 0.842238 58.748196 0.704384 58.962636 0.650774 C 59.401727 1.089865 59.845925 1.980813 60.29778 3.323616 C 60.7624 4.653655 61.188728 6.108784 61.574209 7.691555 C 61.959691 9.261563 62.286456 10.719245 62.551954 12.062048 C 62.832768 13.392087 62.998704 14.300904 63.052314 14.793605 C 63.649682 18.224646 64.208758 21.602077 64.726988 24.92845 C 65.245219 28.239507 65.50561 31.611832 65.50561 35.042872 C 65.452 36.025723 65.477529 36.778816 65.584749 37.297046 C 65.691969 37.815276 65.743026 38.540287 65.743026 39.469528 L 65.663887 44.776919 C 65.663887 44.937749 65.676651 45.042416 65.704733 45.096026 C 65.730261 45.149636 65.717497 45.315572 65.663887 45.593833 C 65.332016 50.117497 64.972063 54.327159 64.586581 58.22282 C 64.213864 62.118481 63.703292 65.889052 63.052314 69.534532 C 62.398782 73.17746 61.541022 76.868892 60.47648 80.606276 C 59.414492 84.341107 58.038501 88.331223 56.34851 92.574073 C 55.963028 93.559476 55.403952 94.76953 54.673835 96.204236 C 53.941165 97.65426 53.108933 99.150234 52.179693 100.69216 C 51.2479 102.249403 50.303343 103.666239 49.346021 104.942668 C 48.401464 106.231861 47.523281 107.2045 46.714025 107.855479 C 45.621402 108.733662 44.472616 109.509731 43.262561 110.188791 C 42.065271 110.867851 40.814371 111.207381 39.512413 111.207381 C 37.768811 111.207381 36.119665 110.594695 34.564975 109.371876 C 33.020496 108.146505 31.838523 106.798596 31.01395 105.320491 C 29.92388 103.579442 29.01251 101.437595 28.27984 98.897501 C 27.549722 96.370172 26.965118 93.651379 26.526026 90.738568 C 26.086935 87.825758 25.767828 84.87976 25.568705 81.900575 C 25.382346 78.936707 25.262362 76.115799 25.208752 73.442957 C 25.155142 70.78288 25.129613 68.469991 25.129613 66.501737 C 25.129613 65.689929 25.167906 65.097666 25.247045 64.724948 C 25.3415 64.339467 25.387452 63.762521 25.387452 62.991558 C 25.387452 61.898935 25.367029 60.676116 25.328736 59.320549 C 25.300655 57.962429 25.321077 56.765138 25.387452 55.728678 C 25.494672 55.131309 25.561046 54.584998 25.586575 54.092296 C 25.614656 53.602148 25.62742 52.976698 25.62742 52.218499 C 25.62742 51.552203 25.68103 50.635727 25.785698 49.463965 C 25.892918 48.294757 25.987373 47.031092 26.066512 45.675525 C 26.145651 44.317404 26.186496 43.069057 26.186496 41.925377 L 25.785698 42.563591 C 25.73464 42.734633 25.706559 42.862275 25.706559 42.941414 C 25.706559 43.020553 25.652949 43.168618 25.548282 43.380506 L 18.765339 63.96675 C 18.272637 65.391244 17.713562 67.078683 17.088112 69.034172 C 16.465214 71.002425 15.793813 73.044712 15.073907 75.158478 C 14.369318 77.287561 13.690258 79.276237 13.039279 81.124506 C 12.388301 82.985539 11.788379 84.489173 11.24462 85.632853 C 10.593642 86.93481 10.10094 87.9534 9.769069 88.683518 C 9.449961 89.428952 9.08235 89.934418 8.67134 90.199915 C 8.257777 90.480729 7.594034 90.618584 6.675005 90.618584 C 6.184856 90.618584 5.799375 90.286712 5.518561 89.622969 C 5.253063 88.969438 5.05394 88.206133 4.921192 87.32795 C 4.773126 86.462532 4.688882 85.653276 4.6608 84.895077 C 4.635272 84.136878 4.622508 83.644177 4.622508 83.416972 C 4.673565 82.819604 4.688882 82.406041 4.6608 82.181389 C 4.635272 81.966949 4.648036 81.596785 4.701646 81.063238 C 4.926298 79.094984 5.05394 77.167577 5.079469 75.278462 C 5.10755 73.404665 5.253063 71.541078 5.518561 69.692809 C 5.957652 66.80808 6.309946 64.347126 6.575444 62.312498 C 6.856258 60.265106 7.167707 58.189633 7.514895 56.088631 C 7.872295 53.987629 8.352233 51.465406 8.949601 48.527067 L 10.187737 43.459644 C 10.292404 42.969495 10.399624 42.53551 10.506844 42.162792 C 10.611512 41.777311 10.718732 41.338219 10.825952 40.848071 L 17.128957 19.861028 C 17.340844 19.314716 17.501674 18.911365 17.608894 18.643315 C 17.726326 18.365053 17.894815 18.0051 18.106702 17.566009 C 18.984885 15.493088 19.623099 14.063488 20.021345 13.277208 C 20.434908 12.480716 21.045041 12.079918 21.85685 12.079918 C 22.242331 12.079918 22.706951 12.166715 23.253263 12.340309 C 23.46515 13.259338 23.559606 13.897552 23.531524 14.254952 C 23.505996 14.614905 23.414093 14.85998 23.253263 14.992728 C 23.094986 15.125477 22.87544 15.385868 22.594625 15.77135 C 22.329128 16.036847 21.951305 16.815469 21.458604 18.104662 C 20.965902 19.383643 20.460436 20.826008 19.942206 22.434308 C 19.423976 24.029844 18.944039 25.541136 18.504948 26.963078 C 18.081173 28.372255 17.779936 29.324471 17.608894 29.81462 C 17.236177 31.239114 16.855801 32.648292 16.47032 34.044705 C 16.084838 35.428354 15.678934 36.850296 15.25516 38.313083 L 12.222365 51.480723 C 11.783273 53.926361 11.397792 56.080972 11.06592 57.942006 C 10.74426 59.792827 10.45834 61.559405 10.20816 63.249397 C 9.968191 64.939389 9.7078 66.693202 9.429539 68.515942 C 9.164041 70.338682 8.870463 72.472871 8.551355 74.918509 C 8.324151 76.501281 8.186297 78.137663 8.132687 79.827654 C 8.079077 81.515093 8.053548 83.312305 8.053548 85.214184 L 8.630494 83.996471 C 9.230416 82.691961 9.86863 81.109189 10.545137 79.248156 C 11.224197 77.399887 11.890493 75.551618 12.541472 73.703349 C 13.205215 71.85508 13.751527 70.244227 14.177854 68.875895 L 25.129613 35.382402 C 25.407875 34.504219 25.719323 33.564768 26.066512 32.569153 C 26.426465 31.558222 26.982988 30.94043 27.741187 30.713226 C 27.914781 30.659616 28.108798 30.634087 28.320685 30.634087 C 29.078884 30.634087 29.589455 31.098707 29.857506 32.0305 C 30.135767 32.959741 30.276174 34.090656 30.276174 35.420695 C 30.276174 36.750734 30.235328 38.06035 30.15619 39.352096 C 30.077051 40.628525 30.036206 41.644562 30.036206 42.402761 L 29.219291 56.466454 C 29.112071 57.556524 29.08399 58.781896 29.1376 60.137463 C 29.19121 61.493031 29.219291 62.743931 29.219291 63.887611 C 29.219291 64.433923 29.19121 65.051714 29.1376 65.743539 C 29.08399 66.422599 29.058461 66.945935 29.058461 67.318652 C 29.112071 68.038558 29.124835 68.490414 29.099307 68.676772 C 29.071225 68.863131 29.045697 69.113311 29.017615 69.434971 C 28.992087 69.766842 29.004851 70.537805 29.058461 71.74786 C 29.165681 72.89154 29.203974 74.441125 29.178445 76.396614 C 29.150364 78.352103 29.219291 80.11868 29.377568 81.701452 C 29.551163 83.072337 29.663488 84.269627 29.717098 85.293323 C 29.770708 86.329783 29.849847 87.407089 29.957067 88.525241 C 30.061734 89.640839 30.28128 91.044911 30.615704 92.734903 C 30.827591 93.824973 31.133934 95.226492 31.53218 96.942012 C 31.94319 98.657533 32.489502 100.360289 33.168562 102.05028 C 33.860386 103.737719 34.736017 105.154555 35.800558 106.298236 C 36.8651 107.441916 38.154293 108.013756 39.67069 108.013756 C 41.041575 108.013756 42.37672 107.469997 43.68123 106.379927 C 44.983187 105.287304 46.208559 103.939395 47.352239 102.328542 C 48.495919 100.733006 49.499192 99.129811 50.364611 97.521511 C 51.240241 95.913211 51.92696 94.562749 52.419662 93.472679 C 54.053491 90.095248 55.457562 86.495719 56.626771 82.679196 C 57.798533 78.875439 58.776277 75.000201 59.560004 71.048377 C 60.359049 67.099106 60.97684 63.295348 61.415932 59.639656 C 62.120521 53.760425 62.513661 47.582509 62.592799 41.105909 C 62.671938 34.616545 62.278798 28.433524 61.415932 22.554293 C 60.86962 19.176862 60.29778 16.28958 59.700412 13.897552 C 59.10049 11.490208 58.556731 8.842894 58.06403 5.955612 C 57.95681 5.199966 57.818956 4.492825 57.645361 3.841846 C 57.484531 3.190867 57.405393 2.506701 57.405393 1.786796 Z M 76.687127 67.318652 C 75.597056 67.318652 74.62697 66.966358 73.774316 66.261769 C 72.936979 65.55718 72.298764 64.82451 71.859673 64.066311 C 70.889587 62.205278 70.330511 60.012373 70.184998 57.485044 C 70.05225 54.944951 70.202868 52.644826 70.64196 50.582117 C 70.74918 49.984748 70.894693 49.264842 71.081051 48.427505 C 71.280174 47.577404 71.566094 46.824311 71.938811 46.173332 C 72.324293 45.509589 72.791466 45.175164 73.335224 45.175164 C 74.586125 45.175164 75.198811 45.601492 75.170729 46.451593 C 75.145201 47.291483 74.91289 48.601099 74.473799 50.382994 C 74.047472 52.152124 73.835585 54.419062 73.835585 57.18636 C 73.835585 58.010933 73.940252 58.993783 74.154692 60.137463 C 74.366579 61.281143 74.706109 62.292075 75.170729 63.170258 C 75.637902 64.033124 76.222506 64.46711 76.927095 64.46711 C 77.805278 64.46711 78.800893 64.086734 79.919044 63.328535 C 81.037196 62.557572 82.065998 61.699812 83.010555 60.755255 C 83.967877 59.797933 84.639278 59.072922 85.02476 58.582773 C 85.13198 58.475553 85.430664 58.110494 85.923366 57.485044 C 86.416067 56.859594 87.000672 56.155005 87.679732 55.368725 C 88.356239 54.572234 89.022535 53.872751 89.673514 53.275382 C 90.324492 52.678013 90.845275 52.376776 91.230757 52.376776 C 91.616238 52.376776 91.807703 52.703542 91.807703 53.35452 C 91.807703 53.740002 91.549864 54.327159 91.031634 55.110887 C 90.510851 55.894614 89.893059 56.726845 89.175706 57.605028 C 88.471118 58.467894 87.779293 59.287362 87.100233 60.058325 C 86.421173 60.816523 85.91826 61.360282 85.583836 61.694706 C 84.932857 62.345685 84.154235 63.124307 83.250524 64.028018 C 82.359576 64.918966 81.369068 65.689929 80.278997 66.340907 C 79.188927 66.994439 77.991637 67.318652 76.687127 67.318652 Z M 74.073 34.882042 C 74.073 33.965566 74.320628 33.166522 74.813329 32.487462 C 75.303478 31.79819 75.849789 31.451002 76.447158 31.451002 C 77.10069 31.451002 77.644448 31.864565 78.08354 32.689138 C 78.841738 34.205535 78.936194 35.387508 78.364354 36.240163 C 77.792514 37.0775 77.093031 37.496169 76.268458 37.496169 C 75.737464 37.496169 75.237103 37.284281 74.772483 36.857954 C 74.307863 36.418863 74.073 35.760225 74.073 34.882042 Z M 91.386481 61.036069 C 91.386481 61.526218 91.498807 61.773845 91.726011 61.773845 C 92.096175 61.773845 92.596536 61.227533 93.221986 60.137463 C 93.8602 59.047393 94.531602 57.684167 95.23619 56.047785 C 95.940779 54.411404 96.619839 52.762257 97.270818 51.100347 C 97.921797 49.438437 98.468108 47.983308 98.9072 46.732408 C 99.346291 45.481507 99.565837 44.75139 99.565837 44.53695 C 98.634044 44.64417 97.909032 44.93009 97.390802 45.39471 C 96.885336 45.846566 96.413058 46.372455 95.973966 46.972376 C 94.552025 48.726189 93.426214 50.868037 92.601641 53.395366 C 91.792385 55.922695 91.386481 58.467894 91.386481 61.036069 Z M 100.701859 42.323622 C 100.701859 41.723701 100.793762 41.205471 100.98012 40.766379 C 101.181796 40.327288 101.360496 39.837139 101.518773 39.290828 L 103.234293 30.075011 C 103.407888 29.477643 103.614669 28.579037 103.854638 27.381747 C 104.092054 26.171692 104.431584 25.020353 104.870675 23.930283 C 105.309767 22.840213 105.856078 22.242844 106.507057 22.135624 C 106.614277 22.135624 106.693416 22.12286 106.747026 22.094778 C 106.8134 22.06925 106.872116 22.056485 106.925726 22.056485 C 107.683924 22.056485 108.115357 22.48026 108.222577 23.332914 C 108.329797 24.170252 108.255764 25.186289 108.003032 26.383579 C 107.763063 27.580869 107.464379 28.72455 107.104426 29.81462 C 106.75979 30.907243 106.532586 31.698629 106.427918 32.188778 C 105.123408 36.605221 104.278412 41.126332 103.892931 45.754663 C 103.507449 50.382994 103.354278 55.044512 103.435969 59.739217 C 103.527872 64.421158 103.601905 69.046937 103.655515 73.62421 C 103.706572 75.365259 103.854638 76.769331 104.092054 77.83132 C 104.344787 78.895861 104.446901 79.641296 104.393291 80.067623 C 104.339681 80.504162 103.821451 80.723707 102.836048 80.723707 C 102.238679 80.723707 101.758742 80.052306 101.401342 78.709503 C 101.041389 77.379464 100.780997 75.638415 100.62272 73.483803 C 100.46189 71.341956 100.382751 69.046937 100.382751 66.601299 C 100.382751 64.140344 100.40828 61.740658 100.46189 59.399687 C 100.5155 57.058717 100.56911 55.044512 100.62272 53.35452 C 100.67633 51.667082 100.701859 50.54893 100.701859 50.002618 C 100.489971 50.217058 100.357223 50.354913 100.303613 50.42384 C 100.250003 50.474897 100.170864 50.689337 100.063644 51.062054 L 97.191679 58.003274 C 96.818962 58.827847 96.387529 59.75964 95.894828 60.796101 C 95.402126 61.832561 94.784335 62.731167 94.0389 63.489365 C 93.308783 64.247564 92.422941 64.625387 91.386481 64.625387 C 90.242801 64.625387 89.464179 64.081628 89.050616 62.991558 C 88.65237 61.898935 88.532386 60.497416 88.693216 58.781896 C 88.851493 57.066375 89.244633 55.256399 89.870084 53.35452 C 90.508298 51.452641 91.299684 49.645218 92.244241 47.929698 C 93.201563 46.214178 94.266104 44.810106 95.435313 43.720036 C 96.607075 42.629965 97.817129 42.083654 99.065477 42.083654 C 99.504568 42.083654 99.736878 42.1245 99.76496 42.203638 C 99.790488 42.282777 100.10449 42.323622 100.701859 42.323622 Z M 106.336016 60.216602 L 106.833823 50.980363 C 106.887433 50.382994 106.941043 49.665641 106.994653 48.825751 C 107.048263 47.975649 107.101873 47.250638 107.15293 46.653269 C 107.272914 43.926817 107.620103 41.233552 108.191943 38.573475 C 108.763783 35.900633 109.373916 33.253319 110.027448 30.634087 C 110.400165 29.544017 110.691191 28.824111 110.903078 28.479475 C 111.130282 28.119522 111.436625 27.940822 111.822107 27.940822 C 111.980384 27.940822 112.166742 27.953587 112.381182 27.979115 C 112.605834 28.007197 112.853461 28.048042 113.118958 28.0991 C 113.39722 29.362764 113.34361 30.853633 112.958128 32.569153 C 112.585411 34.284674 112.286727 35.847023 112.062075 37.2562 C 111.462154 41.019112 110.972005 45.1624 110.583971 49.683511 C 110.213806 54.207175 110.027448 58.50874 110.027448 62.590759 L 110.264863 71.74786 L 110.923501 70.190617 C 111.681699 68.010476 112.319914 66.174972 112.838144 64.686656 C 113.358927 63.183022 113.956296 61.694706 114.635356 60.216602 C 115.311863 58.74105 116.223233 56.946391 117.366913 54.830072 C 117.966835 53.740002 118.551439 52.815867 119.12328 52.057669 C 119.69512 51.286706 120.586067 50.901224 121.796122 50.901224 C 122.39349 50.901224 122.814712 51.340316 123.052128 52.218499 C 123.292096 53.081365 123.437609 54.033581 123.491219 55.070041 C 123.557593 56.109054 123.59078 56.872358 123.59078 57.36506 C 123.59078 58.881457 123.631626 60.17065 123.710765 61.235192 C 123.789903 62.299734 124.103905 63.348958 124.650216 64.387971 C 125.898564 64.107157 126.955447 63.303007 127.820866 61.972968 C 128.699049 60.642929 129.490435 59.486485 130.195023 58.501081 C 130.580505 57.903713 130.932799 57.303791 131.251906 56.706423 C 131.583778 56.109054 131.918202 55.483604 132.250074 54.830072 C 132.740222 53.954442 133.133362 53.35452 133.426941 53.035413 C 133.733284 52.703542 134.044733 52.537606 134.36384 52.537606 C 134.537434 52.537606 134.836118 52.591216 135.262446 52.695883 C 135.540707 53.681286 135.487097 54.472672 135.101616 55.070041 C 134.728898 55.669962 134.322994 56.374551 133.886455 57.18636 C 133.498421 57.903713 132.980191 58.820189 132.329212 59.93834 C 131.678234 61.056492 130.940458 62.146562 130.115885 63.208551 C 129.304076 64.260328 128.433551 65.158934 127.501758 65.901816 C 126.58273 66.634486 125.633067 66.999545 124.650216 66.999545 C 122.853005 66.999545 121.683796 65.391244 121.137484 62.172091 C 120.979207 61.255615 120.864328 60.017479 120.797954 58.462789 C 120.746897 56.905545 120.718816 55.555084 120.718816 54.411404 C 120.346098 54.692218 119.886584 55.322774 119.342825 56.308177 C 118.796514 57.278263 118.252755 58.375991 117.706444 59.59881 C 117.162685 60.821629 116.657219 62.013814 116.190046 63.170258 C 115.725426 64.313938 115.360367 65.184463 115.092317 65.784384 C 114.441339 67.471823 113.910344 69.154157 113.496781 70.831384 C 113.085771 72.518823 112.633915 74.127123 112.141214 75.658838 C 111.875717 76.534468 111.561715 77.093544 111.204315 77.333512 C 110.857126 77.586245 110.298051 77.711335 109.527088 77.711335 C 108.929719 77.711335 108.437017 77.193105 108.051536 76.156645 C 107.678819 75.120185 107.36737 73.823333 107.114637 72.26609 C 106.874668 70.7114 106.701074 69.100547 106.596407 67.438636 C 106.489187 65.78949 106.422813 64.301174 106.394731 62.971135 C 106.356438 61.628332 106.336016 60.709303 106.336016 60.216602 Z M 134.128977 99.755261 C 135.711749 99.755261 137.126032 99.290641 138.376932 98.358848 C 139.627832 97.442372 140.725561 96.331879 141.667566 95.027369 C 142.62744 93.725412 143.43159 92.50004 144.082569 91.35636 C 144.695255 90.212679 145.366656 88.578851 146.096774 86.449767 C 146.829444 84.323237 147.521268 82.015453 148.172247 79.52897 C 148.823226 77.055251 149.382301 74.714281 149.846922 72.506059 C 150.314095 70.310601 150.600015 68.582316 150.704682 67.318652 C 150.053703 67.704133 149.456334 68.117696 148.910023 68.556788 L 140.91192 75.658838 C 140.684715 75.883489 140.46517 76.143881 140.253282 76.434907 C 140.038842 76.74125 139.765687 77.02717 139.433815 77.292667 C 138.131858 78.597177 136.960096 79.899134 135.923636 81.203645 C 134.887176 82.520919 133.848163 83.970942 132.811702 85.551161 C 132.319001 86.258303 131.800771 87.154356 131.254459 88.244426 C 130.710701 89.337049 130.26395 90.493494 129.919315 91.716313 C 129.559362 92.939131 129.426613 94.149186 129.521069 95.346476 C 129.600207 96.543766 130.044405 97.580227 130.856213 98.45841 C 131.560802 99.323828 132.650872 99.755261 134.128977 99.755261 Z M 136.002774 59.818356 C 136.814583 59.379265 137.764246 58.521504 138.856869 57.245076 C 139.94694 55.955882 141.09062 54.426721 142.28791 52.65759 C 143.4852 50.88846 144.654409 49.06572 145.798089 47.191922 C 146.954534 45.302807 148.006311 43.559206 148.950869 41.96367 C 149.90819 40.355369 150.65873 39.058518 151.205042 38.073114 C 151.856021 36.983044 152.300218 36.265691 152.540186 35.921055 C 152.792919 35.561103 153.351995 35.382402 154.217414 35.382402 C 154.656505 35.382402 154.980718 35.693851 155.195158 36.319301 C 155.41981 36.944751 155.585746 37.708056 155.692966 38.611767 C 155.800186 39.505268 155.851243 40.363028 155.851243 41.187601 C 155.851243 41.996857 155.851243 42.622307 155.851243 43.061398 L 155.851243 49.346534 C 155.851243 50.714866 155.784869 52.164889 155.65212 53.694051 C 155.519371 55.210448 155.394281 56.627284 155.274297 57.942006 C 155.167077 59.246516 155.113467 60.27787 155.113467 61.036069 L 166.803002 54.253126 C 167.083817 54.092296 167.655657 53.714473 168.518523 53.114552 C 169.396706 52.517183 170.134481 52.218499 170.734403 52.218499 C 171.227105 52.218499 171.472179 52.517183 171.472179 53.114552 C 171.472179 53.487269 171.020323 54.005499 170.116611 54.671795 C 169.210347 55.322774 168.253025 55.922695 167.242094 56.466454 C 166.246479 57.012765 165.580183 57.390588 165.248312 57.605028 C 163.55832 58.534269 161.883645 59.532436 160.221735 60.596978 C 158.572589 61.646202 156.95663 62.718402 155.373858 63.808473 C 154.988377 64.086734 154.781595 64.319044 154.756067 64.505403 C 154.727985 64.691761 154.661611 65.084901 154.554391 65.68227 C 154.16891 68.357665 153.625151 71.382801 152.920562 74.760232 C 152.215973 78.137663 151.342896 81.430849 150.306436 84.634685 C 149.269976 87.853839 148.072685 90.552209 146.714565 92.734903 C 145.943602 94.210455 144.919906 95.665583 143.643477 97.102842 C 142.367049 98.552865 140.937448 99.750156 139.354677 100.69216 C 137.771905 101.652035 136.081913 102.129419 134.287254 102.129419 C 132.265391 102.129419 130.577952 101.445253 129.219832 100.074369 C 127.864264 98.718801 127.185204 96.816922 127.185204 94.368732 C 127.185204 92.574073 127.652377 90.639007 128.581617 88.563533 C 129.500646 86.503377 130.731123 84.394717 132.273049 82.240105 C 133.82774 80.085493 135.504967 78.025337 137.299626 76.057084 C 139.109602 74.101595 140.91192 72.3197 142.706579 70.7114 C 144.501238 69.113311 146.109538 67.798589 147.534033 66.759576 C 147.79953 66.481315 148.039498 66.274533 148.251386 66.141784 C 148.47859 66.009036 148.751746 65.830336 149.070853 65.603132 C 149.841816 64.952153 150.400892 64.505403 150.745527 64.267987 C 151.10548 64.015254 151.309709 63.535317 151.363319 62.830728 C 151.695191 60.050666 151.996428 57.49015 152.261925 55.149179 C 152.540186 52.810762 152.746968 50.403417 152.879716 47.929698 C 153.012465 45.443215 153.078839 42.650388 153.078839 39.551219 C 152.920562 39.655886 152.468706 40.294101 151.723272 41.465862 C 150.990602 42.635071 150.160923 43.998297 149.22913 45.55554 C 148.312654 47.110231 147.439577 48.555148 146.615004 49.885187 C 145.805748 51.212673 145.233908 52.124043 144.899483 52.616745 C 144.090228 53.921255 143.097166 55.463181 141.927957 57.245076 C 140.758748 59.014206 139.627832 60.410619 138.537762 61.434315 C 137.498749 62.366108 136.549086 62.830728 135.683667 62.830728 C 134.805484 62.830728 134.067708 62.412059 133.47034 61.574722 C 132.870418 60.722068 132.571734 59.591152 132.571734 58.181974 C 132.571734 57.303791 132.678954 56.213721 132.890841 54.911764 C 133.118045 53.594489 133.442258 52.297637 133.868585 51.021209 C 134.307677 49.74478 134.813143 48.672579 135.384983 47.809714 C 135.956823 46.931531 136.569509 46.492439 137.220488 46.492439 C 138.152281 46.492439 138.616901 46.819205 138.616901 47.470184 C 138.616901 48.121162 138.397355 49.032532 137.958263 50.204294 C 137.531936 51.373503 137.100503 52.777575 136.661412 54.411404 C 136.22232 56.047785 136.002774 57.850103 136.002774 59.818356 Z M 168.521075 58.74105 C 168.521075 57.59737 168.794231 56.180534 169.33799 54.493095 C 169.884301 52.803103 170.6425 51.128429 171.612586 49.463965 C 172.597989 47.802055 173.726352 46.433723 175.002781 45.356417 C 176.294527 44.266347 177.644989 43.720036 179.054166 43.720036 C 180.371441 43.720036 181.433429 44.097859 182.245238 44.856057 C 183.069811 45.614256 183.562513 46.392878 183.72079 47.191922 C 183.88162 47.975649 183.608464 48.368789 182.903875 48.368789 C 182.357564 48.368789 181.801041 48.054788 181.229201 47.429338 C 180.657361 46.806441 179.991065 46.492439 179.232866 46.492439 C 178.635497 46.492439 177.910486 46.844733 177.057831 47.549322 C 176.220494 48.253911 175.196798 49.645218 173.986744 51.718139 C 173.440432 52.596322 172.934966 53.727238 172.470346 55.110887 C 172.01849 56.494535 171.791286 57.870526 171.791286 59.238857 C 171.898506 59.13419 171.939352 59.093344 171.91127 59.121426 C 171.885742 59.146954 171.977645 59.047393 172.192085 58.820189 L 172.850722 57.842444 C 173.287261 57.191466 173.792726 56.34647 174.364567 55.310009 C 174.936407 54.273549 175.523564 53.22943 176.120933 52.177653 C 176.718301 51.113111 177.264613 50.217058 177.757314 49.484388 C 178.250016 48.741507 178.627839 48.368789 178.893336 48.368789 C 179.878739 48.368789 180.450579 48.726189 180.608856 49.446095 C 180.769686 50.150684 180.836061 51.021209 180.807979 52.057669 C 180.782451 53.081365 180.882012 54.112719 181.109217 55.149179 C 181.428324 56.627284 181.926131 57.70459 182.605191 58.381097 C 183.297016 59.060157 184.073084 59.399687 184.938503 59.399687 C 186.467665 59.399687 188.157657 58.475553 190.005926 56.627284 C 190.776889 55.922695 191.3232 55.335538 191.642307 54.870918 C 191.974179 54.406298 192.41327 53.872751 192.957029 53.275382 C 193.329746 52.72907 193.814789 52.458467 194.414711 52.458467 C 195.012079 52.458467 195.272471 52.963933 195.193332 53.972312 C 195.111641 54.970479 194.041993 56.479218 191.979285 58.501081 L 189.525988 60.45657 C 187.943217 61.546641 186.414055 62.092952 184.938503 62.092952 C 183.582936 62.092952 182.39841 61.687048 181.387478 60.875239 C 180.376546 60.050666 179.597925 59.039734 179.054166 57.842444 C 178.507855 56.647707 178.234699 55.475945 178.234699 54.332265 C 177.864534 54.613079 177.430549 55.218107 176.937847 56.147347 C 176.447698 57.066375 175.914151 58.056884 175.342311 59.121426 C 174.770471 60.183415 174.185867 61.107549 173.588498 61.893829 C 172.988576 62.677557 172.391208 63.070697 171.791286 63.070697 C 170.262124 63.070697 169.332884 62.718402 168.99846 62.013814 C 168.679353 61.309225 168.521075 60.216602 168.521075 58.74105 Z M 168.521075 58.74105 " stroke="#ffffff" stroke-width="1.327835" stroke-opacity="1" stroke-miterlimit="4"/><g fill="#ffffff" fill-opacity="1"><g transform="translate(17.604079, 147.34054)"><g><path d="M 79.640625 -99.78125 C 79.640625 -100.195312 79.953125 -100.570312 80.578125 -100.90625 C 81.203125 -101.238281 81.679688 -101.445312 82.015625 -101.53125 C 82.679688 -100.863281 83.367188 -99.507812 84.078125 -97.46875 C 84.785156 -95.425781 85.429688 -93.191406 86.015625 -90.765625 C 86.597656 -88.347656 87.097656 -86.117188 87.515625 -84.078125 C 87.929688 -82.035156 88.179688 -80.640625 88.265625 -79.890625 C 89.179688 -74.640625 90.035156 -69.472656 90.828125 -64.390625 C 91.617188 -59.304688 92.015625 -54.140625 92.015625 -48.890625 C 91.929688 -47.390625 91.972656 -46.242188 92.140625 -45.453125 C 92.304688 -44.660156 92.390625 -43.554688 92.390625 -42.140625 L 92.265625 -34.015625 C 92.265625 -33.765625 92.285156 -33.597656 92.328125 -33.515625 C 92.367188 -33.429688 92.347656 -33.179688 92.265625 -32.765625 C 91.765625 -25.835938 91.222656 -19.394531 90.640625 -13.4375 C 90.054688 -7.476562 89.265625 -1.707031 88.265625 3.875 C 87.265625 9.457031 85.953125 15.101562 84.328125 20.8125 C 82.703125 26.519531 80.597656 32.628906 78.015625 39.140625 C 77.429688 40.640625 76.578125 42.492188 75.453125 44.703125 C 74.328125 46.910156 73.054688 49.203125 71.640625 51.578125 C 70.222656 53.953125 68.785156 56.117188 67.328125 58.078125 C 65.867188 60.035156 64.515625 61.515625 63.265625 62.515625 C 61.597656 63.847656 59.847656 65.035156 58.015625 66.078125 C 56.179688 67.117188 54.265625 67.640625 52.265625 67.640625 C 49.597656 67.640625 47.078125 66.703125 44.703125 64.828125 C 42.328125 62.953125 40.515625 60.890625 39.265625 58.640625 C 37.597656 55.972656 36.203125 52.703125 35.078125 48.828125 C 33.953125 44.953125 33.054688 40.78125 32.390625 36.3125 C 31.722656 31.851562 31.238281 27.351562 30.9375 22.8125 C 30.644531 18.269531 30.457031 13.957031 30.375 9.875 C 30.289062 5.789062 30.25 2.25 30.25 -0.75 C 30.25 -2 30.3125 -2.914062 30.4375 -3.5 C 30.5625 -4.082031 30.625 -4.957031 30.625 -6.125 C 30.625 -7.789062 30.601562 -9.664062 30.5625 -11.75 C 30.519531 -13.832031 30.539062 -15.664062 30.625 -17.25 C 30.789062 -18.164062 30.894531 -19 30.9375 -19.75 C 30.976562 -20.5 31 -21.457031 31 -22.625 C 31 -23.625 31.082031 -25.019531 31.25 -26.8125 C 31.425781 -28.601562 31.578125 -30.539062 31.703125 -32.625 C 31.828125 -34.71875 31.890625 -36.640625 31.890625 -38.390625 L 31.25 -37.390625 C 31.164062 -37.140625 31.125 -36.953125 31.125 -36.828125 C 31.125 -36.703125 31.039062 -36.472656 30.875 -36.140625 L 20.5 -4.625 C 19.75 -2.457031 18.894531 0.125 17.9375 3.125 C 16.976562 6.125 15.957031 9.25 14.875 12.5 C 13.789062 15.75 12.75 18.789062 11.75 21.625 C 10.75 24.457031 9.832031 26.75 9 28.5 C 8 30.507812 7.25 32.078125 6.75 33.203125 C 6.25 34.328125 5.6875 35.097656 5.0625 35.515625 C 4.4375 35.929688 3.414062 36.140625 2 36.140625 C 1.25 36.140625 0.664062 35.640625 0.25 34.640625 C -0.164062 33.640625 -0.476562 32.46875 -0.6875 31.125 C -0.894531 29.789062 -1.019531 28.539062 -1.0625 27.375 C -1.101562 26.207031 -1.125 25.457031 -1.125 25.125 C -1.039062 24.207031 -1.019531 23.582031 -1.0625 23.25 C -1.101562 22.914062 -1.082031 22.332031 -1 21.5 C -0.664062 18.5 -0.476562 15.5625 -0.4375 12.6875 C -0.394531 9.8125 -0.164062 6.957031 0.25 4.125 C 0.914062 -0.289062 1.457031 -4.0625 1.875 -7.1875 C 2.289062 -10.3125 2.769531 -13.476562 3.3125 -16.6875 C 3.851562 -19.894531 4.582031 -23.75 5.5 -28.25 L 7.375 -36.015625 C 7.539062 -36.765625 7.707031 -37.429688 7.875 -38.015625 C 8.039062 -38.597656 8.207031 -39.265625 8.375 -40.015625 L 18 -72.140625 C 18.332031 -72.972656 18.582031 -73.597656 18.75 -74.015625 C 18.914062 -74.429688 19.164062 -74.972656 19.5 -75.640625 C 20.832031 -78.804688 21.8125 -80.992188 22.4375 -82.203125 C 23.0625 -83.410156 24 -84.015625 25.25 -84.015625 C 25.832031 -84.015625 26.539062 -83.890625 27.375 -83.640625 C 27.707031 -82.222656 27.851562 -81.242188 27.8125 -80.703125 C 27.769531 -80.160156 27.625 -79.785156 27.375 -79.578125 C 27.125 -79.367188 26.789062 -78.972656 26.375 -78.390625 C 25.957031 -77.972656 25.375 -76.785156 24.625 -74.828125 C 23.875 -72.867188 23.101562 -70.660156 22.3125 -68.203125 C 21.519531 -65.742188 20.789062 -63.429688 20.125 -61.265625 C 19.457031 -59.097656 19 -57.640625 18.75 -56.890625 C 18.164062 -54.722656 17.582031 -52.578125 17 -50.453125 C 16.414062 -48.328125 15.789062 -46.140625 15.125 -43.890625 L 10.5 -23.75 C 9.832031 -20 9.25 -16.707031 8.75 -13.875 C 8.25 -11.039062 7.8125 -8.332031 7.4375 -5.75 C 7.0625 -3.164062 6.664062 -0.476562 6.25 2.3125 C 5.832031 5.101562 5.375 8.375 4.875 12.125 C 4.539062 14.539062 4.332031 17.039062 4.25 19.625 C 4.164062 22.207031 4.125 24.957031 4.125 27.875 L 5 26 C 5.914062 24 6.894531 21.582031 7.9375 18.75 C 8.976562 15.914062 10 13.082031 11 10.25 C 12 7.414062 12.832031 4.957031 13.5 2.875 L 30.25 -48.390625 C 30.664062 -49.722656 31.144531 -51.160156 31.6875 -52.703125 C 32.238281 -54.242188 33.097656 -55.179688 34.265625 -55.515625 C 34.515625 -55.597656 34.804688 -55.640625 35.140625 -55.640625 C 36.304688 -55.640625 37.097656 -54.929688 37.515625 -53.515625 C 37.929688 -52.097656 38.140625 -50.367188 38.140625 -48.328125 C 38.140625 -46.285156 38.078125 -44.285156 37.953125 -42.328125 C 37.828125 -40.367188 37.765625 -38.804688 37.765625 -37.640625 L 36.515625 -16.125 C 36.347656 -14.457031 36.304688 -12.582031 36.390625 -10.5 C 36.472656 -8.414062 36.515625 -6.5 36.515625 -4.75 C 36.515625 -3.914062 36.472656 -2.976562 36.390625 -1.9375 C 36.304688 -0.894531 36.265625 -0.0820312 36.265625 0.5 C 36.347656 1.582031 36.367188 2.269531 36.328125 2.5625 C 36.285156 2.851562 36.242188 3.25 36.203125 3.75 C 36.160156 4.25 36.179688 5.414062 36.265625 7.25 C 36.429688 9 36.492188 11.375 36.453125 14.375 C 36.410156 17.375 36.515625 20.082031 36.765625 22.5 C 37.015625 24.582031 37.179688 26.414062 37.265625 28 C 37.347656 29.582031 37.472656 31.226562 37.640625 32.9375 C 37.804688 34.65625 38.140625 36.804688 38.640625 39.390625 C 38.972656 41.054688 39.453125 43.203125 40.078125 45.828125 C 40.703125 48.453125 41.535156 51.054688 42.578125 53.640625 C 43.617188 56.222656 44.953125 58.390625 46.578125 60.140625 C 48.203125 61.890625 50.179688 62.765625 52.515625 62.765625 C 54.597656 62.765625 56.640625 61.929688 58.640625 60.265625 C 60.640625 58.597656 62.515625 56.535156 64.265625 54.078125 C 66.015625 51.617188 67.554688 49.160156 68.890625 46.703125 C 70.222656 44.242188 71.265625 42.179688 72.015625 40.515625 C 74.515625 35.347656 76.660156 29.84375 78.453125 24 C 80.242188 18.164062 81.742188 12.226562 82.953125 6.1875 C 84.160156 0.144531 85.097656 -5.664062 85.765625 -11.25 C 86.847656 -20.25 87.453125 -29.707031 87.578125 -39.625 C 87.703125 -49.550781 87.097656 -59.015625 85.765625 -68.015625 C 84.929688 -73.179688 84.054688 -77.597656 83.140625 -81.265625 C 82.222656 -84.929688 81.390625 -88.972656 80.640625 -93.390625 C 80.472656 -94.566406 80.265625 -95.65625 80.015625 -96.65625 C 79.765625 -97.65625 79.640625 -98.695312 79.640625 -99.78125 Z M 79.640625 -99.78125 "/></g></g></g><g fill="#ffffff" fill-opacity="1"><g transform="translate(116.368271, 147.34054)"><g><path d="M 10.375 0.5 C 8.707031 0.5 7.226562 -0.0390625 5.9375 -1.125 C 4.644531 -2.207031 3.664062 -3.332031 3 -4.5 C 1.5 -7.332031 0.644531 -10.6875 0.4375 -14.5625 C 0.226562 -18.4375 0.457031 -21.957031 1.125 -25.125 C 1.289062 -26.039062 1.519531 -27.144531 1.8125 -28.4375 C 2.101562 -29.726562 2.539062 -30.875 3.125 -31.875 C 3.707031 -32.882812 4.414062 -33.390625 5.25 -33.390625 C 7.164062 -33.390625 8.101562 -32.738281 8.0625 -31.4375 C 8.019531 -30.144531 7.664062 -28.144531 7 -25.4375 C 6.332031 -22.726562 6 -19.25 6 -15 C 6 -13.75 6.164062 -12.25 6.5 -10.5 C 6.832031 -8.75 7.351562 -7.207031 8.0625 -5.875 C 8.769531 -4.539062 9.664062 -3.875 10.75 -3.875 C 12.082031 -3.875 13.601562 -4.457031 15.3125 -5.625 C 17.019531 -6.789062 18.601562 -8.101562 20.0625 -9.5625 C 21.519531 -11.019531 22.539062 -12.125 23.125 -12.875 C 23.289062 -13.039062 23.75 -13.601562 24.5 -14.5625 C 25.25 -15.519531 26.144531 -16.601562 27.1875 -17.8125 C 28.226562 -19.019531 29.25 -20.082031 30.25 -21 C 31.257812 -21.914062 32.054688 -22.375 32.640625 -22.375 C 33.222656 -22.375 33.515625 -21.875 33.515625 -20.875 C 33.515625 -20.289062 33.113281 -19.394531 32.3125 -18.1875 C 31.519531 -16.976562 30.582031 -15.707031 29.5 -14.375 C 28.414062 -13.039062 27.351562 -11.789062 26.3125 -10.625 C 25.269531 -9.457031 24.5 -8.625 24 -8.125 C 23 -7.125 21.8125 -5.9375 20.4375 -4.5625 C 19.0625 -3.1875 17.539062 -2 15.875 -1 C 14.207031 0 12.375 0.5 10.375 0.5 Z M 6.375 -49.140625 C 6.375 -50.554688 6.75 -51.785156 7.5 -52.828125 C 8.25 -53.867188 9.082031 -54.390625 10 -54.390625 C 11 -54.390625 11.832031 -53.765625 12.5 -52.515625 C 13.664062 -50.179688 13.8125 -48.367188 12.9375 -47.078125 C 12.0625 -45.785156 11 -45.140625 9.75 -45.140625 C 8.914062 -45.140625 8.144531 -45.472656 7.4375 -46.140625 C 6.726562 -46.804688 6.375 -47.804688 6.375 -49.140625 Z M 6.375 -49.140625 "/></g></g></g><g fill="#ffffff" fill-opacity="1"><g transform="translate(144.872367, 147.34054)"><g><path d="M 4.375 -9.125 C 4.375 -8.375 4.539062 -8 4.875 -8 C 5.457031 -8 6.226562 -8.832031 7.1875 -10.5 C 8.144531 -12.164062 9.164062 -14.25 10.25 -16.75 C 11.332031 -19.25 12.375 -21.769531 13.375 -24.3125 C 14.375 -26.851562 15.207031 -29.082031 15.875 -31 C 16.539062 -32.925781 16.875 -34.054688 16.875 -34.390625 C 15.457031 -34.222656 14.351562 -33.785156 13.5625 -33.078125 C 12.769531 -32.367188 12.039062 -31.550781 11.375 -30.625 C 9.207031 -27.957031 7.5 -24.6875 6.25 -20.8125 C 5 -16.9375 4.375 -13.039062 4.375 -9.125 Z M 18.625 -37.765625 C 18.625 -38.679688 18.769531 -39.472656 19.0625 -40.140625 C 19.351562 -40.804688 19.625 -41.554688 19.875 -42.390625 L 22.5 -56.515625 C 22.75 -57.429688 23.0625 -58.804688 23.4375 -60.640625 C 23.8125 -62.472656 24.332031 -64.222656 25 -65.890625 C 25.664062 -67.554688 26.5 -68.472656 27.5 -68.640625 C 27.664062 -68.640625 27.789062 -68.660156 27.875 -68.703125 C 27.957031 -68.742188 28.039062 -68.765625 28.125 -68.765625 C 29.289062 -68.765625 29.957031 -68.117188 30.125 -66.828125 C 30.289062 -65.535156 30.1875 -63.972656 29.8125 -62.140625 C 29.4375 -60.304688 28.976562 -58.554688 28.4375 -56.890625 C 27.894531 -55.222656 27.539062 -54.015625 27.375 -53.265625 C 25.375 -46.515625 24.082031 -39.59375 23.5 -32.5 C 22.914062 -25.414062 22.6875 -18.289062 22.8125 -11.125 C 22.9375 -3.957031 23.039062 3.125 23.125 10.125 C 23.207031 12.789062 23.4375 14.9375 23.8125 16.5625 C 24.1875 18.1875 24.332031 19.332031 24.25 20 C 24.164062 20.664062 23.375 21 21.875 21 C 20.957031 21 20.226562 19.976562 19.6875 17.9375 C 19.144531 15.894531 18.75 13.226562 18.5 9.9375 C 18.25 6.644531 18.125 3.125 18.125 -0.625 C 18.125 -4.375 18.164062 -8.039062 18.25 -11.625 C 18.332031 -15.207031 18.414062 -18.289062 18.5 -20.875 C 18.582031 -23.457031 18.625 -25.164062 18.625 -26 C 18.289062 -25.664062 18.082031 -25.457031 18 -25.375 C 17.914062 -25.289062 17.789062 -24.957031 17.625 -24.375 L 13.25 -13.75 C 12.664062 -12.5 12 -11.082031 11.25 -9.5 C 10.5 -7.914062 9.5625 -6.539062 8.4375 -5.375 C 7.3125 -4.207031 5.957031 -3.625 4.375 -3.625 C 2.625 -3.625 1.4375 -4.457031 0.8125 -6.125 C 0.1875 -7.789062 0 -9.9375 0.25 -12.5625 C 0.5 -15.1875 1.101562 -17.957031 2.0625 -20.875 C 3.019531 -23.789062 4.226562 -26.5625 5.6875 -29.1875 C 7.144531 -31.820312 8.769531 -33.972656 10.5625 -35.640625 C 12.351562 -37.304688 14.207031 -38.140625 16.125 -38.140625 C 16.789062 -38.140625 17.144531 -38.078125 17.1875 -37.953125 C 17.226562 -37.828125 17.707031 -37.765625 18.625 -37.765625 Z M 18.625 -37.765625 "/></g></g></g><g fill="#ffffff" fill-opacity="1"><g transform="translate(172.876391, 147.34054)"><g><path d="M -0.75 -10.375 L 0 -24.5 C 0.0820312 -25.414062 0.164062 -26.519531 0.25 -27.8125 C 0.332031 -29.101562 0.414062 -30.207031 0.5 -31.125 C 0.664062 -35.300781 1.1875 -39.429688 2.0625 -43.515625 C 2.9375 -47.597656 3.875 -51.640625 4.875 -55.640625 C 5.457031 -57.304688 5.914062 -58.410156 6.25 -58.953125 C 6.582031 -59.492188 7.039062 -59.765625 7.625 -59.765625 C 7.875 -59.765625 8.164062 -59.742188 8.5 -59.703125 C 8.832031 -59.660156 9.207031 -59.597656 9.625 -59.515625 C 10.039062 -57.597656 9.957031 -55.328125 9.375 -52.703125 C 8.789062 -50.078125 8.332031 -47.679688 8 -45.515625 C 7.082031 -39.765625 6.332031 -33.425781 5.75 -26.5 C 5.164062 -19.582031 4.875 -13 4.875 -6.75 L 5.25 7.25 L 6.25 4.875 C 7.414062 1.539062 8.394531 -1.269531 9.1875 -3.5625 C 9.976562 -5.851562 10.894531 -8.125 11.9375 -10.375 C 12.976562 -12.625 14.375 -15.375 16.125 -18.625 C 17.039062 -20.289062 17.9375 -21.707031 18.8125 -22.875 C 19.6875 -24.039062 21.039062 -24.625 22.875 -24.625 C 23.789062 -24.625 24.4375 -23.957031 24.8125 -22.625 C 25.1875 -21.289062 25.414062 -19.832031 25.5 -18.25 C 25.582031 -16.664062 25.625 -15.5 25.625 -14.75 C 25.625 -12.414062 25.6875 -10.4375 25.8125 -8.8125 C 25.9375 -7.1875 26.414062 -5.582031 27.25 -4 C 29.164062 -4.414062 30.789062 -5.644531 32.125 -7.6875 C 33.46875 -9.726562 34.679688 -11.5 35.765625 -13 C 36.347656 -13.914062 36.890625 -14.832031 37.390625 -15.75 C 37.890625 -16.664062 38.390625 -17.625 38.890625 -18.625 C 39.640625 -19.957031 40.242188 -20.875 40.703125 -21.375 C 41.160156 -21.875 41.640625 -22.125 42.140625 -22.125 C 42.390625 -22.125 42.847656 -22.039062 43.515625 -21.875 C 43.929688 -20.375 43.847656 -19.164062 43.265625 -18.25 C 42.679688 -17.332031 42.054688 -16.25 41.390625 -15 C 40.804688 -13.914062 40.015625 -12.519531 39.015625 -10.8125 C 38.015625 -9.101562 36.890625 -7.4375 35.640625 -5.8125 C 34.390625 -4.1875 33.050781 -2.8125 31.625 -1.6875 C 30.207031 -0.5625 28.75 0 27.25 0 C 24.5 0 22.707031 -2.457031 21.875 -7.375 C 21.625 -8.789062 21.457031 -10.6875 21.375 -13.0625 C 21.289062 -15.4375 21.25 -17.5 21.25 -19.25 C 20.664062 -18.832031 19.957031 -17.875 19.125 -16.375 C 18.289062 -14.875 17.457031 -13.1875 16.625 -11.3125 C 15.789062 -9.4375 15.019531 -7.625 14.3125 -5.875 C 13.601562 -4.125 13.039062 -2.789062 12.625 -1.875 C 11.625 0.707031 10.8125 3.289062 10.1875 5.875 C 9.5625 8.457031 8.875 10.914062 8.125 13.25 C 7.707031 14.582031 7.226562 15.4375 6.6875 15.8125 C 6.144531 16.1875 5.289062 16.375 4.125 16.375 C 3.207031 16.375 2.457031 15.582031 1.875 14 C 1.289062 12.414062 0.8125 10.4375 0.4375 8.0625 C 0.0625 5.6875 -0.207031 3.226562 -0.375 0.6875 C -0.539062 -1.851562 -0.644531 -4.144531 -0.6875 -6.1875 C -0.726562 -8.226562 -0.75 -9.625 -0.75 -10.375 Z M -0.75 -10.375 "/></g></g></g><g fill="#ffffff" fill-opacity="1"><g transform="translate(211.006882, 147.34054)"><g><path d="M 3.625 50.140625 C 6.039062 50.140625 8.207031 49.429688 10.125 48.015625 C 12.039062 46.597656 13.726562 44.890625 15.1875 42.890625 C 16.644531 40.890625 17.875 39.015625 18.875 37.265625 C 19.789062 35.515625 20.8125 33.007812 21.9375 29.75 C 23.0625 26.5 24.125 22.976562 25.125 19.1875 C 26.125 15.394531 26.976562 11.8125 27.6875 8.4375 C 28.394531 5.0625 28.832031 2.414062 29 0.5 C 28 1.082031 27.082031 1.707031 26.25 2.375 L 14 13.25 C 13.664062 13.582031 13.332031 13.976562 13 14.4375 C 12.664062 14.894531 12.25 15.332031 11.75 15.75 C 9.75 17.75 7.957031 19.75 6.375 21.75 C 4.789062 23.75 3.207031 25.957031 1.625 28.375 C 0.875 29.457031 0.0820312 30.832031 -0.75 32.5 C -1.582031 34.175781 -2.269531 35.953125 -2.8125 37.828125 C -3.351562 39.703125 -3.5625 41.554688 -3.4375 43.390625 C -3.3125 45.222656 -2.625 46.804688 -1.375 48.140625 C -0.289062 49.472656 1.375 50.140625 3.625 50.140625 Z M 6.5 -11 C 7.75 -11.664062 9.207031 -12.976562 10.875 -14.9375 C 12.539062 -16.894531 14.289062 -19.226562 16.125 -21.9375 C 17.957031 -24.644531 19.75 -27.4375 21.5 -30.3125 C 23.25 -33.195312 24.851562 -35.867188 26.3125 -38.328125 C 27.769531 -40.785156 28.914062 -42.765625 29.75 -44.265625 C 30.75 -45.929688 31.4375 -47.035156 31.8125 -47.578125 C 32.195312 -48.117188 33.054688 -48.390625 34.390625 -48.390625 C 35.054688 -48.390625 35.554688 -47.910156 35.890625 -46.953125 C 36.222656 -45.992188 36.472656 -44.828125 36.640625 -43.453125 C 36.804688 -42.078125 36.890625 -40.765625 36.890625 -39.515625 C 36.890625 -38.265625 36.890625 -37.304688 36.890625 -36.640625 L 36.890625 -27 C 36.890625 -24.914062 36.785156 -22.707031 36.578125 -20.375 C 36.367188 -18.039062 36.179688 -15.875 36.015625 -13.875 C 35.847656 -11.875 35.765625 -10.289062 35.765625 -9.125 L 53.640625 -19.5 C 54.054688 -19.75 54.929688 -20.332031 56.265625 -21.25 C 57.597656 -22.164062 58.722656 -22.625 59.640625 -22.625 C 60.390625 -22.625 60.765625 -22.164062 60.765625 -21.25 C 60.765625 -20.664062 60.078125 -19.875 58.703125 -18.875 C 57.328125 -17.875 55.867188 -16.957031 54.328125 -16.125 C 52.785156 -15.289062 51.765625 -14.707031 51.265625 -14.375 C 48.679688 -12.957031 46.117188 -11.4375 43.578125 -9.8125 C 41.035156 -8.1875 38.554688 -6.539062 36.140625 -4.875 C 35.554688 -4.457031 35.242188 -4.101562 35.203125 -3.8125 C 35.160156 -3.519531 35.054688 -2.914062 34.890625 -2 C 34.304688 2.082031 33.46875 6.707031 32.375 11.875 C 31.289062 17.039062 29.957031 22.082031 28.375 27 C 26.789062 31.925781 24.957031 36.054688 22.875 39.390625 C 21.707031 41.640625 20.144531 43.867188 18.1875 46.078125 C 16.226562 48.285156 14.039062 50.117188 11.625 51.578125 C 9.207031 53.035156 6.625 53.765625 3.875 53.765625 C 0.789062 53.765625 -1.789062 52.722656 -3.875 50.640625 C -5.957031 48.554688 -7 45.640625 -7 41.890625 C -7 39.140625 -6.289062 36.175781 -4.875 33 C -3.457031 29.832031 -1.5625 26.601562 0.8125 23.3125 C 3.1875 20.019531 5.75 16.875 8.5 13.875 C 11.25 10.875 14 8.144531 16.75 5.6875 C 19.5 3.226562 21.957031 1.207031 24.125 -0.375 C 24.539062 -0.789062 24.914062 -1.101562 25.25 -1.3125 C 25.582031 -1.519531 26 -1.789062 26.5 -2.125 C 27.664062 -3.125 28.519531 -3.8125 29.0625 -4.1875 C 29.601562 -4.5625 29.914062 -5.289062 30 -6.375 C 30.5 -10.625 30.957031 -14.539062 31.375 -18.125 C 31.800781 -21.707031 32.117188 -25.394531 32.328125 -29.1875 C 32.535156 -32.988281 32.640625 -37.265625 32.640625 -42.015625 C 32.390625 -41.847656 31.695312 -40.867188 30.5625 -39.078125 C 29.4375 -37.285156 28.164062 -35.195312 26.75 -32.8125 C 25.332031 -30.4375 24 -28.226562 22.75 -26.1875 C 21.5 -24.144531 20.625 -22.75 20.125 -22 C 18.875 -20 17.351562 -17.644531 15.5625 -14.9375 C 13.769531 -12.226562 12.039062 -10.082031 10.375 -8.5 C 8.789062 -7.082031 7.332031 -6.375 6 -6.375 C 4.664062 -6.375 3.539062 -7.019531 2.625 -8.3125 C 1.707031 -9.601562 1.25 -11.332031 1.25 -13.5 C 1.25 -14.832031 1.414062 -16.5 1.75 -18.5 C 2.082031 -20.5 2.582031 -22.476562 3.25 -24.4375 C 3.914062 -26.394531 4.6875 -28.039062 5.5625 -29.375 C 6.4375 -30.71875 7.375 -31.390625 8.375 -31.390625 C 9.789062 -31.390625 10.5 -30.882812 10.5 -29.875 C 10.5 -28.875 10.164062 -27.476562 9.5 -25.6875 C 8.832031 -23.894531 8.164062 -21.75 7.5 -19.25 C 6.832031 -16.75 6.5 -14 6.5 -11 Z M 6.5 -11 "/></g></g></g><g fill="#ffffff" fill-opacity="1"><g transform="translate(267.264966, 147.34054)"><g><path d="M 0 -12.625 C 0 -14.375 0.414062 -16.539062 1.25 -19.125 C 2.082031 -21.707031 3.25 -24.269531 4.75 -26.8125 C 6.25 -29.351562 7.976562 -31.457031 9.9375 -33.125 C 11.894531 -34.800781 13.957031 -35.640625 16.125 -35.640625 C 18.125 -35.640625 19.75 -35.054688 21 -33.890625 C 22.25 -32.722656 23 -31.53125 23.25 -30.3125 C 23.5 -29.101562 23.082031 -28.5 22 -28.5 C 21.164062 -28.5 20.3125 -28.976562 19.4375 -29.9375 C 18.5625 -30.90625 17.539062 -31.390625 16.375 -31.390625 C 15.457031 -31.390625 14.351562 -30.84375 13.0625 -29.75 C 11.769531 -28.664062 10.207031 -26.539062 8.375 -23.375 C 7.539062 -22.039062 6.769531 -20.3125 6.0625 -18.1875 C 5.351562 -16.0625 5 -13.957031 5 -11.875 C 5.164062 -12.039062 5.226562 -12.101562 5.1875 -12.0625 C 5.144531 -12.019531 5.289062 -12.164062 5.625 -12.5 L 6.625 -14 C 7.289062 -15 8.0625 -16.289062 8.9375 -17.875 C 9.8125 -19.457031 10.707031 -21.0625 11.625 -22.6875 C 12.539062 -24.3125 13.375 -25.6875 14.125 -26.8125 C 14.875 -27.9375 15.457031 -28.5 15.875 -28.5 C 17.375 -28.5 18.25 -27.957031 18.5 -26.875 C 18.75 -25.789062 18.851562 -24.457031 18.8125 -22.875 C 18.769531 -21.289062 18.914062 -19.707031 19.25 -18.125 C 19.75 -15.875 20.519531 -14.226562 21.5625 -13.1875 C 22.601562 -12.144531 23.789062 -11.625 25.125 -11.625 C 27.457031 -11.625 30.046875 -13.039062 32.890625 -15.875 C 34.054688 -16.957031 34.890625 -17.851562 35.390625 -18.5625 C 35.890625 -19.269531 36.554688 -20.082031 37.390625 -21 C 37.972656 -21.832031 38.722656 -22.25 39.640625 -22.25 C 40.554688 -22.25 40.953125 -21.476562 40.828125 -19.9375 C 40.703125 -18.394531 39.054688 -16.082031 35.890625 -13 L 32.140625 -10 C 29.710938 -8.332031 27.375 -7.5 25.125 -7.5 C 23.039062 -7.5 21.226562 -8.125 19.6875 -9.375 C 18.144531 -10.625 16.957031 -12.164062 16.125 -14 C 15.289062 -15.832031 14.875 -17.625 14.875 -19.375 C 14.289062 -18.957031 13.625 -18.039062 12.875 -16.625 C 12.125 -15.207031 11.3125 -13.6875 10.4375 -12.0625 C 9.5625 -10.4375 8.664062 -9.019531 7.75 -7.8125 C 6.832031 -6.601562 5.914062 -6 5 -6 C 2.664062 -6 1.25 -6.539062 0.75 -7.625 C 0.25 -8.707031 0 -10.375 0 -12.625 Z M 0 -12.625 "/></g></g></g></svg>