<svg xmlns="http://www.w3.org/2000/svg" xmlns:xlink="http://www.w3.org/1999/xlink" width="500" zoomAndPan="magnify" viewBox="0 0 375 374.999991" height="500" preserveAspectRatio="xMidYMid meet" version="1.0"><defs><g/></defs><path stroke-linecap="butt" transform="matrix(1.610939, 0, 0, 1.610939, 0.0000045, 40.171638)" fill="none" stroke-linejoin="miter" d="M 57.405366 1.787245 C 57.405366 1.520514 57.611476 1.282881 58.023697 1.069496 C 58.435917 0.843987 58.74872 0.703347 58.962105 0.650001 C 59.400999 1.088895 59.847167 1.981231 60.298185 3.324586 C 60.763752 4.653391 61.188097 6.110713 61.576069 7.6917 C 61.961617 9.260564 62.286544 10.717885 62.553275 12.06124 C 62.83213 13.390045 62.997018 14.30178 63.050364 14.79402 C 63.649297 18.225151 64.207007 21.602936 64.72592 24.927375 C 65.244833 28.239689 65.50429 31.6102 65.50429 35.041331 C 65.450944 36.025811 65.477617 36.777507 65.584309 37.29642 C 65.691002 37.815333 65.744348 38.540357 65.744348 39.471491 L 65.664329 44.777014 C 65.664329 44.937052 65.678878 45.043745 65.703126 45.097091 C 65.729799 45.150437 65.717675 45.315325 65.664329 45.59418 C 65.332127 50.116484 64.973253 54.325985 64.587705 58.222683 C 64.214282 62.119381 63.702643 65.889987 63.050364 69.534503 C 62.400511 73.176594 61.542122 76.867182 60.477622 80.603841 C 59.413123 84.342925 58.038246 88.331767 56.348141 92.575215 C 55.962593 93.55727 55.404883 94.769684 54.672585 96.205182 C 53.940287 97.655229 53.110996 99.151348 52.179862 100.693538 C 51.248728 102.250277 50.303046 103.666377 49.345239 104.941836 C 48.401981 106.231844 47.524193 107.2042 46.714301 107.854054 C 45.623128 108.731841 44.471335 109.510211 43.261346 110.189163 C 42.065906 110.868115 40.814695 111.20759 39.512563 111.20759 C 37.769112 111.20759 36.120229 110.594109 34.56349 109.371996 C 33.021299 108.147458 31.837984 106.796829 31.013542 105.322534 C 29.92237 103.579083 29.013059 101.43796 28.280761 98.899166 C 27.548464 96.37007 26.96408 93.651839 26.525186 90.739621 C 26.086292 87.827403 25.766215 84.881237 25.567379 81.901124 C 25.380668 78.93556 25.261851 76.115485 25.208505 73.443325 C 25.155159 70.78329 25.128486 68.470004 25.128486 66.501044 C 25.128486 65.691152 25.167283 65.097069 25.247302 64.72607 C 25.34187 64.340523 25.387942 63.760989 25.387942 62.989894 C 25.387942 61.898721 25.368544 60.676608 25.327321 59.318705 C 25.300648 57.963226 25.322472 56.765361 25.387942 55.72996 C 25.494635 55.131027 25.560105 54.585441 25.586778 54.093201 C 25.613451 53.600961 25.628 52.975356 25.628 52.218809 C 25.628 51.551982 25.681346 50.635397 25.788039 49.464205 C 25.892306 48.295438 25.986875 47.032103 26.066894 45.6742 C 26.146913 44.318721 26.18571 43.06751 26.18571 41.925416 L 25.788039 42.563146 C 25.734692 42.735309 25.708019 42.8614 25.708019 42.941419 C 25.708019 43.021438 25.654673 43.166928 25.547981 43.380313 L 18.765738 63.967099 C 18.273498 65.390473 17.713363 67.080578 17.090182 69.034989 C 16.464577 71.003949 15.792899 73.045654 15.07515 75.160103 C 14.369526 77.286677 13.690574 79.275036 13.04072 81.122754 C 12.388441 82.985022 11.789509 84.488415 11.243923 85.632934 C 10.591644 86.935066 10.099404 87.953494 9.767203 88.683367 C 9.44955 89.430214 9.083401 89.934578 8.671181 90.201309 C 8.25896 90.480164 7.594557 90.618379 6.675548 90.618379 C 6.183308 90.618379 5.79776 90.286178 5.518905 89.621775 C 5.252174 88.969496 5.053338 88.205676 4.919972 87.327888 C 4.774483 86.462225 4.687189 85.652332 4.660516 84.893361 C 4.633843 84.136815 4.621719 83.644575 4.621719 83.416641 C 4.675065 82.820134 4.687189 82.407913 4.660516 82.179979 C 4.633843 81.969019 4.648392 81.595596 4.701738 81.064559 C 4.927247 79.095599 5.053338 77.167861 5.080011 75.27892 C 5.106684 73.404528 5.252174 71.542261 5.518905 69.692117 C 5.957799 66.806572 6.309399 64.347797 6.57613 62.310942 C 6.854985 60.264387 7.167788 58.188735 7.514538 56.088834 C 7.873412 53.986509 8.351103 51.467113 8.950036 48.528222 L 10.186698 43.460332 C 10.29339 42.968092 10.400083 42.536473 10.506775 42.163049 C 10.613468 41.777502 10.717735 41.338608 10.824428 40.846368 L 17.128979 19.86191 C 17.342364 19.316324 17.502403 18.911378 17.609095 18.644647 C 17.727912 18.365791 17.8928 18.006917 18.106185 17.568023 C 18.983972 15.492371 19.621702 14.061722 20.021799 13.278503 C 20.434019 12.480735 21.045076 12.080638 21.857393 12.080638 C 22.242941 12.080638 22.708508 12.167932 23.254094 12.340095 C 23.465054 13.259104 23.559622 13.896834 23.532949 14.255709 C 23.506276 14.614583 23.414132 14.859491 23.254094 14.992856 C 23.094055 15.126222 22.873396 15.385678 22.594541 15.771226 C 22.330235 16.037957 21.949537 16.816327 21.457297 18.106335 C 20.965057 19.381794 20.460692 20.824567 19.941779 22.434652 C 19.422866 24.030189 18.945175 25.540856 18.506281 26.961805 C 18.079512 28.373055 17.781258 29.323587 17.609095 29.815827 C 17.235672 31.239201 16.857399 32.648026 16.471851 34.044727 C 16.086303 35.426878 15.678932 36.850252 15.254588 38.314848 L 12.221128 51.479237 C 11.782235 53.925888 11.396687 56.08156 11.064486 57.943827 C 10.744408 59.791546 10.460703 61.56167 10.206097 63.24935 C 9.968463 64.939455 9.709007 66.69503 9.427727 68.516076 C 9.163421 70.337121 8.870017 72.473394 8.552364 74.920045 C 8.32443 76.503458 8.186215 78.137792 8.132869 79.827896 C 8.079523 81.515576 8.05285 83.312374 8.05285 85.213439 L 8.629959 83.996175 C 9.228891 82.694043 9.866621 81.11063 10.545572 79.248363 C 11.224524 77.400644 11.888927 75.550501 12.541206 73.702782 C 13.205608 71.855063 13.751195 70.244978 14.175539 68.87495 L 25.128486 35.380807 C 25.407341 34.503019 25.720144 33.567036 26.066894 32.568007 C 26.425768 31.556853 26.983479 30.938522 27.74245 30.713013 C 27.914613 30.659667 28.108599 30.632994 28.319559 30.632994 C 29.07853 30.632994 29.590168 31.098561 29.856899 32.029695 C 30.135755 32.960829 30.276395 34.090798 30.276395 35.422029 C 30.276395 36.750834 30.235173 38.060241 30.155153 39.350249 C 30.075134 40.628134 30.036337 41.644136 30.036337 42.403107 L 29.21917 56.467107 C 29.112477 57.55828 29.085804 58.780393 29.13915 60.138296 C 29.192497 61.493775 29.21917 62.744986 29.21917 63.88708 C 29.21917 64.432666 29.192497 65.050997 29.13915 65.742073 C 29.085804 66.421025 29.059131 66.947212 29.059131 67.318211 C 29.112477 68.038385 29.124601 68.489403 29.097928 68.676114 C 29.071255 68.862826 29.044582 69.115008 29.017909 69.432661 C 28.991236 69.767287 29.005785 70.538382 29.059131 71.748371 C 29.165824 72.890465 29.204621 74.43993 29.177948 76.396765 C 29.151275 78.351176 29.21917 80.118876 29.376784 81.702288 C 29.551371 83.072316 29.662913 84.267756 29.716259 85.293458 C 29.769606 86.331284 29.849625 87.407908 29.956317 88.525753 C 30.06301 89.641174 30.281244 91.045149 30.613446 92.732829 C 30.82683 93.824001 31.132359 95.227977 31.532455 96.94233 C 31.944676 98.659108 32.490262 100.361337 33.166789 102.049017 C 33.86029 103.739121 34.738077 105.155221 35.800152 106.299739 C 36.864651 107.441833 38.154659 108.014092 39.670177 108.014092 C 41.040204 108.014092 42.378709 107.468506 43.680842 106.379759 C 44.985399 105.288586 46.207512 103.937957 47.352031 102.330297 C 48.494124 100.732335 49.500428 99.131949 50.363666 97.521863 C 51.241454 95.911778 51.925255 94.563574 52.417495 93.472401 C 54.054254 90.094616 55.458229 86.496172 56.626996 82.679494 C 57.798188 78.874939 58.775393 75.000065 59.561037 71.050021 C 60.358806 67.099976 60.977137 63.295422 61.416031 59.638782 C 62.119231 53.761 62.512053 47.582539 62.592072 41.105825 C 62.672091 34.616986 62.279269 28.431251 61.416031 22.553469 C 60.870444 19.175684 60.298185 16.290139 59.699253 13.896834 C 59.10032 11.48898 58.557159 8.843493 58.064919 5.957949 C 57.958226 5.198977 57.817586 4.493353 57.645424 3.843499 C 57.485385 3.19122 57.405366 2.504994 57.405366 1.787245 Z M 76.687595 67.318211 C 75.596422 67.318211 74.626491 66.966611 73.775377 66.260986 C 72.936387 65.557786 72.298657 64.825488 71.859763 64.066517 C 70.889832 62.206674 70.329697 60.012205 70.184207 57.485535 C 70.050842 54.944316 70.203606 52.643154 70.6425 50.582051 C 70.749192 49.983118 70.894682 49.265369 71.081393 48.428804 C 71.280229 47.577689 71.566359 46.825993 71.939782 46.173714 C 72.32533 45.509311 72.790897 45.17711 73.336483 45.17711 C 74.585269 45.17711 75.198751 45.601455 75.172078 46.452569 C 75.145404 47.29156 74.912621 48.600967 74.473727 50.383215 C 74.046958 52.150914 73.835998 54.418128 73.835998 57.184856 C 73.835998 58.009298 73.940265 58.993778 74.15365 60.138296 C 74.367035 61.28039 74.706511 62.291543 75.172078 63.169331 C 75.637644 64.034994 76.222028 64.466614 76.927653 64.466614 C 77.80544 64.466614 78.802044 64.088341 79.91989 63.329369 C 81.035311 62.558274 82.065862 61.699885 83.011545 60.756627 C 83.969352 59.79882 84.641029 59.073797 85.026577 58.581557 C 85.133269 58.474865 85.431523 58.108716 85.923763 57.485535 C 86.416003 56.859929 87.000387 56.154305 87.679338 55.371085 C 88.35829 54.570892 89.022693 53.872542 89.674971 53.276034 C 90.324825 52.677102 90.843738 52.376423 91.229286 52.376423 C 91.614833 52.376423 91.80882 52.703775 91.80882 53.356054 C 91.80882 53.741601 91.549363 54.325985 91.03045 55.111629 C 90.511537 55.894848 89.893206 56.726564 89.175457 57.604352 C 88.469832 58.46759 87.778756 59.287182 87.099805 60.058277 C 86.423278 60.814823 85.916489 61.360409 85.584287 61.692611 C 84.932009 62.344889 84.156064 63.123259 83.251603 64.02772 C 82.359267 64.917632 81.369937 65.691152 80.278764 66.341005 C 79.187592 66.993284 77.989727 67.318211 76.687595 67.318211 Z M 74.073631 34.883717 C 74.073631 33.964707 74.320963 33.166939 74.813203 32.487987 C 75.305443 31.796911 75.848604 31.450161 76.447537 31.450161 C 77.099815 31.450161 77.645402 31.864807 78.084295 32.689248 C 78.840842 34.204765 78.93541 35.388081 78.363151 36.239196 C 77.790891 37.075761 77.092541 37.495256 76.2681 37.495256 C 75.737062 37.495256 75.237548 37.281871 74.771981 36.857527 C 74.306414 36.418633 74.073631 35.75908 74.073631 34.883717 Z M 91.3869 61.035483 C 91.3869 61.527723 91.498442 61.77263 91.723951 61.77263 C 92.097374 61.77263 92.596889 61.227044 93.220069 60.138296 C 93.860224 59.047124 94.531901 57.684371 95.235101 56.047612 C 95.940726 54.413278 96.619678 52.764396 97.271956 51.100964 C 97.92181 49.437532 98.467396 47.982636 98.90629 46.731425 C 99.345184 45.482638 99.565843 44.75034 99.565843 44.536956 C 98.634709 44.643648 97.909686 44.929778 97.390773 45.395345 C 96.883984 45.848787 96.413567 46.37255 95.974674 46.971483 C 94.5513 48.727058 93.42618 50.86818 92.601738 53.394851 C 91.791846 55.921521 91.3869 58.46759 91.3869 61.035483 Z M 100.703087 42.323088 C 100.703087 41.724156 100.795231 41.205242 100.981942 40.766349 C 101.180778 40.327455 101.360216 39.83764 101.520254 39.292054 L 103.234607 30.075284 C 103.409195 29.476351 103.615305 28.579165 103.852938 27.3813 C 104.092996 26.171311 104.432472 25.021943 104.871366 23.930771 C 105.31026 22.839598 105.855846 22.240666 106.508125 22.136398 C 106.612392 22.136398 106.692411 22.121849 106.745758 22.095176 C 106.813653 22.068503 106.871849 22.056379 106.925195 22.056379 C 107.684166 22.056379 108.115785 22.480724 108.222478 23.331838 C 108.32917 24.170829 108.256425 25.186831 108.004243 26.384696 C 107.764185 27.580136 107.463507 28.724655 107.104632 29.815827 C 106.760307 30.907 106.534798 31.697493 106.428105 32.189733 C 105.123548 36.605345 104.279708 41.127648 103.89416 45.754219 C 103.508613 50.383215 103.355849 55.043734 103.435868 59.7382 C 103.528011 64.420542 103.600756 69.047113 103.654103 73.622763 C 103.707449 75.366214 103.852938 76.767764 104.092996 77.832263 C 104.345178 78.896763 104.444596 79.641185 104.39125 80.06553 C 104.340329 80.504423 103.821416 80.725083 102.836936 80.725083 C 102.238003 80.725083 101.760312 80.053405 101.399013 78.710051 C 101.040138 77.378821 100.780682 75.637794 100.623068 73.484547 C 100.463029 71.341 100.38301 69.047113 100.38301 66.600462 C 100.38301 64.141687 100.409683 61.741107 100.463029 59.398724 C 100.516376 57.058765 100.569722 55.043734 100.623068 53.356054 C 100.676414 51.665949 100.703087 50.548103 100.703087 50.002517 C 100.489702 50.215902 100.356337 50.356542 100.302991 50.422012 C 100.249645 50.475358 100.169625 50.688743 100.062933 51.062167 L 97.191937 58.002023 C 96.818514 58.826465 96.386894 59.757598 95.894654 60.795425 C 95.402414 61.833251 94.784083 62.730437 94.039661 63.489408 C 93.307363 64.245954 92.422301 64.626652 91.3869 64.626652 C 90.242381 64.626652 89.464011 64.081066 89.051791 62.989894 C 88.654119 61.898721 88.532878 60.497171 88.692916 58.780393 C 88.852955 57.06604 89.245777 55.257118 89.868958 53.356054 C 90.509112 51.452564 91.299606 49.643643 92.242864 47.929289 C 93.200671 46.212511 94.26517 44.810961 95.436362 43.719789 C 96.605129 42.628616 97.815118 42.08303 99.066329 42.08303 C 99.505222 42.08303 99.738006 42.124252 99.764679 42.204271 C 99.791352 42.284291 100.104155 42.323088 100.703087 42.323088 Z M 106.335962 60.218316 L 106.835476 50.982147 C 106.888823 50.383215 106.942169 49.665466 106.995515 48.826476 C 107.046436 47.975361 107.099783 47.250338 107.153129 46.651405 C 107.27437 43.925899 107.618696 41.231916 108.190955 38.57188 C 108.763214 35.89972 109.374271 33.254233 110.026549 30.632994 C 110.399973 29.541822 110.690952 28.824073 110.904337 28.479747 C 111.129846 28.120873 111.435374 27.941436 111.820922 27.941436 C 111.98096 27.941436 112.167672 27.95356 112.381057 27.980233 C 112.606566 28.006906 112.851474 28.045703 113.118205 28.099049 C 113.39706 29.362384 113.343714 30.853653 112.958166 32.568007 C 112.587167 34.284785 112.286489 35.846373 112.06098 37.257623 C 111.462047 41.020956 110.969807 45.162561 110.58426 49.684865 C 110.213261 54.207168 110.026549 58.508812 110.026549 62.592222 L 110.266607 71.748371 L 110.923736 70.191632 C 111.682707 68.011712 112.320436 66.176117 112.839349 64.684848 C 113.358263 63.18388 113.957195 61.692611 114.633722 60.218316 C 115.312674 58.741596 116.224409 56.944798 117.366503 54.830349 C 117.965435 53.741601 118.552243 52.815317 119.122078 52.058771 C 119.694337 51.287676 120.586674 50.902128 121.796663 50.902128 C 122.395595 50.902128 122.812665 51.341022 123.052723 52.218809 C 123.292781 53.082048 123.438271 54.03258 123.491617 55.070407 C 123.559512 56.108233 123.591035 56.872054 123.591035 57.364294 C 123.591035 58.879811 123.632257 60.169819 123.712276 61.234318 C 123.792296 62.298818 124.102674 63.348768 124.64826 64.386594 C 125.899471 64.107739 126.956696 63.302696 127.819934 61.973891 C 128.697722 60.64266 129.490641 59.486018 130.193841 58.501538 C 130.579388 57.902605 130.933413 57.306098 131.251065 56.707165 C 131.583267 56.108233 131.917893 55.482627 132.250094 54.830349 C 132.742334 53.952561 133.132732 53.356054 133.426136 53.035976 C 133.731664 52.703775 134.044467 52.536462 134.364544 52.536462 C 134.536707 52.536462 134.834961 52.589808 135.26173 52.6965 C 135.540585 53.68098 135.487239 54.471474 135.101692 55.070407 C 134.730693 55.669339 134.323322 56.374964 133.884428 57.184856 C 133.498881 57.902605 132.979967 58.821615 132.330114 59.937036 C 131.677835 61.054881 130.938263 62.146054 130.113821 63.210553 C 129.303929 64.260503 128.433416 65.157689 127.502282 65.902112 C 126.583272 66.634409 125.63274 67.000558 124.64826 67.000558 C 122.853887 67.000558 121.682696 65.390473 121.137109 62.172727 C 120.979496 61.253717 120.865529 60.017055 120.797634 58.46274 C 120.746712 56.906001 120.720039 55.555372 120.720039 54.413278 C 120.346616 54.692134 119.888323 55.322589 119.342737 56.307069 C 118.797151 57.279425 118.251565 58.375447 117.705978 59.599985 C 117.160392 60.822098 116.656028 62.012688 116.190461 63.169331 C 115.724894 64.313849 115.358745 65.184363 115.094439 65.783295 C 114.44216 67.470975 113.908698 69.153805 113.496478 70.829361 C 113.084257 72.519466 112.633239 74.129552 112.140999 75.657193 C 111.874268 76.534981 111.561465 77.095116 111.202591 77.332749 C 110.858265 77.584931 110.29813 77.713447 109.527035 77.713447 C 108.930527 77.713447 108.438287 77.194534 108.05274 76.156707 C 107.679316 75.118881 107.366514 73.821598 107.114331 72.267284 C 106.874274 70.710545 106.702111 69.100459 106.595418 67.439452 C 106.488726 65.790569 106.423256 64.299301 106.396583 62.970495 C 106.35536 61.627141 106.335962 60.710556 106.335962 60.218316 Z M 134.126911 99.75513 C 135.710323 99.75513 137.126423 99.289563 138.377634 98.358429 C 139.62642 97.441844 140.724867 96.331273 141.668125 95.029141 C 142.625932 93.724583 143.430974 92.500045 144.083253 91.357952 C 144.69431 90.213433 145.365987 88.576674 146.098285 86.450101 C 146.828158 84.321102 147.519234 82.015091 148.171512 79.527218 C 148.823791 77.053894 149.381501 74.713935 149.847068 72.504917 C 150.312635 70.310448 150.598765 68.581546 150.705457 67.318211 C 150.053179 67.703758 149.454246 68.115979 148.911085 68.554873 L 140.911579 75.657193 C 140.683645 75.882702 140.46541 76.142159 140.252025 76.435563 C 140.038641 76.741091 139.76706 77.027221 139.434859 77.293952 C 138.130301 78.596084 136.961534 79.900641 135.923708 81.202774 C 134.885882 82.519455 133.848056 83.969502 132.812654 85.552914 C 132.320414 86.256114 131.801501 87.155725 131.255915 88.244473 C 130.710329 89.335645 130.264161 90.492288 129.919835 91.716826 C 129.560961 92.938939 129.427595 94.151353 129.519738 95.346793 C 129.599758 96.544658 130.045926 97.582484 130.855818 98.460272 C 131.561443 99.32351 132.652616 99.75513 134.126911 99.75513 Z M 136.003727 59.818219 C 136.81362 59.379325 137.766577 58.520936 138.855325 57.245477 C 139.946497 55.955469 141.091016 54.425403 142.286456 52.657703 C 143.484321 50.887579 144.655512 49.066534 145.797606 47.189717 C 146.954249 45.303201 148.006624 43.55975 148.949882 41.964214 C 149.907689 40.354128 150.659385 39.05927 151.204972 38.07479 C 151.854825 36.983618 152.300994 36.265869 152.541052 35.919118 C 152.793234 35.560244 153.350944 35.380807 154.216608 35.380807 C 154.655501 35.380807 154.980428 35.693609 155.193813 36.319215 C 155.419322 36.94482 155.586635 37.708641 155.693328 38.613102 C 155.80002 39.503014 155.853366 40.361402 155.853366 41.185844 C 155.853366 41.998161 155.853366 42.623767 155.853366 43.06266 L 155.853366 49.345389 C 155.853366 50.715416 155.785471 52.165463 155.652106 53.693105 C 155.51874 55.211047 155.392649 56.627146 155.273832 57.943827 C 155.16714 59.24596 155.113794 60.276512 155.113794 61.035483 L 166.803888 54.25324 C 167.082743 54.093201 167.655002 53.714928 168.520666 53.115996 C 169.398453 52.517063 170.135601 52.218809 170.734533 52.218809 C 171.226773 52.218809 171.471681 52.517063 171.471681 53.115996 C 171.471681 53.486994 171.020663 54.005907 170.116202 54.672735 C 169.211741 55.322589 168.253935 55.921521 167.242781 56.467107 C 166.246177 57.012694 165.581775 57.390967 165.247148 57.604352 C 163.559468 58.535485 161.883912 59.532089 160.220481 60.596589 C 158.571598 61.646539 156.956663 62.718313 155.37325 63.807061 C 154.987703 64.088341 154.781592 64.321124 154.754919 64.505411 C 154.728246 64.692123 154.662776 65.084945 154.556083 65.683877 C 154.170536 68.356037 153.62495 71.382222 152.919325 74.760007 C 152.216125 78.137792 151.343187 81.430707 150.305361 84.633905 C 149.269959 87.854076 148.072094 90.552909 146.716616 92.732829 C 145.945521 94.209549 144.919819 95.66687 143.644359 97.102368 C 142.366475 98.552415 140.938252 99.75028 139.354839 100.693538 C 137.771427 101.651345 136.083747 102.129036 134.28695 102.129036 C 132.267068 102.129036 130.576963 101.445234 129.221485 100.075207 C 127.863581 98.717303 127.187054 96.816239 127.187054 94.369588 C 127.187054 92.575215 127.652621 90.640203 128.58133 88.56455 C 129.50034 86.503447 130.729727 84.396272 132.271918 82.2406 C 133.828657 80.087353 135.504213 78.023825 137.30101 76.05729 C 139.107507 74.102878 140.911579 72.32063 142.705951 70.710545 C 144.500323 69.115008 146.110409 67.798327 147.533783 66.760501 C 147.800514 66.481645 148.038147 66.275535 148.251532 66.142169 C 148.477041 66.008804 148.751046 65.829367 149.068699 65.603858 C 149.842219 64.951579 150.399929 64.505411 150.744254 64.267778 C 151.105554 64.013171 151.311664 63.53548 151.36501 62.829855 C 151.697212 60.051003 151.995465 57.490385 152.262197 55.150426 C 152.541052 52.810467 152.747162 50.402614 152.880528 47.929289 C 153.013893 45.441416 153.079363 42.65044 153.079363 39.55151 C 152.919325 39.655778 152.468307 40.295932 151.723885 41.464699 C 150.991587 42.635891 150.159871 43.998644 149.228737 45.555383 C 148.312152 47.112123 147.441639 48.554895 146.617198 49.8837 C 145.804881 51.214931 145.232621 52.124241 144.90042 52.616481 C 144.088103 53.921038 143.098773 55.463229 141.927581 57.245477 C 140.758814 59.013176 139.62642 60.409877 138.537672 61.433154 C 137.499846 62.364288 136.549314 62.829855 135.68365 62.829855 C 134.805863 62.829855 134.068715 62.412785 133.469783 61.573794 C 132.87085 60.72268 132.572596 59.59271 132.572596 58.18146 C 132.572596 57.306098 132.679289 56.214925 132.890249 54.910368 C 133.118183 53.593687 133.44311 52.298829 133.869879 51.020945 C 134.308773 49.745485 134.813137 48.673711 135.385396 47.810473 C 135.957656 46.932685 136.568712 46.493791 137.220991 46.493791 C 138.152125 46.493791 138.617692 46.818718 138.617692 47.470997 C 138.617692 48.120851 138.397032 49.032586 137.958139 50.203778 C 137.533794 51.372545 137.09975 52.77652 136.660856 54.413278 C 136.221962 56.047612 136.003727 57.849259 136.003727 59.818219 Z M 168.520666 58.741596 C 168.520666 57.597077 168.792246 56.180978 169.337832 54.493298 C 169.883419 52.803193 170.64239 51.127637 171.612321 49.464205 C 172.596801 47.803198 173.72677 46.433171 175.004655 45.356547 C 176.294663 44.265375 177.642867 43.719789 179.054117 43.719789 C 180.370798 43.719789 181.435297 44.098062 182.24519 44.857033 C 183.069631 45.616004 183.561871 46.391949 183.72191 47.189717 C 183.881948 47.975361 183.607943 48.368183 182.904743 48.368183 C 182.359157 48.368183 181.799021 48.05538 181.229187 47.429775 C 180.656928 46.804169 179.9901 46.493791 179.233554 46.493791 C 178.634621 46.493791 177.909598 46.845391 177.058484 47.551016 C 176.221918 48.254216 175.196216 49.643643 173.986227 51.719295 C 173.440641 52.597083 172.936277 53.727052 172.47071 55.111629 C 172.017267 56.49378 171.791758 57.871083 171.791758 59.24111 C 171.89845 59.134418 171.939672 59.093196 171.912999 59.119869 C 171.886326 59.146542 171.97847 59.047124 172.191855 58.821615 L 172.848983 57.844409 C 173.287877 57.192131 173.794666 56.348291 174.3645 55.310465 C 174.936759 54.272638 175.523568 53.227538 176.120075 52.177587 C 176.719008 51.113088 177.264594 50.215902 177.756834 49.486029 C 178.249074 48.739182 178.627347 48.368183 178.894078 48.368183 C 179.878558 48.368183 180.450817 48.727058 180.608431 49.444807 C 180.76847 50.150431 180.836365 51.020945 180.809692 52.058771 C 180.783019 53.082048 180.882437 54.1126 181.107946 55.150426 C 181.428023 56.627146 181.925113 57.703769 182.604064 58.382721 C 183.29514 59.059248 184.07351 59.398724 184.939173 59.398724 C 186.466815 59.398724 188.156919 58.474865 190.004638 56.627146 C 190.775733 55.921521 191.321319 55.337138 191.641397 54.871571 C 191.973598 54.406004 192.412492 53.872542 192.958078 53.276034 C 193.329077 52.730448 193.816467 52.456443 194.412975 52.456443 C 195.011907 52.456443 195.271364 52.963231 195.191344 53.974385 C 195.111325 54.970989 194.041976 56.479232 191.980873 58.501538 L 189.526947 60.455949 C 187.943535 61.547121 186.413468 62.092707 184.939173 62.092707 C 183.58127 62.092707 182.397954 61.687761 181.386801 60.875444 C 180.375648 60.051003 179.599703 59.039849 179.054117 57.844409 C 178.50853 56.646545 178.234525 55.475353 178.234525 54.333259 C 177.863526 54.612114 177.431907 55.215896 176.939667 56.14703 C 176.447427 57.06604 175.913965 58.055369 175.34413 59.119869 C 174.771871 60.184368 174.185063 61.108227 173.588555 61.893872 C 172.989623 62.677091 172.39069 63.069913 171.791758 63.069913 C 170.261692 63.069913 169.332983 62.718313 168.998357 62.012688 C 168.680704 61.307063 168.520666 60.218316 168.520666 58.741596 Z M 168.520666 58.741596 " stroke="#fffef9" stroke-width="6.128468" stroke-opacity="1" stroke-miterlimit="4"/><g fill="#122620" fill-opacity="1"><g transform="translate(8.633632, 148.104569)"><g><path d="M 83.84375 -105.03125 C 83.84375 -105.46875 84.171875 -105.863281 84.828125 -106.21875 C 85.484375 -106.570312 85.988281 -106.789062 86.34375 -106.875 C 87.050781 -106.175781 87.773438 -104.75 88.515625 -102.59375 C 89.265625 -100.445312 89.945312 -98.101562 90.5625 -95.5625 C 91.175781 -93.019531 91.703125 -90.671875 92.140625 -88.515625 C 92.578125 -86.367188 92.835938 -84.898438 92.921875 -84.109375 C 93.890625 -78.578125 94.789062 -73.132812 95.625 -67.78125 C 96.457031 -62.425781 96.875 -56.988281 96.875 -51.46875 C 96.789062 -49.882812 96.832031 -48.675781 97 -47.84375 C 97.175781 -47.007812 97.265625 -45.847656 97.265625 -44.359375 L 97.140625 -35.796875 C 97.140625 -35.535156 97.160156 -35.359375 97.203125 -35.265625 C 97.242188 -35.179688 97.222656 -34.921875 97.140625 -34.484375 C 96.609375 -27.203125 96.035156 -20.421875 95.421875 -14.140625 C 94.804688 -7.867188 93.972656 -1.796875 92.921875 4.078125 C 91.867188 9.960938 90.488281 15.910156 88.78125 21.921875 C 87.070312 27.929688 84.859375 34.359375 82.140625 41.203125 C 81.523438 42.773438 80.625 44.722656 79.4375 47.046875 C 78.25 49.378906 76.910156 51.796875 75.421875 54.296875 C 73.929688 56.796875 72.414062 59.078125 70.875 61.140625 C 69.34375 63.203125 67.921875 64.757812 66.609375 65.8125 C 64.847656 67.21875 63 68.46875 61.0625 69.5625 C 59.132812 70.65625 57.117188 71.203125 55.015625 71.203125 C 52.210938 71.203125 49.554688 70.210938 47.046875 68.234375 C 44.546875 66.265625 42.640625 64.097656 41.328125 61.734375 C 39.578125 58.921875 38.109375 55.472656 36.921875 51.390625 C 35.734375 47.316406 34.785156 42.929688 34.078125 38.234375 C 33.378906 33.535156 32.875 28.796875 32.5625 24.015625 C 32.257812 19.234375 32.066406 14.691406 31.984375 10.390625 C 31.898438 6.097656 31.859375 2.367188 31.859375 -0.796875 C 31.859375 -2.109375 31.921875 -3.070312 32.046875 -3.6875 C 32.179688 -4.300781 32.25 -5.222656 32.25 -6.453125 C 32.25 -8.203125 32.222656 -10.171875 32.171875 -12.359375 C 32.128906 -14.554688 32.15625 -16.492188 32.25 -18.171875 C 32.425781 -19.128906 32.535156 -20.003906 32.578125 -20.796875 C 32.617188 -21.585938 32.640625 -22.597656 32.640625 -23.828125 C 32.640625 -24.878906 32.726562 -26.347656 32.90625 -28.234375 C 33.082031 -30.117188 33.234375 -32.15625 33.359375 -34.34375 C 33.492188 -36.539062 33.5625 -38.5625 33.5625 -40.40625 L 32.90625 -39.359375 C 32.820312 -39.097656 32.78125 -38.898438 32.78125 -38.765625 C 32.78125 -38.628906 32.691406 -38.390625 32.515625 -38.046875 L 21.59375 -4.875 C 20.800781 -2.59375 19.898438 0.125 18.890625 3.28125 C 17.878906 6.445312 16.800781 9.738281 15.65625 13.15625 C 14.519531 16.582031 13.425781 19.785156 12.375 22.765625 C 11.320312 25.753906 10.359375 28.171875 9.484375 30.015625 C 8.421875 32.117188 7.625 33.757812 7.09375 34.9375 C 6.570312 36.125 5.984375 36.9375 5.328125 37.375 C 4.671875 37.820312 3.597656 38.046875 2.109375 38.046875 C 1.316406 38.046875 0.703125 37.515625 0.265625 36.453125 C -0.171875 35.398438 -0.5 34.171875 -0.71875 32.765625 C -0.9375 31.367188 -1.066406 30.054688 -1.109375 28.828125 C -1.160156 27.597656 -1.1875 26.804688 -1.1875 26.453125 C -1.09375 25.492188 -1.066406 24.835938 -1.109375 24.484375 C -1.160156 24.128906 -1.140625 23.515625 -1.046875 22.640625 C -0.703125 19.484375 -0.503906 16.390625 -0.453125 13.359375 C -0.410156 10.328125 -0.171875 7.320312 0.265625 4.34375 C 0.960938 -0.300781 1.53125 -4.269531 1.96875 -7.5625 C 2.40625 -10.851562 2.910156 -14.1875 3.484375 -17.5625 C 4.054688 -20.945312 4.828125 -25.007812 5.796875 -29.75 L 7.765625 -37.90625 C 7.941406 -38.695312 8.117188 -39.398438 8.296875 -40.015625 C 8.472656 -40.628906 8.644531 -41.332031 8.8125 -42.125 L 18.953125 -75.953125 C 19.304688 -76.828125 19.566406 -77.484375 19.734375 -77.921875 C 19.910156 -78.359375 20.175781 -78.929688 20.53125 -79.640625 C 21.9375 -82.972656 22.96875 -85.273438 23.625 -86.546875 C 24.28125 -87.816406 25.269531 -88.453125 26.59375 -88.453125 C 27.207031 -88.453125 27.953125 -88.320312 28.828125 -88.0625 C 29.179688 -86.5625 29.332031 -85.523438 29.28125 -84.953125 C 29.238281 -84.390625 29.085938 -84 28.828125 -83.78125 C 28.566406 -83.5625 28.210938 -83.144531 27.765625 -82.53125 C 27.328125 -82.09375 26.710938 -80.84375 25.921875 -78.78125 C 25.140625 -76.71875 24.332031 -74.390625 23.5 -71.796875 C 22.664062 -69.210938 21.894531 -66.78125 21.1875 -64.5 C 20.488281 -62.21875 20.007812 -60.679688 19.75 -59.890625 C 19.132812 -57.609375 18.519531 -55.347656 17.90625 -53.109375 C 17.289062 -50.867188 16.628906 -48.566406 15.921875 -46.203125 L 11.0625 -25.015625 C 10.351562 -21.054688 9.734375 -17.585938 9.203125 -14.609375 C 8.679688 -11.628906 8.222656 -8.773438 7.828125 -6.046875 C 7.429688 -3.328125 7.015625 -0.5 6.578125 2.4375 C 6.140625 5.375 5.660156 8.816406 5.140625 12.765625 C 4.785156 15.304688 4.5625 17.9375 4.46875 20.65625 C 4.382812 23.382812 4.34375 26.285156 4.34375 29.359375 L 5.265625 27.375 C 6.234375 25.269531 7.265625 22.722656 8.359375 19.734375 C 9.453125 16.753906 10.523438 13.769531 11.578125 10.78125 C 12.628906 7.800781 13.507812 5.21875 14.21875 3.03125 L 31.859375 -50.9375 C 32.296875 -52.34375 32.796875 -53.859375 33.359375 -55.484375 C 33.929688 -57.109375 34.832031 -58.09375 36.0625 -58.4375 C 36.320312 -58.53125 36.628906 -58.578125 36.984375 -58.578125 C 38.210938 -58.578125 39.046875 -57.828125 39.484375 -56.328125 C 39.921875 -54.835938 40.140625 -53.015625 40.140625 -50.859375 C 40.140625 -48.710938 40.070312 -46.609375 39.9375 -44.546875 C 39.8125 -42.492188 39.75 -40.851562 39.75 -39.625 L 38.4375 -16.984375 C 38.257812 -15.222656 38.210938 -13.242188 38.296875 -11.046875 C 38.390625 -8.859375 38.4375 -6.84375 38.4375 -5 C 38.4375 -4.125 38.390625 -3.132812 38.296875 -2.03125 C 38.210938 -0.9375 38.171875 -0.0820312 38.171875 0.53125 C 38.253906 1.664062 38.273438 2.382812 38.234375 2.6875 C 38.191406 3 38.148438 3.414062 38.109375 3.9375 C 38.066406 4.46875 38.085938 5.703125 38.171875 7.640625 C 38.347656 9.472656 38.410156 11.96875 38.359375 15.125 C 38.316406 18.289062 38.429688 21.144531 38.703125 23.6875 C 38.960938 25.882812 39.132812 27.816406 39.21875 29.484375 C 39.3125 31.148438 39.441406 32.878906 39.609375 34.671875 C 39.785156 36.472656 40.140625 38.738281 40.671875 41.46875 C 41.023438 43.21875 41.53125 45.472656 42.1875 48.234375 C 42.84375 51.003906 43.71875 53.75 44.8125 56.46875 C 45.914062 59.1875 47.320312 61.46875 49.03125 63.3125 C 50.738281 65.15625 52.820312 66.078125 55.28125 66.078125 C 57.476562 66.078125 59.628906 65.195312 61.734375 63.4375 C 63.835938 61.6875 65.8125 59.515625 67.65625 56.921875 C 69.5 54.335938 71.117188 51.75 72.515625 49.15625 C 73.921875 46.570312 75.019531 44.398438 75.8125 42.640625 C 78.445312 37.203125 80.707031 31.410156 82.59375 25.265625 C 84.476562 19.128906 86.054688 12.878906 87.328125 6.515625 C 88.597656 0.148438 89.585938 -5.96875 90.296875 -11.84375 C 91.429688 -21.320312 92.066406 -31.28125 92.203125 -41.71875 C 92.335938 -52.164062 91.703125 -62.128906 90.296875 -71.609375 C 89.421875 -77.046875 88.5 -81.691406 87.53125 -85.546875 C 86.5625 -89.410156 85.679688 -93.671875 84.890625 -98.328125 C 84.722656 -99.554688 84.503906 -100.695312 84.234375 -101.75 C 83.972656 -102.800781 83.84375 -103.894531 83.84375 -105.03125 Z M 83.84375 -105.03125 "/></g></g></g><g fill="#122620" fill-opacity="1"><g transform="translate(112.61254, 148.104569)"><g><path d="M 10.921875 0.53125 C 9.171875 0.53125 7.613281 -0.0351562 6.25 -1.171875 C 4.894531 -2.316406 3.863281 -3.503906 3.15625 -4.734375 C 1.582031 -7.722656 0.679688 -11.253906 0.453125 -15.328125 C 0.234375 -19.410156 0.476562 -23.117188 1.1875 -26.453125 C 1.363281 -27.421875 1.601562 -28.582031 1.90625 -29.9375 C 2.21875 -31.300781 2.679688 -32.507812 3.296875 -33.5625 C 3.910156 -34.613281 4.65625 -35.140625 5.53125 -35.140625 C 7.550781 -35.140625 8.535156 -34.457031 8.484375 -33.09375 C 8.441406 -31.738281 8.066406 -29.632812 7.359375 -26.78125 C 6.660156 -23.9375 6.3125 -20.273438 6.3125 -15.796875 C 6.3125 -14.484375 6.488281 -12.90625 6.84375 -11.0625 C 7.195312 -9.21875 7.742188 -7.59375 8.484375 -6.1875 C 9.234375 -4.78125 10.175781 -4.078125 11.3125 -4.078125 C 12.71875 -4.078125 14.320312 -4.691406 16.125 -5.921875 C 17.925781 -7.148438 19.59375 -8.53125 21.125 -10.0625 C 22.65625 -11.601562 23.726562 -12.769531 24.34375 -13.5625 C 24.519531 -13.738281 25.003906 -14.328125 25.796875 -15.328125 C 26.585938 -16.335938 27.53125 -17.476562 28.625 -18.75 C 29.726562 -20.03125 30.804688 -21.148438 31.859375 -22.109375 C 32.910156 -23.078125 33.742188 -23.5625 34.359375 -23.5625 C 34.972656 -23.5625 35.28125 -23.035156 35.28125 -21.984375 C 35.28125 -21.367188 34.863281 -20.425781 34.03125 -19.15625 C 33.195312 -17.882812 32.207031 -16.546875 31.0625 -15.140625 C 29.925781 -13.734375 28.804688 -12.414062 27.703125 -11.1875 C 26.609375 -9.957031 25.796875 -9.082031 25.265625 -8.5625 C 24.210938 -7.5 22.960938 -6.242188 21.515625 -4.796875 C 20.066406 -3.347656 18.460938 -2.097656 16.703125 -1.046875 C 14.953125 0.00390625 13.023438 0.53125 10.921875 0.53125 Z M 6.71875 -51.734375 C 6.71875 -53.222656 7.109375 -54.515625 7.890625 -55.609375 C 8.679688 -56.703125 9.5625 -57.25 10.53125 -57.25 C 11.582031 -57.25 12.457031 -56.59375 13.15625 -55.28125 C 14.382812 -52.820312 14.535156 -50.910156 13.609375 -49.546875 C 12.691406 -48.191406 11.578125 -47.515625 10.265625 -47.515625 C 9.390625 -47.515625 8.578125 -47.863281 7.828125 -48.5625 C 7.085938 -49.269531 6.71875 -50.328125 6.71875 -51.734375 Z M 6.71875 -51.734375 "/></g></g></g><g fill="#122620" fill-opacity="1"><g transform="translate(142.621642, 148.104569)"><g><path d="M 4.609375 -9.609375 C 4.609375 -8.816406 4.785156 -8.421875 5.140625 -8.421875 C 5.753906 -8.421875 6.5625 -9.296875 7.5625 -11.046875 C 8.570312 -12.804688 9.644531 -15.003906 10.78125 -17.640625 C 11.925781 -20.273438 13.023438 -22.925781 14.078125 -25.59375 C 15.128906 -28.269531 16.003906 -30.617188 16.703125 -32.640625 C 17.410156 -34.660156 17.765625 -35.847656 17.765625 -36.203125 C 16.273438 -36.023438 15.113281 -35.5625 14.28125 -34.8125 C 13.445312 -34.070312 12.679688 -33.21875 11.984375 -32.25 C 9.703125 -29.4375 7.898438 -25.988281 6.578125 -21.90625 C 5.265625 -17.832031 4.609375 -13.734375 4.609375 -9.609375 Z M 19.609375 -39.75 C 19.609375 -40.71875 19.757812 -41.550781 20.0625 -42.25 C 20.375 -42.945312 20.660156 -43.738281 20.921875 -44.625 L 23.6875 -59.5 C 23.957031 -60.457031 24.285156 -61.898438 24.671875 -63.828125 C 25.066406 -65.765625 25.613281 -67.609375 26.3125 -69.359375 C 27.019531 -71.117188 27.898438 -72.085938 28.953125 -72.265625 C 29.128906 -72.265625 29.257812 -72.285156 29.34375 -72.328125 C 29.4375 -72.367188 29.523438 -72.390625 29.609375 -72.390625 C 30.835938 -72.390625 31.539062 -71.707031 31.71875 -70.34375 C 31.894531 -68.988281 31.785156 -67.34375 31.390625 -65.40625 C 30.992188 -63.476562 30.507812 -61.632812 29.9375 -59.875 C 29.375 -58.125 29.003906 -56.859375 28.828125 -56.078125 C 26.722656 -48.960938 25.363281 -41.675781 24.75 -34.21875 C 24.132812 -26.757812 23.890625 -19.253906 24.015625 -11.703125 C 24.148438 -4.160156 24.257812 3.289062 24.34375 10.65625 C 24.4375 13.46875 24.679688 15.726562 25.078125 17.4375 C 25.472656 19.144531 25.625 20.347656 25.53125 21.046875 C 25.445312 21.753906 24.613281 22.109375 23.03125 22.109375 C 22.070312 22.109375 21.304688 21.03125 20.734375 18.875 C 20.160156 16.726562 19.738281 13.921875 19.46875 10.453125 C 19.207031 6.992188 19.078125 3.289062 19.078125 -0.65625 C 19.078125 -4.601562 19.117188 -8.460938 19.203125 -12.234375 C 19.296875 -16.015625 19.382812 -19.265625 19.46875 -21.984375 C 19.5625 -24.703125 19.609375 -26.5 19.609375 -27.375 C 19.253906 -27.019531 19.035156 -26.800781 18.953125 -26.71875 C 18.867188 -26.632812 18.738281 -26.285156 18.5625 -25.671875 L 13.953125 -14.484375 C 13.335938 -13.160156 12.632812 -11.664062 11.84375 -10 C 11.050781 -8.332031 10.0625 -6.882812 8.875 -5.65625 C 7.695312 -4.425781 6.273438 -3.8125 4.609375 -3.8125 C 2.765625 -3.8125 1.515625 -4.6875 0.859375 -6.4375 C 0.203125 -8.195312 0.00390625 -10.457031 0.265625 -13.21875 C 0.523438 -15.988281 1.160156 -18.910156 2.171875 -21.984375 C 3.179688 -25.054688 4.453125 -27.972656 5.984375 -30.734375 C 7.523438 -33.492188 9.238281 -35.75 11.125 -37.5 C 13.007812 -39.257812 14.960938 -40.140625 16.984375 -40.140625 C 17.679688 -40.140625 18.050781 -40.070312 18.09375 -39.9375 C 18.144531 -39.8125 18.648438 -39.75 19.609375 -39.75 Z M 19.609375 -39.75 "/></g></g></g><g fill="#122620" fill-opacity="1"><g transform="translate(172.10427, 148.104569)"><g><path d="M -0.796875 -10.921875 L 0 -25.796875 C 0.0820312 -26.765625 0.164062 -27.925781 0.25 -29.28125 C 0.34375 -30.644531 0.4375 -31.8125 0.53125 -32.78125 C 0.707031 -37.164062 1.253906 -41.503906 2.171875 -45.796875 C 3.085938 -50.097656 4.078125 -54.359375 5.140625 -58.578125 C 5.753906 -60.328125 6.234375 -61.488281 6.578125 -62.0625 C 6.929688 -62.632812 7.414062 -62.921875 8.03125 -62.921875 C 8.289062 -62.921875 8.597656 -62.894531 8.953125 -62.84375 C 9.304688 -62.800781 9.703125 -62.738281 10.140625 -62.65625 C 10.578125 -60.632812 10.488281 -58.238281 9.875 -55.46875 C 9.257812 -52.707031 8.773438 -50.1875 8.421875 -47.90625 C 7.453125 -41.851562 6.660156 -35.1875 6.046875 -27.90625 C 5.441406 -20.625 5.140625 -13.691406 5.140625 -7.109375 L 5.53125 7.640625 L 6.578125 5.140625 C 7.804688 1.628906 8.835938 -1.332031 9.671875 -3.75 C 10.503906 -6.164062 11.46875 -8.554688 12.5625 -10.921875 C 13.664062 -13.296875 15.140625 -16.191406 16.984375 -19.609375 C 17.941406 -21.367188 18.878906 -22.863281 19.796875 -24.09375 C 20.722656 -25.320312 22.15625 -25.9375 24.09375 -25.9375 C 25.050781 -25.9375 25.726562 -25.234375 26.125 -23.828125 C 26.519531 -22.421875 26.757812 -20.882812 26.84375 -19.21875 C 26.9375 -17.550781 26.984375 -16.320312 26.984375 -15.53125 C 26.984375 -13.070312 27.046875 -10.988281 27.171875 -9.28125 C 27.304688 -7.570312 27.8125 -5.882812 28.6875 -4.21875 C 30.707031 -4.65625 32.421875 -5.945312 33.828125 -8.09375 C 35.234375 -10.238281 36.503906 -12.101562 37.640625 -13.6875 C 38.253906 -14.65625 38.820312 -15.617188 39.34375 -16.578125 C 39.875 -17.546875 40.40625 -18.554688 40.9375 -19.609375 C 41.726562 -21.015625 42.363281 -21.976562 42.84375 -22.5 C 43.320312 -23.03125 43.828125 -23.296875 44.359375 -23.296875 C 44.617188 -23.296875 45.101562 -23.207031 45.8125 -23.03125 C 46.25 -21.457031 46.160156 -20.1875 45.546875 -19.21875 C 44.929688 -18.25 44.269531 -17.109375 43.5625 -15.796875 C 42.945312 -14.648438 42.113281 -13.175781 41.0625 -11.375 C 40.007812 -9.582031 38.820312 -7.828125 37.5 -6.109375 C 36.1875 -4.398438 34.785156 -2.953125 33.296875 -1.765625 C 31.804688 -0.585938 30.269531 0 28.6875 0 C 25.789062 0 23.90625 -2.585938 23.03125 -7.765625 C 22.769531 -9.253906 22.59375 -11.25 22.5 -13.75 C 22.414062 -16.25 22.375 -18.421875 22.375 -20.265625 C 21.757812 -19.828125 21.015625 -18.816406 20.140625 -17.234375 C 19.265625 -15.660156 18.382812 -13.882812 17.5 -11.90625 C 16.625 -9.9375 15.8125 -8.03125 15.0625 -6.1875 C 14.320312 -4.34375 13.734375 -2.9375 13.296875 -1.96875 C 12.242188 0.75 11.382812 3.46875 10.71875 6.1875 C 10.0625 8.90625 9.34375 11.492188 8.5625 13.953125 C 8.113281 15.359375 7.601562 16.257812 7.03125 16.65625 C 6.46875 17.050781 5.570312 17.25 4.34375 17.25 C 3.375 17.25 2.582031 16.410156 1.96875 14.734375 C 1.351562 13.066406 0.847656 10.984375 0.453125 8.484375 C 0.0664062 5.984375 -0.210938 3.394531 -0.390625 0.71875 C -0.566406 -1.957031 -0.675781 -4.367188 -0.71875 -6.515625 C -0.769531 -8.660156 -0.796875 -10.128906 -0.796875 -10.921875 Z M -0.796875 -10.921875 "/></g></g></g><g fill="#122620" fill-opacity="1"><g transform="translate(212.248037, 148.104569)"><g><path d="M 3.8125 52.78125 C 6.363281 52.78125 8.644531 52.035156 10.65625 50.546875 C 12.675781 49.054688 14.453125 47.253906 15.984375 45.140625 C 17.523438 43.035156 18.820312 41.0625 19.875 39.21875 C 20.84375 37.375 21.914062 34.738281 23.09375 31.3125 C 24.28125 27.894531 25.398438 24.191406 26.453125 20.203125 C 27.503906 16.210938 28.40625 12.4375 29.15625 8.875 C 29.90625 5.320312 30.363281 2.539062 30.53125 0.53125 C 29.476562 1.144531 28.515625 1.800781 27.640625 2.5 L 14.734375 13.953125 C 14.390625 14.304688 14.039062 14.722656 13.6875 15.203125 C 13.332031 15.679688 12.894531 16.140625 12.375 16.578125 C 10.269531 18.691406 8.382812 20.800781 6.71875 22.90625 C 5.050781 25.007812 3.382812 27.332031 1.71875 29.875 C 0.925781 31.019531 0.09375 32.46875 -0.78125 34.21875 C -1.664062 35.976562 -2.390625 37.84375 -2.953125 39.8125 C -3.523438 41.789062 -3.742188 43.742188 -3.609375 45.671875 C -3.484375 47.597656 -2.765625 49.265625 -1.453125 50.671875 C -0.304688 52.078125 1.445312 52.78125 3.8125 52.78125 Z M 6.84375 -11.578125 C 8.15625 -12.285156 9.6875 -13.671875 11.4375 -15.734375 C 13.195312 -17.796875 15.039062 -20.25 16.96875 -23.09375 C 18.90625 -25.945312 20.796875 -28.882812 22.640625 -31.90625 C 24.484375 -34.9375 26.171875 -37.742188 27.703125 -40.328125 C 29.242188 -42.921875 30.453125 -45.007812 31.328125 -46.59375 C 32.378906 -48.351562 33.101562 -49.515625 33.5 -50.078125 C 33.894531 -50.648438 34.796875 -50.9375 36.203125 -50.9375 C 36.898438 -50.9375 37.421875 -50.429688 37.765625 -49.421875 C 38.117188 -48.410156 38.382812 -47.179688 38.5625 -45.734375 C 38.738281 -44.285156 38.828125 -42.90625 38.828125 -41.59375 C 38.828125 -40.28125 38.828125 -39.269531 38.828125 -38.5625 L 38.828125 -28.4375 C 38.828125 -26.238281 38.71875 -23.910156 38.5 -21.453125 C 38.28125 -18.992188 38.082031 -16.710938 37.90625 -14.609375 C 37.726562 -12.503906 37.640625 -10.835938 37.640625 -9.609375 L 56.46875 -20.53125 C 56.90625 -20.789062 57.828125 -21.40625 59.234375 -22.375 C 60.640625 -23.34375 61.820312 -23.828125 62.78125 -23.828125 C 63.570312 -23.828125 63.96875 -23.34375 63.96875 -22.375 C 63.96875 -21.757812 63.242188 -20.925781 61.796875 -19.875 C 60.347656 -18.820312 58.8125 -17.851562 57.1875 -16.96875 C 55.5625 -16.09375 54.488281 -15.484375 53.96875 -15.140625 C 51.25 -13.648438 48.550781 -12.046875 45.875 -10.328125 C 43.195312 -8.617188 40.585938 -6.890625 38.046875 -5.140625 C 37.429688 -4.691406 37.097656 -4.3125 37.046875 -4 C 37.003906 -3.695312 36.894531 -3.066406 36.71875 -2.109375 C 36.101562 2.191406 35.222656 7.0625 34.078125 12.5 C 32.941406 17.945312 31.539062 23.257812 29.875 28.4375 C 28.207031 33.613281 26.28125 37.957031 24.09375 41.46875 C 22.863281 43.832031 21.21875 46.175781 19.15625 48.5 C 17.09375 50.820312 14.785156 52.75 12.234375 54.28125 C 9.691406 55.820312 6.972656 56.59375 4.078125 56.59375 C 0.828125 56.59375 -1.890625 55.492188 -4.078125 53.296875 C -6.273438 51.109375 -7.375 48.039062 -7.375 44.09375 C -7.375 41.195312 -6.625 38.082031 -5.125 34.75 C -3.632812 31.414062 -1.640625 28.015625 0.859375 24.546875 C 3.359375 21.078125 6.054688 17.765625 8.953125 14.609375 C 11.847656 11.453125 14.742188 8.578125 17.640625 5.984375 C 20.535156 3.398438 23.125 1.273438 25.40625 -0.390625 C 25.84375 -0.828125 26.234375 -1.15625 26.578125 -1.375 C 26.929688 -1.601562 27.375 -1.890625 27.90625 -2.234375 C 29.132812 -3.285156 30.03125 -4.007812 30.59375 -4.40625 C 31.164062 -4.800781 31.5 -5.570312 31.59375 -6.71875 C 32.113281 -11.1875 32.59375 -15.304688 33.03125 -19.078125 C 33.476562 -22.859375 33.8125 -26.742188 34.03125 -30.734375 C 34.25 -34.722656 34.359375 -39.21875 34.359375 -44.21875 C 34.085938 -44.050781 33.359375 -43.019531 32.171875 -41.125 C 30.992188 -39.238281 29.660156 -37.046875 28.171875 -34.546875 C 26.679688 -32.046875 25.273438 -29.71875 23.953125 -27.5625 C 22.640625 -25.414062 21.71875 -23.953125 21.1875 -23.171875 C 19.875 -21.054688 18.273438 -18.570312 16.390625 -15.71875 C 14.503906 -12.875 12.679688 -10.617188 10.921875 -8.953125 C 9.253906 -7.460938 7.71875 -6.71875 6.3125 -6.71875 C 4.914062 -6.71875 3.734375 -7.394531 2.765625 -8.75 C 1.796875 -10.113281 1.3125 -11.9375 1.3125 -14.21875 C 1.3125 -15.625 1.488281 -17.378906 1.84375 -19.484375 C 2.195312 -21.585938 2.722656 -23.671875 3.421875 -25.734375 C 4.117188 -27.796875 4.925781 -29.523438 5.84375 -30.921875 C 6.769531 -32.328125 7.757812 -33.03125 8.8125 -33.03125 C 10.3125 -33.03125 11.0625 -32.503906 11.0625 -31.453125 C 11.0625 -30.398438 10.707031 -28.929688 10 -27.046875 C 9.300781 -25.160156 8.597656 -22.898438 7.890625 -20.265625 C 7.191406 -17.640625 6.84375 -14.742188 6.84375 -11.578125 Z M 6.84375 -11.578125 "/></g></g></g><g fill="#122620" fill-opacity="1"><g transform="translate(271.476529, 148.104569)"><g><path d="M 0 -13.296875 C 0 -15.140625 0.4375 -17.421875 1.3125 -20.140625 C 2.1875 -22.859375 3.414062 -25.554688 5 -28.234375 C 6.582031 -30.910156 8.40625 -33.125 10.46875 -34.875 C 12.53125 -36.632812 14.703125 -37.515625 16.984375 -37.515625 C 19.085938 -37.515625 20.796875 -36.898438 22.109375 -35.671875 C 23.429688 -34.441406 24.222656 -33.191406 24.484375 -31.921875 C 24.742188 -30.648438 24.304688 -30.015625 23.171875 -30.015625 C 22.285156 -30.015625 21.378906 -30.515625 20.453125 -31.515625 C 19.535156 -32.523438 18.46875 -33.03125 17.25 -33.03125 C 16.28125 -33.03125 15.113281 -32.457031 13.75 -31.3125 C 12.394531 -30.175781 10.75 -27.941406 8.8125 -24.609375 C 7.9375 -23.210938 7.125 -21.394531 6.375 -19.15625 C 5.632812 -16.914062 5.265625 -14.695312 5.265625 -12.5 C 5.441406 -12.675781 5.503906 -12.742188 5.453125 -12.703125 C 5.410156 -12.660156 5.566406 -12.8125 5.921875 -13.15625 L 6.96875 -14.734375 C 7.675781 -15.796875 8.488281 -17.160156 9.40625 -18.828125 C 10.332031 -20.492188 11.273438 -22.179688 12.234375 -23.890625 C 13.203125 -25.597656 14.082031 -27.046875 14.875 -28.234375 C 15.664062 -29.421875 16.28125 -30.015625 16.71875 -30.015625 C 18.289062 -30.015625 19.207031 -29.441406 19.46875 -28.296875 C 19.738281 -27.160156 19.851562 -25.757812 19.8125 -24.09375 C 19.769531 -22.425781 19.921875 -20.753906 20.265625 -19.078125 C 20.796875 -16.710938 21.609375 -14.976562 22.703125 -13.875 C 23.796875 -12.78125 25.046875 -12.234375 26.453125 -12.234375 C 28.910156 -12.234375 31.632812 -13.726562 34.625 -16.71875 C 35.84375 -17.851562 36.71875 -18.796875 37.25 -19.546875 C 37.78125 -20.296875 38.484375 -21.148438 39.359375 -22.109375 C 39.972656 -22.984375 40.757812 -23.421875 41.71875 -23.421875 C 42.6875 -23.421875 43.101562 -22.609375 42.96875 -20.984375 C 42.84375 -19.367188 41.113281 -16.9375 37.78125 -13.6875 L 33.828125 -10.53125 C 31.285156 -8.769531 28.828125 -7.890625 26.453125 -7.890625 C 24.265625 -7.890625 22.359375 -8.546875 20.734375 -9.859375 C 19.109375 -11.179688 17.851562 -12.804688 16.96875 -14.734375 C 16.09375 -16.671875 15.65625 -18.5625 15.65625 -20.40625 C 15.039062 -19.96875 14.335938 -19 13.546875 -17.5 C 12.765625 -16.007812 11.910156 -14.410156 10.984375 -12.703125 C 10.066406 -10.992188 9.125 -9.5 8.15625 -8.21875 C 7.195312 -6.945312 6.234375 -6.3125 5.265625 -6.3125 C 2.804688 -6.3125 1.3125 -6.878906 0.78125 -8.015625 C 0.257812 -9.160156 0 -10.921875 0 -13.296875 Z M 0 -13.296875 "/></g></g></g><path stroke-linecap="butt" transform="matrix(1.617679, -0.0477122, 0.0477122, 1.617679, 50.305439, 150.467935)" fill="none" stroke-linejoin="miter" d="M 20.352843 72.306049 C 20.353269 67.133721 20.786047 62.039342 21.651105 57.025326 C 22.528225 52.011665 23.632682 47.231694 24.962133 42.682927 C 26.30606 38.134588 27.7075 34.010522 29.171208 30.313284 C 30.209494 27.694955 31.45982 24.928337 32.922115 22.015843 C 34.398886 19.103776 36.074403 16.33038 37.948596 13.698069 C 39.837763 11.049297 41.872857 8.856382 44.05402 7.1145 C 45.58167 5.915973 47.258106 4.912599 49.080987 4.101891 C 50.901882 3.276638 52.684 2.865573 54.427481 2.863871 C 55.729025 2.863624 56.981015 3.151681 58.176357 3.723006 C 59.386173 4.294758 60.450779 5.205117 61.367689 6.456426 C 62.618703 8.251243 63.309853 9.952277 63.44348 11.56201 C 63.589169 13.172099 63.663029 15.007054 63.662576 17.069215 C 63.662356 18.877838 63.389844 20.912657 62.845042 23.173674 C 62.300667 25.420216 61.575195 27.748346 60.671111 30.155723 C 59.779518 32.548981 58.854438 34.849491 57.898287 37.057325 C 56.939722 39.265088 56.054838 41.185257 55.243491 42.822658 C 54.977977 43.474047 54.731279 43.978692 54.505739 44.339078 C 54.292761 44.682932 53.775798 44.935719 52.950026 45.097297 C 52.24501 44.603217 51.905149 44.173031 51.933067 43.799572 C 51.958928 43.413979 52.166532 42.842983 52.551125 42.084029 C 52.764338 41.486636 52.976056 40.939909 53.18855 40.448743 C 53.415591 39.955591 53.636105 39.4381 53.847823 38.891372 C 55.482478 35.129149 56.991969 31.271475 58.376151 27.323175 C 59.772468 23.372818 60.470346 19.19661 60.469787 14.79455 C 60.469661 12.015198 59.89924 9.986908 58.756113 8.709609 C 57.610928 7.420176 56.195618 6.774751 54.505286 6.775605 C 51.619707 6.775013 48.759983 8.190212 45.928455 11.023686 C 43.587158 13.364526 41.420945 16.236941 39.424992 19.640787 C 37.443444 23.047473 35.662408 26.696716 34.07933 30.59327 C 32.496251 34.489824 31.133291 38.373553 29.988036 42.244384 C 28.845266 46.112875 27.948112 49.67711 27.296574 52.937089 C 26.538356 56.539228 25.885982 60.48255 25.341936 64.764714 C 24.795833 69.034744 24.602328 73.3031 24.763765 77.572265 C 24.934425 81.856191 25.701387 85.817228 27.057199 89.462401 C 27.762421 91.750628 28.918049 93.750298 30.528765 95.46638 C 32.137069 97.18239 34.243935 98.04139 36.851848 98.041037 C 39.206222 98.04045 41.494087 97.429391 43.713099 96.205376 C 45.949 94.981859 47.883465 93.744622 49.518907 92.493737 L 52.312653 90.040675 C 52.855961 89.549607 53.341431 89.136519 53.768991 88.803824 C 54.205775 88.48589 54.699052 88.053714 55.243997 87.507156 C 58.236337 84.4611 60.929816 81.150268 63.324506 77.572249 C 65.730833 74.00906 67.977299 70.298689 70.066317 66.441204 C 72.167754 62.572012 74.202485 58.753977 76.170367 54.991923 C 76.649423 54.059481 77.122209 53.421449 77.586385 53.075346 C 78.05333 52.71725 78.47882 52.536622 78.862712 52.538286 C 79.237025 52.537252 79.527523 52.676215 79.741443 52.955389 C 79.967783 53.222855 80.080729 53.486976 80.080068 53.754991 L 67.910624 75.997887 C 67.152537 77.139426 66.402543 78.252226 65.658441 79.328979 C 64.926047 80.418151 64.154979 81.508597 63.342826 82.600246 C 62.199041 84.128838 60.643169 85.956775 58.675137 88.08647 C 56.721653 90.21418 54.525631 92.2961 52.09197 94.329961 C 49.672357 96.378725 47.152295 98.067147 44.531712 99.39764 C 41.925676 100.726147 39.339209 101.391181 36.77231 101.392744 C 34.05817 101.392378 31.730674 100.727294 29.789821 99.39749 C 27.861103 98.065629 26.278064 96.311728 25.040847 94.130962 C 23.818177 91.94821 22.867158 89.560974 22.190203 86.969326 C 21.510479 84.389669 21.038241 81.816133 20.773489 79.248716 C 20.493834 76.695348 20.354446 74.380345 20.352843 72.306049 Z M 77.948153 66.680917 C 77.402401 66.681723 77.076795 66.341303 76.971192 65.66448 C 76.866086 64.970768 76.83911 64.24797 76.890477 63.488847 C 76.944256 62.729795 76.972465 62.264585 76.97028 62.093075 C 76.919269 61.120851 76.905016 60.130393 76.932419 59.119432 C 76.957409 58.108399 76.944082 57.086577 76.89258 56.049141 C 76.891902 55.662766 76.905869 54.943589 76.931998 53.893955 C 76.958554 52.829844 77.037767 51.699675 77.169638 50.503446 C 77.316411 49.293168 77.523345 48.253696 77.790295 47.389854 C 78.069736 46.511892 78.420739 46.073105 78.845717 46.073566 C 79.937149 46.074366 80.496425 46.433752 80.521131 47.151654 C 80.548676 47.855151 80.509288 48.781244 80.403109 49.925106 C 80.348296 50.309846 80.323709 50.734112 80.322039 51.200105 C 80.323208 51.651693 80.322107 52.098384 80.323632 52.537909 C 80.322026 53.08359 80.296947 53.442644 80.243571 53.61493 C 80.190551 53.775153 80.163274 54.126898 80.16408 54.67265 C 80.761385 54.233884 81.307533 53.728411 81.800111 53.156161 C 82.290278 52.58384 83.163177 52.298086 84.411572 52.298686 C 84.797948 52.298008 85.303041 52.283929 85.929192 52.258932 C 86.553002 52.231451 87.21747 52.217242 87.922526 52.21872 C 89.120256 52.217825 90.236306 52.284548 91.275571 52.416619 C 92.312353 52.551031 92.831183 52.889907 92.829577 53.435587 C 92.830455 53.978926 92.544528 54.339946 91.972011 54.511408 C 91.399849 54.670808 90.702024 54.751644 89.878607 54.751506 C 89.332855 54.752312 88.775468 54.738287 88.201547 54.711701 C 87.63004 54.685186 87.133039 54.670527 86.705577 54.672408 C 85.177104 54.670792 84.15329 54.751673 83.634277 54.910225 C 83.115193 55.07119 82.529298 55.696226 81.879004 56.785405 C 81.493563 57.49121 81.12089 58.255345 80.760914 59.080223 C 80.415841 59.891051 80.16237 60.789097 80.002913 61.774431 C 79.829997 62.47926 79.757557 63.21603 79.78311 63.987081 C 79.823495 64.746495 79.744322 65.384062 79.545521 65.902194 C 79.358783 66.420682 78.827132 66.68028 77.948153 66.680917 Z M 94.218574 65.125187 C 95.029379 64.89797 95.760679 64.173389 96.412474 62.951444 C 97.078816 61.727514 97.542582 60.330994 97.808598 58.762024 C 98.089516 57.179006 98.154209 55.72242 98.009916 54.39248 C 97.8757 53.04835 97.456048 52.13045 96.753374 51.638854 C 96.578764 52.237385 96.273353 53.095264 95.83473 54.212418 C 95.40817 55.329928 94.990328 56.561188 94.578864 57.903713 C 94.17989 59.232117 93.907155 60.537684 93.760873 61.813173 C 93.626654 63.089019 93.779977 64.194656 94.218574 65.125187 Z M 90.130172 62.35082 C 90.129593 61.63363 90.276495 60.582728 90.568395 59.200456 C 90.875198 57.804135 91.300867 56.307487 91.845402 54.710511 C 92.390293 53.101472 93.002659 51.578939 93.680088 50.14284 C 94.357873 48.694678 95.090844 47.504105 95.874103 46.57339 C 96.67191 45.64069 97.484863 45.176893 98.30828 45.177032 C 98.854032 45.176225 99.23315 45.421635 99.445634 45.913262 C 99.658046 46.407301 99.71109 46.819369 99.604694 47.151878 C 99.497878 47.416762 99.291788 47.690791 98.986567 47.969141 C 98.693766 48.235784 98.441053 48.535 98.22843 48.866791 C 98.335762 49.239409 98.601117 49.657739 99.026837 50.124264 C 99.464691 50.588731 99.90523 51.20782 100.343697 51.978976 C 100.782592 52.735656 101.068475 53.767932 101.201488 55.070977 C 101.334501 56.374022 101.180094 58.088752 100.743019 60.217722 C 100.14275 63.049392 99.193772 65.177752 97.888917 66.600175 C 96.586831 68.010606 95.310349 68.716692 94.059541 68.716022 C 93.021258 68.714375 92.104857 68.182669 91.305511 67.120761 C 90.520713 66.056868 90.130565 64.466131 90.130172 62.35082 Z M 104.509643 55.80845 C 104.509653 54.825658 104.707654 53.679674 105.108258 52.377879 C 105.520996 51.074027 106.092328 49.796586 106.822181 48.547967 C 107.567008 47.282887 108.445505 46.234245 109.455473 45.394732 C 110.46821 44.543227 111.572166 44.119405 112.767483 44.118439 C 114.510894 44.11915 115.381835 45.209731 115.380307 47.390183 C 115.382178 48.800437 115.028173 49.504755 114.323045 49.50569 C 113.499628 49.505551 113.00609 48.800383 112.847257 47.390329 C 111.917701 48.04145 111.025077 49.159702 110.174281 50.742816 C 109.335619 52.323872 108.77873 54.012243 108.498788 55.807785 C 108.233321 57.603755 108.425918 59.179007 109.076507 60.535953 C 109.357165 61.25416 109.754632 61.859905 110.273804 62.350918 C 110.793332 62.829869 111.537254 63.069135 112.507913 63.071202 C 114.422833 63.069728 116.179343 62.544416 117.775031 61.495194 C 119.38328 60.42944 120.853033 59.147105 122.184433 57.643365 C 123.527825 56.142392 124.690477 54.710946 125.674658 53.353922 C 126.273271 52.543327 126.818843 52.139256 127.311445 52.139296 C 127.683346 52.138191 127.94808 52.331933 128.108205 52.715768 C 128.280749 53.087895 128.235793 53.547782 127.968585 54.092873 C 127.849634 54.359813 127.662134 54.658539 127.410838 54.991603 C 127.172032 55.310547 126.94593 55.608134 126.732389 55.889188 C 125.587266 57.299419 124.278647 58.767611 122.801635 60.296033 C 121.339028 61.827295 119.736083 63.122605 117.995068 64.186858 C 116.251641 65.25104 114.395928 65.783085 112.42793 65.782994 C 110.580635 65.784048 109.071076 65.304874 107.899184 64.347885 C 106.729775 63.388555 105.872754 62.153501 105.325921 60.635413 C 104.781785 59.107747 104.508084 57.498712 104.509643 55.80845 Z M 123.781951 60.216284 L 124.281346 50.980203 C 124.335183 50.382939 124.387752 49.664901 124.441467 48.826161 C 124.493125 47.975287 124.54832 47.250083 124.599744 46.652748 C 124.721239 43.925277 125.066254 41.233376 125.637345 38.57229 C 126.208791 35.899141 126.820469 33.253741 127.472451 30.633676 C 127.845079 29.543552 128.139125 28.825392 128.349762 28.479055 C 128.577643 28.121153 128.88243 27.939379 129.268735 27.941114 C 129.428111 27.940985 129.613669 27.953702 129.827824 27.979336 C 130.05397 28.007739 130.299133 28.046361 130.565582 28.1001 C 130.844634 29.363987 130.791079 30.852293 130.404845 32.567429 C 130.033088 34.282993 129.733438 35.846141 129.508308 37.256944 C 128.909524 41.020743 128.417928 45.161985 128.030967 49.685425 C 127.658552 54.206879 127.473702 58.509297 127.474076 62.590192 L 127.71352 71.746647 L 128.37031 70.191618 C 129.12763 68.011726 129.766135 66.176049 130.285755 64.687001 C 130.803388 63.183407 131.402695 61.694294 132.081334 60.217181 C 132.759973 58.740067 133.670109 56.946209 134.814296 54.83085 C 135.413925 53.740177 135.998993 52.815691 136.569501 52.057391 C 137.142778 51.287099 138.033142 50.900441 139.242864 50.902315 C 139.841764 50.900661 140.261029 51.340434 140.50073 52.219219 C 140.738445 53.083458 140.88426 54.03433 140.938175 55.071837 C 141.004224 56.107288 141.037157 56.873727 141.037188 57.363917 C 141.03834 58.880398 141.077545 60.171018 141.157216 61.235846 C 141.236959 62.298262 141.551295 63.34828 142.0954 64.385756 C 143.344811 64.106278 144.402036 63.301965 145.267074 61.972818 C 146.144175 60.644027 146.936536 59.486597 147.641674 58.502868 C 148.026396 57.90329 148.379683 57.305199 148.699193 56.706112 C 149.030766 56.107381 149.363123 55.482111 149.696261 54.830302 C 150.188156 53.953777 150.580116 53.354412 150.871999 53.037033 C 151.178857 52.703193 151.490455 52.536108 151.811548 52.538334 C 151.983058 52.536149 152.283284 52.590883 152.707544 52.697571 C 152.987612 53.68138 152.93532 54.471868 152.548185 55.071375 C 152.175597 55.668896 151.770856 56.374132 151.331619 57.184598 C 150.945823 57.902466 150.428521 58.821707 149.775032 59.937354 C 149.123884 61.055484 148.386593 62.146927 147.560818 63.209197 C 146.749874 64.259831 145.878201 65.158962 144.948354 65.901834 C 144.030855 66.635411 143.080745 67.000989 142.095539 67.000908 C 140.29898 67.001043 139.129483 65.389735 138.584493 62.171736 C 138.425619 61.254284 138.312398 60.01702 138.24476 58.462357 C 138.191668 56.905708 138.166305 55.555129 138.166186 54.412961 C 137.79334 54.691731 137.335243 55.322951 136.789481 56.30655 C 136.244076 57.278087 135.699795 58.375222 135.154226 59.597884 C 134.608587 60.82296 134.102617 62.012984 133.636245 63.17037 C 133.172712 64.313352 132.806559 65.183927 132.540198 65.782167 C 131.889074 67.472588 131.356524 69.154432 130.94489 70.830184 C 130.532901 72.517999 130.079761 74.127329 129.587884 75.658246 C 129.320506 76.536563 129.009444 77.094849 128.649871 77.332961 C 128.304347 77.585975 127.745245 77.711953 126.974905 77.71338 C 126.376076 77.712621 125.884297 77.193439 125.497155 76.155762 C 125.126901 75.118584 124.812585 73.822265 124.561445 72.267019 C 124.320026 70.709645 124.147726 69.101186 124.042204 67.439158 C 123.936326 65.789193 123.869179 64.299742 123.843175 62.970876 C 123.803123 61.627108 123.78191 60.708887 123.781951 60.216284 Z M 152.951117 52.21698 C 153.988594 51.672875 155.131179 50.92179 156.381285 49.963794 C 157.645867 49.006225 158.331147 47.877028 158.437269 46.571377 C 157.731423 46.678539 156.981347 47.05726 156.182144 47.709812 C 155.397489 48.360377 154.718911 49.098586 154.148823 49.924511 C 153.576749 50.735889 153.177538 51.499241 152.951117 52.21698 Z M 149.280988 54.173323 C 149.279964 52.816217 149.726564 51.346748 150.615962 49.764773 C 151.52232 48.180884 152.639054 46.832599 153.968719 45.715163 C 155.31286 44.598154 156.635738 44.03832 157.937282 44.038072 C 159.733841 44.037936 160.672227 44.724833 160.75017 46.093866 C 160.845358 47.451334 160.265992 48.919302 159.016757 50.502737 C 158.351238 51.207526 157.366036 52.026037 156.063635 52.955928 C 154.759177 53.873685 153.483562 54.386619 152.232036 54.492175 C 152.232745 55.368741 152.260497 56.147101 152.31288 56.827184 C 152.365334 57.504854 152.745764 58.197027 153.449414 58.901147 C 154.155049 59.619815 155.052448 59.9771 156.14388 59.9779 C 157.566126 59.978798 159.035385 59.531943 160.551514 58.642162 C 162.080133 57.73826 163.25174 56.985615 164.06144 56.386498 C 164.395613 56.109002 164.653215 55.889615 164.841484 55.728552 C 165.03976 55.555711 165.272453 55.362152 165.539492 55.150288 C 166.683009 54.285737 167.399684 53.647655 167.694343 53.236184 C 167.998724 52.822584 168.257891 52.55012 168.471917 52.416379 C 168.697934 52.285406 169.216656 52.218604 170.02801 52.218387 C 170.148024 52.815949 170.193973 53.222978 170.165997 53.434649 C 170.140363 53.648803 169.935192 53.973569 169.547999 54.411288 C 168.565125 55.396483 167.319973 56.513997 165.817368 57.763972 C 164.329239 59.014373 162.725104 60.104396 161.009788 61.034182 C 159.294401 61.966381 157.592747 62.432943 155.902486 62.431385 C 155.02592 62.432093 154.19478 62.284428 153.408925 61.993216 C 152.625909 61.687598 151.873139 61.175207 151.15544 60.456183 C 150.184365 59.4858 149.627201 58.481744 149.479122 57.443874 C 149.347932 56.406503 149.281036 55.317904 149.280988 54.173323 Z M 143.969822 30.552793 C 143.968886 29.847665 144.628306 29.104061 145.943326 28.319426 C 147.246638 27.522371 148.897156 26.742801 150.892323 25.98547 C 152.873441 25.213236 154.966601 24.490187 157.174357 23.811568 C 159.37005 23.132593 161.398766 22.547696 163.260578 22.054467 C 165.107843 21.563222 166.497834 21.184057 167.428068 20.919312 C 168.572818 20.586037 169.370564 20.392241 169.823646 20.340407 C 170.288863 20.286515 170.58854 20.11425 170.720336 19.821126 C 170.866964 19.516366 171.02043 18.897893 171.178322 17.965637 C 171.618456 15.732924 172.12261 14.195126 172.695466 13.357209 C 173.266266 12.507158 173.826954 12.0818 174.370293 12.080923 C 174.809746 12.08181 175.174744 12.31473 175.467699 12.779754 C 175.775129 13.245204 175.927718 13.802677 175.927806 14.454655 C 175.927765 14.947258 175.895107 15.153961 175.827489 15.072281 C 175.774275 14.99344 175.773835 15.172117 175.828438 15.613207 C 175.827719 15.719434 175.840694 15.852626 175.867433 16.010372 C 175.906164 16.170886 175.926227 16.391218 175.927694 16.668954 C 175.926217 17.374011 175.787816 17.727308 175.507738 17.726291 C 175.242136 17.725702 174.970499 17.765985 174.690414 17.847068 C 174.424876 17.926167 174.292426 18.405205 174.290721 19.2817 C 174.9427 19.281612 175.660181 19.189281 176.44565 19.002367 C 177.243538 18.803745 177.942715 18.677069 178.540698 18.624679 C 180.934561 18.185777 183.327073 17.792715 185.722987 17.448048 C 188.116915 17.088834 190.570789 16.907663 193.082055 16.909289 C 194.386012 16.909113 195.336637 17.181038 195.936273 17.727548 C 196.533568 18.271575 196.754137 18.816564 196.593155 19.362374 C 196.434586 19.908254 195.834954 20.180335 194.799012 20.181172 C 194.69126 19.740929 194.620034 19.535991 194.578236 19.561321 C 194.553256 19.589561 194.300927 19.548312 193.821105 19.442401 C 193.595671 19.389872 193.157 19.362445 192.505021 19.362533 C 191.36044 19.362581 189.845084 19.489332 187.956611 19.740303 C 186.080486 19.98198 184.133043 20.267432 182.111798 20.599003 C 180.102972 20.918866 178.306883 21.230515 176.725875 21.536434 C 175.154872 21.830575 174.125159 22.029603 173.63425 22.13586 L 171.997886 38.891667 C 171.943002 39.278819 171.930834 39.691378 171.956557 40.129202 C 171.985047 40.555034 171.996436 40.987606 171.998032 41.424718 C 171.996426 41.970398 171.957014 42.324201 171.877455 42.483641 C 171.797896 42.643081 171.757559 43.028247 171.758857 43.639211 C 171.757339 44.836869 171.784333 46.214059 171.837495 47.768295 C 171.890943 49.31288 171.864943 50.521891 171.756941 51.40008 C 171.703822 51.891117 171.658257 52.862907 171.617904 54.312966 C 171.592453 55.748977 171.564925 57.419155 171.537874 59.318745 C 171.513166 61.22082 171.497538 63.14248 171.49823 65.083939 C 171.499277 67.013335 171.49821 68.768809 171.499854 70.350502 C 171.499013 71.934537 171.525671 73.077488 171.577343 73.781697 C 171.578997 74.380597 171.64385 75.292861 171.776798 76.516218 C 171.924223 77.740003 171.956916 78.842081 171.877147 79.827351 C 171.797449 80.810208 171.398969 81.303133 170.681779 81.303712 C 169.655559 81.302422 169.032508 80.731073 168.80546 79.587041 C 168.592888 78.443436 168.486607 77.380237 168.486688 76.395032 C 168.326977 74.441638 168.227821 72.154384 168.18681 69.533198 C 168.160274 66.912439 168.160063 64.299701 168.186249 61.69257 C 168.227267 59.073803 168.246472 56.785211 168.246137 54.831688 L 168.485305 50.980012 C 168.485864 50.22422 168.486599 49.0531 168.487439 47.469065 C 168.485795 45.887372 168.513465 44.212369 168.565625 42.443914 C 168.620196 40.67553 168.672698 39.059213 168.725542 37.595034 C 168.778741 36.118791 168.857592 35.082785 168.964577 34.484674 C 169.084544 33.937655 169.156835 33.287812 169.184075 32.527977 C 169.211671 31.756079 169.250398 31.098001 169.305082 30.553886 L 170.043619 22.952383 C 169.817466 23.00608 169.338407 23.119931 168.606514 23.291523 C 167.874977 23.451051 167.289051 23.585897 166.851291 23.691307 C 164.178254 24.34413 161.629464 25.041667 159.209675 25.786475 C 156.790312 26.516806 154.297141 27.375356 151.730233 28.359711 C 151.236193 28.572124 150.79225 28.805332 150.393648 29.05678 C 149.980927 29.295739 149.527475 29.523837 149.035848 29.736321 C 148.385337 30.014146 147.96673 30.207051 147.780026 30.315037 C 147.58133 30.420254 147.480626 30.559752 147.480328 30.733604 C 147.480457 30.892979 147.346953 31.244006 147.082086 31.791581 C 146.856004 31.842866 146.635031 31.884643 146.424208 31.909817 C 146.210901 31.937331 145.964244 31.949374 145.684094 31.95077 C 145.247053 31.949954 144.853802 31.856254 144.509166 31.669815 C 144.147997 31.470814 143.968215 31.098473 143.969822 30.552793 Z M 143.969822 30.552793 " stroke="#fffef9" stroke-width="1.123552" stroke-opacity="1" stroke-miterlimit="4"/><g fill="#122620" fill-opacity="1"><g transform="translate(87.751455, 257.842281)"><g><path d="M -1.078125 8.640625 C -1.316406 0.265625 -0.851562 -7.992188 0.3125 -16.140625 C 1.488281 -24.285156 3.046875 -32.070312 4.984375 -39.5 C 6.929688 -46.925781 9.003906 -53.664062 11.203125 -59.71875 C 12.753906 -64 14.644531 -68.535156 16.875 -73.328125 C 19.113281 -78.117188 21.691406 -82.691406 24.609375 -87.046875 C 27.523438 -91.410156 30.707031 -95.050781 34.15625 -97.96875 C 36.570312 -99.988281 39.234375 -101.703125 42.140625 -103.109375 C 45.054688 -104.515625 47.914062 -105.257812 50.71875 -105.34375 C 52.84375 -105.40625 54.882812 -105.003906 56.84375 -104.140625 C 58.8125 -103.273438 60.578125 -101.847656 62.140625 -99.859375 C 64.242188 -97.003906 65.445312 -94.28125 65.75 -91.6875 C 66.050781 -89.101562 66.253906 -86.140625 66.359375 -82.796875 C 66.441406 -79.890625 66.09375 -76.59375 65.3125 -72.90625 C 64.539062 -69.21875 63.484375 -65.410156 62.140625 -61.484375 C 60.796875 -57.566406 59.40625 -53.800781 57.96875 -50.1875 C 56.539062 -46.582031 55.203125 -43.4375 53.953125 -40.75 C 53.546875 -39.675781 53.171875 -38.847656 52.828125 -38.265625 C 52.492188 -37.679688 51.675781 -37.238281 50.375 -36.9375 C 49.207031 -37.695312 48.632812 -38.382812 48.65625 -39 C 48.6875 -39.625 48.992188 -40.5625 49.578125 -41.8125 C 49.898438 -42.789062 50.222656 -43.679688 50.546875 -44.484375 C 50.878906 -45.296875 51.207031 -46.144531 51.53125 -47.03125 C 53.988281 -53.175781 56.25 -59.476562 58.3125 -65.9375 C 60.375 -72.394531 61.300781 -79.195312 61.09375 -86.34375 C 60.957031 -90.820312 59.929688 -94.070312 58.015625 -96.09375 C 56.097656 -98.113281 53.773438 -99.082031 51.046875 -99 C 46.378906 -98.863281 41.820312 -96.4375 37.375 -91.71875 C 33.695312 -87.820312 30.332031 -83.070312 27.28125 -77.46875 C 24.226562 -71.863281 21.519531 -65.875 19.15625 -59.5 C 16.789062 -53.125 14.769531 -46.78125 13.09375 -40.46875 C 11.425781 -34.15625 10.144531 -28.34375 9.25 -23.03125 C 8.1875 -17.175781 7.316406 -10.773438 6.640625 -3.828125 C 5.960938 3.117188 5.859375 10.039062 6.328125 16.9375 C 6.796875 23.84375 8.21875 30.21875 10.59375 36.0625 C 11.84375 39.738281 13.804688 42.925781 16.484375 45.625 C 19.171875 48.320312 22.628906 49.609375 26.859375 49.484375 C 30.648438 49.367188 34.320312 48.265625 37.875 46.171875 C 41.4375 44.085938 44.507812 41.988281 47.09375 39.875 L 51.453125 35.796875 C 52.316406 34.960938 53.085938 34.269531 53.765625 33.71875 C 54.453125 33.175781 55.226562 32.453125 56.09375 31.546875 C 60.800781 26.460938 65.003906 20.976562 68.703125 15.09375 C 72.410156 9.21875 75.867188 3.101562 79.078125 -3.25 C 82.296875 -9.613281 85.394531 -15.878906 88.375 -22.046875 C 89.125 -23.566406 89.863281 -24.625 90.59375 -25.21875 C 91.332031 -25.8125 92.007812 -26.117188 92.625 -26.140625 C 93.238281 -26.160156 93.726562 -25.953125 94.09375 -25.515625 C 94.457031 -25.085938 94.648438 -24.65625 94.671875 -24.21875 L 76.03125 12.3125 C 74.851562 14.207031 73.695312 16.050781 72.5625 17.84375 C 71.425781 19.632812 70.222656 21.425781 68.953125 23.21875 C 67.171875 25.75 64.742188 28.78125 61.671875 32.3125 C 58.597656 35.84375 55.148438 39.316406 51.328125 42.734375 C 47.515625 46.160156 43.519531 49.015625 39.34375 51.296875 C 35.175781 53.578125 31.019531 54.773438 26.875 54.890625 C 22.46875 55.023438 18.671875 54.0625 15.484375 52 C 12.296875 49.9375 9.660156 47.171875 7.578125 43.703125 C 5.492188 40.234375 3.835938 36.421875 2.609375 32.265625 C 1.378906 28.109375 0.484375 23.96875 -0.078125 19.84375 C -0.640625 15.726562 -0.972656 11.992188 -1.078125 8.640625 Z M -1.078125 8.640625 "/></g></g></g><g fill="#122620" fill-opacity="1"><g transform="translate(177.758923, 255.187582)"><g><path d="M 1.828125 -0.578125 C 0.953125 -0.554688 0.410156 -1.09375 0.203125 -2.1875 C -0.00390625 -3.28125 -0.0820312 -4.445312 -0.03125 -5.6875 C 0.0195312 -6.925781 0.0390625 -7.679688 0.03125 -7.953125 C -0.101562 -9.523438 -0.171875 -11.128906 -0.171875 -12.765625 C -0.179688 -14.398438 -0.253906 -16.046875 -0.390625 -17.703125 C -0.410156 -18.316406 -0.421875 -19.484375 -0.421875 -21.203125 C -0.429688 -22.929688 -0.351562 -24.769531 -0.1875 -26.71875 C -0.03125 -28.664062 0.242188 -30.347656 0.640625 -31.765625 C 1.046875 -33.191406 1.601562 -33.914062 2.3125 -33.9375 C 4.070312 -33.988281 4.988281 -33.4375 5.0625 -32.28125 C 5.144531 -31.132812 5.125 -29.640625 5 -27.796875 C 4.9375 -27.179688 4.914062 -26.5 4.9375 -25.75 C 4.957031 -25 4.976562 -24.269531 5 -23.5625 C 5.019531 -22.675781 4.988281 -22.097656 4.90625 -21.828125 C 4.832031 -21.566406 4.804688 -20.992188 4.828125 -20.109375 C 5.773438 -20.847656 6.628906 -21.6875 7.390625 -22.625 C 8.160156 -23.570312 9.5625 -24.078125 11.59375 -24.140625 C 12.207031 -24.160156 13.019531 -24.207031 14.03125 -24.28125 C 15.050781 -24.363281 16.128906 -24.421875 17.265625 -24.453125 C 19.203125 -24.503906 21.007812 -24.441406 22.6875 -24.265625 C 24.375 -24.097656 25.234375 -23.578125 25.265625 -22.703125 C 25.285156 -21.816406 24.835938 -21.226562 23.921875 -20.9375 C 23.003906 -20.644531 21.882812 -20.476562 20.5625 -20.4375 C 19.675781 -20.40625 18.769531 -20.398438 17.84375 -20.421875 C 16.925781 -20.441406 16.113281 -20.441406 15.40625 -20.421875 C 12.9375 -20.347656 11.285156 -20.164062 10.453125 -19.875 C 9.628906 -19.582031 8.71875 -18.546875 7.71875 -16.765625 C 7.125 -15.609375 6.5625 -14.359375 6.03125 -13.015625 C 5.5 -11.671875 5.125 -10.207031 4.90625 -8.625 C 4.675781 -7.46875 4.597656 -6.269531 4.671875 -5.03125 C 4.753906 -3.800781 4.65625 -2.757812 4.375 -1.90625 C 4.09375 -1.0625 3.242188 -0.617188 1.828125 -0.578125 Z M 1.828125 -0.578125 "/></g></g></g><g fill="#122620" fill-opacity="1"><g transform="translate(199.302571, 254.552169)"><g><path d="M 6.515625 -3.234375 C 7.828125 -3.628906 8.984375 -4.832031 9.984375 -6.84375 C 10.984375 -8.851562 11.664062 -11.144531 12.03125 -13.71875 C 12.40625 -16.289062 12.445312 -18.648438 12.15625 -20.796875 C 11.875 -22.941406 11.148438 -24.394531 9.984375 -25.15625 C 9.742188 -24.175781 9.296875 -22.769531 8.640625 -20.9375 C 7.992188 -19.113281 7.367188 -17.113281 6.765625 -14.9375 C 6.171875 -12.769531 5.789062 -10.644531 5.625 -8.5625 C 5.46875 -6.488281 5.765625 -4.710938 6.515625 -3.234375 Z M -0.21875 -7.53125 C -0.25 -8.675781 -0.0546875 -10.378906 0.359375 -12.640625 C 0.773438 -14.910156 1.382812 -17.351562 2.1875 -19.96875 C 2.988281 -22.59375 3.90625 -25.085938 4.9375 -27.453125 C 5.976562 -29.828125 7.113281 -31.78125 8.34375 -33.3125 C 9.570312 -34.851562 10.847656 -35.644531 12.171875 -35.6875 C 13.054688 -35.707031 13.6875 -35.320312 14.0625 -34.53125 C 14.445312 -33.75 14.554688 -33.097656 14.390625 -32.578125 C 14.234375 -32.117188 13.914062 -31.664062 13.4375 -31.21875 C 12.96875 -30.769531 12.566406 -30.273438 12.234375 -29.734375 C 12.421875 -29.117188 12.878906 -28.445312 13.609375 -27.71875 C 14.335938 -26.988281 15.070312 -26.015625 15.8125 -24.796875 C 16.5625 -23.585938 17.070312 -21.925781 17.34375 -19.8125 C 17.625 -17.707031 17.460938 -14.925781 16.859375 -11.46875 C 16.023438 -6.863281 14.582031 -3.382812 12.53125 -1.03125 C 10.488281 1.320312 8.453125 2.53125 6.421875 2.59375 C 4.742188 2.644531 3.242188 1.828125 1.921875 0.140625 C 0.597656 -1.535156 -0.113281 -4.09375 -0.21875 -7.53125 Z M -0.21875 -7.53125 "/></g></g></g><g fill="#122620" fill-opacity="1"><g transform="translate(222.56441, 253.866079)"><g><path d="M -0.53125 -18.09375 C -0.582031 -19.6875 -0.3125 -21.550781 0.28125 -23.6875 C 0.882812 -25.820312 1.75 -27.914062 2.875 -29.96875 C 4.007812 -32.03125 5.375 -33.769531 6.96875 -35.1875 C 8.5625 -36.613281 10.328125 -37.351562 12.265625 -37.40625 C 15.085938 -37.488281 16.550781 -35.765625 16.65625 -32.234375 C 16.726562 -29.941406 16.191406 -28.78125 15.046875 -28.75 C 13.722656 -28.707031 12.890625 -29.828125 12.546875 -32.109375 C 11.078125 -31.015625 9.695312 -29.164062 8.40625 -26.5625 C 7.125 -23.96875 6.300781 -21.210938 5.9375 -18.296875 C 5.582031 -15.378906 5.96875 -12.835938 7.09375 -10.671875 C 7.570312 -9.535156 8.238281 -8.582031 9.09375 -7.8125 C 9.957031 -7.039062 11.179688 -6.675781 12.765625 -6.71875 C 15.859375 -6.8125 18.675781 -7.753906 21.21875 -9.546875 C 23.757812 -11.347656 26.078125 -13.488281 28.171875 -15.96875 C 30.265625 -18.457031 32.066406 -20.828125 33.578125 -23.078125 C 34.515625 -24.421875 35.378906 -25.109375 36.171875 -25.140625 C 36.785156 -25.148438 37.234375 -24.851562 37.515625 -24.25 C 37.796875 -23.644531 37.734375 -22.894531 37.328125 -22 C 37.160156 -21.550781 36.882812 -21.054688 36.5 -20.515625 C 36.125 -19.972656 35.765625 -19.476562 35.421875 -19.03125 C 33.640625 -16.695312 31.59375 -14.257812 29.28125 -11.71875 C 26.976562 -9.175781 24.441406 -7.003906 21.671875 -5.203125 C 18.910156 -3.398438 15.941406 -2.453125 12.765625 -2.359375 C 9.765625 -2.273438 7.296875 -2.972656 5.359375 -4.453125 C 3.421875 -5.941406 1.972656 -7.90625 1.015625 -10.34375 C 0.0664062 -12.789062 -0.445312 -15.375 -0.53125 -18.09375 Z M -0.53125 -18.09375 "/></g></g></g><g fill="#122620" fill-opacity="1"><g transform="translate(254.549438, 252.922706)"><g><path d="M -1.125 -10.9375 L -0.765625 -25.90625 C -0.710938 -26.875 -0.660156 -28.039062 -0.609375 -29.40625 C -0.554688 -30.78125 -0.5 -31.953125 -0.4375 -32.921875 C -0.394531 -37.335938 0.0234375 -41.71875 0.828125 -46.0625 C 1.628906 -50.414062 2.492188 -54.71875 3.421875 -58.96875 C 3.984375 -60.738281 4.429688 -61.914062 4.765625 -62.5 C 5.109375 -63.082031 5.585938 -63.382812 6.203125 -63.40625 C 6.472656 -63.414062 6.78125 -63.40625 7.125 -63.375 C 7.476562 -63.34375 7.878906 -63.285156 8.328125 -63.203125 C 8.828125 -61.191406 8.804688 -58.789062 8.265625 -56 C 7.734375 -53.21875 7.328125 -50.675781 7.046875 -48.375 C 6.253906 -42.257812 5.65625 -35.535156 5.25 -28.203125 C 4.851562 -20.878906 4.753906 -13.910156 4.953125 -7.296875 L 5.765625 7.515625 L 6.765625 4.96875 C 7.898438 1.40625 8.847656 -1.597656 9.609375 -4.046875 C 10.367188 -6.503906 11.265625 -8.9375 12.296875 -11.34375 C 13.335938 -13.757812 14.734375 -16.707031 16.484375 -20.1875 C 17.390625 -21.976562 18.285156 -23.503906 19.171875 -24.765625 C 20.066406 -26.023438 21.484375 -26.6875 23.421875 -26.75 C 24.390625 -26.769531 25.09375 -26.082031 25.53125 -24.6875 C 25.96875 -23.289062 26.253906 -21.757812 26.390625 -20.09375 C 26.523438 -18.425781 26.609375 -17.195312 26.640625 -16.40625 C 26.710938 -13.9375 26.835938 -11.84375 27.015625 -10.125 C 27.191406 -8.414062 27.75 -6.734375 28.6875 -5.078125 C 30.707031 -5.578125 32.390625 -6.925781 33.734375 -9.125 C 35.078125 -11.332031 36.296875 -13.242188 37.390625 -14.859375 C 37.984375 -15.847656 38.53125 -16.832031 39.03125 -17.8125 C 39.53125 -18.789062 40.03125 -19.820312 40.53125 -20.90625 C 41.28125 -22.332031 41.890625 -23.316406 42.359375 -23.859375 C 42.828125 -24.410156 43.328125 -24.691406 43.859375 -24.703125 C 44.117188 -24.710938 44.601562 -24.640625 45.3125 -24.484375 C 45.800781 -22.910156 45.75 -21.628906 45.15625 -20.640625 C 44.570312 -19.660156 43.945312 -18.503906 43.28125 -17.171875 C 42.695312 -16.003906 41.90625 -14.5 40.90625 -12.65625 C 39.90625 -10.820312 38.765625 -9.023438 37.484375 -7.265625 C 36.210938 -5.503906 34.84375 -4.003906 33.375 -2.765625 C 31.914062 -1.535156 30.394531 -0.894531 28.8125 -0.84375 C 25.90625 -0.757812 23.929688 -3.304688 22.890625 -8.484375 C 22.585938 -9.972656 22.351562 -11.972656 22.1875 -14.484375 C 22.03125 -16.992188 21.925781 -19.164062 21.875 -21 C 21.257812 -20.550781 20.535156 -19.519531 19.703125 -17.90625 C 18.867188 -16.300781 18.039062 -14.492188 17.21875 -12.484375 C 16.40625 -10.472656 15.648438 -8.53125 14.953125 -6.65625 C 14.265625 -4.78125 13.710938 -3.351562 13.296875 -2.375 C 12.316406 0.382812 11.535156 3.140625 10.953125 5.890625 C 10.367188 8.648438 9.71875 11.273438 9 13.765625 C 8.601562 15.179688 8.125 16.097656 7.5625 16.515625 C 7.007812 16.929688 6.113281 17.160156 4.875 17.203125 C 3.90625 17.234375 3.085938 16.414062 2.421875 14.75 C 1.753906 13.09375 1.1875 11.015625 0.71875 8.515625 C 0.25 6.015625 -0.109375 3.421875 -0.359375 0.734375 C -0.617188 -1.953125 -0.800781 -4.367188 -0.90625 -6.515625 C -1.019531 -8.671875 -1.09375 -10.144531 -1.125 -10.9375 Z M -1.125 -10.9375 "/></g></g></g><g fill="#122620" fill-opacity="1"><g transform="translate(294.86116, 251.733744)"><g><path d="M 5.375 -24.09375 C 7.019531 -25.019531 8.832031 -26.285156 10.8125 -27.890625 C 12.800781 -29.503906 13.851562 -31.367188 13.96875 -33.484375 C 12.820312 -33.273438 11.625 -32.625 10.375 -31.53125 C 9.132812 -30.4375 8.070312 -29.210938 7.1875 -27.859375 C 6.300781 -26.503906 5.695312 -25.25 5.375 -24.09375 Z M -0.484375 -20.75 C -0.546875 -22.945312 0.109375 -25.34375 1.484375 -27.9375 C 2.867188 -30.539062 4.613281 -32.78125 6.71875 -34.65625 C 8.820312 -36.53125 10.9375 -37.5 13.0625 -37.5625 C 15.957031 -37.644531 17.5 -36.585938 17.6875 -34.390625 C 17.882812 -32.191406 17.019531 -29.785156 15.09375 -27.171875 C 14.0625 -25.992188 12.507812 -24.625 10.4375 -23.0625 C 8.363281 -21.5 6.316406 -20.597656 4.296875 -20.359375 C 4.335938 -18.941406 4.414062 -17.6875 4.53125 -16.59375 C 4.65625 -15.507812 5.304688 -14.410156 6.484375 -13.296875 C 7.671875 -12.179688 9.144531 -11.648438 10.90625 -11.703125 C 13.195312 -11.773438 15.550781 -12.570312 17.96875 -14.09375 C 20.382812 -15.625 22.242188 -16.890625 23.546875 -17.890625 C 24.054688 -18.347656 24.460938 -18.710938 24.765625 -18.984375 C 25.066406 -19.253906 25.4375 -19.570312 25.875 -19.9375 C 27.675781 -21.40625 28.804688 -22.472656 29.265625 -23.140625 C 29.734375 -23.816406 30.140625 -24.269531 30.484375 -24.5 C 30.835938 -24.738281 31.675781 -24.878906 33 -24.921875 C 33.207031 -23.953125 33.296875 -23.289062 33.265625 -22.9375 C 33.234375 -22.582031 32.914062 -22.039062 32.3125 -21.3125 C 30.769531 -19.6875 28.816406 -17.828125 26.453125 -15.734375 C 24.085938 -13.640625 21.539062 -11.800781 18.8125 -10.21875 C 16.082031 -8.632812 13.351562 -7.800781 10.625 -7.71875 C 9.21875 -7.675781 7.863281 -7.878906 6.5625 -8.328125 C 5.269531 -8.773438 4.035156 -9.554688 2.859375 -10.671875 C 1.234375 -12.210938 0.28125 -13.8125 0 -15.46875 C -0.269531 -17.132812 -0.429688 -18.894531 -0.484375 -20.75 Z M -0.484375 -20.75 "/></g></g></g><g fill="#122620" fill-opacity="1"><g transform="translate(323.541962, 250.887826)"><g><path d="M -38.875 -57.84375 C -38.914062 -59 -37.894531 -60.242188 -35.8125 -61.578125 C -33.738281 -62.921875 -31.109375 -64.253906 -27.921875 -65.578125 C -24.742188 -66.910156 -21.390625 -68.175781 -17.859375 -69.375 C -14.328125 -70.582031 -11.070312 -71.628906 -8.09375 -72.515625 C -5.113281 -73.398438 -2.882812 -74.085938 -1.40625 -74.578125 C 0.4375 -75.160156 1.726562 -75.503906 2.46875 -75.609375 C 3.207031 -75.722656 3.679688 -76.023438 3.890625 -76.515625 C 4.109375 -77.003906 4.320312 -78.003906 4.53125 -79.515625 C 5.132812 -83.148438 5.878906 -85.660156 6.765625 -87.046875 C 7.648438 -88.429688 8.53125 -89.140625 9.40625 -89.171875 C 10.113281 -89.191406 10.722656 -88.832031 11.234375 -88.09375 C 11.742188 -87.363281 12.015625 -86.472656 12.046875 -85.421875 C 12.066406 -84.628906 12.03125 -84.296875 11.9375 -84.421875 C 11.84375 -84.554688 11.847656 -84.269531 11.953125 -83.5625 C 11.960938 -83.382812 11.992188 -83.164062 12.046875 -82.90625 C 12.097656 -82.644531 12.128906 -82.289062 12.140625 -81.84375 C 12.179688 -80.695312 11.976562 -80.117188 11.53125 -80.109375 C 11.09375 -80.097656 10.65625 -80.019531 10.21875 -79.875 C 9.78125 -79.726562 9.582031 -78.945312 9.625 -77.53125 C 10.675781 -77.5625 11.835938 -77.753906 13.109375 -78.109375 C 14.390625 -78.460938 15.503906 -78.691406 16.453125 -78.796875 C 20.304688 -79.617188 24.164062 -80.375 28.03125 -81.0625 C 31.894531 -81.75 35.851562 -82.15625 39.90625 -82.28125 C 42.019531 -82.34375 43.570312 -81.945312 44.5625 -81.09375 C 45.5625 -80.238281 45.941406 -79.363281 45.703125 -78.46875 C 45.472656 -77.582031 44.519531 -77.113281 42.84375 -77.0625 C 42.644531 -77.769531 42.519531 -78.097656 42.46875 -78.046875 C 42.425781 -78.003906 42.007812 -78.054688 41.21875 -78.203125 C 40.863281 -78.285156 40.160156 -78.3125 39.109375 -78.28125 C 37.253906 -78.226562 34.8125 -77.957031 31.78125 -77.46875 C 28.75 -76.988281 25.609375 -76.429688 22.359375 -75.796875 C 19.117188 -75.171875 16.226562 -74.578125 13.6875 -74.015625 C 11.15625 -73.460938 9.492188 -73.082031 8.703125 -72.875 L 6.859375 -45.703125 C 6.785156 -45.085938 6.78125 -44.425781 6.84375 -43.71875 C 6.914062 -43.019531 6.960938 -42.316406 6.984375 -41.609375 C 7.003906 -40.722656 6.953125 -40.148438 6.828125 -39.890625 C 6.703125 -39.628906 6.65625 -39.007812 6.6875 -38.03125 C 6.738281 -36.09375 6.84375 -33.867188 7 -31.359375 C 7.164062 -28.847656 7.179688 -26.882812 7.046875 -25.46875 C 6.992188 -24.664062 6.976562 -23.097656 7 -20.765625 C 7.019531 -18.441406 7.050781 -15.734375 7.09375 -12.640625 C 7.144531 -9.554688 7.21875 -6.445312 7.3125 -3.3125 C 7.40625 -0.1875 7.488281 2.648438 7.5625 5.203125 C 7.632812 7.753906 7.734375 9.601562 7.859375 10.75 C 7.878906 11.726562 8.03125 13.203125 8.3125 15.171875 C 8.601562 17.140625 8.703125 18.914062 8.609375 20.5 C 8.523438 22.09375 7.910156 22.910156 6.765625 22.953125 C 5.097656 22.992188 4.054688 22.097656 3.640625 20.265625 C 3.234375 18.429688 3.007812 16.71875 2.96875 15.125 C 2.601562 11.96875 2.335938 8.269531 2.171875 4.03125 C 2.003906 -0.195312 1.878906 -4.425781 1.796875 -8.65625 C 1.710938 -12.882812 1.625 -16.582031 1.53125 -19.75 L 1.75 -25.984375 C 1.71875 -27.210938 1.660156 -29.101562 1.578125 -31.65625 C 1.503906 -34.21875 1.46875 -36.929688 1.46875 -39.796875 C 1.476562 -42.660156 1.488281 -45.285156 1.5 -47.671875 C 1.519531 -50.054688 1.609375 -51.734375 1.765625 -52.703125 C 1.910156 -53.585938 1.984375 -54.644531 1.984375 -55.875 C 1.992188 -57.113281 2.03125 -58.171875 2.09375 -59.046875 L 2.9375 -71.390625 C 2.582031 -71.285156 1.8125 -71.082031 0.625 -70.78125 C -0.5625 -70.488281 -1.5 -70.242188 -2.1875 -70.046875 C -6.476562 -68.867188 -10.5625 -67.625 -14.4375 -66.3125 C -18.320312 -65 -22.316406 -63.492188 -26.421875 -61.796875 C -27.203125 -61.410156 -27.914062 -61.007812 -28.5625 -60.59375 C -29.21875 -60.1875 -29.9375 -59.789062 -30.71875 -59.40625 C -31.769531 -58.9375 -32.445312 -58.609375 -32.75 -58.421875 C -33.050781 -58.242188 -33.195312 -58.019531 -33.1875 -57.75 C -33.175781 -57.488281 -33.382812 -56.910156 -33.8125 -56.015625 C -34.144531 -55.910156 -34.488281 -55.832031 -34.84375 -55.78125 C -35.195312 -55.726562 -35.59375 -55.695312 -36.03125 -55.6875 C -36.738281 -55.664062 -37.382812 -55.800781 -37.96875 -56.09375 C -38.550781 -56.382812 -38.851562 -56.96875 -38.875 -57.84375 Z M -38.875 -57.84375 "/></g></g></g></svg>