<svg xmlns="http://www.w3.org/2000/svg" xmlns:xlink="http://www.w3.org/1999/xlink" width="500" zoomAndPan="magnify" viewBox="0 0 375 374.999991" height="500" preserveAspectRatio="xMidYMid meet" version="1.0"><defs><g/><clipPath id="ae4c51fa2f"><path d="M 31.703125 25.902344 L 343.296875 25.902344 L 343.296875 337.5 L 31.703125 337.5 Z M 31.703125 25.902344 " clip-rule="nonzero"/></clipPath><clipPath id="7381ae1d42"><path d="M 187.5 25.902344 C 101.453125 25.902344 31.703125 95.65625 31.703125 181.703125 C 31.703125 267.746094 101.453125 337.5 187.5 337.5 C 273.546875 337.5 343.296875 267.746094 343.296875 181.703125 C 343.296875 95.65625 273.546875 25.902344 187.5 25.902344 Z M 187.5 25.902344 " clip-rule="nonzero"/></clipPath></defs><g clip-path="url(#ae4c51fa2f)"><g clip-path="url(#7381ae1d42)"><path fill="#90ee90" d="M 31.703125 25.902344 L 343.296875 25.902344 L 343.296875 337.5 L 31.703125 337.5 Z M 31.703125 25.902344 " fill-opacity="1" fill-rule="nonzero"/></g></g><path stroke-linecap="butt" transform="matrix(1.235849, -0.0364504, 0.0364504, 1.235849, 89.444963, 162.958818)" fill="none" stroke-linejoin="miter" d="M 20.353439 72.307544 C 20.354329 67.133369 20.785915 62.038273 21.65126 57.025508 C 22.529237 52.013115 23.631138 47.231742 24.963278 42.681576 C 26.3048 38.134847 27.709726 34.010372 29.171554 30.314282 C 30.209744 27.693006 31.457585 24.929356 32.921671 22.014045 C 34.398296 19.102265 36.073124 16.329084 37.949218 13.697752 C 39.83841 11.051003 41.872278 8.857352 44.054073 7.113735 C 45.581271 5.916591 47.257624 4.913493 49.080068 4.10119 C 50.902884 3.276255 52.685076 2.864184 54.426644 2.864977 C 55.728873 2.865456 56.978413 3.152012 58.175357 3.721488 C 59.387998 4.294587 60.451627 5.204655 61.369307 6.454944 C 62.618537 8.252345 63.311122 9.954309 63.443813 11.5639 C 63.58923 13.170706 63.661528 15.006093 63.663959 17.066995 C 63.661116 18.87804 63.389357 20.91189 62.84543 23.171611 C 62.298717 25.418607 61.575705 27.748905 60.670263 30.156002 C 59.777919 32.547682 58.853444 34.849912 57.897025 37.056377 C 56.940513 39.266 56.055732 41.186946 55.245744 42.822467 C 54.976793 43.475138 54.731167 43.97994 54.505709 44.336781 C 54.293162 44.68452 53.773643 44.937863 52.95031 45.096905 C 52.244156 44.605121 51.906095 44.171605 51.932877 43.799423 C 51.96003 43.414608 52.166558 42.842276 52.552366 42.085585 C 52.76289 41.484924 52.978053 40.941294 53.188568 40.448099 C 53.414873 39.95537 53.635607 39.437191 53.847612 38.893467 C 55.482117 35.129772 56.993001 31.270767 58.376921 27.322677 C 59.773566 23.371801 60.472023 19.194882 60.4722 14.795077 C 60.472058 12.013584 59.89969 9.986445 58.75519 8.710501 C 57.611156 7.418767 56.195198 6.773295 54.507317 6.774084 C 51.621515 6.774311 48.760304 8.191294 45.926842 11.025126 C 43.588396 13.364672 41.42072 16.237105 39.423813 19.642426 C 37.44279 23.045054 35.659866 26.696906 34.078294 30.594916 C 32.496815 34.489768 31.1338 38.372098 29.989155 42.245065 C 28.844602 46.114875 27.949282 49.679117 27.296878 52.937607 C 26.539487 56.540686 25.885911 60.48187 25.342375 64.764504 C 24.796053 69.034412 24.603711 73.305278 24.762283 77.573851 C 24.936273 81.855522 25.701215 85.81958 27.057202 89.462866 C 27.760978 91.749905 28.918886 93.750063 30.527675 95.466407 C 32.136464 97.18275 34.244666 98.041447 36.852374 98.03934 C 39.204002 98.039162 41.491497 97.427062 43.714767 96.206197 C 45.947605 94.982453 47.883773 93.743638 49.519928 92.495974 L 52.310633 90.040175 C 52.85618 89.547379 53.342459 89.135016 53.769473 88.803085 C 54.205588 88.484066 54.698742 88.052941 55.245872 87.506458 C 58.237254 84.462351 60.929945 81.15025 63.32385 77.573313 C 65.730016 74.00938 67.979313 70.298586 70.065425 66.440743 C 72.1677 62.570735 74.20198 58.755614 76.171516 54.992318 C 76.647807 54.061291 77.121845 53.420991 77.587221 53.074387 C 78.052969 52.715152 78.478576 52.538058 78.864229 52.536789 C 79.237157 52.538306 79.527035 52.676448 79.740087 52.954559 C 79.966051 53.223569 80.081483 53.489318 80.079975 53.754779 L 67.912432 75.995505 C 67.154871 77.13949 66.401401 78.251988 65.658522 79.326869 C 64.924651 80.41782 64.155949 81.510904 63.343128 82.599526 C 62.201183 84.130433 60.642724 85.958811 58.674066 88.084848 C 56.721105 90.214509 54.526187 92.295943 52.092468 94.329244 C 49.670916 96.378708 47.152516 98.068146 44.530952 99.397374 C 41.925178 100.727067 39.339057 101.390414 36.772497 101.390575 C 34.057322 101.392673 31.731664 100.726692 29.789113 99.395602 C 27.862258 98.068136 26.279944 96.311484 25.042078 94.128802 C 23.819909 91.949744 22.866284 89.560513 22.190491 86.967704 C 21.511167 84.387434 21.04018 81.816469 20.7714 79.248307 C 20.492681 76.695657 20.355497 74.381078 20.353439 72.307544 Z M 77.947696 66.679546 C 77.404048 66.679316 77.078983 66.341007 76.972501 65.66462 C 76.866485 64.972442 76.837287 64.247762 76.891315 63.487606 C 76.94525 62.730609 76.971574 62.266751 76.970381 62.092872 C 76.916867 61.120934 76.904966 60.131258 76.931614 59.120593 C 76.958262 58.109928 76.944228 57.085421 76.892671 56.047163 C 76.891402 55.661511 76.90623 54.94445 76.93093 53.892638 C 76.959162 52.828287 77.03672 51.699014 77.170014 50.501848 C 77.316312 49.292422 77.523899 48.255487 77.789618 47.390948 C 78.068341 46.514149 78.41957 46.072516 78.846278 46.072459 C 79.936732 46.073013 80.495025 46.434005 80.521252 47.152276 C 80.547945 47.854757 80.508022 48.779689 80.401576 49.923914 C 80.349157 50.307983 80.323951 50.733945 80.322798 51.201707 C 80.32211 51.653679 80.321609 52.099334 80.321294 52.538674 C 80.324222 53.082415 80.294655 53.441872 80.242162 53.614167 C 80.190041 53.77383 80.163819 54.127064 80.163588 54.670712 C 80.761237 54.233186 81.307156 53.727759 81.798186 53.154335 C 82.292281 52.584164 83.163646 52.296946 84.412095 52.299 C 84.797748 52.297731 85.303872 52.284212 85.927309 52.258349 C 86.553904 52.232579 87.218116 52.2174 87.922917 52.219223 C 89.12093 52.216628 90.23785 52.28434 91.273863 52.416041 C 92.312941 52.550994 92.830833 52.888668 92.830509 53.435474 C 92.830278 53.979122 92.544631 54.340509 91.973754 54.513318 C 91.400185 54.670244 90.702437 54.75081 89.877444 54.751763 C 89.333796 54.751533 88.774731 54.738204 88.203406 54.711871 C 87.632081 54.685538 87.133111 54.670821 86.706404 54.670879 C 85.176517 54.673168 84.153305 54.750456 83.633329 54.912124 C 83.116604 55.070726 82.52925 55.695042 81.877581 56.785256 C 81.493264 57.491418 81.119901 58.254798 80.760467 59.081804 C 80.417381 59.890328 80.16327 60.789978 80.004636 61.774624 C 79.832186 62.477553 79.756704 63.21495 79.784506 63.987001 C 79.825312 64.746793 79.743336 65.382853 79.544708 65.901685 C 79.358712 66.420889 78.826375 66.680176 77.947696 66.679546 Z M 94.217878 65.123878 C 95.030535 64.898145 95.763075 64.173806 96.412339 62.950768 C 97.077394 61.728196 97.542206 60.329035 97.809747 58.759695 C 98.090293 57.178096 98.155339 55.722893 98.008135 54.391023 C 97.877001 53.050144 97.45845 52.130655 96.752297 51.638871 C 96.579762 52.237491 96.273176 53.094503 95.835602 54.213158 C 95.407595 55.328933 94.988867 56.558771 94.579418 57.902671 C 94.179816 59.234217 93.907467 60.537909 93.759212 61.813654 C 93.626748 63.089864 93.780658 64.194356 94.217878 65.123878 Z M 90.130576 62.35143 C 90.129614 61.633904 90.274413 60.582473 90.568039 59.200389 C 90.874763 57.802887 91.298157 56.307681 91.84463 54.7118 C 92.391475 53.103286 93.002218 51.578837 93.679829 50.144863 C 94.357906 48.695098 95.088441 47.502904 95.874499 46.571532 C 96.673189 45.640532 97.483452 45.174509 98.308351 45.176713 C 98.855157 45.177037 99.233545 45.422095 99.446579 45.915139 C 99.659707 46.405025 99.710759 46.817432 99.606051 47.152548 C 99.497077 47.418 99.293082 47.690132 98.98775 47.968758 C 98.695424 48.235124 98.440062 48.534189 98.227981 48.866137 C 98.333931 49.239074 98.599729 49.657815 99.025377 50.122361 C 99.466814 50.587373 99.903688 51.207128 100.342407 51.978656 C 100.781498 52.737551 101.067216 53.766911 101.199468 55.069894 C 101.334878 56.372969 101.179899 58.091025 100.741035 60.217931 C 100.142259 63.051297 99.191327 65.178904 97.888238 66.600752 C 96.585522 68.009968 95.309893 68.715128 94.058193 68.71614 C 93.021519 68.714011 92.104709 68.184406 91.30479 67.120915 C 90.520754 66.054732 90.128266 64.465925 90.130576 62.35143 Z M 104.509129 55.809148 C 104.509675 54.826161 104.707797 53.68148 105.106561 52.378355 C 105.521115 51.075696 106.093012 49.796643 106.822065 48.547511 C 107.567375 47.283055 108.445397 46.234285 109.456319 45.394886 C 110.467613 44.542855 111.570548 44.120233 112.768561 44.117638 C 114.510129 44.118431 115.381938 45.209329 115.38083 47.390236 C 115.380342 48.799931 115.027698 49.503867 114.322804 49.505202 C 113.497811 49.506156 113.006608 48.799457 112.849008 47.391421 C 111.916309 48.04348 111.026857 49.158289 110.174148 50.741977 C 109.337322 52.322973 108.77858 54.013317 108.498017 55.809849 C 108.233336 57.603688 108.427054 59.180311 109.076106 60.536465 C 109.355162 61.255872 109.754605 61.85872 110.274249 62.351324 C 110.794265 62.831297 111.536292 63.071276 112.509805 63.071542 C 114.422093 63.07105 116.179216 62.544451 117.774765 61.494719 C 119.383411 60.429569 120.853122 59.145389 122.183803 57.645335 C 123.52721 56.142495 124.691532 54.710233 125.673423 53.35477 C 126.272589 52.544317 126.818779 52.136881 127.311805 52.13878 C 127.681668 52.137045 127.947763 52.33138 128.10712 52.715374 C 128.282546 53.09036 128.234302 53.54725 127.968517 54.092548 C 127.850068 54.357721 127.664184 54.658834 127.411048 54.989572 C 127.170825 55.311208 126.943979 55.607953 126.733388 55.889373 C 125.58876 57.29693 124.277865 58.76912 122.800983 60.29647 C 121.339797 61.827443 119.736983 63.123502 117.995606 64.187898 C 116.251071 65.252201 114.395863 65.782228 112.429795 65.784295 C 110.580761 65.783493 109.071348 65.305946 107.901744 64.34534 C 106.728888 63.387799 105.870838 62.151912 105.327594 60.637678 C 104.781657 59.107561 104.509919 57.49703 104.509129 55.809148 Z M 123.783141 60.217971 L 124.279993 50.981014 C 124.335587 50.382105 124.388404 49.663004 124.441509 48.826963 C 124.49508 47.975132 124.548084 47.249715 124.600426 46.653871 C 124.718799 43.926446 125.06687 41.234243 125.638416 38.573917 C 126.210335 35.900959 126.822563 33.254476 127.471943 30.634375 C 127.845518 29.54228 128.138532 28.823943 128.350985 28.479362 C 128.576536 28.119364 128.882045 27.941888 129.267698 27.940619 C 129.428944 27.939054 129.614989 27.954023 129.826019 27.979212 C 130.052745 28.008025 130.29814 28.04687 130.565269 28.099 C 130.844095 29.362055 130.790657 30.852368 130.404956 32.56994 C 130.031979 34.284727 129.733044 35.846819 129.50815 37.256217 C 128.910412 41.018883 128.418345 45.163961 128.032134 49.685132 C 127.658555 54.206676 127.471597 58.509309 127.474512 62.589966 L 127.713305 71.747475 L 128.372349 70.192844 C 129.12888 68.012091 129.767792 66.175556 130.285834 64.686302 C 130.804248 63.184417 131.404492 61.694427 132.080249 60.216147 C 132.759072 58.741118 133.671708 56.947425 134.815094 54.831816 C 135.413076 53.740018 135.996647 52.815316 136.568965 52.057805 C 137.141656 51.287661 138.031792 50.899852 139.242344 50.900788 C 139.842837 50.902695 140.259755 51.341697 140.499416 52.217981 C 140.739449 53.081633 140.885198 54.034167 140.940007 55.069359 C 141.004197 56.107989 141.0385 56.87391 141.036695 57.363778 C 141.039357 58.881033 141.077147 60.171747 141.156382 61.236107 C 141.238868 62.297402 141.549198 63.349613 142.097034 64.386704 C 143.344298 64.107413 144.401566 63.304149 145.26893 61.973756 C 146.145768 60.643642 146.935374 59.484798 147.640813 58.500475 C 148.02828 57.901872 148.380916 57.305402 148.698813 56.707908 C 149.032593 56.107722 149.36396 55.482178 149.696073 54.831369 C 150.186571 53.954496 150.580354 53.356079 150.874264 53.036026 C 151.178021 52.70362 151.492724 52.535899 151.811965 52.535832 C 151.982592 52.537704 152.281302 52.590765 152.708 52.698174 C 152.9888 53.679977 152.93384 54.471712 152.549531 55.070408 C 152.177854 55.669477 151.77143 56.374988 151.330352 57.183782 C 150.945662 57.902577 150.428689 58.81976 149.776182 59.938397 C 149.123769 61.053875 148.38674 62.144733 147.561939 63.210876 C 146.750235 64.261602 145.879841 65.158879 144.9476 65.902614 C 144.031522 66.634183 143.078784 67.00118 142.095797 67.000635 C 140.300449 67.001416 139.131084 65.389696 138.584357 62.171697 C 138.424952 61.25353 138.31285 60.017518 138.244988 58.460411 C 138.192822 56.906928 138.166276 55.556491 138.165255 54.412257 C 137.793512 54.692085 137.335544 55.323378 136.788192 56.306041 C 136.244279 57.279324 135.69989 58.375863 135.154934 59.598817 C 134.60682 60.821678 134.10385 62.014262 133.636736 63.169975 C 133.173152 64.313148 132.806097 65.184181 132.538729 65.783165 C 131.888404 67.470807 131.355114 69.155579 130.945359 70.831352 C 130.532073 72.519664 130.080062 74.127813 129.586074 75.658866 C 129.323141 76.536131 129.009613 77.092664 128.651619 77.334967 C 128.30282 77.587025 127.745973 77.712836 126.97476 77.712215 C 126.377332 77.713559 125.883792 77.193278 125.497109 76.157779 C 125.126311 75.119588 124.813678 73.823929 124.559305 72.267643 C 124.320722 70.711822 124.146977 69.10102 124.041134 67.438487 C 123.934918 65.788587 123.868164 64.30105 123.841059 62.969561 C 123.801601 61.628225 123.781242 60.710998 123.783141 60.217971 Z M 152.949723 52.218542 C 153.989879 51.673958 155.131016 50.92058 156.382423 49.965004 C 157.646555 49.006642 158.331015 47.876305 158.435802 46.573992 C 157.730993 46.679635 156.980183 47.05891 156.183467 47.708658 C 155.399289 48.361937 154.720063 49.100492 154.148947 49.924416 C 153.575045 50.735614 153.176418 51.498249 152.949723 52.218542 Z M 149.279265 54.174276 C 149.281421 52.815203 149.726176 51.345914 150.616781 49.763343 C 151.520019 48.181145 152.637613 46.832845 153.969657 45.715286 C 155.311174 44.598007 156.636205 44.0397 157.938433 44.040178 C 159.733781 44.039397 160.671292 44.724491 160.751059 46.092302 C 160.843738 47.451012 160.266252 48.919547 159.015351 50.500974 C 158.349689 51.20832 157.367842 52.026451 156.063493 52.95518 C 154.759424 53.874435 153.483161 54.386769 152.231545 54.492089 C 152.234074 55.370861 152.258531 56.149135 152.311233 56.827097 C 152.367093 57.505152 152.74498 58.195866 153.451209 58.899424 C 154.153814 59.61868 155.053548 59.977099 156.144002 59.977654 C 157.566329 59.978514 159.036621 59.531958 160.551626 58.64105 C 162.079636 57.737882 163.252354 56.985436 164.06337 56.386682 C 164.393966 56.108801 164.653315 55.888874 164.841325 55.730059 C 165.039274 55.555732 165.272521 55.363482 165.538 55.150058 C 166.682397 54.286149 167.39979 53.646704 167.693243 53.234975 C 167.999329 52.823619 168.257103 52.549912 168.47279 52.417199 C 168.697951 52.284765 169.215132 52.217839 170.027493 52.216512 C 170.145684 52.817386 170.193764 53.223385 170.165418 53.434321 C 170.140136 53.648509 169.934557 53.974327 169.548683 54.411778 C 168.565057 55.397378 167.321532 56.514387 165.818107 57.762804 C 164.327222 59.014753 162.727304 60.105446 161.008881 61.034606 C 159.293522 61.967016 157.591949 62.432037 155.904067 62.432827 C 155.025388 62.432197 154.195299 62.284444 153.41055 61.992632 C 152.626172 61.688187 151.873207 61.176058 151.154811 60.456336 C 150.184629 59.485808 149.626295 58.483176 149.479903 57.445283 C 149.346143 56.407762 149.280379 55.315352 149.279265 54.174276 Z M 143.970404 30.555204 C 143.969069 29.85031 144.626375 29.104788 145.94548 28.318729 C 147.249074 27.522731 148.896708 26.743202 150.891354 25.98655 C 152.873832 25.213736 154.968697 24.488487 157.175946 23.810804 C 159.370563 23.132749 161.398075 22.547749 163.258482 22.055805 C 165.109415 21.563581 166.498706 21.184173 167.429515 20.917674 C 168.574055 20.58478 169.369897 20.39332 169.823453 20.340321 C 170.28964 20.287694 170.588739 20.11319 170.720658 19.819968 C 170.865582 19.514485 171.019727 18.896357 171.179935 17.965491 C 171.618808 15.731119 172.122364 14.197187 172.697104 13.357566 C 173.269059 12.50522 173.825188 12.082274 174.371994 12.082598 C 174.811427 12.079755 175.174303 12.314873 175.46722 12.778665 C 175.775834 13.246081 175.92691 13.803674 175.92667 14.454788 C 175.92793 14.947907 175.893453 15.152341 175.826212 15.074499 C 175.774854 14.993965 175.775861 15.174159 175.826168 15.611831 C 175.826159 15.719297 175.841195 15.852494 175.868118 16.011327 C 175.907674 16.170533 175.926511 16.389182 175.927695 16.670527 C 175.925872 17.375328 175.789119 17.725302 175.507774 17.726486 C 175.24222 17.728136 174.969232 17.767497 174.691875 17.847818 C 174.424085 17.925261 174.292986 18.404994 174.292357 19.283673 C 174.943471 19.283913 175.660633 19.188116 176.446816 19.002692 C 177.242845 18.804915 177.94199 18.676979 178.540908 18.625107 C 180.933905 18.1868 183.328756 17.792799 185.72221 17.446169 C 188.116036 17.086907 190.570872 16.909608 193.083746 16.907865 C 194.385975 16.908343 195.338752 17.182986 195.935949 17.72529 C 196.533053 18.270752 196.753978 18.817761 196.59566 19.363068 C 196.434183 19.908282 195.835061 20.181403 194.798387 20.179274 C 194.691236 19.739926 194.618246 19.535483 194.579511 19.562788 C 194.553502 19.587307 194.298632 19.548182 193.821312 19.442441 C 193.595331 19.388364 193.156736 19.362785 192.505622 19.362546 C 191.361389 19.363566 189.84366 19.489484 187.955594 19.740393 C 186.080439 19.9822 184.131346 20.266078 182.111285 20.598435 C 180.104229 20.918532 178.309134 21.232238 176.726094 21.536394 C 175.156058 21.828291 174.126055 22.028649 173.63302 22.134217 L 171.997723 38.891868 C 171.945212 39.279096 171.929945 39.689547 171.958053 40.129725 C 171.983468 40.554019 171.995972 40.987416 171.998815 41.426848 C 171.998584 41.970496 171.956572 42.323265 171.879187 42.482182 C 171.79855 42.644165 171.758765 43.028607 171.756578 43.638573 C 171.759173 44.836586 171.784974 46.212288 171.837046 47.768929 C 171.889491 49.312938 171.863291 50.522745 171.758353 51.401508 C 171.705927 51.893044 171.658383 52.862002 171.618788 54.311634 C 171.592198 55.749006 171.565124 57.417101 171.537474 59.319076 C 171.512982 61.221145 171.497405 63.142442 171.500124 65.086403 C 171.500151 67.014482 171.498985 68.768682 171.499691 70.352255 C 171.497331 71.932577 171.526774 73.077649 171.578638 73.784033 C 171.579982 74.38146 171.644832 75.290518 171.779413 76.514549 C 171.923467 77.73886 171.957279 78.842971 171.877689 79.826788 C 171.7981 80.810604 171.397917 81.304527 170.680484 81.302331 C 169.656349 81.303733 169.031568 80.732169 168.80614 79.587638 C 168.593345 78.44348 168.485595 77.38144 168.486234 76.395294 C 168.325799 74.440359 168.225766 72.152163 168.186042 69.533863 C 168.159043 66.912778 168.16028 64.298847 168.186502 61.695135 C 168.225914 59.072848 168.24598 56.785033 168.246698 54.83169 L 168.486655 50.982612 C 168.486903 50.224032 168.486721 49.051376 168.485923 47.470961 C 168.485217 45.887388 168.512477 44.212977 168.564638 42.444477 C 168.620049 40.672912 168.673962 39.059342 168.726655 37.594293 C 168.779627 36.11977 168.857642 35.082173 168.963764 34.484755 C 169.084186 33.93833 169.157154 33.2862 169.185824 32.528458 C 169.211709 31.75799 169.250125 31.09852 169.304135 30.553297 L 170.043464 22.954456 C 169.817474 23.007845 169.336885 23.120102 168.604855 23.291319 C 167.873104 23.453062 167.290806 23.584444 166.851458 23.691596 C 164.177192 24.342861 161.631101 25.042158 159.210121 25.786235 C 156.789513 26.51768 154.29561 27.376555 151.728504 28.359703 C 151.238618 28.57283 150.792386 28.80621 150.393059 29.056777 C 149.981379 29.297498 149.529017 29.524375 149.036066 29.734252 C 148.386136 30.015357 147.966379 30.208427 147.779953 30.313556 C 147.580801 30.421471 147.481869 30.560788 147.479904 30.734573 C 147.481563 30.892661 147.347874 31.245887 147.082089 31.791184 C 146.856099 31.844574 146.636891 31.88236 146.424278 31.910857 C 146.211758 31.936197 145.964779 31.951038 145.683528 31.949064 C 145.247346 31.948843 144.85492 31.858249 144.506436 31.670967 C 144.148851 31.470773 143.970173 31.098852 143.970404 30.555204 Z M 143.970404 30.555204 " stroke="#fffef9" stroke-width="1.123552" stroke-opacity="1" stroke-miterlimit="4"/><g fill="#fffef9" fill-opacity="1"><g transform="translate(118.052377, 244.98897)"><g><path d="M -0.828125 6.59375 C -1.015625 0.195312 -0.660156 -6.109375 0.234375 -12.328125 C 1.128906 -18.554688 2.316406 -24.507812 3.796875 -30.1875 C 5.285156 -35.863281 6.875 -41.015625 8.5625 -45.640625 C 9.75 -48.910156 11.195312 -52.367188 12.90625 -56.015625 C 14.625 -59.671875 16.59375 -63.164062 18.8125 -66.5 C 21.03125 -69.84375 23.453125 -72.628906 26.078125 -74.859375 C 27.929688 -76.398438 29.96875 -77.707031 32.1875 -78.78125 C 34.414062 -79.851562 36.609375 -80.425781 38.765625 -80.5 C 40.378906 -80.539062 41.9375 -80.226562 43.4375 -79.5625 C 44.9375 -78.90625 46.285156 -77.816406 47.484375 -76.296875 C 49.097656 -74.117188 50.015625 -72.035156 50.234375 -70.046875 C 50.460938 -68.066406 50.617188 -65.800781 50.703125 -63.25 C 50.765625 -61.019531 50.5 -58.5 49.90625 -55.6875 C 49.320312 -52.882812 48.515625 -49.984375 47.484375 -46.984375 C 46.460938 -43.992188 45.398438 -41.113281 44.296875 -38.34375 C 43.203125 -35.582031 42.179688 -33.175781 41.234375 -31.125 C 40.921875 -30.3125 40.632812 -29.679688 40.375 -29.234375 C 40.113281 -28.785156 39.484375 -28.445312 38.484375 -28.21875 C 37.585938 -28.800781 37.148438 -29.328125 37.171875 -29.796875 C 37.203125 -30.273438 37.4375 -30.988281 37.875 -31.9375 C 38.125 -32.6875 38.375 -33.367188 38.625 -33.984375 C 38.875 -34.597656 39.117188 -35.242188 39.359375 -35.921875 C 41.242188 -40.628906 42.972656 -45.445312 44.546875 -50.375 C 46.128906 -55.3125 46.835938 -60.507812 46.671875 -65.96875 C 46.566406 -69.40625 45.785156 -71.890625 44.328125 -73.421875 C 42.878906 -74.960938 41.109375 -75.703125 39.015625 -75.640625 C 35.441406 -75.535156 31.953125 -73.679688 28.546875 -70.078125 C 25.742188 -67.097656 23.171875 -63.46875 20.828125 -59.1875 C 18.492188 -54.914062 16.425781 -50.34375 14.625 -45.46875 C 12.820312 -40.59375 11.285156 -35.742188 10.015625 -30.921875 C 8.742188 -26.097656 7.757812 -21.65625 7.0625 -17.59375 C 6.25 -13.125 5.582031 -8.234375 5.0625 -2.921875 C 4.550781 2.378906 4.472656 7.664062 4.828125 12.9375 C 5.191406 18.21875 6.28125 23.085938 8.09375 27.546875 C 9.050781 30.359375 10.550781 32.796875 12.59375 34.859375 C 14.644531 36.921875 17.28125 37.898438 20.5 37.796875 C 23.40625 37.710938 26.21875 36.875 28.9375 35.28125 C 31.65625 33.6875 34 32.082031 35.96875 30.46875 L 39.328125 27.328125 C 39.972656 26.703125 40.5625 26.179688 41.09375 25.765625 C 41.625 25.347656 42.210938 24.796875 42.859375 24.109375 C 46.453125 20.222656 49.660156 16.03125 52.484375 11.53125 C 55.316406 7.039062 57.957031 2.367188 60.40625 -2.484375 C 62.863281 -7.335938 65.238281 -12.128906 67.53125 -16.859375 C 68.101562 -18.015625 68.664062 -18.816406 69.21875 -19.265625 C 69.78125 -19.710938 70.296875 -19.945312 70.765625 -19.96875 C 71.234375 -19.976562 71.609375 -19.820312 71.890625 -19.5 C 72.171875 -19.175781 72.316406 -18.84375 72.328125 -18.5 L 58.09375 9.40625 C 57.1875 10.851562 56.296875 12.265625 55.421875 13.640625 C 54.554688 15.015625 53.640625 16.382812 52.671875 17.75 C 51.328125 19.675781 49.476562 21.984375 47.125 24.671875 C 44.78125 27.367188 42.144531 30.023438 39.21875 32.640625 C 36.300781 35.253906 33.25 37.4375 30.0625 39.1875 C 26.875 40.9375 23.695312 41.859375 20.53125 41.953125 C 17.175781 42.046875 14.28125 41.300781 11.84375 39.71875 C 9.40625 38.144531 7.390625 36.03125 5.796875 33.375 C 4.203125 30.726562 2.9375 27.816406 2 24.640625 C 1.0625 21.472656 0.378906 18.3125 -0.046875 15.15625 C -0.484375 12.007812 -0.742188 9.15625 -0.828125 6.59375 Z M -0.828125 6.59375 "/></g></g></g><g fill="#fffef9" fill-opacity="1"><g transform="translate(186.814857, 242.960875)"><g><path d="M 1.40625 -0.453125 C 0.726562 -0.429688 0.304688 -0.835938 0.140625 -1.671875 C -0.015625 -2.515625 -0.0703125 -3.40625 -0.03125 -4.34375 C 0.0078125 -5.289062 0.03125 -5.863281 0.03125 -6.0625 C -0.0820312 -7.269531 -0.140625 -8.5 -0.140625 -9.75 C -0.140625 -11 -0.195312 -12.257812 -0.3125 -13.53125 C -0.320312 -14.007812 -0.328125 -14.898438 -0.328125 -16.203125 C -0.328125 -17.515625 -0.265625 -18.910156 -0.140625 -20.390625 C -0.0234375 -21.878906 0.179688 -23.164062 0.484375 -24.25 C 0.796875 -25.34375 1.222656 -25.898438 1.765625 -25.921875 C 3.109375 -25.960938 3.804688 -25.546875 3.859375 -24.671875 C 3.921875 -23.796875 3.910156 -22.644531 3.828125 -21.21875 C 3.765625 -20.75 3.742188 -20.226562 3.765625 -19.65625 C 3.785156 -19.082031 3.800781 -18.523438 3.8125 -17.984375 C 3.832031 -17.328125 3.8125 -16.894531 3.75 -16.6875 C 3.6875 -16.488281 3.664062 -16.050781 3.6875 -15.375 C 4.414062 -15.9375 5.070312 -16.578125 5.65625 -17.296875 C 6.25 -18.015625 7.316406 -18.398438 8.859375 -18.453125 C 9.335938 -18.460938 9.960938 -18.492188 10.734375 -18.546875 C 11.503906 -18.597656 12.328125 -18.640625 13.203125 -18.671875 C 14.691406 -18.710938 16.070312 -18.664062 17.34375 -18.53125 C 18.613281 -18.40625 19.257812 -18.007812 19.28125 -17.34375 C 19.300781 -16.675781 18.960938 -16.226562 18.265625 -16 C 17.566406 -15.78125 16.71875 -15.660156 15.71875 -15.640625 C 15.039062 -15.617188 14.347656 -15.613281 13.640625 -15.625 C 12.929688 -15.632812 12.304688 -15.628906 11.765625 -15.609375 C 9.878906 -15.554688 8.617188 -15.421875 7.984375 -15.203125 C 7.347656 -14.984375 6.648438 -14.1875 5.890625 -12.8125 C 5.453125 -11.914062 5.023438 -10.957031 4.609375 -9.9375 C 4.203125 -8.914062 3.914062 -7.796875 3.75 -6.578125 C 3.570312 -5.703125 3.515625 -4.789062 3.578125 -3.84375 C 3.640625 -2.90625 3.5625 -2.113281 3.34375 -1.46875 C 3.125 -0.820312 2.476562 -0.484375 1.40625 -0.453125 Z M 1.40625 -0.453125 "/></g></g></g><g fill="#fffef9" fill-opacity="1"><g transform="translate(203.273431, 242.475443)"><g><path d="M 4.984375 -2.484375 C 5.984375 -2.773438 6.863281 -3.691406 7.625 -5.234375 C 8.382812 -6.773438 8.90625 -8.523438 9.1875 -10.484375 C 9.46875 -12.453125 9.5 -14.253906 9.28125 -15.890625 C 9.070312 -17.523438 8.519531 -18.632812 7.625 -19.21875 C 7.4375 -18.46875 7.09375 -17.394531 6.59375 -16 C 6.101562 -14.613281 5.628906 -13.085938 5.171875 -11.421875 C 4.710938 -9.765625 4.421875 -8.140625 4.296875 -6.546875 C 4.179688 -4.960938 4.410156 -3.609375 4.984375 -2.484375 Z M -0.171875 -5.765625 C -0.191406 -6.640625 -0.046875 -7.9375 0.265625 -9.65625 C 0.585938 -11.382812 1.054688 -13.25 1.671875 -15.25 C 2.285156 -17.257812 2.988281 -19.171875 3.78125 -20.984375 C 4.570312 -22.796875 5.4375 -24.285156 6.375 -25.453125 C 7.320312 -26.617188 8.300781 -27.21875 9.3125 -27.25 C 9.976562 -27.269531 10.457031 -26.976562 10.75 -26.375 C 11.039062 -25.78125 11.125 -25.28125 11 -24.875 C 10.875 -24.539062 10.628906 -24.195312 10.265625 -23.84375 C 9.910156 -23.5 9.601562 -23.117188 9.34375 -22.703125 C 9.488281 -22.234375 9.835938 -21.71875 10.390625 -21.15625 C 10.953125 -20.601562 11.515625 -19.863281 12.078125 -18.9375 C 12.648438 -18.019531 13.039062 -16.753906 13.25 -15.140625 C 13.46875 -13.535156 13.347656 -11.414062 12.890625 -8.78125 C 12.242188 -5.25 11.140625 -2.582031 9.578125 -0.78125 C 8.015625 1.007812 6.457031 1.929688 4.90625 1.984375 C 3.632812 2.015625 2.488281 1.390625 1.46875 0.109375 C 0.457031 -1.171875 -0.0859375 -3.128906 -0.171875 -5.765625 Z M -0.171875 -5.765625 "/></g></g></g><g fill="#fffef9" fill-opacity="1"><g transform="translate(221.044643, 241.951295)"><g><path d="M -0.40625 -13.84375 C -0.445312 -15.050781 -0.238281 -16.46875 0.21875 -18.09375 C 0.675781 -19.726562 1.335938 -21.332031 2.203125 -22.90625 C 3.078125 -24.476562 4.117188 -25.800781 5.328125 -26.875 C 6.546875 -27.957031 7.894531 -28.519531 9.375 -28.5625 C 11.53125 -28.625 12.644531 -27.3125 12.71875 -24.625 C 12.769531 -22.875 12.359375 -21.988281 11.484375 -21.96875 C 10.472656 -21.9375 9.84375 -22.789062 9.59375 -24.53125 C 8.476562 -23.6875 7.425781 -22.273438 6.4375 -20.296875 C 5.445312 -18.316406 4.816406 -16.207031 4.546875 -13.96875 C 4.273438 -11.738281 4.566406 -9.800781 5.421875 -8.15625 C 5.773438 -7.289062 6.28125 -6.5625 6.9375 -5.96875 C 7.601562 -5.375 8.546875 -5.097656 9.765625 -5.140625 C 12.117188 -5.203125 14.265625 -5.921875 16.203125 -7.296875 C 18.140625 -8.679688 19.90625 -10.320312 21.5 -12.21875 C 23.101562 -14.113281 24.488281 -15.921875 25.65625 -17.640625 C 26.363281 -18.660156 27.019531 -19.179688 27.625 -19.203125 C 28.09375 -19.222656 28.4375 -19 28.65625 -18.53125 C 28.875 -18.070312 28.828125 -17.503906 28.515625 -16.828125 C 28.390625 -16.472656 28.179688 -16.09375 27.890625 -15.6875 C 27.597656 -15.28125 27.320312 -14.898438 27.0625 -14.546875 C 25.695312 -12.753906 24.132812 -10.890625 22.375 -8.953125 C 20.613281 -7.015625 18.675781 -5.351562 16.5625 -3.96875 C 14.445312 -2.59375 12.175781 -1.867188 9.75 -1.796875 C 7.457031 -1.734375 5.566406 -2.269531 4.078125 -3.40625 C 2.597656 -4.539062 1.492188 -6.039062 0.765625 -7.90625 C 0.046875 -9.769531 -0.34375 -11.75 -0.40625 -13.84375 Z M -0.40625 -13.84375 "/></g></g></g><g fill="#fffef9" fill-opacity="1"><g transform="translate(245.480058, 241.230591)"><g><path d="M -0.859375 -8.375 L -0.578125 -19.78125 C -0.535156 -20.519531 -0.492188 -21.414062 -0.453125 -22.46875 C -0.421875 -23.519531 -0.378906 -24.414062 -0.328125 -25.15625 C -0.296875 -28.519531 0.0195312 -31.863281 0.625 -35.1875 C 1.238281 -38.507812 1.898438 -41.796875 2.609375 -45.046875 C 3.035156 -46.421875 3.378906 -47.328125 3.640625 -47.765625 C 3.898438 -48.210938 4.265625 -48.445312 4.734375 -48.46875 C 4.941406 -48.46875 5.179688 -48.453125 5.453125 -48.421875 C 5.722656 -48.398438 6.023438 -48.363281 6.359375 -48.3125 C 6.742188 -46.769531 6.734375 -44.929688 6.328125 -42.796875 C 5.921875 -40.660156 5.609375 -38.710938 5.390625 -36.953125 C 4.785156 -32.273438 4.328125 -27.132812 4.015625 -21.53125 C 3.703125 -15.9375 3.625 -10.613281 3.78125 -5.5625 L 4.421875 5.734375 L 5.15625 3.78125 C 6.03125 1.070312 6.757812 -1.21875 7.34375 -3.09375 C 7.925781 -4.96875 8.609375 -6.828125 9.390625 -8.671875 C 10.179688 -10.515625 11.25 -12.769531 12.59375 -15.4375 C 13.289062 -16.8125 13.976562 -17.976562 14.65625 -18.9375 C 15.332031 -19.894531 16.40625 -20.394531 17.875 -20.4375 C 18.613281 -20.457031 19.15625 -19.9375 19.5 -18.875 C 19.84375 -17.8125 20.066406 -16.640625 20.171875 -15.359375 C 20.273438 -14.078125 20.335938 -13.132812 20.359375 -12.53125 C 20.410156 -10.644531 20.503906 -9.046875 20.640625 -7.734375 C 20.773438 -6.429688 21.203125 -5.148438 21.921875 -3.890625 C 23.453125 -4.265625 24.734375 -5.289062 25.765625 -6.96875 C 26.796875 -8.65625 27.726562 -10.117188 28.5625 -11.359375 C 29.019531 -12.117188 29.4375 -12.875 29.8125 -13.625 C 30.195312 -14.375 30.582031 -15.15625 30.96875 -15.96875 C 31.539062 -17.070312 32.003906 -17.828125 32.359375 -18.234375 C 32.710938 -18.640625 33.09375 -18.847656 33.5 -18.859375 C 33.695312 -18.867188 34.070312 -18.816406 34.625 -18.703125 C 34.988281 -17.503906 34.945312 -16.53125 34.5 -15.78125 C 34.050781 -15.03125 33.570312 -14.140625 33.0625 -13.109375 C 32.625 -12.222656 32.019531 -11.078125 31.25 -9.671875 C 30.476562 -8.265625 29.609375 -6.890625 28.640625 -5.546875 C 27.671875 -4.203125 26.625 -3.054688 25.5 -2.109375 C 24.382812 -1.171875 23.222656 -0.6875 22.015625 -0.65625 C 19.785156 -0.582031 18.28125 -2.519531 17.5 -6.46875 C 17.269531 -7.613281 17.09375 -9.144531 16.96875 -11.0625 C 16.84375 -12.976562 16.757812 -14.644531 16.71875 -16.0625 C 16.257812 -15.707031 15.707031 -14.914062 15.0625 -13.6875 C 14.425781 -12.457031 13.789062 -11.070312 13.15625 -9.53125 C 12.53125 -8 11.953125 -6.515625 11.421875 -5.078125 C 10.890625 -3.648438 10.46875 -2.5625 10.15625 -1.8125 C 9.40625 0.289062 8.804688 2.394531 8.359375 4.5 C 7.921875 6.601562 7.425781 8.609375 6.875 10.515625 C 6.570312 11.609375 6.207031 12.3125 5.78125 12.625 C 5.351562 12.9375 4.664062 13.109375 3.71875 13.140625 C 2.976562 13.160156 2.351562 12.535156 1.84375 11.265625 C 1.34375 9.992188 0.910156 8.40625 0.546875 6.5 C 0.191406 4.59375 -0.0820312 2.613281 -0.28125 0.5625 C -0.476562 -1.488281 -0.617188 -3.335938 -0.703125 -4.984375 C -0.785156 -6.628906 -0.835938 -7.757812 -0.859375 -8.375 Z M -0.859375 -8.375 "/></g></g></g><g fill="#fffef9" fill-opacity="1"><g transform="translate(276.276769, 240.322267)"><g><path d="M 4.109375 -18.40625 C 5.367188 -19.113281 6.753906 -20.078125 8.265625 -21.296875 C 9.785156 -22.523438 10.585938 -23.957031 10.671875 -25.59375 C 9.804688 -25.425781 8.894531 -24.921875 7.9375 -24.078125 C 6.976562 -23.242188 6.160156 -22.3125 5.484375 -21.28125 C 4.804688 -20.25 4.347656 -19.289062 4.109375 -18.40625 Z M -0.375 -15.859375 C -0.425781 -17.535156 0.0703125 -19.363281 1.125 -21.34375 C 2.1875 -23.332031 3.519531 -25.039062 5.125 -26.46875 C 6.738281 -27.90625 8.351562 -28.644531 9.96875 -28.6875 C 12.1875 -28.757812 13.375 -27.953125 13.53125 -26.265625 C 13.6875 -24.585938 13.015625 -22.75 11.515625 -20.75 C 10.734375 -19.851562 9.550781 -18.804688 7.96875 -17.609375 C 6.382812 -16.421875 4.820312 -15.738281 3.28125 -15.5625 C 3.3125 -14.488281 3.375 -13.53125 3.46875 -12.6875 C 3.5625 -11.84375 4.054688 -11 4.953125 -10.15625 C 5.859375 -9.300781 6.988281 -8.894531 8.34375 -8.9375 C 10.09375 -8.988281 11.890625 -9.597656 13.734375 -10.765625 C 15.585938 -11.929688 17.003906 -12.90625 17.984375 -13.6875 C 18.378906 -14.03125 18.691406 -14.304688 18.921875 -14.515625 C 19.148438 -14.722656 19.425781 -14.96875 19.75 -15.25 C 21.132812 -16.363281 22.003906 -17.175781 22.359375 -17.6875 C 22.710938 -18.195312 23.023438 -18.539062 23.296875 -18.71875 C 23.566406 -18.894531 24.207031 -19 25.21875 -19.03125 C 25.375 -18.300781 25.4375 -17.800781 25.40625 -17.53125 C 25.375 -17.257812 25.132812 -16.847656 24.6875 -16.296875 C 23.507812 -15.046875 22.015625 -13.617188 20.203125 -12.015625 C 18.398438 -10.421875 16.457031 -9.019531 14.375 -7.8125 C 12.289062 -6.601562 10.203125 -5.96875 8.109375 -5.90625 C 7.035156 -5.875 6.003906 -6.023438 5.015625 -6.359375 C 4.023438 -6.703125 3.082031 -7.300781 2.1875 -8.15625 C 0.9375 -9.332031 0.207031 -10.554688 0 -11.828125 C -0.207031 -13.097656 -0.332031 -14.441406 -0.375 -15.859375 Z M -0.375 -15.859375 "/></g></g></g><g fill="#fffef9" fill-opacity="1"><g transform="translate(298.187874, 239.676016)"><g><path d="M -29.703125 -44.203125 C -29.722656 -45.078125 -28.941406 -46.023438 -27.359375 -47.046875 C -25.773438 -48.078125 -23.769531 -49.097656 -21.34375 -50.109375 C -18.914062 -51.117188 -16.347656 -52.082031 -13.640625 -53 C -10.941406 -53.925781 -8.457031 -54.722656 -6.1875 -55.390625 C -3.914062 -56.066406 -2.210938 -56.59375 -1.078125 -56.96875 C 0.328125 -57.414062 1.316406 -57.679688 1.890625 -57.765625 C 2.460938 -57.847656 2.828125 -58.078125 2.984375 -58.453125 C 3.140625 -58.828125 3.300781 -59.59375 3.46875 -60.75 C 3.925781 -63.519531 4.492188 -65.4375 5.171875 -66.5 C 5.847656 -67.5625 6.519531 -68.101562 7.1875 -68.125 C 7.726562 -68.144531 8.191406 -67.875 8.578125 -67.3125 C 8.960938 -66.75 9.164062 -66.066406 9.1875 -65.265625 C 9.207031 -64.648438 9.179688 -64.394531 9.109375 -64.5 C 9.046875 -64.601562 9.054688 -64.382812 9.140625 -63.84375 C 9.140625 -63.707031 9.160156 -63.535156 9.203125 -63.328125 C 9.242188 -63.128906 9.269531 -62.863281 9.28125 -62.53125 C 9.300781 -61.65625 9.144531 -61.210938 8.8125 -61.203125 C 8.476562 -61.191406 8.144531 -61.128906 7.8125 -61.015625 C 7.476562 -60.910156 7.328125 -60.316406 7.359375 -59.234375 C 8.171875 -59.253906 9.054688 -59.394531 10.015625 -59.65625 C 10.984375 -59.925781 11.835938 -60.109375 12.578125 -60.203125 C 15.523438 -60.828125 18.472656 -61.398438 21.421875 -61.921875 C 24.367188 -62.453125 27.390625 -62.765625 30.484375 -62.859375 C 32.097656 -62.910156 33.285156 -62.609375 34.046875 -61.953125 C 34.816406 -61.296875 35.109375 -60.628906 34.921875 -59.953125 C 34.742188 -59.273438 34.015625 -58.914062 32.734375 -58.875 C 32.578125 -59.414062 32.484375 -59.664062 32.453125 -59.625 C 32.421875 -59.582031 32.097656 -59.625 31.484375 -59.75 C 31.210938 -59.8125 30.675781 -59.832031 29.875 -59.8125 C 28.457031 -59.769531 26.59375 -59.5625 24.28125 -59.1875 C 21.96875 -58.8125 19.570312 -58.382812 17.09375 -57.90625 C 14.613281 -57.425781 12.398438 -56.972656 10.453125 -56.546875 C 8.515625 -56.117188 7.242188 -55.832031 6.640625 -55.6875 L 5.234375 -34.921875 C 5.179688 -34.453125 5.179688 -33.945312 5.234375 -33.40625 C 5.285156 -32.875 5.316406 -32.335938 5.328125 -31.796875 C 5.347656 -31.117188 5.304688 -30.675781 5.203125 -30.46875 C 5.109375 -30.257812 5.070312 -29.785156 5.09375 -29.046875 C 5.144531 -27.566406 5.234375 -25.867188 5.359375 -23.953125 C 5.484375 -22.035156 5.492188 -20.535156 5.390625 -19.453125 C 5.335938 -18.847656 5.320312 -17.65625 5.34375 -15.875 C 5.363281 -14.09375 5.390625 -12.019531 5.421875 -9.65625 C 5.460938 -7.300781 5.515625 -4.925781 5.578125 -2.53125 C 5.648438 -0.144531 5.710938 2.019531 5.765625 3.96875 C 5.828125 5.925781 5.910156 7.34375 6.015625 8.21875 C 6.035156 8.957031 6.148438 10.082031 6.359375 11.59375 C 6.578125 13.101562 6.648438 14.460938 6.578125 15.671875 C 6.503906 16.890625 6.03125 17.507812 5.15625 17.53125 C 3.882812 17.570312 3.09375 16.890625 2.78125 15.484375 C 2.46875 14.078125 2.296875 12.769531 2.265625 11.5625 C 1.984375 9.144531 1.78125 6.316406 1.65625 3.078125 C 1.53125 -0.148438 1.429688 -3.378906 1.359375 -6.609375 C 1.296875 -9.847656 1.234375 -12.675781 1.171875 -15.09375 L 1.34375 -19.84375 C 1.3125 -20.789062 1.265625 -22.238281 1.203125 -24.1875 C 1.148438 -26.144531 1.125 -28.21875 1.125 -30.40625 C 1.132812 -32.59375 1.144531 -34.59375 1.15625 -36.40625 C 1.164062 -38.226562 1.226562 -39.515625 1.34375 -40.265625 C 1.457031 -40.941406 1.515625 -41.75 1.515625 -42.6875 C 1.523438 -43.632812 1.554688 -44.453125 1.609375 -45.140625 L 2.234375 -54.53125 C 1.960938 -54.457031 1.375 -54.304688 0.46875 -54.078125 C -0.425781 -53.847656 -1.140625 -53.660156 -1.671875 -53.515625 C -4.953125 -52.609375 -8.078125 -51.65625 -11.046875 -50.65625 C -14.023438 -49.664062 -17.070312 -48.519531 -20.1875 -47.21875 C -20.78125 -46.9375 -21.328125 -46.632812 -21.828125 -46.3125 C -22.328125 -45.988281 -22.875 -45.679688 -23.46875 -45.390625 C -24.269531 -45.035156 -24.785156 -44.785156 -25.015625 -44.640625 C -25.242188 -44.503906 -25.351562 -44.335938 -25.34375 -44.140625 C -25.34375 -43.941406 -25.5 -43.5 -25.8125 -42.8125 C -26.082031 -42.726562 -26.351562 -42.664062 -26.625 -42.625 C -26.894531 -42.582031 -27.195312 -42.554688 -27.53125 -42.546875 C -28.070312 -42.535156 -28.5625 -42.640625 -29 -42.859375 C -29.445312 -43.078125 -29.679688 -43.523438 -29.703125 -44.203125 Z M -29.703125 -44.203125 "/></g></g></g><path stroke-linecap="butt" transform="matrix(1.2307, 0, 0, 1.2307, 51.013441, 74.946403)" fill="none" stroke-linejoin="miter" d="M 57.406867 1.78608 C 57.406867 1.522637 57.613177 1.281413 58.022624 1.068754 C 58.435245 0.8434 58.749472 0.703743 58.96213 0.649785 C 59.400143 1.090972 59.844504 1.979694 60.298387 3.322299 C 60.764966 4.652208 61.190283 6.109078 61.574338 7.692907 C 61.961567 9.260867 62.285316 10.717736 62.551932 12.060341 C 62.831245 13.39025 62.999467 14.30119 63.050251 14.793161 C 63.650139 18.224263 64.208764 21.60458 64.726127 24.927766 C 65.246664 28.238255 65.503759 31.612225 65.503759 35.043326 C 65.452975 36.027268 65.478367 36.776334 65.583109 37.296871 C 65.691025 37.814234 65.744984 38.541082 65.744984 39.471066 L 65.665633 44.778006 C 65.665633 44.936706 65.678329 45.044623 65.703721 45.095407 C 65.732287 45.149365 65.716417 45.314413 65.665633 45.593726 C 65.332363 50.116686 64.9737 54.325419 64.586471 58.2231 C 64.215112 62.120781 63.704097 65.888327 63.050251 69.532087 C 62.39958 73.179022 61.542598 76.867218 60.476132 80.606198 C 59.412839 84.342004 58.038494 88.331731 56.346748 92.575379 C 55.962694 93.559321 55.404068 94.768618 54.674047 96.206443 C 53.940851 97.65379 53.109261 99.151922 52.179277 100.694489 C 51.249293 102.249753 50.303439 103.66536 49.344889 104.941311 C 48.402209 106.233131 47.523009 107.204378 46.713637 107.855049 C 45.621779 108.734249 44.472788 109.511881 43.263491 110.187944 C 42.063717 110.867182 40.816332 111.206801 39.511815 111.206801 C 37.769285 111.206801 36.118801 110.594217 34.563538 109.372224 C 33.02097 108.147058 31.837066 106.798105 31.014998 105.322191 C 29.923139 103.579661 29.012199 101.437207 28.279004 98.898001 C 27.548982 96.371491 26.964965 93.651367 26.523778 90.737629 C 26.085765 87.827064 25.768364 84.881586 25.568402 81.901193 C 25.381135 78.93667 25.260523 76.118152 25.209739 73.442464 C 25.155781 70.782646 25.127215 68.468795 25.127215 66.500911 C 25.127215 65.691539 25.168477 65.097999 25.247827 64.726641 C 25.339873 64.339412 25.387483 63.761742 25.387483 62.990459 C 25.387483 61.8986 25.368439 60.676608 25.327177 59.321307 C 25.301785 57.962831 25.320829 56.766231 25.387483 55.72833 C 25.495399 55.131617 25.562054 54.585688 25.587446 54.093717 C 25.612838 53.601746 25.628708 52.976466 25.628708 52.217879 C 25.628708 51.554511 25.679492 50.634049 25.787408 49.466014 C 25.89215 48.294806 25.987371 47.031551 26.066721 45.67625 C 26.146071 44.317775 26.187333 43.067216 26.187333 41.924574 L 25.787408 42.562549 C 25.73345 42.737119 25.708058 42.860906 25.708058 42.940256 C 25.708058 43.02278 25.6541 43.168784 25.546184 43.381443 L 18.766504 63.968053 C 18.271359 65.390008 17.712734 67.07858 17.090629 69.033768 C 16.465349 71.001653 15.79246 73.045713 15.075134 75.159602 C 14.370505 77.286187 13.691267 79.276289 13.040596 81.123561 C 12.38675 82.986703 11.790037 84.488009 11.244108 85.630651 C 10.593436 86.935168 10.101465 87.954025 9.768194 88.684046 C 9.44762 89.429938 9.082609 89.934605 8.669988 90.201222 C 8.257367 90.480534 7.593999 90.620191 6.676711 90.620191 C 6.18474 90.620191 5.797511 90.28692 5.518199 89.620378 C 5.251582 88.969707 5.054794 88.204771 4.921485 87.328745 C 4.775481 86.462241 4.686609 85.652869 4.661217 84.894282 C 4.635825 84.135694 4.619955 83.643723 4.619955 83.418368 C 4.673913 82.818481 4.686609 82.40586 4.661217 82.180506 C 4.635825 81.967847 4.648521 81.596488 4.702479 81.063255 C 4.927833 79.095371 5.054794 77.168748 5.080186 75.280214 C 5.105578 73.404376 5.251582 71.541234 5.518199 69.693962 C 5.959386 66.805615 6.311701 64.34576 6.575143 62.311221 C 6.854456 60.263987 7.168683 58.188186 7.514649 56.086993 C 7.873312 53.985801 8.352587 51.465639 8.9493 48.526508 L 10.187163 43.460793 C 10.291905 42.968822 10.399822 42.537157 10.504564 42.162624 C 10.61248 41.778569 10.720396 41.340556 10.825139 40.848585 L 17.128717 19.86205 C 17.341375 19.316121 17.500076 18.909848 17.607992 18.643232 C 17.728604 18.363919 17.893652 18.005256 18.106311 17.567243 C 18.985511 15.491443 19.623486 14.063139 20.020237 13.27916 C 20.432858 12.47931 21.045442 12.082559 21.857987 12.082559 C 22.242042 12.082559 22.708621 12.168257 23.25455 12.339653 C 23.467209 13.256942 23.559255 13.894917 23.533863 14.256754 C 23.505297 14.615417 23.413251 14.859815 23.25455 14.993123 C 23.092676 15.126432 22.87367 15.3867 22.594357 15.770755 C 22.32774 16.037372 21.950034 16.815003 21.458062 18.106824 C 20.966091 19.382775 20.461424 20.823774 19.940887 22.432996 C 19.423524 24.029522 18.944249 25.540349 18.506236 26.962304 C 18.080919 28.371563 17.779388 29.323765 17.607992 29.815737 C 17.236633 31.237692 16.855752 32.646951 16.471697 34.043514 C 16.084468 35.427381 15.678196 36.849336 15.252879 38.312554 L 12.221702 51.478335 C 11.783689 53.925494 11.39646 56.080645 11.063189 57.943787 C 10.745789 59.79106 10.460128 61.562156 10.206207 63.250727 C 9.968157 64.939299 9.707888 66.694525 9.428576 68.516405 C 9.161959 70.338285 8.86995 72.471218 8.55255 74.918377 C 8.324021 76.502207 8.184365 78.136821 8.133581 79.828566 C 8.079623 81.517138 8.051056 83.310452 8.051056 85.211682 L 8.6319 83.996038 C 9.228613 82.691521 9.866589 81.110865 10.545826 79.247723 C 11.225064 77.400451 11.888431 75.550005 12.542277 73.702733 C 13.205644 71.855461 13.751573 70.246239 14.17689 68.875068 L 25.127215 35.379771 C 25.406527 34.503745 25.720754 33.567413 26.066721 32.567601 C 26.425384 31.558266 26.984009 30.939335 27.742597 30.713981 C 27.913993 30.660022 28.107607 30.63463 28.320266 30.63463 C 29.078854 30.63463 29.589869 31.098035 29.856485 32.031193 C 30.135798 32.961178 30.275454 34.091124 30.275454 35.421033 C 30.275454 36.750942 30.234192 38.061807 30.154842 39.350454 C 30.075492 40.626405 30.037404 41.645261 30.037404 42.403849 L 29.21851 56.467874 C 29.110594 57.556559 29.085202 58.781725 29.13916 60.137026 C 29.189944 61.495501 29.21851 62.742886 29.21851 63.888703 C 29.21851 64.434632 29.189944 65.050389 29.13916 65.742323 C 29.085202 66.42156 29.059809 66.945272 29.059809 67.319804 C 29.110594 68.03713 29.126464 68.491013 29.097898 68.675105 C 29.072505 68.862372 29.043939 69.113118 29.018547 69.433693 C 28.993155 69.766964 29.005851 70.538248 29.059809 71.747544 C 29.164552 72.890187 29.205814 74.442276 29.177248 76.394291 C 29.151856 78.349479 29.21851 80.120575 29.37721 81.701231 C 29.551781 83.072402 29.662871 84.269002 29.716829 85.294207 C 29.770787 86.328933 29.850137 87.408095 29.954879 88.525346 C 30.062796 89.642596 30.281802 91.045507 30.615073 92.734079 C 30.827731 93.825938 31.132436 95.228849 31.532361 96.942813 C 31.944982 98.65995 32.490911 100.361218 33.166975 102.04979 C 33.858908 103.738362 34.738108 105.153969 35.801401 106.299786 C 36.864693 107.442428 38.156514 108.013749 39.670515 108.013749 C 41.041686 108.013749 42.377943 107.46782 43.68246 106.379136 C 44.983803 105.287277 46.20897 103.938324 47.351612 102.329103 C 48.494255 100.732577 49.500415 99.129704 50.363745 97.520482 C 51.242945 95.91126 51.925357 94.562307 52.417328 93.470449 C 54.055115 90.093305 55.458026 86.497155 56.626061 82.678825 C 57.79727 78.876364 58.774864 75.000902 59.558844 71.049263 C 60.358693 67.100798 60.977625 63.295163 61.415638 59.638707 C 62.120267 53.760446 62.513844 47.583828 62.593194 41.10568 C 62.672545 34.618009 62.278968 28.431869 61.415638 22.553608 C 60.869709 19.176465 60.298387 16.291292 59.6985 13.894917 C 59.101787 11.48902 58.555857 8.841898 58.063886 5.956725 C 57.95597 5.198137 57.816314 4.493508 57.644917 3.842836 C 57.486217 3.192165 57.406867 2.506579 57.406867 1.78608 Z M 76.68896 67.319804 C 75.597102 67.319804 74.625855 66.96749 73.775221 66.26286 C 72.937284 65.55823 72.299308 64.825035 71.861295 64.066447 C 70.890049 62.206479 70.331424 60.010066 70.185419 57.483556 C 70.052111 54.944351 70.204463 52.643196 70.642476 50.583265 C 70.750393 49.983378 70.896397 49.266052 71.080489 48.428114 C 71.280452 47.57748 71.566113 46.825241 71.940645 46.174569 C 72.3247 45.508028 72.791279 45.174757 73.337208 45.174757 C 74.587767 45.174757 75.197177 45.603248 75.171785 46.453882 C 75.143219 47.29182 74.911516 48.599511 74.473503 50.383303 C 74.048186 52.151224 73.835528 54.417466 73.835528 57.1852 C 73.835528 58.010442 73.94027 58.994384 74.152928 60.137026 C 74.365587 61.282843 74.705206 62.292177 75.171785 63.171377 C 75.638364 64.034707 76.222381 64.466372 76.927011 64.466372 C 77.803036 64.466372 78.802849 64.088665 79.920099 63.330077 C 81.03735 62.558794 82.065728 61.701812 83.011582 60.755958 C 83.970132 59.797408 84.639848 59.073734 85.027077 58.581763 C 85.131819 58.473847 85.430176 58.108836 85.922147 57.483556 C 86.417292 56.858277 87.001309 56.153647 87.680547 55.369668 C 88.35661 54.572992 89.023152 53.87471 89.673823 53.274823 C 90.324494 52.67811 90.845032 52.376579 91.229086 52.376579 C 91.616315 52.376579 91.80993 52.703502 91.80993 53.354173 C 91.80993 53.741402 91.549661 54.325419 91.029124 55.109399 C 90.511761 55.896553 89.89283 56.724969 89.175504 57.604169 C 88.470874 58.467499 87.778941 59.286392 87.099703 60.057676 C 86.42364 60.816264 85.915799 61.362193 85.585702 61.69229 C 84.931856 62.346135 84.154225 63.123767 83.249633 64.028359 C 82.360911 64.920255 81.367446 65.691539 80.278762 66.34221 C 79.186904 66.992882 77.990303 67.319804 76.68896 67.319804 Z M 74.073578 34.881452 C 74.073578 33.964164 74.321151 33.167488 74.813122 32.488251 C 75.305093 31.796317 75.851022 31.45035 76.447735 31.45035 C 77.098407 31.45035 77.644336 31.862971 78.082349 32.688213 C 78.840937 34.205388 78.936157 35.389293 78.361662 36.239927 C 77.79034 37.077865 77.092059 37.496834 76.269991 37.496834 C 75.736758 37.496834 75.238439 37.284175 74.77186 36.858858 C 74.308455 36.417671 74.073578 35.760652 74.073578 34.881452 Z M 91.384613 61.03527 C 91.384613 61.527241 91.498877 61.774814 91.724232 61.774814 C 92.098764 61.774814 92.597084 61.228885 93.222363 60.137026 C 93.860338 59.048342 94.530054 57.683519 95.234683 56.048905 C 95.939313 54.411118 96.618551 52.763808 97.269222 51.100628 C 97.923067 49.437448 98.468997 47.983753 98.90701 46.733194 C 99.345023 45.482636 99.564029 44.74944 99.564029 44.536781 C 98.634045 44.644698 97.910371 44.930358 97.389834 45.396937 C 96.885167 45.847646 96.41224 46.374532 95.974227 46.971245 C 94.552272 48.726471 93.428673 50.868926 92.603432 53.395435 C 91.790886 55.921945 91.384613 58.467499 91.384613 61.03527 Z M 100.703498 42.324499 C 100.703498 41.724611 100.795544 41.207248 100.98281 40.766061 C 101.179599 40.328048 101.360517 39.836077 101.519218 39.290148 L 103.236355 30.076005 C 103.407752 29.476118 103.614062 28.577874 103.855287 27.381273 C 104.093337 26.171976 104.432956 25.019812 104.870969 23.931127 C 105.308982 22.839269 105.854911 22.242556 106.505583 22.134639 C 106.613499 22.134639 106.692849 22.121943 106.746807 22.096551 C 106.813461 22.067985 106.873767 22.055289 106.924552 22.055289 C 107.683139 22.055289 108.114804 22.480606 108.222721 23.33124 C 108.327463 24.169178 108.254461 25.188034 108.003714 26.384635 C 107.762489 27.581236 107.464133 28.723878 107.10547 29.815737 C 106.759503 30.907595 106.534149 31.697923 106.426232 32.189894 C 105.12489 36.604938 104.280604 41.127898 103.893375 45.7556 C 103.50932 50.383303 103.353794 55.042745 103.436318 59.737101 C 103.528364 64.418762 103.601366 69.049638 103.655324 73.623383 C 103.706108 75.365912 103.855287 76.768824 104.093337 77.832116 C 104.347258 78.895408 104.445652 79.6413 104.391694 80.066617 C 104.337736 80.50463 103.820373 80.723636 102.83643 80.723636 C 102.236543 80.723636 101.760442 80.053921 101.398605 78.711316 C 101.039942 77.381407 100.782848 75.638877 100.620973 73.483726 C 100.462273 71.341271 100.382923 69.049638 100.382923 66.602479 C 100.382923 64.139449 100.408315 61.7399 100.462273 59.400657 C 100.516231 57.058239 100.570189 55.042745 100.620973 53.354173 C 100.674932 51.665601 100.703498 50.548351 100.703498 50.002422 C 100.487665 50.21508 100.357531 50.354736 100.303573 50.421391 C 100.249615 50.475349 100.170264 50.688007 100.062348 51.06254 L 97.189872 58.004094 C 96.818513 58.826161 96.386848 59.75932 95.894877 60.79722 C 95.402906 61.831946 94.783974 62.73019 94.038083 63.488778 C 93.308061 64.247366 92.422513 64.625072 91.384613 64.625072 C 90.24197 64.625072 89.464339 64.082317 89.051718 62.990459 C 88.651793 61.8986 88.534354 60.495689 88.693055 58.781725 C 88.851755 57.064587 89.245332 55.255403 89.870611 53.354173 C 90.508587 51.452943 91.298915 49.643759 92.244769 47.929795 C 93.200145 46.212657 94.266611 44.809746 95.434646 43.721062 C 96.605855 42.629203 97.815151 42.083274 99.06571 42.083274 C 99.503723 42.083274 99.7386 42.124536 99.763992 42.203886 C 99.789384 42.283236 100.10361 42.324499 100.703498 42.324499 Z M 106.33736 60.216377 L 106.835679 50.980016 C 106.886464 50.383303 106.940422 49.665977 106.99438 48.828039 C 107.048338 47.974231 107.102296 47.250558 107.15308 46.653844 C 107.273692 43.927372 107.619659 41.23264 108.19098 38.572822 C 108.762302 35.900308 109.374885 33.253186 110.025557 30.63463 C 110.400089 29.542772 110.692098 28.825446 110.904756 28.47948 C 111.130111 28.120817 111.434816 27.939898 111.822045 27.939898 C 111.980745 27.939898 112.168011 27.952594 112.38067 27.98116 C 112.606024 28.006552 112.853597 28.047815 113.117039 28.098599 C 113.396352 29.361854 113.345568 30.853637 112.958339 32.567601 C 112.58698 34.284739 112.288624 35.84635 112.060095 37.255609 C 111.463382 41.019982 110.971411 45.162061 110.584182 49.685021 C 110.212823 54.204807 110.025557 58.508761 110.025557 62.590534 L 110.266781 71.747544 L 110.923801 70.192281 C 111.682388 68.011738 112.320364 66.173988 112.837727 64.685379 C 113.358264 63.184073 113.954977 61.69229 114.634215 60.216377 C 115.313452 58.740463 116.224392 56.947149 117.367035 54.830086 C 117.966922 53.741402 118.55094 52.817766 119.122261 52.059178 C 119.693582 51.287895 120.585478 50.900666 121.794775 50.900666 C 122.394662 50.900666 122.813631 51.338679 123.051682 52.217879 C 123.292906 53.081209 123.438911 54.033411 123.492869 55.071311 C 123.559523 56.109211 123.591263 56.874147 123.591263 57.366118 C 123.591263 58.88012 123.632525 60.17194 123.711875 61.235233 C 123.791225 62.298525 124.102278 63.349122 124.648207 64.387022 C 125.898766 64.107709 126.95571 63.301511 127.822214 61.971602 C 128.69824 60.641693 129.488568 59.486355 130.193198 58.502413 C 130.580427 57.902525 130.932741 57.305812 131.253316 56.705925 C 131.583413 56.109211 131.916683 55.483932 132.249954 54.830086 C 132.741925 53.954061 133.132328 53.354173 133.427511 53.036772 C 133.732216 52.703502 134.043268 52.538453 134.363843 52.538453 C 134.538413 52.538453 134.83677 52.589237 135.262087 52.697154 C 135.5414 53.681096 135.487441 54.471424 135.103387 55.071311 C 134.728854 55.668024 134.322581 56.372654 133.884568 57.1852 C 133.500513 57.902525 132.979976 58.819813 132.329304 59.937064 C 131.678633 61.054314 130.939089 62.146173 130.113847 63.209465 C 129.304476 64.260062 128.431624 65.158306 127.50164 65.904197 C 126.584352 66.634219 125.632149 66.99923 124.648207 66.99923 C 122.854893 66.99923 121.683685 65.390008 121.137755 62.171565 C 120.979055 61.254277 120.864791 60.016414 120.798137 58.461151 C 120.744179 56.905887 120.718786 55.556934 120.718786 54.411118 C 120.347428 54.69043 119.887197 55.322058 119.341267 56.306 C 118.798512 57.277246 118.252583 58.375452 117.706654 59.597445 C 117.160724 60.822612 116.656057 62.012865 116.189478 63.171377 C 115.726073 64.31402 115.361062 65.183698 115.094446 65.783585 C 114.4406 67.472157 113.910541 69.154381 113.49792 70.830256 C 113.085299 72.518828 112.63459 74.12805 112.142619 75.657921 C 111.876003 76.533947 111.561776 77.092572 111.203113 77.333797 C 110.857146 77.584543 110.298521 77.711504 109.527237 77.711504 C 108.930524 77.711504 108.438553 77.19414 108.051324 76.15624 C 107.679965 75.11834 107.365739 73.823345 107.114992 72.264907 C 106.873767 70.709644 106.702371 69.100422 106.594455 67.440417 C 106.489713 65.789933 106.423058 64.301324 106.394492 62.971415 C 106.356404 61.625636 106.33736 60.708348 106.33736 60.216377 Z M 134.128966 99.754983 C 135.709622 99.754983 137.128403 99.291578 138.375788 98.35842 C 139.626347 97.441132 140.724553 96.330229 141.667233 95.028886 C 142.625783 93.724369 143.431981 92.502377 144.082653 91.35656 C 144.695236 90.213918 145.364952 88.579304 146.098147 86.449545 C 146.828169 84.32296 147.520102 82.015457 148.170774 79.527036 C 148.824619 77.054484 149.383245 74.712067 149.84665 72.506132 C 150.313229 70.312893 150.598889 68.583059 150.706806 67.319804 C 150.05296 67.703859 149.456247 68.11648 148.910317 68.554493 L 140.91182 75.657921 C 140.683291 75.883276 140.464285 76.143544 140.251626 76.435553 C 140.038968 76.740257 139.766003 77.029092 139.435906 77.292535 C 138.131389 78.597052 136.960181 79.901569 135.92228 81.202911 C 134.887554 82.520124 133.849654 83.970646 132.811753 85.551301 C 132.319782 86.255931 131.799245 87.154175 131.25649 88.246033 C 130.710561 89.334718 130.2662 90.49323 129.920233 91.715223 C 129.558396 92.94039 129.428262 94.149686 129.520308 95.346287 C 129.599658 96.542888 130.044019 97.580788 130.856565 98.459988 C 131.561195 99.323318 132.653053 99.754983 134.128966 99.754983 Z M 136.004805 59.819626 C 136.814176 59.378439 137.766379 58.521457 138.855063 57.245506 C 139.946921 55.953685 141.089564 54.426988 142.286165 52.655892 C 143.482765 50.88797 144.653974 49.06609 145.796617 47.190251 C 146.955129 45.301717 148.005725 43.559187 148.95158 41.965836 C 149.906956 40.356614 150.659195 39.058445 151.205125 38.074503 C 151.855796 36.982645 152.300157 36.265319 152.541382 35.919352 C 152.792128 35.560689 153.350753 35.379771 154.217257 35.379771 C 154.65527 35.379771 154.982193 35.693998 155.194852 36.319277 C 155.420206 36.944556 155.585254 37.709492 155.693171 38.614084 C 155.797913 39.502806 155.851871 40.362962 155.851871 41.18503 C 155.851871 41.997576 155.851871 42.622855 155.851871 43.060868 L 155.851871 49.345402 C 155.851871 50.716573 155.785217 52.163921 155.651909 53.693792 C 155.5186 55.210967 155.394814 56.626574 155.274202 57.943787 C 155.166285 59.24513 155.115501 60.276683 155.115501 61.03527 L 166.80537 54.252417 C 167.084682 54.093717 167.656003 53.712836 168.519333 53.116123 C 169.398533 52.516235 170.134903 52.217879 170.73479 52.217879 C 171.226761 52.217879 171.47116 52.516235 171.47116 53.116123 C 171.47116 53.487481 171.020451 54.008019 170.115859 54.671386 C 169.211267 55.322058 168.252717 55.921945 167.243382 56.467874 C 166.246744 57.013803 165.580203 57.39151 165.246932 57.604169 C 163.55836 58.534153 161.882485 59.533965 160.222479 60.597257 C 158.571995 61.647854 156.956425 62.717494 155.372596 63.809353 C 154.988541 64.088665 154.782231 64.320368 154.753665 64.507634 C 154.728273 64.691727 154.661618 65.085303 154.556876 65.682017 C 154.169647 68.357705 153.623718 71.382533 152.919088 74.759677 C 152.214459 78.136821 151.344781 81.428266 150.306881 84.634013 C 149.26898 87.852456 148.07238 90.553536 146.717079 92.734079 C 145.945795 94.209993 144.920591 95.666862 143.64464 97.101513 C 142.365515 98.552034 140.937212 99.748635 139.353382 100.694489 C 137.772727 101.649865 136.084155 102.12914 134.287667 102.12914 C 132.265824 102.12914 130.577252 101.443555 129.221951 100.075558 C 127.863476 98.717083 127.187413 96.815852 127.187413 94.368693 C 127.187413 92.575379 127.650818 90.639235 128.580802 88.563434 C 129.501264 86.503503 130.729605 84.395963 132.272172 82.240812 C 133.827436 80.085661 135.503312 78.02573 137.2998 76.057846 C 139.108984 74.102658 140.91182 72.318866 142.705134 70.709644 C 144.501622 69.113118 146.110843 67.799079 147.532798 66.761179 C 147.799415 66.481867 148.037466 66.275556 148.253298 66.142248 C 148.478653 66.008939 148.751617 65.831195 149.069018 65.602667 C 149.840302 64.951995 150.398927 64.507634 150.744894 64.26641 C 151.103556 64.015663 151.309867 63.536388 151.363825 62.831758 C 151.697096 60.051328 151.995452 57.489904 152.262069 55.150661 C 152.541382 52.808244 152.747692 50.402347 152.881 47.929795 C 153.014309 45.441373 153.080963 42.648247 153.080963 39.550416 C 152.919088 39.658333 152.468379 40.296308 151.722488 41.464343 C 150.992466 42.635551 150.160876 44.000374 149.227718 45.555638 C 148.31043 47.110901 147.440752 48.555074 146.61551 49.884983 C 145.806139 51.214892 145.231643 52.125832 144.901547 52.617804 C 144.089001 53.919146 143.09871 55.461714 141.927502 57.245506 C 140.756293 59.013428 139.626347 60.409991 138.537662 61.435195 C 137.499762 62.365179 136.54756 62.831758 135.68423 62.831758 C 134.80503 62.831758 134.06866 62.412789 133.468773 61.574852 C 132.87206 60.724218 132.570529 59.591097 132.570529 58.181838 C 132.570529 57.305812 132.678445 56.213954 132.891104 54.912611 C 133.116458 53.595398 133.443381 52.297229 133.868698 51.021278 C 134.306711 49.745327 134.814552 48.672513 135.385873 47.809183 C 135.957195 46.933157 136.569778 46.49197 137.220449 46.49197 C 138.150433 46.49197 138.617012 46.818893 138.617012 47.469564 C 138.617012 48.123409 138.398006 49.03435 137.956819 50.202384 C 137.531502 51.373593 137.099837 52.776504 136.661824 54.411118 C 136.223811 56.048905 136.004805 57.851741 136.004805 59.819626 Z M 168.519333 58.740463 C 168.519333 57.597821 168.792298 56.182214 169.338227 54.493642 C 169.884156 52.801896 170.642744 51.12602 171.61399 49.466014 C 172.597932 47.802835 173.727879 46.431664 175.00383 45.355675 C 176.292477 44.263817 177.644604 43.721062 179.053863 43.721062 C 180.371076 43.721062 181.434368 44.098768 182.246914 44.857356 C 183.068982 45.615944 183.560953 46.393576 183.722827 47.190251 C 183.881528 47.974231 183.608563 48.367808 182.903934 48.367808 C 182.358004 48.367808 181.799379 48.056755 181.228058 47.431476 C 180.656736 46.806197 179.990195 46.49197 179.231607 46.49197 C 178.634894 46.49197 177.91122 46.844285 177.057412 47.548914 C 176.219475 48.253544 175.197444 49.643759 173.988148 51.71956 C 173.442218 52.595585 172.934377 53.728706 172.470972 55.109399 C 172.017089 56.493266 171.791735 57.870785 171.791735 59.238782 C 171.899651 59.13404 171.937739 59.092778 171.912347 59.121344 C 171.883781 59.146736 171.979001 59.048342 172.19166 58.819813 L 172.848679 57.842219 C 173.289866 57.191548 173.794533 56.347262 174.365854 55.309362 C 174.937176 54.271461 175.521193 53.227213 176.12108 52.176617 C 176.720968 51.113324 177.263723 50.21508 177.755694 49.485059 C 178.247665 48.739167 178.628546 48.367808 178.895163 48.367808 C 179.879105 48.367808 180.450426 48.726471 180.609126 49.443796 C 180.767827 50.148426 180.834481 51.021278 180.809089 52.059178 C 180.783697 53.081209 180.882091 54.112761 181.107445 55.150661 C 181.42802 56.626574 181.926339 57.702563 182.605577 58.3818 C 183.29751 59.061038 184.075142 59.400657 184.938472 59.400657 C 186.468343 59.400657 188.156915 58.473847 190.004187 56.626574 C 190.775471 55.921945 191.3214 55.337928 191.641975 54.871349 C 191.975246 54.40477 192.413259 53.87471 192.959188 53.274823 C 193.330547 52.728894 193.81617 52.455929 194.412883 52.455929 C 195.012771 52.455929 195.273039 52.96377 195.190515 53.973105 C 195.111165 54.969743 194.041524 56.48057 191.981594 58.502413 L 189.528086 60.457601 C 187.944257 61.546285 186.414385 62.092215 184.938472 62.092215 C 183.583171 62.092215 182.399266 61.685942 181.386758 60.87657 C 180.377424 60.051328 179.599792 59.041994 179.053863 57.842219 C 178.507934 56.645619 178.234969 55.477584 178.234969 54.331767 C 177.86361 54.61108 177.431945 55.217315 176.939974 56.147299 C 176.448003 57.064587 175.91477 58.054878 175.343449 59.121344 C 174.772127 60.184636 174.184936 61.108273 173.588223 61.892252 C 172.988335 62.676232 172.391622 63.069809 171.791735 63.069809 C 170.261863 63.069809 169.331879 62.717494 168.998608 62.012865 C 168.681208 61.308235 168.519333 60.216377 168.519333 58.740463 Z M 168.519333 58.740463 " stroke="#fffef9" stroke-width="1.123552" stroke-opacity="1" stroke-miterlimit="4"/><g fill="#fffef9" fill-opacity="1"><g transform="translate(57.609223, 157.403292)"><g><path d="M 64.0625 -80.25 C 64.0625 -80.582031 64.3125 -80.882812 64.8125 -81.15625 C 65.3125 -81.425781 65.695312 -81.59375 65.96875 -81.65625 C 66.507812 -81.125 67.0625 -80.035156 67.625 -78.390625 C 68.195312 -76.742188 68.71875 -74.945312 69.1875 -73 C 69.65625 -71.0625 70.054688 -69.269531 70.390625 -67.625 C 70.722656 -65.988281 70.925781 -64.867188 71 -64.265625 C 71.738281 -60.035156 72.425781 -55.875 73.0625 -51.78125 C 73.695312 -47.695312 74.015625 -43.539062 74.015625 -39.3125 C 73.941406 -38.113281 73.972656 -37.191406 74.109375 -36.546875 C 74.242188 -35.910156 74.3125 -35.023438 74.3125 -33.890625 L 74.21875 -27.359375 C 74.21875 -27.148438 74.234375 -27.007812 74.265625 -26.9375 C 74.296875 -26.875 74.28125 -26.675781 74.21875 -26.34375 C 73.8125 -20.78125 73.375 -15.601562 72.90625 -10.8125 C 72.4375 -6.019531 71.800781 -1.378906 71 3.109375 C 70.195312 7.609375 69.140625 12.148438 67.828125 16.734375 C 66.523438 21.328125 64.832031 26.238281 62.75 31.46875 C 62.28125 32.675781 61.59375 34.164062 60.6875 35.9375 C 59.78125 37.71875 58.753906 39.5625 57.609375 41.46875 C 56.472656 43.382812 55.316406 45.128906 54.140625 46.703125 C 52.972656 48.285156 51.890625 49.476562 50.890625 50.28125 C 49.546875 51.351562 48.132812 52.304688 46.65625 53.140625 C 45.1875 53.984375 43.644531 54.40625 42.03125 54.40625 C 39.882812 54.40625 37.851562 53.648438 35.9375 52.140625 C 34.03125 50.628906 32.578125 48.96875 31.578125 47.15625 C 30.234375 45.019531 29.109375 42.390625 28.203125 39.265625 C 27.296875 36.148438 26.570312 32.796875 26.03125 29.203125 C 25.5 25.617188 25.113281 22 24.875 18.34375 C 24.644531 14.695312 24.5 11.226562 24.4375 7.9375 C 24.375 4.65625 24.34375 1.804688 24.34375 -0.609375 C 24.34375 -1.609375 24.390625 -2.34375 24.484375 -2.8125 C 24.585938 -3.28125 24.640625 -3.984375 24.640625 -4.921875 C 24.640625 -6.265625 24.617188 -7.773438 24.578125 -9.453125 C 24.546875 -11.128906 24.566406 -12.601562 24.640625 -13.875 C 24.773438 -14.613281 24.859375 -15.285156 24.890625 -15.890625 C 24.921875 -16.492188 24.9375 -17.265625 24.9375 -18.203125 C 24.9375 -19.003906 25.003906 -20.125 25.140625 -21.5625 C 25.273438 -23.007812 25.390625 -24.570312 25.484375 -26.25 C 25.585938 -27.925781 25.640625 -29.46875 25.640625 -30.875 L 25.140625 -30.0625 C 25.078125 -29.863281 25.046875 -29.710938 25.046875 -29.609375 C 25.046875 -29.515625 24.976562 -29.332031 24.84375 -29.0625 L 16.5 -3.71875 C 15.894531 -1.976562 15.207031 0.0976562 14.4375 2.515625 C 13.664062 4.929688 12.84375 7.445312 11.96875 10.0625 C 11.09375 12.675781 10.253906 15.117188 9.453125 17.390625 C 8.648438 19.671875 7.910156 21.515625 7.234375 22.921875 C 6.429688 24.535156 5.828125 25.796875 5.421875 26.703125 C 5.023438 27.609375 4.570312 28.226562 4.0625 28.5625 C 3.5625 28.894531 2.742188 29.0625 1.609375 29.0625 C 1.003906 29.0625 0.535156 28.660156 0.203125 27.859375 C -0.128906 27.054688 -0.378906 26.117188 -0.546875 25.046875 C -0.710938 23.972656 -0.8125 22.960938 -0.84375 22.015625 C -0.882812 21.078125 -0.90625 20.476562 -0.90625 20.21875 C -0.832031 19.476562 -0.8125 18.972656 -0.84375 18.703125 C -0.882812 18.429688 -0.867188 17.960938 -0.796875 17.296875 C -0.535156 14.878906 -0.382812 12.515625 -0.34375 10.203125 C -0.3125 7.890625 -0.128906 5.59375 0.203125 3.3125 C 0.734375 -0.238281 1.164062 -3.269531 1.5 -5.78125 C 1.84375 -8.289062 2.226562 -10.835938 2.65625 -13.421875 C 3.09375 -16.003906 3.679688 -19.109375 4.421875 -22.734375 L 5.9375 -28.96875 C 6.070312 -29.5625 6.203125 -30.09375 6.328125 -30.5625 C 6.460938 -31.039062 6.597656 -31.582031 6.734375 -32.1875 L 14.484375 -58.03125 C 14.753906 -58.695312 14.953125 -59.195312 15.078125 -59.53125 C 15.210938 -59.863281 15.414062 -60.300781 15.6875 -60.84375 C 16.757812 -63.382812 17.546875 -65.140625 18.046875 -66.109375 C 18.554688 -67.085938 19.3125 -67.578125 20.3125 -67.578125 C 20.78125 -67.578125 21.347656 -67.476562 22.015625 -67.28125 C 22.285156 -66.132812 22.40625 -65.34375 22.375 -64.90625 C 22.34375 -64.476562 22.222656 -64.175781 22.015625 -64 C 21.816406 -63.832031 21.550781 -63.515625 21.21875 -63.046875 C 20.882812 -62.710938 20.414062 -61.757812 19.8125 -60.1875 C 19.207031 -58.613281 18.585938 -56.835938 17.953125 -54.859375 C 17.316406 -52.878906 16.726562 -51.015625 16.1875 -49.265625 C 15.65625 -47.523438 15.285156 -46.351562 15.078125 -45.75 C 14.609375 -44.007812 14.140625 -42.285156 13.671875 -40.578125 C 13.203125 -38.867188 12.703125 -37.109375 12.171875 -35.296875 L 8.453125 -19.109375 C 7.910156 -16.085938 7.4375 -13.4375 7.03125 -11.15625 C 6.632812 -8.882812 6.285156 -6.707031 5.984375 -4.625 C 5.679688 -2.550781 5.363281 -0.390625 5.03125 1.859375 C 4.695312 4.109375 4.328125 6.738281 3.921875 9.75 C 3.648438 11.695312 3.476562 13.707031 3.40625 15.78125 C 3.34375 17.863281 3.3125 20.078125 3.3125 22.421875 L 4.015625 20.921875 C 4.753906 19.304688 5.539062 17.359375 6.375 15.078125 C 7.21875 12.804688 8.039062 10.53125 8.84375 8.25 C 9.65625 5.96875 10.328125 3.988281 10.859375 2.3125 L 24.34375 -38.921875 C 24.675781 -39.992188 25.054688 -41.148438 25.484375 -42.390625 C 25.921875 -43.628906 26.609375 -44.382812 27.546875 -44.65625 C 27.753906 -44.71875 27.992188 -44.75 28.265625 -44.75 C 29.203125 -44.75 29.835938 -44.175781 30.171875 -43.03125 C 30.503906 -41.894531 30.671875 -40.503906 30.671875 -38.859375 C 30.671875 -37.222656 30.617188 -35.613281 30.515625 -34.03125 C 30.421875 -32.457031 30.375 -31.203125 30.375 -30.265625 L 29.359375 -12.96875 C 29.222656 -11.632812 29.1875 -10.128906 29.25 -8.453125 C 29.320312 -6.773438 29.359375 -5.234375 29.359375 -3.828125 C 29.359375 -3.148438 29.320312 -2.390625 29.25 -1.546875 C 29.1875 -0.710938 29.15625 -0.0625 29.15625 0.40625 C 29.226562 1.269531 29.242188 1.816406 29.203125 2.046875 C 29.171875 2.285156 29.140625 2.609375 29.109375 3.015625 C 29.078125 3.421875 29.09375 4.359375 29.15625 5.828125 C 29.289062 7.234375 29.34375 9.144531 29.3125 11.5625 C 29.28125 13.976562 29.363281 16.15625 29.5625 18.09375 C 29.757812 19.769531 29.890625 21.242188 29.953125 22.515625 C 30.023438 23.796875 30.128906 25.125 30.265625 26.5 C 30.398438 27.875 30.671875 29.597656 31.078125 31.671875 C 31.335938 33.015625 31.71875 34.742188 32.21875 36.859375 C 32.726562 38.972656 33.398438 41.066406 34.234375 43.140625 C 35.078125 45.222656 36.148438 46.96875 37.453125 48.375 C 38.765625 49.78125 40.359375 50.484375 42.234375 50.484375 C 43.910156 50.484375 45.550781 49.8125 47.15625 48.46875 C 48.769531 47.125 50.28125 45.460938 51.6875 43.484375 C 53.09375 41.515625 54.332031 39.539062 55.40625 37.5625 C 56.476562 35.582031 57.316406 33.921875 57.921875 32.578125 C 59.929688 28.421875 61.65625 23.992188 63.09375 19.296875 C 64.539062 14.609375 65.75 9.832031 66.71875 4.96875 C 67.695312 0.113281 68.453125 -4.554688 68.984375 -9.046875 C 69.859375 -16.285156 70.34375 -23.894531 70.4375 -31.875 C 70.539062 -39.851562 70.054688 -47.460938 68.984375 -54.703125 C 68.316406 -58.859375 67.613281 -62.410156 66.875 -65.359375 C 66.132812 -68.316406 65.460938 -71.570312 64.859375 -75.125 C 64.722656 -76.0625 64.554688 -76.929688 64.359375 -77.734375 C 64.160156 -78.535156 64.0625 -79.375 64.0625 -80.25 Z M 64.0625 -80.25 "/></g></g></g><g fill="#fffef9" fill-opacity="1"><g transform="translate(137.04538, 157.403292)"><g><path d="M 8.34375 0.40625 C 7 0.40625 5.804688 -0.03125 4.765625 -0.90625 C 3.734375 -1.78125 2.945312 -2.6875 2.40625 -3.625 C 1.207031 -5.90625 0.519531 -8.601562 0.34375 -11.71875 C 0.175781 -14.832031 0.363281 -17.664062 0.90625 -20.21875 C 1.039062 -20.945312 1.222656 -21.832031 1.453125 -22.875 C 1.691406 -23.914062 2.046875 -24.835938 2.515625 -25.640625 C 2.984375 -26.441406 3.550781 -26.84375 4.21875 -26.84375 C 5.757812 -26.84375 6.515625 -26.320312 6.484375 -25.28125 C 6.453125 -24.25 6.164062 -22.644531 5.625 -20.46875 C 5.09375 -18.289062 4.828125 -15.488281 4.828125 -12.0625 C 4.828125 -11.0625 4.957031 -9.851562 5.21875 -8.4375 C 5.488281 -7.03125 5.910156 -5.789062 6.484375 -4.71875 C 7.054688 -3.65625 7.773438 -3.125 8.640625 -3.125 C 9.710938 -3.125 10.9375 -3.59375 12.3125 -4.53125 C 13.6875 -5.46875 14.960938 -6.519531 16.140625 -7.6875 C 17.316406 -8.863281 18.140625 -9.753906 18.609375 -10.359375 C 18.742188 -10.492188 19.109375 -10.945312 19.703125 -11.71875 C 20.304688 -12.488281 21.023438 -13.359375 21.859375 -14.328125 C 22.703125 -15.296875 23.523438 -16.148438 24.328125 -16.890625 C 25.140625 -17.628906 25.78125 -18 26.25 -18 C 26.71875 -18 26.953125 -17.597656 26.953125 -16.796875 C 26.953125 -16.328125 26.632812 -15.601562 26 -14.625 C 25.363281 -13.65625 24.609375 -12.632812 23.734375 -11.5625 C 22.859375 -10.488281 22 -9.484375 21.15625 -8.546875 C 20.320312 -7.609375 19.707031 -6.9375 19.3125 -6.53125 C 18.5 -5.726562 17.539062 -4.773438 16.4375 -3.671875 C 15.332031 -2.566406 14.109375 -1.609375 12.765625 -0.796875 C 11.429688 0.00390625 9.957031 0.40625 8.34375 0.40625 Z M 5.125 -39.515625 C 5.125 -40.660156 5.425781 -41.648438 6.03125 -42.484375 C 6.632812 -43.328125 7.304688 -43.75 8.046875 -43.75 C 8.847656 -43.75 9.519531 -43.242188 10.0625 -42.234375 C 11 -40.359375 11.113281 -38.898438 10.40625 -37.859375 C 9.707031 -36.816406 8.851562 -36.296875 7.84375 -36.296875 C 7.175781 -36.296875 6.554688 -36.5625 5.984375 -37.09375 C 5.410156 -37.632812 5.125 -38.441406 5.125 -39.515625 Z M 5.125 -39.515625 "/></g></g></g><g fill="#fffef9" fill-opacity="1"><g transform="translate(159.971258, 157.403292)"><g><path d="M 3.515625 -7.34375 C 3.515625 -6.738281 3.648438 -6.4375 3.921875 -6.4375 C 4.390625 -6.4375 5.007812 -7.101562 5.78125 -8.4375 C 6.550781 -9.78125 7.367188 -11.457031 8.234375 -13.46875 C 9.109375 -15.488281 9.945312 -17.519531 10.75 -19.5625 C 11.5625 -21.601562 12.234375 -23.394531 12.765625 -24.9375 C 13.304688 -26.476562 13.578125 -27.382812 13.578125 -27.65625 C 12.429688 -27.519531 11.539062 -27.164062 10.90625 -26.59375 C 10.269531 -26.03125 9.6875 -25.378906 9.15625 -24.640625 C 7.40625 -22.492188 6.023438 -19.859375 5.015625 -16.734375 C 4.015625 -13.617188 3.515625 -10.488281 3.515625 -7.34375 Z M 14.984375 -30.375 C 14.984375 -31.101562 15.097656 -31.734375 15.328125 -32.265625 C 15.566406 -32.804688 15.785156 -33.414062 15.984375 -34.09375 L 18.09375 -45.453125 C 18.300781 -46.191406 18.554688 -47.296875 18.859375 -48.765625 C 19.160156 -50.242188 19.578125 -51.648438 20.109375 -52.984375 C 20.648438 -54.328125 21.320312 -55.066406 22.125 -55.203125 C 22.257812 -55.203125 22.359375 -55.21875 22.421875 -55.25 C 22.492188 -55.289062 22.5625 -55.3125 22.625 -55.3125 C 23.5625 -55.3125 24.097656 -54.789062 24.234375 -53.75 C 24.367188 -52.707031 24.285156 -51.445312 23.984375 -49.96875 C 23.679688 -48.5 23.3125 -47.09375 22.875 -45.75 C 22.4375 -44.414062 22.148438 -43.445312 22.015625 -42.84375 C 20.410156 -37.40625 19.375 -31.835938 18.90625 -26.140625 C 18.4375 -20.441406 18.25 -14.707031 18.34375 -8.9375 C 18.445312 -3.175781 18.535156 2.515625 18.609375 8.140625 C 18.671875 10.285156 18.851562 12.007812 19.15625 13.3125 C 19.457031 14.625 19.570312 15.546875 19.5 16.078125 C 19.4375 16.617188 18.800781 16.890625 17.59375 16.890625 C 16.863281 16.890625 16.28125 16.066406 15.84375 14.421875 C 15.40625 12.785156 15.082031 10.640625 14.875 7.984375 C 14.675781 5.335938 14.578125 2.507812 14.578125 -0.5 C 14.578125 -3.519531 14.609375 -6.46875 14.671875 -9.34375 C 14.742188 -12.226562 14.8125 -14.707031 14.875 -16.78125 C 14.945312 -18.863281 14.984375 -20.242188 14.984375 -20.921875 C 14.710938 -20.648438 14.539062 -20.476562 14.46875 -20.40625 C 14.40625 -20.34375 14.304688 -20.078125 14.171875 -19.609375 L 10.65625 -11.0625 C 10.1875 -10.050781 9.648438 -8.910156 9.046875 -7.640625 C 8.441406 -6.367188 7.6875 -5.265625 6.78125 -4.328125 C 5.882812 -3.390625 4.796875 -2.921875 3.515625 -2.921875 C 2.109375 -2.921875 1.15625 -3.585938 0.65625 -4.921875 C 0.15625 -6.265625 0.00390625 -7.992188 0.203125 -10.109375 C 0.398438 -12.222656 0.882812 -14.453125 1.65625 -16.796875 C 2.425781 -19.140625 3.394531 -21.367188 4.5625 -23.484375 C 5.738281 -25.597656 7.046875 -27.320312 8.484375 -28.65625 C 9.929688 -30 11.425781 -30.671875 12.96875 -30.671875 C 13.507812 -30.671875 13.796875 -30.617188 13.828125 -30.515625 C 13.859375 -30.421875 14.242188 -30.375 14.984375 -30.375 Z M 14.984375 -30.375 "/></g></g></g><g fill="#fffef9" fill-opacity="1"><g transform="translate(182.494928, 157.403292)"><g><path d="M -0.609375 -8.34375 L 0 -19.703125 C 0.0625 -20.441406 0.125 -21.332031 0.1875 -22.375 C 0.257812 -23.414062 0.332031 -24.304688 0.40625 -25.046875 C 0.539062 -28.390625 0.957031 -31.703125 1.65625 -34.984375 C 2.363281 -38.273438 3.117188 -41.53125 3.921875 -44.75 C 4.390625 -46.09375 4.757812 -46.976562 5.03125 -47.40625 C 5.300781 -47.84375 5.671875 -48.0625 6.140625 -48.0625 C 6.335938 -48.0625 6.566406 -48.046875 6.828125 -48.015625 C 7.097656 -47.984375 7.40625 -47.9375 7.75 -47.875 C 8.082031 -46.332031 8.015625 -44.503906 7.546875 -42.390625 C 7.078125 -40.273438 6.707031 -38.347656 6.4375 -36.609375 C 5.695312 -31.984375 5.09375 -26.882812 4.625 -21.3125 C 4.15625 -15.75 3.921875 -10.457031 3.921875 -5.4375 L 4.21875 5.828125 L 5.03125 3.921875 C 5.96875 1.242188 6.753906 -1.015625 7.390625 -2.859375 C 8.023438 -4.703125 8.757812 -6.53125 9.59375 -8.34375 C 10.4375 -10.15625 11.5625 -12.367188 12.96875 -14.984375 C 13.707031 -16.328125 14.425781 -17.46875 15.125 -18.40625 C 15.832031 -19.34375 16.925781 -19.8125 18.40625 -19.8125 C 19.144531 -19.8125 19.664062 -19.273438 19.96875 -18.203125 C 20.269531 -17.128906 20.453125 -15.953125 20.515625 -14.671875 C 20.578125 -13.398438 20.609375 -12.460938 20.609375 -11.859375 C 20.609375 -9.984375 20.660156 -8.390625 20.765625 -7.078125 C 20.867188 -5.773438 21.253906 -4.488281 21.921875 -3.21875 C 23.460938 -3.550781 24.769531 -4.535156 25.84375 -6.171875 C 26.914062 -7.816406 27.890625 -9.242188 28.765625 -10.453125 C 29.234375 -11.191406 29.664062 -11.929688 30.0625 -12.671875 C 30.46875 -13.410156 30.875 -14.179688 31.28125 -14.984375 C 31.882812 -16.054688 32.367188 -16.789062 32.734375 -17.1875 C 33.097656 -17.59375 33.484375 -17.796875 33.890625 -17.796875 C 34.085938 -17.796875 34.457031 -17.726562 35 -17.59375 C 35.332031 -16.382812 35.265625 -15.410156 34.796875 -14.671875 C 34.328125 -13.941406 33.820312 -13.070312 33.28125 -12.0625 C 32.8125 -11.195312 32.175781 -10.078125 31.375 -8.703125 C 30.570312 -7.328125 29.664062 -5.984375 28.65625 -4.671875 C 27.65625 -3.367188 26.582031 -2.265625 25.4375 -1.359375 C 24.300781 -0.453125 23.128906 0 21.921875 0 C 19.710938 0 18.269531 -1.976562 17.59375 -5.9375 C 17.394531 -7.070312 17.257812 -8.59375 17.1875 -10.5 C 17.125 -12.414062 17.09375 -14.078125 17.09375 -15.484375 C 16.625 -15.148438 16.050781 -14.378906 15.375 -13.171875 C 14.707031 -11.960938 14.039062 -10.601562 13.375 -9.09375 C 12.707031 -7.59375 12.085938 -6.132812 11.515625 -4.71875 C 10.941406 -3.3125 10.488281 -2.242188 10.15625 -1.515625 C 9.351562 0.566406 8.695312 2.644531 8.1875 4.71875 C 7.6875 6.800781 7.132812 8.78125 6.53125 10.65625 C 6.195312 11.726562 5.8125 12.414062 5.375 12.71875 C 4.9375 13.019531 4.25 13.171875 3.3125 13.171875 C 2.582031 13.171875 1.976562 12.535156 1.5 11.265625 C 1.03125 9.992188 0.644531 8.398438 0.34375 6.484375 C 0.0507812 4.578125 -0.160156 2.597656 -0.296875 0.546875 C -0.429688 -1.492188 -0.515625 -3.332031 -0.546875 -4.96875 C -0.585938 -6.613281 -0.609375 -7.738281 -0.609375 -8.34375 Z M -0.609375 -8.34375 "/></g></g></g><g fill="#fffef9" fill-opacity="1"><g transform="translate(213.163326, 157.403292)"><g><path d="M 2.921875 40.328125 C 4.859375 40.328125 6.597656 39.753906 8.140625 38.609375 C 9.679688 37.472656 11.039062 36.097656 12.21875 34.484375 C 13.394531 32.878906 14.382812 31.375 15.1875 29.96875 C 15.925781 28.5625 16.742188 26.550781 17.640625 23.9375 C 18.546875 21.320312 19.398438 18.488281 20.203125 15.4375 C 21.015625 12.382812 21.703125 9.5 22.265625 6.78125 C 22.835938 4.070312 23.191406 1.945312 23.328125 0.40625 C 22.523438 0.875 21.789062 1.375 21.125 1.90625 L 11.265625 10.65625 C 10.992188 10.925781 10.722656 11.242188 10.453125 11.609375 C 10.191406 11.984375 9.859375 12.335938 9.453125 12.671875 C 7.847656 14.273438 6.40625 15.878906 5.125 17.484375 C 3.851562 19.097656 2.582031 20.878906 1.3125 22.828125 C 0.707031 23.703125 0.0703125 24.804688 -0.59375 26.140625 C -1.269531 27.484375 -1.828125 28.910156 -2.265625 30.421875 C -2.703125 31.929688 -2.867188 33.421875 -2.765625 34.890625 C -2.660156 36.367188 -2.109375 37.644531 -1.109375 38.71875 C -0.234375 39.789062 1.109375 40.328125 2.921875 40.328125 Z M 5.234375 -8.84375 C 6.234375 -9.382812 7.40625 -10.441406 8.75 -12.015625 C 10.09375 -13.585938 11.5 -15.460938 12.96875 -17.640625 C 14.445312 -19.828125 15.890625 -22.078125 17.296875 -24.390625 C 18.703125 -26.703125 19.988281 -28.84375 21.15625 -30.8125 C 22.332031 -32.789062 23.257812 -34.382812 23.9375 -35.59375 C 24.738281 -36.9375 25.289062 -37.828125 25.59375 -38.265625 C 25.894531 -38.703125 26.582031 -38.921875 27.65625 -38.921875 C 28.1875 -38.921875 28.585938 -38.535156 28.859375 -37.765625 C 29.128906 -36.992188 29.332031 -36.050781 29.46875 -34.9375 C 29.601562 -33.832031 29.671875 -32.773438 29.671875 -31.765625 C 29.671875 -30.765625 29.671875 -30 29.671875 -29.46875 L 29.671875 -21.71875 C 29.671875 -20.039062 29.582031 -18.265625 29.40625 -16.390625 C 29.238281 -14.515625 29.085938 -12.769531 28.953125 -11.15625 C 28.828125 -9.550781 28.765625 -8.28125 28.765625 -7.34375 L 43.140625 -15.6875 C 43.472656 -15.882812 44.175781 -16.351562 45.25 -17.09375 C 46.320312 -17.832031 47.226562 -18.203125 47.96875 -18.203125 C 48.570312 -18.203125 48.875 -17.832031 48.875 -17.09375 C 48.875 -16.625 48.320312 -15.988281 47.21875 -15.1875 C 46.113281 -14.382812 44.9375 -13.644531 43.6875 -12.96875 C 42.445312 -12.300781 41.628906 -11.832031 41.234375 -11.5625 C 39.148438 -10.425781 37.085938 -9.203125 35.046875 -7.890625 C 33.003906 -6.585938 31.007812 -5.265625 29.0625 -3.921875 C 28.59375 -3.585938 28.34375 -3.300781 28.3125 -3.0625 C 28.28125 -2.832031 28.195312 -2.347656 28.0625 -1.609375 C 27.59375 1.671875 26.921875 5.390625 26.046875 9.546875 C 25.171875 13.703125 24.097656 17.757812 22.828125 21.71875 C 21.554688 25.675781 20.082031 28.992188 18.40625 31.671875 C 17.46875 33.484375 16.207031 35.273438 14.625 37.046875 C 13.050781 38.828125 11.289062 40.300781 9.34375 41.46875 C 7.40625 42.644531 5.332031 43.234375 3.125 43.234375 C 0.632812 43.234375 -1.441406 42.394531 -3.109375 40.71875 C -4.785156 39.050781 -5.625 36.707031 -5.625 33.6875 C -5.625 31.476562 -5.054688 29.097656 -3.921875 26.546875 C -2.785156 24.003906 -1.265625 21.40625 0.640625 18.75 C 2.554688 16.101562 4.617188 13.570312 6.828125 11.15625 C 9.046875 8.75 11.257812 6.554688 13.46875 4.578125 C 15.6875 2.597656 17.664062 0.972656 19.40625 -0.296875 C 19.738281 -0.628906 20.039062 -0.878906 20.3125 -1.046875 C 20.582031 -1.222656 20.914062 -1.441406 21.3125 -1.703125 C 22.257812 -2.515625 22.945312 -3.070312 23.375 -3.375 C 23.8125 -3.675781 24.066406 -4.257812 24.140625 -5.125 C 24.535156 -8.539062 24.898438 -11.691406 25.234375 -14.578125 C 25.578125 -17.460938 25.832031 -20.429688 26 -23.484375 C 26.164062 -26.535156 26.25 -29.96875 26.25 -33.78125 C 26.039062 -33.65625 25.484375 -32.867188 24.578125 -31.421875 C 23.679688 -29.984375 22.660156 -28.304688 21.515625 -26.390625 C 20.378906 -24.484375 19.304688 -22.707031 18.296875 -21.0625 C 17.296875 -19.425781 16.59375 -18.304688 16.1875 -17.703125 C 15.1875 -16.085938 13.960938 -14.191406 12.515625 -12.015625 C 11.078125 -9.835938 9.6875 -8.113281 8.34375 -6.84375 C 7.070312 -5.695312 5.898438 -5.125 4.828125 -5.125 C 3.753906 -5.125 2.847656 -5.644531 2.109375 -6.6875 C 1.367188 -7.726562 1 -9.117188 1 -10.859375 C 1 -11.929688 1.132812 -13.269531 1.40625 -14.875 C 1.675781 -16.488281 2.078125 -18.082031 2.609375 -19.65625 C 3.148438 -21.226562 3.769531 -22.550781 4.46875 -23.625 C 5.175781 -24.695312 5.929688 -25.234375 6.734375 -25.234375 C 7.878906 -25.234375 8.453125 -24.832031 8.453125 -24.03125 C 8.453125 -23.226562 8.179688 -22.101562 7.640625 -20.65625 C 7.109375 -19.21875 6.570312 -17.492188 6.03125 -15.484375 C 5.5 -13.472656 5.234375 -11.257812 5.234375 -8.84375 Z M 5.234375 -8.84375 "/></g></g></g><g fill="#fffef9" fill-opacity="1"><g transform="translate(258.411771, 157.403292)"><g><path d="M 0 -10.15625 C 0 -11.5625 0.332031 -13.300781 1 -15.375 C 1.675781 -17.457031 2.613281 -19.519531 3.8125 -21.5625 C 5.019531 -23.613281 6.410156 -25.304688 7.984375 -26.640625 C 9.566406 -27.984375 11.226562 -28.65625 12.96875 -28.65625 C 14.582031 -28.65625 15.890625 -28.1875 16.890625 -27.25 C 17.898438 -26.3125 18.503906 -25.351562 18.703125 -24.375 C 18.898438 -23.40625 18.566406 -22.921875 17.703125 -22.921875 C 17.023438 -22.921875 16.332031 -23.304688 15.625 -24.078125 C 14.925781 -24.847656 14.109375 -25.234375 13.171875 -25.234375 C 12.429688 -25.234375 11.539062 -24.796875 10.5 -23.921875 C 9.46875 -23.054688 8.210938 -21.351562 6.734375 -18.8125 C 6.066406 -17.738281 5.445312 -16.34375 4.875 -14.625 C 4.300781 -12.914062 4.015625 -11.222656 4.015625 -9.546875 C 4.148438 -9.679688 4.203125 -9.734375 4.171875 -9.703125 C 4.140625 -9.671875 4.257812 -9.789062 4.53125 -10.0625 L 5.328125 -11.265625 C 5.867188 -12.066406 6.488281 -13.101562 7.1875 -14.375 C 7.894531 -15.65625 8.613281 -16.945312 9.34375 -18.25 C 10.082031 -19.5625 10.753906 -20.664062 11.359375 -21.5625 C 11.960938 -22.46875 12.429688 -22.921875 12.765625 -22.921875 C 13.972656 -22.921875 14.675781 -22.484375 14.875 -21.609375 C 15.082031 -20.742188 15.164062 -19.675781 15.125 -18.40625 C 15.09375 -17.132812 15.210938 -15.859375 15.484375 -14.578125 C 15.890625 -12.765625 16.507812 -11.441406 17.34375 -10.609375 C 18.1875 -9.773438 19.144531 -9.359375 20.21875 -9.359375 C 22.09375 -9.359375 24.171875 -10.492188 26.453125 -12.765625 C 27.390625 -13.640625 28.054688 -14.359375 28.453125 -14.921875 C 28.859375 -15.492188 29.394531 -16.148438 30.0625 -16.890625 C 30.53125 -17.566406 31.132812 -17.90625 31.875 -17.90625 C 32.613281 -17.90625 32.929688 -17.28125 32.828125 -16.03125 C 32.734375 -14.789062 31.410156 -12.929688 28.859375 -10.453125 L 25.84375 -8.046875 C 23.894531 -6.703125 22.019531 -6.03125 20.21875 -6.03125 C 18.539062 -6.03125 17.082031 -6.53125 15.84375 -7.53125 C 14.601562 -8.539062 13.644531 -9.78125 12.96875 -11.25 C 12.300781 -12.726562 11.96875 -14.175781 11.96875 -15.59375 C 11.5 -15.25 10.960938 -14.507812 10.359375 -13.375 C 9.753906 -12.238281 9.097656 -11.015625 8.390625 -9.703125 C 7.691406 -8.398438 6.972656 -7.257812 6.234375 -6.28125 C 5.492188 -5.3125 4.753906 -4.828125 4.015625 -4.828125 C 2.140625 -4.828125 1 -5.257812 0.59375 -6.125 C 0.195312 -7 0 -8.34375 0 -10.15625 Z M 0 -10.15625 "/></g></g></g></svg>